<mxfile host="app.diagrams.net" modified="2022-11-29T13:10:28.147Z" agent="5.0 (Windows NT 10.0; Win64; x64) AppleWebKit/537.36 (KHTML, like Gecko) Chrome/107.0.0.0 Safari/537.36" version="20.6.0" etag="YusJDKTqXV0ACOMg61rT" type="github">
  <diagram id="aWMNphV9PsfLDU6HyrD3" name="Страница 1">
    <mxGraphModel dx="1038" dy="531" grid="1" gridSize="10" guides="1" tooltips="1" connect="1" arrows="1" fold="1" page="1" pageScale="1" pageWidth="827" pageHeight="1169" math="0" shadow="0">
      <root>
        <mxCell id="0" />
        <mxCell id="1" parent="0" />
        <mxCell id="EYdVK10S_5ueyXmm0dIz-1" value="" style="rounded=1;whiteSpace=wrap;html=1;fillColor=#f5f5f5;gradientColor=#b3b3b3;strokeColor=#666666;" vertex="1" parent="1">
          <mxGeometry x="130" y="10" width="670" height="60" as="geometry" />
        </mxCell>
        <mxCell id="EYdVK10S_5ueyXmm0dIz-2" value="LOGO" style="ellipse;whiteSpace=wrap;html=1;fillColor=#f5f5f5;gradientColor=#b3b3b3;strokeColor=#666666;" vertex="1" parent="1">
          <mxGeometry x="30" y="5" width="80" height="70" as="geometry" />
        </mxCell>
        <mxCell id="EYdVK10S_5ueyXmm0dIz-14" value="&lt;span style=&quot;font-size: 15px; background-color: initial;&quot;&gt;главная&lt;/span&gt;" style="rounded=0;whiteSpace=wrap;html=1;fontSize=30;align=center;" vertex="1" parent="1">
          <mxGeometry x="140" y="25" width="110" height="30" as="geometry" />
        </mxCell>
        <mxCell id="EYdVK10S_5ueyXmm0dIz-15" value="&lt;pre style=&quot;font-size: 15px;&quot;&gt;коммерческие&lt;/pre&gt;" style="rounded=0;whiteSpace=wrap;html=1;fontSize=30;" vertex="1" parent="1">
          <mxGeometry x="250" y="25" width="110" height="30" as="geometry" />
        </mxCell>
        <mxCell id="EYdVK10S_5ueyXmm0dIz-16" value="&lt;pre style=&quot;font-size: 15px;&quot;&gt;жилые&lt;/pre&gt;" style="rounded=0;whiteSpace=wrap;html=1;fontSize=30;" vertex="1" parent="1">
          <mxGeometry x="360" y="25" width="110" height="30" as="geometry" />
        </mxCell>
        <mxCell id="EYdVK10S_5ueyXmm0dIz-17" value="&lt;pre style=&quot;font-size: 15px;&quot;&gt;до и после&lt;/pre&gt;" style="rounded=0;whiteSpace=wrap;html=1;fontSize=30;" vertex="1" parent="1">
          <mxGeometry x="470" y="25" width="110" height="30" as="geometry" />
        </mxCell>
        <mxCell id="EYdVK10S_5ueyXmm0dIz-18" value="&lt;pre style=&quot;font-size: 15px;&quot;&gt;блог&lt;/pre&gt;" style="rounded=0;whiteSpace=wrap;html=1;fontSize=30;" vertex="1" parent="1">
          <mxGeometry x="570" y="25" width="110" height="30" as="geometry" />
        </mxCell>
        <mxCell id="EYdVK10S_5ueyXmm0dIz-19" value="&lt;pre style=&quot;font-size: 15px;&quot;&gt;контакты&lt;/pre&gt;" style="rounded=0;whiteSpace=wrap;html=1;fontSize=30;" vertex="1" parent="1">
          <mxGeometry x="680" y="25" width="110" height="30" as="geometry" />
        </mxCell>
        <mxCell id="EYdVK10S_5ueyXmm0dIz-24" value="" style="shape=image;verticalLabelPosition=bottom;labelBackgroundColor=default;verticalAlign=top;aspect=fixed;imageAspect=0;image=data:image/webp,UklGRlQJAgBXRUJQVlA4IEgJAgCwHgedASqgBSYCPlEijkWjoiMlpdKNGLAKCWdtVu9bb4tWzn1V3TNd+hS9efW83ZBL0JPRf916Bn+W9Wfwze9KBkk6TK5cR3qHlj80/tXat8ES6t7p/u/PC84fmRz2f+z6T09by2fZfnAZmNtrvi6m9X8wPHM4Z/B/JnxO/7fM/3//y+b30b/5/8x+VXzK9RH9c/3XsO/sT/yf8V2IPNF/TP9d+5Hulf+n9wPfR/VP99/1vcM/pH+C/8vtb+t3/iv/N7EX7U+sx/6P3S+I7+v/9r93fah//+eQ+SX5v/N/8j/Ofkb6Z+bT5J/Df53/sf5H5hf136v8o3un99/8P9x6mf0H8t/zP8X/pf/Z/n/3p+6H9h/3v89/sP289TflH/qf4z/W/tX+5H2F/nH9W/2P99/d//Mfvf9l34n/O/2P+28anf/95/5v9n/nPcO9s/sn/F/xf+r/+X+X+Hr8D/2/6/1c/dv9L/6P9R8AP9V/u//a/x3t1/2//n5D343/ofuT8Av9N/xn/g/1n+y/bv6gv9L/4/7j/ffuf7wv2X/df+//Y/7f5EP6H/ff+5/lP9R+3f/////34f/3/ofDj96v///y/hx/b7/8ICdEA2cvTCu8YOejM3WDM4E1CX7t9GxXVUdUgwN8QjPSaOAUJW7DxpQBq3Yl3e+0hs01BnsAnGX2pxu3WiBSmGq3+6tv8wJ2GKVxQEvZnNs6e0ghYb220h9Sl1mooc63NI8ItRpXtmY0tW5aHiDeSmS/NqYRUFkuYtxD6QRuaPmUu5QhZkzqEXNygCOLyr3MFqD2aWoySy1cZrU07GdrXSeR2rGQMt0vFKjqbH99xTmyaTp/JSN9vQMvuyvLZRr4WTCtJoHa52ctLrufj00D37mM+M4gwV8DpssOoUf30clNYEJMqSKrWzA251jH7LyxK2aR9VEPo/SudnaPHQfeHOtZ+o2fxAQKERVe0Jyep2226oQrD1DeoC2hEZg8H1LHJWJDPuQ+RReSfLLBD0aPm+ZrwvxGjxKBFz7MTjysrz8FIxnN6kpNA1whuNjaTXfqWUPjuEOF/FboMDzvVj0RElDe94qx9fCOQEQhwd4U2cLX9LKx/BvJG7V9VES+knZo+EiRAnyp23k78Wp7rjXQBSbfeMQ3OWaxPRWOBKWMvMb/xy7r7IhTONrINct3zFnhce//03HENPROpkDZ+GROgsZngqPtx6AWDfI8Xgaxuo6cMFvRNXX+4chZp17Q9LBevM18VUuaeWtbPJySR7bgfRh1rYyn//O1/11cWwcbiySly+kozbWgmOnqQkDpB2PYuEHGL152Ni8mucar/reFEiewGcrjVZy7orTkDZRedgdaqUt4SZ8bp/2Pf933iOs17LyzGwoYMwojF/D3uX3OFCniOOvAoknkbL156+0Di83vuSfIloTIfOs6oDNMtPYjsuk7vQCBa3qwVvYIyUc7BMbjHlHnXMaPkarkT6D6tVLrMtMph638ey6TKniqxWxdsML+vkV37vZRg/y+li+Q7NtpWahg+73V9fh8TExifBnRtxrTFGRWv4YDwDsPeGgpQOos08IyqmUQbXlN/E+LLzGCAwxt3aGyEaRy0j+zIl2B8jrueUckoKW9Z+3Lmeoj4+QeJi43l+GMPTm7JGhpM+77y3jKTKOtwk5u7ejM5Rvt4vjTsgV6IIuj/+sh8b//7prjOe+VpuZlFTO/+a5hJNVEUhmIsCJBqOixnQpNulhlUqshnDTGIp7Cstv1XVblM5s4/Ptpwjxv41gexQ2D+geNPwKappuCTXNFK/eGpFpHNapjlSCQ761LI37NMw3MgxWcP81T/ptsWLLeiDF2A+/8JOZiYtRlw1YuX3fawVCMAaobN86HNIFkeDhoi/Nki1D2cJcYVzUAyymMh92geultV+1yB4tOxVelYdthMVJb8wkkiOLdhHrIKltR/IXVXyA4mPtXtygTUX0fhqwMwfuLMZRKld5ey9d/qhnUGPoL+D03mI2aSa0HVtYwaLKDNUauZgRGSe79BCJTYKtaWlSJaUhG11g2ZErzyXMas/cxsJO5bvj7kjjVhvUhAr7ZwAIsj6xVbKJUQmyMafCeSGYCFxTjC/lQ4KPGf9TCBYsDWXznSFODFnUFxBrvthClkctHvVyPUSuGQOKNfp+yV24LOPPCMzW/xLWylGYRX050I978TR+EC+ROOW2WM0wWHi9tk0M9r9zmTWVWWQiIG/EIdf/3fkJqf95fvRgNvmypxYZ/9/tz7daEr9s98bwvpsEA4jFWpwonPQ4Y1ufBy516C9Sl7BEJ41U0yMBEAw/v2rKgSneIdgL8/mk1lfCFQ8XyFe3SJsBtFB/yRKWWYiOFNwINKJa+4UIf3p1MHQk1b0MY5c8svmBCLp2RPXUhxnHGEl4IRLkp8fFpLmtD9G9f9+mY70L/tIH/HnyP6jMO4Lfx6z1FtNLRG6NzxgFvg28KEsunpbYo/5NVaiJ2sugwofkBjtLdfOyHDTxnQnqNX+hVruEPHBYNRZKJNQoTvTlxLySns3Lz58hmuRQBCzdJpflzcy1QFRhOYTjuJToU7Ea1BmSm0P6LSPxwRP55pp/VoSgsRWDSZqyMsKl8d+NOqqBaiYRFGmkrm15MZPdCuEmGX3tp3pJj4Yc21Rjuv53r++pFWMgXtD84bP4iL2QUQbm/LLYaaTbLv1REPRh0Hc2z27o1L2ASKwDY2X/4OGG38vXoqY5c+DqnZX40M/IBX5qBgwvkYF7Pf4Nh73o83/lML3hc2wvuqpTjM2iTrAPgCC1e4hLCadj8K5S2qzlsbYTnVhXadDCMlvDIheQC09LrUQLuXtjDpH4DLFooRKVsZdq+NfefWmJ2WxyE1KnlxaaZhAJAHb/AZRc3AtAx1GP+YBYVK3JvFzrX8gOhyh6hM/Q0jB1zK9Y7Vb4QBfr/nZvsK8pV87yrUlXFd6M+TpNg7UxANLguLXzPt4ED26V6b9M5Lx/THc/GX+DDhtgBwSoBvWcjNAqgkMK+q2iZnFIsdeIMh+9yueFqOl4pdlftQaHzzh36Q1WPEVjCzeGj0AIgXIlwVvpRhlG2E+6xvVuAemoFOxLIPk8sI8x6Q23mQf60Ab2ox42fRTRWbgzWU9/yv/irNznuQCCWjtbIc8U3kcUgCm/2laLHvoQFUvBz4jWCKn/6De/4p99pX/gf+tArZM09+LA2xaNiLqdL+S1IGQSp2pl+h61BnKLaKCKW2HvWmrC/9uljfq+TnOUF/ZG3494AgwNALgD3A2vblSCkK4Git+Sn4PpixC09h7OTImaj/OqQJLyD9sNa+C5RhMSTegc/ALcphyrjdc/KsxzK0nSyRcEz0xX+AI9ii1kCjGYVDQ/cHNKxYnh2kitEhztnGegJQKFVqDXaJCPit1eoNdjMp6KsSkxMg3VG/CBYXV1N4ut7Idu2PPO/+UY5cGKxXWu4Drqx1jYtKZf4gu52nNaJq3zxtJ2UR327tVEVoagP3lJlHx7etZnNkzoONXDVOMRbvdMu1Nw09KdpnJL2CW3yLg7PUNwhT26A4rHSA982Qwlz2YBpvr9ruDCI4uYyVDgWCUGIAZXFVNGfUqu+6uGzN3HEs0WN+Lglb76HGs6d+WHPq0ZwUmQr9zJd0DA4nqn4H4wqcN0uy2b6N26g4JsgSnIuI6EkTDNGAn2tTe2z9h8iFq6NeLUz4TIA865hIp0Ks7gPloDJPiNdhAJi+RiX6LM8s/1y0CfFil7bjE6Oykq5GENPJgKg7ifzeh1/oTYMjoN1/QyZNd24OzYie1SGsglLxp75R7IYTpSfVaLVP/LJh0RmIlcOv+f6PpnSspn+08f+Z8uiLQOwy3RnFFNI2+h/visjuVn1oqJfFoyUt5HSiH2P2ZX2ZFUrMRyCfKWAn6KSc/PT9aSmV4XQcXVAyMxtuIi7E6b4Kc3aT7UGhVe1cuNSvGIioc33vdVI6VD7qAIpQcNFHDBlwVXWB4ecCRVvIzzASp360dlIWb1I6nek06z/gPOXB1ij0ju1n2LOw7q8Q/3RsBNZpVnZ/BudCyRdnLg+0yVfwUSsoaU6r5Ui1h8rM5NaokNKY164LKDaejjwvrPL+ZX4k3i6e8olo2vDxHjSioqTjmon5rKAOxC52isIwEySBwuYFCZL+gXe3KFXNf8d6hkm/P2gbRSdPEJd8zITlO6a5CLcoQYskoBed12ZvyhLth70q+JuE5g6seVpzWso4h1ghb64x0bon+SpLFbwu138Jd+IdO+QXlon1jVAJpuLQKU9g2cgoliSD8zVdBZv/xTVoXx98S275INe0new6CwMqNuCm2/3HKV4WWHrix8fdP5iV93FuW7qLdnIA1ATYRgU+YYDyq8fAmvL9Fitf2zr23d20KxEIs2PZO7oD72uBiwV/pmzR17e5XOcfc6BDm9WA36HonyYaZKma/FvigOn5RK3e93ZoQ1ZJLHSwgrqBoQe8iQDrJkLuJbgOfRk9ICcUkLsM31cjZnLeqdNpEJc0cd8XgcbMYvPRm24Hp36M9YmRTCPd1+Kk3XIz6z/mtKPKyh2GTLQzgEQsi11mPPDHWFRVkEMgoyqf6WhGZ6LEaJmmKW97aMd8JhsScJcdSAvkMX/NJyL62JhDkwFwZp3gCXYDODohB98qawCoVdqlKg3TkoHbwMdwyyycN/i9O5uk5LGnNEcAUTiFtipdnMKUlnOTYunwTYQfRGFjnYCVpF96O4HJA7K/69S9yXfY4GzsxWa79HH77iHjP4mJjuKlMueh4APi6BRvvvg7x0UYfmgX64Sfr3ZmbIsbcobn+IvsDjIJVQYunkZIber3AXDhhDM2UELYTkU6CS69dMgcPxU1zakbyom8wB2DgPtqZ333MajBUPMyekS3HGgk0pzH1M5Nqn+vP/iRQr8XZjVUTgBW6vI72ujEL1CSqww+jqlArb3JuOnMgMPqcpQ5SP1vDcSMYqLnFSSVvr1aF0MwQp4JfRfaZeSGkZOL0fQ5L7P8bS2eA+ld0/8dwwpMNBkm5KD/0/dGEOf8ZLi7Z0HbDNwrkRObxBgcKggRsfKphpz/eA5fdUxlBMwaA8sv8BoAH4VQtPrgbFMmFiRkkwZSl6suN66LoVCKftGFOasakmLjlnBoJcmquBcTCpoBjpStE2zNK4u8FCDz+vK6WRN4QuSaNCtS1ZrVbTGGE938zCvtlAz+lkSWV+NXwJf/ZtULnnm1Pg8vCLnQDzoecHgTcQmZJGBxeRL/UIEighFH53ssLAJNhpUwDxx6BEBTNpEw05kXVrqSD02haE7RAjAssL+pRtkoAgmHjqKN+TrkBGj/8jGmR8Ig1QeRprX/ObU7K79fMdDkECjg8oQqoJKV73NWz1eg6cfIzZPpcR7OW3/hScwhxcqe24A/Ty9Lu+mbSzsCP4OsoVPZa4+Xzt6FuCY3vGcZD/lJVGcZDzcDyLReRD5hZKYL9v8sjLnKebSbfptasFCke063FrDtGQUDuIk/5GRGrzbXmSvpWYvZRWv+xX++DNe/ojr0TYyIRaL/0xTdwM65dWxpxmwoJrizqA/Gg5I6faKwxT4mmWtoGFn3X7Sq4Y/RRpcHxtIblU2W1X+ZgBpWyTC28sGadCtfF6l7M8oVI84sM8Fn7lxIxAHGuXw9vOU6jSeJXZr2YaJQ6JjpJt2voZanxtzoMUz8YxKfkf+5bWCr2uyDhfGFyAlv6PVmEm/nTHUK4PWuixHZrQf1CfXUVIA9751vU5g98KqKh9Xc47+AoBX5yHq9+Qf693qZjtDrsxt/+oCs4XSW3EvqVLjRPPQ8QJRsRnQ21xKXXg46ozRMNMFENHZLpYcVyGscoEFV82IP7lw/wSzhYFBBsCrE4I3JJkbgkScIXCVwrrcq7vmC8Ks2wqU5VgBAdf+g5i+aZeihTK1QP5v1hsi1JkbKuVfbtuf9f1CtTaR82xevDjvTwVsSNXw9Frq7/LmrT9GH//6XNzMNhErlu4+w3XMcOzH3r2CjRfKq+K/behG9uzOByaRwFXOCB1kg8dY82GrQ/mNXE3NIpylK/YesCYFEpQAZgaD+V8pb3zn8mnykS0jX4Gt73igRNYlC4TwtAW+DHC45RBHX9SPyvro0wwWY48+OfzWErKKpP+nBdMDTy6mD5dhmNHVEorVc3xfuCgHlxKfV65fvJ4rHvFjHrMnewMIoy8mqu5D8vcYT6K/Gaziwy+V/sXBvc98aZvYYAOS44M98z6WPenCOwau0UiQ/4JTCN3JeOIVg4MKHXexRF1wXGaT/J/ZBWn29x1JnYw8KdhGXmSjYzK8uBMbhnBxfBoI42ux4hyuqHdkEI2Dv8pvYtZ+WyrtT+2/uZsTKS3RDgWxn9o8vC1EIYF+d55fRoP67jhEi089iZ/4O8uPfnAmKQbGsnsN0QPMGqs38GvnvZQv06xufYrq++DyNdJ41tlNCzbjqZFkt6kmjhndHuBkUuv85IOrq8qFnsaqjb6asw9sCPoQcpBaHLNCtkM+moFLYoffuj5dEM9s3DiyRZ0FanNCVHVCn3RsP71PpYh7dFJJSRSyflnp5iHUJx6mc0n2VCBgIA628gYjb8op6jQDJOxcKFOjuXwIBPrsPZx2frWvwZO9SxYfUpAn8zoSvykREq1fugi3v04zp7kXwT2k1UUwanZSqKVyq7rXws27PfDY7/YzyLeiN5YdMDK1dt7eN1YweglNsjt42z2w5+fjZi425AK7QbdiOpLJyp2ny7Y3IYE64ZqBOa40o40E8R2UQQ/Spu+9jRRQU5J4qf3FgSTcx6O4Io5iOHs4/lhj1MNZACoPciEmrf4ys3slsHiSMSszKnBU/1nL+y3ThBjHO6fYhcKMAJIXGdRy7deVraNpyJmlid4I9k+zuBHfr1Uet7nf01jmhMdMrAlh7TSf9kXp35U1Ch7Ik5u6cMl4bRMUvodp/N8TlMlqeuzweccob/ITU0ToJWLJeVNdHmPed52DiKdtZNagOC+RZqlaZrCK5LXAp8Z+V7071AC2CCZh7aGbcGAB7u8bkexLIQDLALjR38tmjLfobCHjN6sjiOq8z7Cc+PU/ZikoK96IQ21L8HwvoypXQGExVrow8N/qPNSzVDxi9mWCFbHJ4z/4TbTua2skr/WXb4aL5t96kGenzknqYOhFhsXhupXiHte98LjRV+U7ONeBssI52Zb7B2Fmfh6c0BhSBI0B/aEjKk+cwi+iHFfFU9r6HiXXT3PGms8o2tkyws0eU4YAg98BdYCocgB2yWQCd+G9u6OuWoLpPhdJbTSLLww7CTsfc5omzgjx4MnwOOIjBLMwJLLsnjS6gbaSpnWJL0KA6uQtArkGO+wFBsJ8hOrRw7/kdrhRxO1sIBRyBDqtepZmYHcUYyV6V8YD3oFbfUT6aARakhrzUGC79xXMeOb3UovJVk6x13K5N/vroa5qcjM4MDi3w7Pq2v081yAZ6f8IFlfcES2SonDWk7/6gnYdHTvynqtHp692jJmbyfUofQrB9Z3DWqTZbnQvTHg/6Elga1teK4Uvj6fSwYvitcCoQEkXddi5aLh9UNELxLDVLppEcb50HqHLDKfl1yL7Qs1TyH1T+XslSmzqgdc2sOO+nLvWUo6n7t2i35/LtChQX2oc6tMtae1OkWZaOrRakV5rbDzCrXQEzfwahtKsT95aVlUr3EokdddKJZxjjwN+nQc4WovuLmKQdMTMxy1uI84hEed+UGftErwfOq8bpda2Rf7EfRPoNYKV7sJ1EBgLaSj/Ns2bmEZPgZQjskwHLEg6tCowe1NWH795JNThd+zk06zmgYtgIJmGeA+T/5fd+lTEdtfuVk2DZhLVbfKN+2l1tf5yi33ijjCgQ1cItnphcOh0xhuZANvv8gG8ZdxQbborthxc0JGFlXyX2ERA7trFpOJraAOL8fcRKZ/4zx7f47zajWYk8hArxbQaRydgajg/l4Dbg9hwUvFm2prGTpBfHZ4dvrkItEcE7lrJYKcws1bEE0lQls33UoHmgUKvA8TsU2pfmf+cKXDjkQ98Jd1B6H3sDYU6nbA+ukjo2jR/7paGZdc4IT6n9YAlrwpMFs2UrXN4B46FTjRE6JBS0msn/dFgWRss0OHinEmBYp/POMxQIhFSf9zQ/BH+69WiI2Db49ImaPR4h1GquS9ADLJynhC4fsfGeUffkDJ1kY7vAFRhfp9fkyEgCMMOEhmzqrpZIyU0S6uhQPYzLI6GGPUIOYj9rbWB4MbI/IqEyVavuNsgHBbN65eKE6/UR8UPGcBI0Qz1oSsI7nQ5v3SllB+n4iRko/dduJOQ67XsNzOu/TqlS9c+csTYRIiFFz85SVf9EWuHdADUVl4ViV3j1z+m667/whb20vNhj4f8lxiHrZQ6hScTuFAZYFHO0SDgb1K/nTKHNnAEPx6S4eTI3qG3dMkLt9oVe4T2l68KgY+WOOQmqFFQ2P+5DngRNmHMMbEqvAj9sckxo+oH5QFdaTMthBm26zasGxGkZZKvZbkdINOyx9B2NwhjPaJ9bNWJcsr/n0173fpFZ/rKJb7shVYGWEaljqS4+Vc+mCmXbW7sQHc5+StyyJOQcJPGB+mheCK6UH1RSx4yXk44A2yLyVVcSFzGayB11BwCK1BkU0Qw9swbiGJnsaXXpXNZm9aPS6uPYmCsfMIeoiZqodDbURT4IGA22VdrM4jLsBnPMvDxVo8WfAOXTtFZ9KYDn7DBSe3vsMGosOuwyl+MAs4THWQs6xZcFuLIAyIYG2a7JEjk2OFEfF5kBdtrOXf1O5F71eiXKnO5xkCAk92RBXDZCRq0w4CxduU8c8DTfkyCC+G1+58h+e6FIHZ73s+r9TTofm/iJ/GGTXpy/18JroFd9kQTAMiAxHbkTd12ONevIWclQnsMObk24gobLQOybgsgItxfyg5PJNduKPx+VQKQ/2ec8jZtgprX8pGScf+aviXFAqtv1nsXP142AV++pyoDgC5432ptMCi7xgoVW0scNme0Ak724NZe7h1sPFnAHjhjwnaxdPjXgv3w8lCaslh8kVC0iyG/N8TshwQbq0ymm1bVZivymefiyGIN8hqnh2K+e6UDqMcMCglgvbn+7EcS+ebtMMc6LdRRymqp8qP7oI1VLrb8wZLZ2w5KYmISJVIaW9Nx0Qr+qI0PLSIg+RRyo4D5gvhDzLp/Cg9Eea2Zse8/OxDgUH1ENteejgYrsO/nfb9H1QxGpMsn5wyvC5B1UHR+/s/uHhEDJc2oBkQqr/Al0klk/uCEv1OcRDSWUSCRMVXT1ClR+KiSI2WwzqF7gz3J7M90CI3muULMhwPYuNFGJih6qWuGBcbc9fiTKhGGoD2ggI/1oAM8GUAP0Onb3bZ28NaKw9QZLrmL1nKeWJOxvia7H20L1itoeza0NjAymcDh6W7qc880jhMz3hIgFi3mKJUK3BybxWZnUVPwmX1G1L9ZKOZXQrj04vN9NX5pvEQHHl7B5nLIqYmzsbK1H2m+DfnEVzDYmghEgyh0A2efvT0D63yqZVOZndBjlkTiLFwjE3e8gq9bUDeiEgp8We9vLt6Mix9iHU8fbbhf/k6kdqtHiYNr7Nlbc8NNwJbpOrAzi8b8WmipQUdu+NOQ7nRdOyPELFBe8Q+AmDtyDHUGJwAgprgUWPau4zSqZ5FI6PXkBbzgGh95u9QpNiPj2ADZ7T6TXtaIuDMbLhA1UziS+AtaetLECGM8f+bch61VsidrnsURLuCOXOfZiQwSVJ/pROZB5/qwMz/DtC/7yYvmSHkt/D23HAPtit4/m2ZRIExb49PfmFlS/6LAJTr7yhISm5yBSXb472NG9t+yWkkXfveVmjyRI43TwxDtc92tNv8xybfSs/R3bC0ppyLLRJRUVF7ulgWUOWJHZkIQgR7sSgKeMjbx5dpxwaZk/bHRoxZSIOcHG8B2exJsvP2b2GnIqgdEXUam7C42N+3ICZZTNsnMjlc8kbowSIsKP8IpdMu1AfUAmwn6J/0y3nsvGki7SbI7Vgca/sy+bSMZ6whi4Z0Uqy0N8VeKY4k9cA7dzHq2k+1aaYWk2U3fAncDrEE0WXYOtYbhHckbMCYFWd56u2HU9SZFwQr7erTu8gx4DFqT6JJ6K9AtAZh11JXagTiHA+LW2AFYODErbp3S5aP3PsxUz+oHK1H1NC7MVlVYZ5AGUcJDC+g/BqZOsYs15yN7IaV5i89G1Y9Wzel2ZvqFKwcDd+Uo07jf21Ne0PxLaqJaHEoBl8E7nshTlU6tRb2ULym9+XAtu6sA7LomWPvn6SU9jcrelbVHjG90FvLHItKQ+ACcdquv/ip1mL/l5K28bWuFT6BiSn0dRwm+5V+QKXObtqSwL2ZyJtBrlQjzaKoSSgOgcKtNTIGsrrZSYcNhB+klXhMFOoEWiCJ5zj8N/1WdSegpYf/jLcuTS9Qak0HxNLIW1p8x3ER7acwzJrOWEC/6tHMsc68zfafVtU9z+XuyCIQaYZDJovv4ylPtaPmDhQGz6PjwlG8t6xfPVvcfGtN7yO6hr8SZWaoyPVGQLqoF72AQjSTnLR8dwt6m3zw8yAkR5U9DwBfYCitGDbVt/eqKTPwMNRt4ctXnas77NrcmsmujsXGr9iBPaLuX3pw9SS+odHo+46MSK69ND7zysg31IkrAHjyM38YScT9LQ+Fk4UhapPK7n4EjKuLXdCSNEVxiscS6XRthhqSszoEkiDtZ+OdI79g8sE7gbTth3/mJN3Z/0oU4kd+jm5klMHciHlTCZr3v66xALYbyrolK2JWWTAYb9Dya9uj5S4D4Wh/4fiAwp5IPhoLy7n2VvMmwACGhppHhcY3SK+CtWic+3RlB5olR+QZPUV3VMOBj1/lBFxujbnHZQejID5iglPuREHluifztXF9CLyInJeEt2DhIJ6OwEEcmmh/daEtzM00Zcq/LZhQpnHi4xYRimgiuGzJUlaDtOjl2lqaJ3zxXaqESogvIvl/VBo+uXWZeQW+sCqrwijaG7rDTfVoyqNEl6Mw7Pf+MqGb2Uls3gWGoR2m7q0gZU7swYMaNttRE2TeD2vUmq68YWQDdUVajUxPjpE9L+LLK/uUeptoXpjubG2F39bDUtwfBSVDFogSz4HQE+q6Ub5nPCBGmeWiTNfYSyAxaHvKxeqW91JgfMYu802Fyo0QGBZ6l6zJMU4TO0MMi9JvnJi17yq3L9AyiONc2FeinotKl0OnURzIlYoFqDDbOwNybNMqJJiYcnYqB1oX2D7xP2EzjK5WRZBntI8c5D9IpKIE/GhDKtUl6GllU7lP0TI7yoyyzx7B9qpHlDKtm3ZjOJ00yFtyAjHVXj5O/FQrcfVAPtE93PA1C0yTzP/KvMmHLr4Hg34dB7Qaxe611PMWcLNec5JM2O93RkidVhhORozYoqzW6m0/urvuTnEL4v8oWNUmZQv8dA23nND5pUHDW8goxnYunu6Kfkwxx1nOOrIjsk9CIQ4OxIQl2cc24mvsCtmf/+R9ThDrjjfSnko0jB0IJ8Vq4ebmTILTceq5JMTYbMYZnSTgfAhFn1xv5p+OXk2yXVP45QbW6nXocca2Apg9Z5rekG/BnLELiVfRvCduGa1ou/N+RnxDvAcr70LcYJVWutUtk8lLk4NkSAMWuazBO8NMNblW/khfOctOtxvbJtES9lp1bTA+kxciqFvk0xzNUeVtm3R5zM9Q0bOm/zsniacCXphnfQsASj12ICz51LwJn3FLhcYLvdBGhGeTIu3QP0PbhHhD3FQpzfdZYJNBzLoqkbEBocTR7wHgYAV7h9+bFlm/PL+/YW18PXD9SH4tQQ8/Xuoi4T/u0aR7iinqq5Z6KGJ2O4gN87+kluEN/aofAN3qWfLl1WxJBZvlBBAI1Y5+jUKRyWus4bT/MTirPjsDzXEPZNcyva9yeM7CpCEkXrrnsR0FjjblYynU8lUccGRLU2mGxVRTxBufkZbvBUBmDqviSkcWOrr+EY52gHSp68r6h5gdon83WhHrHxedEqVE++kN/9BxDS/cAt/QHIyCuq78J4fIlHWPGR4/G0ueosLdQk7YGS/KPs8bjpOxlieu3xAB6RKIwZgHPlPYSVncE/yn0b48NTo65nKXgejLjwAr/Z1XWfe++O5cYG9gpG4cCw7/o4ompTy4XQD79LfKZHuFzZ9RX/Ero4bw5sGIhZPlWIsRA3QkoP6wE4FCFNsGK5iSxLrksnfCRjaVYbfSbDag4dYcsjM2up7E2Hucln7pTCk/6Bx4AYNnThQPztce360ApWBlXfERX+wfIDahVZTWAPmfxExCZZ8fMeYMPHmrKkVyMlK7s0NBXp99kJwXY7KssNO7mumpSUGpkmIUIVWzD0odcmY3fkCSweMh4tGAkwS0QM40OJCd84pwjB/CrAQyritYG3CXm0s9MpGZLUphrYXfEFqP3YrCpBEKQt3Hx2G2UpqZisfsOc4hllU3KXlGwOCrFoyAp7114u/5XQ8TQesJ7Onj8vbytXmww0jGRk2hImy3nVkO7v+kNU1PuoLpE96FB3r+AZPz2spjY1deTm2Y4AT6BFxLurrZSoIernF9+TRsa/G4rbe/N34sfQk3/+QsotdHFdL/xwjJPflO5IbRopP9W/YTACGujNJd2IQtJZ4JR73CfmtbZU1qcu+vBCaNm/FvD23FyBcoK8P80tKUv/PR5wOE7ry1sclqbDZcxA92u34XB+JyK0Qrdbj/NCdCF+h+HUHZtCvLEcJKOZDAPFri7/3yutqewTFMgorCi7mBQ9W8Vd71urbi2i/nJaOzFYnK87Kt9B6Iv51yCoz6JRWuDKqrPNBfcxbfZdsFyAbNSY9lFpJhf87f8tgiGPiIP8HGXMi5T+BA1a/6peG/n6VgFH3zgh0Ccz2CIchzJmZiRRE1BVihoPKoNSUFzCX79lrAf8lA4F69eNEtKUelOQsJzm7mX8g7XuDnNxNkdjcy/RXQ2b/wVmBZpVPH8FH6LDdVRdN6j7oxYnRqvXWRWi6D1LQRmS//krUb2y+z8e6aZ/EvOXa0fkwpcjh77LfDB8HyYmZ4t3a9iU0IhMvlmFdOVX2kYmiqS1AQEmvkwuh/dqTo9IvggGW4ywIJwsTR3T3eerDTD2haedmSjGeGSD3pIqXKrZD6l4zJwm5JIVlXutPxnVUV5duAaNW/CH/3vmTtPqlSaE5DzyenR/UlsuB0FGSPmihzc2PDKU3ZrLb0N/hQW5IrlIdIYp9a8dVgQi0bzN8ZYMX4YQWHjcke606Af0DRrjQtdmbUKjCuP5128uCwGHlVrfNNFABlFKSb7gs7g9VaqXSKV0SiyolgwZ12iB/fnsPnNCyPxiZ9TtQxLefUi/rJV6wJzcdFnWBAqg6H0FDsHODa02waRuQ1OE4wysWmmFfPEct5+Vuale+toNZefP5fnsaOZ0omf1QoR8yxTfUj6PSQVWsfBIzrtD+ZdKw7am5f1ZYtWGzsMir06ZvVsfiHZLuKbbqKe3ezvAnI7EKS2qAuN2ge+ZG88yiKhwWAK+uZqxjNXAkBXwmE2d5bThJCKD4CroFmvWzWVFtrq4R4b7R0mTq3zsinl/fbEFY+bFriANUmpEorDYoLTX7dtSfYiyFuPHO2kUV1oqoju4wa1lhuvDuYuQvZvXrgeThq/bwX59741XQFyUJeOrGB86jKQUkxA7cb8tElKow82xs8xkuP/+9utmqWEd+JsH7ySubG77Is/mpcOEFvOezZjPK4mX1v4LzOayvDyrhbtnchuzyrW+qQd2KeV7IFACdbknq1L4kFYywSpO8zTSXWfrYelcm3ZXY/LoG81gO9+SY4/ZwYp7eoAwslB+T0YQ7+i24xgUcU86bwBepA4m0By60tHgdvorXizx51y5ZMyhLXRXQiX5QKrXKORXGeMg42ho5VgmceP3qBHzUx0w3sqqWAq/TvRnnY4I7X80SRhwlAIChfyVE+i/tHsKEwT59EKuwsacOF3Y+ult3jryXaqIYZDr+fK78T0OTUv/fHDhoroHP82gI4VNFVM/D7/LngoInVLjOsv+UoMIVAWP9eDMKSiSRwmzf0Vu1R3URef6R++1bIZO1tdZ/jiPPsLjiroqJznObQ30N/Tvsvdi497VevLrd5aE75UD3bOlpObm0GP8Kj/7MGLL4AUj3fe/kHeu/mlT23wCKV740UFBHvkB3czjZMGULYNukOhKm94G6py++P8WHl1OiViGwRP2UDkLIXXnTLfraiShXt5OssUW0Jmpl40ZdsUx0EM9acf1kUATnsCugv0h2AX4UhHtQWG+yKt7YlY8hMtStfpuqtbVgwW3IjKOzA55waDya15aOg8RvWk3m+JfWutl+33MUU+G+LQwJ45avWZRHmuEN1BTBAkPM+uOfvwCXYJIoFLVgxmQSTtKG0xVQe1PRJrxiHqeSOE4lkf+Agpzk+WvbtHtPnGw4btmThrzFVAGu4I5NH1h0JnPiEmZhRrsrsCHjyQBcE4dtoYslBNQpgd46Q/tehOsYCvbUI5f6+PrUf7Ca/9la8CeYI++NyvPfqsTXr9+ifVlWdQH5CqJK6DCDkV2ogHG5ucegyp9hHFSixra5OhUGFjDLaUetAH88mOrAomUVE2sa06lbIGYMCNeGmRUOstnGb5vPFaTHYaqz63j/szGnvQydPHmcLsOmlXqYKxtyZm3JxD+WLQXJtv7lFV+lQ60gY/ICozIUhofJGrYbtD0Op/g3IioIgb/p0aB1gk4DAghFZlBqHOA+YjQSr7fJP2oicwG4u8F4ljkEK7AlsgVNleopQC1zhesWixibHlx496V+E4J7DLoaUSwzs7c7+ZbkUlC9ZgzmetTREJ+AAjQW3l9NQfaYpuOB9zSjknEfyCf4s1vfOEktRlJjWmxkRvkmPs1qPVjklHgVAL4NrO1stbu6KDhjnl41sJcoNu1ElI5eTaKuQdffZBs13766NVJEKwwRhI8FRwjS9ZsJCrNqG3jedL3JstL2MrFcaP1bI8khKntFjdcFqJLqwqshqgQU7TKr2lrTJSTqUnsiG/VPDCEIDngeoxgPdtxAnK1gG+QOKVvk4yn7FaSMlQ4Ud0W3oOkZHtKZ6oi72zhHW72M9vAROcdJaS/M7FVbimZlyp6lvkGpCItIXug2a//mDG2kF5KaSOYZX5vX1YFf5hgfim9/eJPcAeJEFe1pX6Xxbi7n3JP5VB6VucZd6MjXIQIB5BBtRuUFQ9Bt4Q0+7CXM+yDB9Fb8XoJlwoEe+5S86H2wgMI2BiH074cq6Yds3pLVV2+AiJ1AYPqXSBZKygMHeTrPGtdoRoxVrH85ZJcdRNM/foPSzx4sJQCILWQ2wFeP93IWhvl6jpB3PQQyhA2rr+973oSGhbbhS4RuUFq+fTniOcEh0xv9NvrL7vaWd1nnhoKrW/6DtIkCt9FLo6aRVu1UtXQZVUP7sH7MARokY9MH4iDpLQMf8dGsS8tFQzVxwn6ouD/NBlH4RPyrdNm054u8Ccnj6nc7sAA/CsbV1nWksMKe/HgzvTrlckCEFYMDhxtjSRdJWe1uXqA0jDw2k2HPOtWKjveb/LSx28AR3ndK5oFtTSXAgtOk656PJF+nMFUPy2qNtx0skooemf7Pf5kvOCbWH3JlkEw0Tb/XfIJ+HlSkb9gdodDPRbsC64RxRqhn/3+YCz73e/S94KRvtfudUfyKXIWYsvHAfI6oqR+4qrz2+V8S5ElbtNyGT0msfu50AbnAiyt02Mn5XV1cO1AF8Z42x4+E5sOXWhemSIiDI8iyrr5f9/KmWTz9jK7Ew6FVubA/egVUsVF1V4NhIr3RaSYwAUVHn4k0iV7Rb8x0DNBtNRAa3qnjmFEXhi3QgF9pSdj2gmlBpAlGL9I6uqOok708sQ3QAT4qn+z9/Sgx+hCdnfg28O052CeM+itOP//E8CHM+ye9JRoRLtqJnJGXC0s4mAxLl9w5zBt8zqFv7xFTH1u0R9BXgKLmGfMn6fbUnHVfrnGj/ZkiXfOn/z8ULeY/ZPj7EwNuVyE9Mxz4v5qAyN+eLszdK1j9uvKjBk09aYwIYlzPGfqsx1776eLETcQZhHUVptuU0J0fAbDZ7OlMiVz+yspink6Nb3e+qjpsugCdg/YE2abiNTNeykQvIJxDKDOnJVSOoOpsRKngOV2Btv7XU++VHJjpVRQnC0yzgoQ2AcoRmZZhay2dm0u5gUCLLneDT6zG/svTYrCfQddifqjGEnirRqF/rtB61VQuD4JVtI1QJpYYKcNMADPraavYTyPJE8y1CeMeFx5SHaE/tUL3lsYlX/dFiFO24+GHmzw30ka++CSIsDUK2Q9Ga8fYK8Q4aGjcE8d9MJolVbPtNqoMGapD0Ai1VmIsGkYpjBKHUGHqtmIJ6j/Pm1EM+OrJjcchpr0XJjnLemoaNbkPkTV9N12Yipc250KS91Vc6nxvjjkJo3zAAvBjvOBykCX44xgYL3wEJcCv2gSbV3SvcXlDORjt0d7J/2tAhZN6G5qg4BS6LJCOL/QAAvIiXY2Po3FQhm+RL1X9r14fLVsLC0mBCHWPLzIjwUllshNPcVBDViR8uj8PmaiBlCkXjQAGqG1aklYhlCZb3gS6QEBJzdt6Wrg+r1nEbEseEv9ZE7WkwxVvKhDX8LUUI/3m6i2CtaVpPaktyPzN0VWnGnkpDv8x4qSTV2URYMBpCG0YuIMSabGR0ZBR6NJg6FcKseXbwHMn/TuHp/tRKIfch/J6zzSWMj4zlEwInz4EmwdUR1SalJd7rsJkzLvUaXefyz+cAeJzTpeTh8eYQDef+ygEOEfHqSVm4lXqUvyqFikchQZ9CLjyU+CYM+QfupJY4xm8OJ6TU8qSy6f2yPNONmSRrOTg65WMlH6MdB15IbBpsUfMGHZ6dN6yly0QdCXUG+yJV+Cqv7DRCLNZxw4TnEl8G52KoyTKCIqLqpKaAd0f7RmYIJ22jyhM2uYPSMlUXyq6m/gLFKtnf+OqNfWeLXKKHECJqVZFmP4qu5et1H2VRWdOp68EL8vtxgObhDIS+5kT2l3jJwUL0SXWwnj/l8oSd9SZCTvciG3LxO20+/ZtYDxFfz2Bc+FmtLu11vkqdzKvTo015SV/oOno+QwMGQQEg8PrfDFw60BBFLpWf8volG9+9cuxrMqTeIXlkKMyKPj/lPY8EM8YNGoTK/sZFFN6AltBeftm9v953eRk04OQ0oSguAz2rGFFiCeBqcpGBDpHjj89m5IAzhQ1M5bSEg2+Hoy5Cj+K+DC423wWAHNFHFk5cInLKPStqBP3xyzK1twP38td/VO2L5aLl1wbI7ey1B26UHeA7XbhQnO/mDwdJ5uiW+a3K5POAR8zQ56+6MI+aY5mIBce5rZKO4m+8X32XW2Cv9eVHXimV2vmOE8Y0/eY6jXX0gznbdUSEROHEY9WtHBohuX25Lux4rjj9OrrBuaXv07e/oLi0PP8BwCxR1LNwdQgq2yPGVPptzIVGEFR4RIqYgqkzmn6zSWAa6//+5w/ECdtwI3NJ9C4ZLQ3AvDQGzW7JqhBYyLOUm1bVU6z7B69AK4ANhQjtAoAB5fc19efoKt3PfvXsQb/7ZvR4fKwtOAOAQTDe9gdh76h5ql90BQhM9szIVjMzBNQY7eSdvkUtlU9H0cC2bErm3ECbMb8XIjXhFlm4o6dEyvDdkP2ol+VLxyqz1loLWkSwNNfa2HUnkS7VoBYPhOgEMVJftXA68KdNc1pmCIQ0JArQ8H2PBEss7Rvq33T1rMXnoWv0nYYIWUR3VrxVVCV8G5DMBj0tFRpSrfkqpWEKFiSs3WcU95jJZQB054cM2yTEzh4NVesIhH8nvrOLhcvqIPnMrsJuqyPiOQOE3fgO+5TuppcyH03FrtedQj/ipYTS3+S5RMaI2rayzkYTrdFH9UqVUTtS/yRWSVYe1u6og7nkbd2ylqRyZPHLDdeJ+1VMscghxNLQ7m4npmCmt6VOKnzwywZw9/Aj/KSGqvaLqjmkFglnw/SUrrFqfbIcj86Uc2F5PsLm9vC6QjfvG7PuDwmbc57Mok3c36g4j8CQsrw0fZ3iO/b2vM5CUq2c6YUuAm655y1VcbJh5kG5kct1Gt3Tcak8HitlLV05YL05Fig04Ip5UJtm+uNBl1AWRSOqWNdi4D68bRcCXJujo8cE16BxWVvAEhIobiZmdqz8QotgGlwxzIKdSKWxm91epk082nx2qi8lFeWhblny+966yzcBXGZS4NTkBYjb38Z5Uyg8zVjFEaR0xGiu8d/WsE56KHvWYuN383s73834rvA2E+tQgmipH6JKpAYa6PXVDJNmw9K8GEBbo1le6o85pqEMCnWSaNSwZGldB48CRV/C/LJwDYY19lDiZxfjqasiByZTPb2DCI2FKZ2RNokLwHDp9wdvvFR/4iwMj2ZP64PNYQD/nb1F0+1zPTilp63K1IuOVyvKXo5aesvHqtuo2gMLaHb1Eyrbj7m1jpoQxq50lcZG185WiqZPhMXQ6TKTkNGiPl6MqvIOH5PiAyJUU59P6N2u2Mh9oScqBwzbs7iPrTjw2tdnrrtIn6u7K+lv7g1SYeoACRYc2GfM5ao1qzNz0l7Z/49HX6qwWNJISycvRyY+u9FkdCvXe8GW3GrsQHJXYJ7hhgkTz27ZLPGUi+MF77Mh2jwDue+j5LQ0VYGhrup5rZ7SoYqIn+Nxsq+B+ZyI/KsOEJjluuAFoOMoQj1SlkDwxa+qVoT0VK+oT/OR/C4qtPcW79QN6SwhTyxGlwUw4zKnzSVBZhFqbtA6pTzCtg9jbMGjdamqgYW9fx6uGKIOqC5SrDbP1w/DbQj4LDViHFbcVEgVqxMQyEJX/EZCz9fcd79exkGdDMP4su77OFeAsyKiRhaU1nN65dbzwpl73G1qpJ+C1FOgdFGfOtLHyR9JPuBNR1ffkBH+M98yaawjmO7rG3JLA+sWzuSpv4US3eC0FlyfSy3wT0z4duc/87SbufL7vYZUReOB+wN2agvZCyYv5Z1LDPCDbULHDvKkyTXRYNnEOjuLngR/pE5rtS3QTIwVzGGTSGxKldnjgXRRwlFg/q2ZvT8c6nKTDkNTXSeZQ/kkQgAsMrptALj+r6J2dO5MOX2vOirgS1qGosSyMHOSwVYHqJh1u/YegV/b4/ewBx5Ik3BvDlSELTPaaJTlzFN8w3RiOXx9eEuuh/gxIXoqtDD+aVq3J6CwWcVtkuA0iQN3K7C9B/HIdJtfxTtB9D+7sPzWTD5bPtsEP86YE8nXIsrqM5kL8L4f4JgAWJb+ShViXQqvn3RZcYeL/M0ccdM+fqgYpq7BtkSu21IlA7B0zsSMpMLWjVtN2VsdMocHUtY6FCTWHRMYzgtUoET7Q2L8Wu1Ywag0HnGXgFW+EWUbLke+C3jQL5hl5cvP7WvcvnXni0fM2sVsRNDEoIpI1g+fKR4IJMGQ04cM+IH1/3zae36fokQ9DWjJFjxHvOLEAAP71mUBW7QbvtSLhnaD2fVLItW/39XDxkix+seQLu06BkXKlfBbyxc1BbStjMoN2v7LSG2kTM4I+bZSoFNPRXHN1HqxRRyHzDN41CBSoxHr2jmwSfZpsqiyU5XndfEhZnAe4UBixEQJWz1MH+rzAxAMkQ0+q01hk3NnBRYBwPOR76aTYAmEnBlv+AeHybHC2tJbjNQSVVfll3Ir1+PNx0pU+JAUXkyCtx7kz2trnjkvV8cuWEcMkL2e+wUrDjMSI4vCb3ACwwIHcXY4KQpKFpeP37fumeftYVqGqR26Aul8zUJr7i8PXrxjR6irSrANX/Q1P5XgehpbPLC1KO/I4rM4U7AQmgTyvVuaFZi2frVAwqJjWQklFTk3cnIBhV+6dUNjf/gZXPqqMES2Z+uiw+xWU3IU2JeCQochBLo49adKQ+69ODuiGDotn5iE5fnv05xsKdJpQFwP+HFvwZs/XDBMNsGlQopgPoJfC8GD/Fm8Nv8gPsD8knZC/cAA9Vxi2siP3YNNAmZm0jfMmuo0QS4my/2gEtTTUnQdn6lO/7IiRBbNhe8F8PUDXs2gvr/hvFmZe6mBrHegbWi2Y42RQ6rBndVglBeIJTbzfg9DXpVOqiPMOXkCaxQw+7oWwrOUhalO6N1f7bYQ7Vt/rAbwHE4U+gb5G5XEqq3DvAmKe9LOjQQ1dH1jlkxlg72Z5eFbZG6oZbm1zAJ3uvOMPVUf9NXXVBfv1zDT+ErE6KcaQ5az/+pY5IW759bD57W0N9ZgKqlW4g45zGc2rQY0G+14jd/+keYress3gKgz5p9VpgxTDD09OTI/EQ/AQHBkwDpMYLJDVjqgbioOIrSq0XDtObDbJeWEp0Q/Oj12xUhVQ9wbHC8ZWBKiDTmP5PiLlb/OLn+sR+wCjWRhXq3XeG5RSp1f6mZrwetBrF8T2QSJgJjQvkjXNppmK2XsRpx1ugQbwSSZkYpocD7Uqjzo03gV+m4DrrZwKjER3GJrso1eM2p706fcQzkBpnij98YZiGl6eeMkxoPzOG3mWXLaDqcy+YAHDn5PsWbTNLTbksHePzx09MquCmf3TdJZrN6OGcwDv+hvp+t1Gri2pORZKU1qucQIWfXAsoK4lJZ1vS2jKvTNbv/uFfRMgMNwf1ySz4HjqRADLxvdHuRdPdihQD329ad/8Ppc9bjMPl10xYkSWr6U26eduAoNy+jT7NpaxjqyzkpSUmMxP13JWW3lUzkxA92xEsE2G1ou9KIpEZqGZaZ559c/G2vYuH9lRESoimWKcOFoIi6gPIqbUrs4Vr+t7+T+r/W57EOJau4CjaZtdHuur0O0SnSSLZRZ51i2my6FbJtU66bSB4a4PCHcmXQQfzoXMf8gYi/hgpCz3qnMHuksHl+n7wnUF0aZYYwA+y+Gf+tK4KqmMDb9jCTq0rjBiFlILHj4YR+6/fL4EBtZ+CYYNgPvbDc8kXh84efNBdJjZJON+TRmRhDJ33JlF0UCjEqXvxz6qevs4T/6cUh4lJbI/bBj/jqHDkDXEnTx+dPLYmZaNrHe4Nd4OwnY01+VaAb3tYYBKOxLib6WLdwo8HuS34WO7qY8H106GaChrxhstfVudB0GQU8Uc1p6xntl0CgUL/ngHHMW26nBNdFdfMk/kpxEHMiVWaKg1UK+okLdqUv6XSDLaBUoM3fyFLl8U6dz92/cXrLWsRaHEt9ucFwA00WcguJgozNz1rUTahFLPv67fWDg9L4uqswaYgSfhUdasIFY8qAyys4w3LpDUQlvVR0TLj2ObfnZkqtrMLI6fRovm26ncOryCkj80x00XKE+1xZLYGUnDJ6CQD2LHZyDoVnewnnQ3vYk3J5Vpg4+7f+gcOuGPtGTS5iHro3LFhdhR+rssZAIXzPjBjcLlB/1UzF+/xJ7Rq7hdjZ/GgOAqeuKZG66xTqXiacyxREgGsHCxxZcylUEhlJuIVyCCB/tJMmYyvzPFr2yvyvli69ODoAiNp++xdDvMZ7ILkNVbIVp38Cwks4tHfpRZLMOCs6O8QUtV9U+WoDRrU6SY8Xxwq9okCWXRN4zBUgYHctpxrjmtt0Bl1Sa0kLsm2rabDeRE/DTSd9aOIfSgQu3RFERSxvHyqVpZuijTebXnOVcdSWM+qYxoqd4iGOlTzXlLwRIG0gYtlFSlPaOnOX3+dLx3EOxXf7Hm8bElfBEGxVRdX49HDkTQBfrfQ7HxTPqVObZ2+5vCHVwvZ2Pf0HjNSKgcOa92/WfBuPb39zmBWLuiVli/aQs6C6ulzwo2UwQUGq3YyCxWEmud/pw0YBT7z9oDL5/AHB3lBb0oPojxT4BlyZhuBNRp6G6bpG6dFPibdrWq6ugTusmo7eTNIrhp7ox9+yhox05XbJXwnX3DvwcfGJnfqOaEGIbcZwMZMoOHHOgJapW8hg9Lu06J+Wdmrgih0aSMvwkv5Q5GSseDfV3cU6w7O6exyNLLgevBRgTrQZBH8fcHW9RpeIYkOUyjf/3OHbpLwFj6q6kQxYnFwwNBvj+vgMwSWPItCNyD7xvTrQ/6sIna+Wy5elCFQPmFfHaTC4d7n61jY1tr+QRnrwvcpIBAIPI0P4NiddMl292GDRIqM+qT+p8ErSvWEHwipjytH0pAqKGdhpsC/F5/efA3GphH/O45oxBpqe1gLe6wup/2AhZ2hPf8ncZc9yqNL2GMHLk4EwSpIpoxwxUoBD58C0ZMsgf5mhW5F4Feaf0Rbs+6w+w87sL4rbNI77HeFbZqs9T8BbXONtY/Lgw6xi5R8iF64JoGkAuHoVRj7eqUJKyQWMec0YIZqvkln/eJC0HvOm2XfLJsaZA+p3er/XbO+WtzLgj90Xdfom7SqiFGXZvtdORcjSqMVVWSUbJYEOFvm3tWuuEzvBGJ/fUFvPuMkoMV5yrihAeHl6QpPVf2qs+5IPLFzPqWQifNvK8XM7FJShHWo2VH3JYBZ7WkmRib0bgpYx0lmwx+BFRCTgoYPjzd7D6IQkTg5UQ6zKxlA64rs4Lu300C7+U6BHMl9ZUwJKtOEPzeiLkiPmae4W1AHLRquA7yyR0WvyU8ZqhFRoEqTbn9JSh8Vwe/BbGx9iVfs/S/pL4Yx49HiQ93jPDqXIJdZXUkb7SlujolQ19Aw5aHkYt4RKuIqnRAdSS61K6x4m7DZyWHt22BGu9p3J+vxAp4aOIT/QY4bz/cMhak1YcojDmte6eYwjDDpEDijRtC/xx8aaanj9LrRj5YQt1JrZHABwaYcB2MJM7xg/TbJ4ILvRaUeoijFtfmwqKoWrjX1A1mSC6YxmH3BPP/UE1vxr/u9DJ8UJaQQESs/D3JwzLre9ReYpAIMMpK7noswMpatxK8z2JGsSnBTfQa7yGx7MnEXqqE6Bke8snyRNjsNeLSBLRy7Y3JTbITOLHOwajzyJQGbNtcihMI+0Ujl/swWNeZ3RmH4zkkfwrgPv8qVHGT1f+Gcy7HV3v4xShpGJ6gqKKbJPrMQ+FQPGofzqRKSFL7/BnFlyqXgxzjqNR1DRQ23q3NNts2glEsIw+1XghjNKc1fM24tGeO9pSBwqsVKoq/SDH4y7QMATHnqe1gK7Zx8YmVrQlNSZ0jnPAtDFvavNUf/b6qNFbeIZJoI4twPba5QhLKUxn/O17d3bFN0ksYY7dDgVjvPhnG8KN8uTmfAmKPmTV6uDZ1s8y8x1mQj6xkqtdFkPPJyp8FH1NKS8I4ZbI9Ugt5mMrRALSf0ERbD14oIX6CUyvN1yt9OII9XNldw+EmOI2RQMZzFulju1/F9FoGozn3KVf6syARs+/vjPhrr3NDUjZxQcWt3hP4flH6aBTfSh7zz8meHVKYgplvINbGDGWGX2BQEkT0+njPUPG46BBvrObxm1bGdg+iVpk5EjVr5TSWMW4fjjdV3HCmrBt7yFkdWWok8AZrKiLzTmMqAuQt9br9oEbvKxqCGj6INJLHl60CCVDU9HiliN49zL6INOvN+Uag++Fsn0MRkqAfHzGFDqjplGwpIr6vQiUxId2jnCweSNJ9POCq9Kog7PDq+YMube0cdk0Gc1kocbvnSVgCJF83sd6GVOisEJ1bYdJmpqOK/haXGppINkTHEilcrNyHwm16DcT27wTLR1Fo+hJ9qeYSV+HdAkiMjEMXLMTxr8cKQnN2xNLkTO97YiuAHwcUahX49tqBRGyXr+sWDfWqri7Z3Nm/+MqmvszGfwbvgmJbWOzfPN0zW/S2ki0BrjlY/WLCTd0WGhU1s9tAsGfpiAE/TeoUNnzNKdAOddeUCMgIS/gFu2mfsk/Gb9PLGThMP7bnheQimypVClYxvdsUDyx30ibF32y07x8qsLNsIUxBGg4Svp2zTvrI6uRV8QU+pWakspvZqqa+vwydZt4gSkD2GbkWal6ZBCFZrAbchRfmGYo2eG/oDCgGydn2KRHuK2Cs+l181oLYWEJr996JQxY3eJ7P1+I0qLtUvruD+0l3EvVYJ0RdMhu9jnmarXHQwzNJGWY2embMEDBFRtLsSiaSg3oCPPLSFrNdOAK9g5+jcjTKy91i77MOspd6gN7mx3384xAJlZly1I1qi1ME8gJXPRBaXXGPa8Q/M70BC0WPvXG/wAuupCr4P0aoYEtug0Pb5ZQNIft571WgkgQNu8I5J3u3JVMXWtqavFsJMG1TlpB/AsFMu4Plkax7gLgduuOYxK+VbIRZXAHt2GofEy5/gMsbjs+KiOYgUIOLG6eVAm7veEdjU1O9qBpo4uPlXX17BVBqgwYS8X+pdOHSK8hUyZopkJU5YVkPBpiMpsZrKelJps/WW50jR2vuI8++zHU9PHGzabE/iyUXytmfi1GoXTN86LHSv1soIUrYmk9VukaXYmqg6b71o9tC0J4exubmV/Iid8Hz/lfMUx9PNRP9oP++drnVKfdsriveA0wfnJ2kNH1iiRRpVsj35ASwNq5IbkeiwEYA/hSD9DI+/oyZofOhvDwwxhV1mrdQcY3LovEULFNEODrEnvF2zR9R0xp+vc7P5fxJ/RmV05QyBe9xbOBpCK4nI+GpYcIT3oSh5gEt5yqUbcemYcfv7FIGGaYpoggiWwpBjWWqoO00nLbEkehmkJGcEjC2K1qC9zbVdvXp3+sMgUatd7Vk7kh4GwGa0j+Ba7z2Qy/bAoy7Ro/p3HAt/9H6cTx9kTA2VMDfeJHoh52Jfk91JiTpoEPpR8JY1FeVhM/3cQRlA5NyqNnrRjMmLWSdWHPQNBDSDrW08SEgyLSPLg8SA1lKD6LvZaHQ7sV1LTQjISn4MlhU7GiAVDMRHv+Mcc2Z+E5YWcOTeTAjVUAKmE3i8X8N4korTCEyqOqXiK3izOULgvHcR6H4vAF3ikxdnG6g499yoxoXNN9Tvy9hyMEw0Gz6xobPoufQd6vyTfRHfypI4t3//zozZIicGQ8VAlTHO83Xotv6K49AwpZbMKQzR5u+ZQ1Jo+XcDwQnmof82ltSE6aRUQLOidTp2FxRZuhvW7Si/UWGv60qHM2tD7XkKQRSFxueK7C9YSlQBqJda8twKD4kkp8i7cGfw5IWjmWV9t7KAcc8IT6V73jI4cF3ca5dKJ95C7ramDXr/h/SpT10EotP9Z48o5xZF88f5bfcoHkLg33kfJ2f+ZSWWxvnu23EZouDLuo7iyopwH9knW9+K190YpYhh6oRpCWuBUSVowbinAwChXhkH+/zBPyBOSs2yD597DcjOoXfTCarIVmHsajswJ0QVCIjP/ZkszfqukYON3lGam6blzApJRq5sAfwcx+91dcyqv+IMrmD7VfDKn3nVQSUs/GiJ8/jXFeRSLlI35OUDXiBuQ8cY6Ozx5EXcVIh9zdHS2BvFzqEt3kLdUSAkKkySYNRGA6zn+YiNijm8yEgVqClIdYMYN/93hN37Q7Jl4P29KyRSDEoLWoT3mIoywv0jJQpbmMOMu2puXsnZ6YXz0X3SZ3juwkLZvT+Vd6nSdnuAyK+VSARI4Ut1BnOqKss6f+OlX94Kead/7eA01jpdRZ2+xPbveWXZ8W9/kGQnm5+V9sLJeDAZpgkQ6q/s+JXwGOy0YvxTNrjxGbF8PTxhMFkCL3L8NZBAzR/nVLY0iZvNn03t8HBPR0Qvecb4w55M/gymbzYxZs2EoDo3yoGPs0LpPgQYKip8IWU2UoAXYjM91DDFAaS1PO1Oaq6TYeBjynZsAE/kzdEh+pKdm9BY1FfrS9+66lO7xdYUNoCw2uK8vyJethvNUS3+VuWV4sNyRUzRvuMtk+tVYqWmvh/iwelcEjpBd2Hr4M3lbgNUWplUUeRHfjWoqqL0FOOZ0WKPUK2osZ+Q2ODXs1g6hpqAFtls9DfRgMJDkdPiOJkHoEx6v0+NZIA+0AitmnZyd+ZoRTIhuoxhH6Wre++wX2o9Ws7Mbx1hzs9ynIuTpxnBY4BLDVt9q1bfyU7sJZp+FSU4dYYoz9kInE72Hi0pRHOoua/cM66AySyqy0YuNSYysltOqw3QQRzW/HEO0/5PBTsNnn1sbn44ZmSvwfbvJQ7Fknl3Gm34kuS4fKnBrNYgcKWNpgolYQ44IFV+diYfsVxcEi0ub6KAshFG3dmj1qHbPTpuUg3uaTKEUzmXiatyxkXY0uBaebCLvKlGehFEHeuG+GLVP1vYLlzlixS8R4EZ2CsXFLTlnOyn6huwjm+r3tZdgGBNyDpGn3YlGrDdMTyqjiGkNe4AEu4iPwayUs5qyO41erKzA5QYOyvGQ8L3bhR6Swyy8PH5WML0vcLtiDQYQUhxeZnEiO0ZUvyagoZ5OjkOPfs7uW7Ub7/WGY5sCRjd7sQc0qhRUfSgQwL9jmXQpkyWG6HLxJ9AG5/xCfhchyJSxh18VPSunyYgHPaTIatAntd101YAKwT0jnZjcv/ZvH8BG/hMnE57UHdWq9lT1BfNJ98vZRV0R24v6rKB7iTMTI/gWsN9BxWLy5IxKfTdY9E+RuN4ZaPrcA6DsdZw3sY80iEHwp0ZIWl7yz7o/DJBLLCekOAR/CHv5HjXA8nC5X18imDsJ/nITQyzYLULIWIOw7y2oAgqaLxnXb2kCvzC9EWNcahXjkZ2Wr+gTzpecUX1XFa07r/mGbVvpzlE2jMoXuNFREJ7Pwggjc1QoSLUqyvsVx/pgprL+KMphC4xCrmetP4Fqs0zQ6nAJB9QvMGfO9DKQ9ey24cA16SxIrIdIw21ijUEvyXmhK01RAvzgGOTHZqMknnm0/Wi5JPY0CxC/p6Mud4Kg5kr+X5qXeS8Wb2QrVLK/x8xQSt7cB1+cdiyYLD/O2Nm0LXKrM4r5mAL4EZzo0+rUOd3j7uxNENtEki1eMPn/7eLX/uYeanL5pMwCLKLHofOs3tJXKtZe2tpxC8eZBH606BIBnC2Ach0uCWvq0oBOGuWgnXmO0JXx7+tgKaQbuONoP6wCqT0Vklex2icb0FMCjfGjahIo7o5HYw9kRWA2hKV52tMIyhD+gKug4oiCpWGbCu3CnXCICTd4VBYHhAgRs1EpasQQN4gx1LHZwwi6ZCuMmXdGAAYtNI9GzQcztpkPxTdZZiIc+ppYfUK9qZmFL1K0QwhpkwegWYEMOOkLZLX7Gfl5ATwbIRxOJOHQb+9QDRLEPicachNoYgyErKGtSJ0O6jIhUSs+Ws70zaKeiopKY7zM/+jYOicTzmHLRcAtl6xALQPe1mpyM2WlWdsnhoCWgJe7J6GHFOxrqNIbnYwvsxG82xi2R9Kde2xkW1RCCzTMbMX2fn3nEYjtn2RIwhvLr8qN8vncF4IyVL+qO5ulx7NyYGRmxrnRiPg+yZ16k4zYyl+u8KiTSSQwv3rsTsda6xcAohNNoRavskcepSsDYPxJl+Bxm285GBWZxXFkFohGg24O/R+yxQQt5wlX1YpnOqrK+CzVUGPefWpWArrI3MX2C0kFtHjhteiKGaUeBtkJKlcshMIqCv+BOIQwWIc4cnSp9qSyK2DpkiMuQKnXXenhWvOgFqsrhzGDT5o5vY+zvOgDmF6oXXIgvr9DnkaIbgB24eKkaAQ4bh7rYjVl0V+IKm2Y4TGg+TSvUSAx7i/a3c+RlJM4cnoXBcyMYuBSY8JGZDS9LX/mtRmUVvf7rgNhiFqbuxbjMKwJvFqaXhrtBIXMeW8qmMNIMvnn3LBY6j64cHjWA7amFDs3jIRoEyGsInJcdp6twLy+Yrx9YO7NY5+pD1o9RjLEpIo+rybTDFHlGMxM8OfSIDCa/NS1MJdox5MgfsNwlQB0W+QDHE4EGFLP8inbfMCeKpKXPYERJnoC9JAVsTP9tFFX3lhVvo2j4yzvPWtVXV62Z87pELWUoDa4aJwFKkBXwb0edta9cmBMUPM0EQYAeIxUCZXejVBmLn7Wp9GZaZFNax3wxK7noc/juaXUjnjd75tk3S3lYwOxKQBeujXu9oBx+y4+dTva0T3k2obWXAP46pJqTyCNEURNRMrf9bFBpniSxkGXo2BYi98J0ymEw+6RhapEonrterE4GyXv4CfvIJ2jwvDli0pigDcHl711QHOR6lIwE5qdFPIEJFzck6AppR75ePmZlsc10pnIdOTuoUKiiFxAUbFUfgGEKPNO+XAn4+6b8bkUxgoM7RGywp+Hl+6rb2Kax+vcbSy7Z3de/sZ8ANqmwIBX2IHCKQzXnUqdaYtgO6mqioZs1fPQL3cG1STpY7DDKqW/jDhHXI8bgOKEZf4FKdGQLr8sICrYbhnQPv57vjq2j562hAl/IO4EzHH6dEEnnlluSQCMc4E7vY6KsvH1+W9NpqBRXaLQbYjp0lWW+t9zCDi8liaFVBGskzma69N+2rfr5qAQWixU71FtYu1/UVTnbmdVGozMpeGdc8Yo48KLoQTtbz32OjwHYXYqsVdxuaZRn9bfsyM69gVYglEL+jrWRvYSs8/+VgQnDFU4URkA//k/dl7eXsyyK3EpozZE6IdW6FG8ESbPqmBT0jeYin8idKg1ICCIhlSPw1Wc+0R5UAC1vxDgO0Z41qmGVNCvgL0STFSYXbb1gVZIB00Dwalda8t3ECXBxW7ElcHqxXHcosRyugoBmFQimD/bkZQIH/vQPbETS5H1jkC0BCAGqC2xOM9+nTPLy+XZc1SLFmcrZTGMJ8sg6X52mC2thWSQUyUCjavfurut1gwr7isVbFdpQi+2EE86KHeU1OW6G4ozu0PjQHXkRU0mXoAr51fkFjLpFpv/VVgWnlG2xaeK1uougmNN/UU4uHlM5wgtuK3iCFXjqdKtP6KMGno3uXxgGswZPyg+Ui9rBT0DZrM4xLUwcAc5isN7LveUP3KYkd2QvuoE7gcA0iJXCtSNPSI5Uql65zK3e7u52AUVMfLoOcQ2z+u+ghu9sFReDDWnu5GUyQnZG19TH+3onW4ABgXOHIgQx+q99dWj2xv8AVMuWFji5XNjP+XooM6NWvzEyWVP58kDMM1DAmZMNkyFoMAX+hJPgWSPLUTE7jJDbmFg7PvU12lGoYCB/nl436fDhH/k+Bklmk6WEl/DVs2Qm02Q+fwQrAXiQO4bwvDYrkaackXVjJdtMwWJAhiWHv6dz7kUaVdkd1olzmMo5WiAiaUP4Nwb2itvXA3Wx17YYbuUPsQBn1epCYXiiiJUMjwU2KZ7N3dVUWV5MsxCI4EEFw/i+gvPajbLFJIlih9x0Lk3egfWaMjTHN8S3jzJbWwUZVVw1Wn34Wi9o+bUXkEe4mWmnFeINViBs9aNcizbeM1HQ08yUUOIIKMI8FhKIsYji3qfFykj+aa87FJ3y+pYRZJ6WZQDUVkkCvjIYEs25KBR+sZ9Ic69whRMAwZObVI7qLicLuZ8SXihYp7eqWWNx2Mk0zoAle++tDbe3J/1k2jGuO1rh5n4HJmfblg+eE4V2S5DCYGXC+o0hvrj6Jmgoc8mzrafuCgh6H8EIIBbvlCMYeo58n8Tdimlk97wTEF2PV5+ZSpT933Qjyh/LrbcOPi1MkyWxuyxpYQkVOkNee7JRdvW1x0LKxHHZPSd36Xln7WlVzCtgp7tZPxeHX7Au+afcUGWmOCk6cqgiWIEk1E4rBQEyOuKudael3YTt/V4AIZXx4m9zEx08JvIa4lXXg34JFssnjGiPg7LANwDbaodbY0eLIAW31/SzpQMb1tsyBCaee1YDfAlNLu//767445kIdf0dD550mXop+wOo4BaHjJzON4UgTmRSeCzyGLvGlBYbYclASAnNjB/v5+xuGq3j7aHxLwlrtZL/VRMsGDxHCaHs3hISqSnre2Ld5VXHTLN+rjEyFGFd6MYdetMt7cnqOkaGg7TpxUGOt48b/zOt+zURQkJnzpazEBYt3my6VuT/nIWSz7sBAcM/R+GkE/3sIXVW5c+v+ee9uM3CuD97rSLp0hIKHOvDI6SjRMB98QeJM5v9cCZDG0PVvRKZxpV6WMdTREwVt7w61qDZ/6p9YjdHfROsY7aOIl4UsxmJ+R/xWyMx6v7I2qu1l1YOPGCn2BrjFt90zt0AqGLS88K539I+dmsARrPzrA3xws8KOGKVCuFtJPn/Ei3gUP6vjiWUyW6mC4hitLy5baSEHB1fScYfSEfkCMc+Lw3+gM+ye7Tke4S7k7E2Hy3A91GWEDZ1lZpRB5d2+hB9SrUbsG+6zA3tm82p49dWwJbRb5Q4PzVRZkXA0kTqXRCnbaXC19UpHsKqRQmZ+Quulqt0TbhQssPgNtgwKmsiPCBGboAEtQZrG40ZE1lK/dUeOzz2C+HFA4vZPjyrm7WE8BXPfURTGzIX6GxOC36bV/XSgznAzuVMPtaP5+7fSFsKtKe8CePWvNswl4zYfcpM/MrVH7ImA6C4WyeHVfeVUZHBCykOWGjg6bHA5lZDarLMEHkCdIhrJKfd+CkQRewP9IY+Zso0EWQtbtYWjEUc+hLlfvmPbxs+qZKJd9qBFoLH+TVj6mpBgykw866O50pG+qBqN/ew/7SinL6TZX470XveuuSqEkTP0+lBfoJfNiZwOLQ8EWfYurD0lC8pGZimsQPvN8FFc5y7nqgUEACBLCslUcnPazXwV2z17bXU0FC3UYKzfCvQe2jThl0EsZsI25tU67kSQLwvhJOqKDYBEsCB7UPjCCs8NdgAyC7mnImuH3jUzk+c/tSiRr72YpZwIWkP63lfjouJ83kiwE1KgCsiYTnbUyqjQqLbrleEpiht2XiTuk5LoExm3P6H2aHuW26N4NnlD2wWrLpq2cqnXWS22p6rEkreAgW/Gw6oVLRpqLr77QDMMgFXVZ2Zujky26s9LZDNDv3unyBk6570hlhW3gv1gz1bRpBlExQsFH2MguX7tGjx2a4zfm6qsXNnskRXWPBePncOzH3nr+Pf2E2sOryK+cOnBmZMqe9dMTddlTYgJHJUOT/B0QLSHKBUFuGcmIoMae6aVqpYrEY3zKGT037Mc4yH55cm4n/w4d+Nv3Pn+iJIzm6rpfeOs9Y8OebgU9kpCDI+/n3ovBzbxTC71yu4Rzq5ip+G1CG83cPKSJaPe0PMCj1MHD55NpTPDJyHhSFFovHwxe7ztqm0VM2oW7rri+OwOSgqslJ2t7sxXepOPf5IlDgSc00Lp2issrOFyI/tC94lza+M+RFvTmlYEs42vXxQsuJZdRaghXgflUzHJA14VkqjGdoOToPuQYE7mKmuJ+qmZoytfEkMq12eo8ezybtDEoedsROo1u0VH5Kixinw6ZE4YZmxGlcN+BP4wKckHTakS3MB5C56ki5p0VyQxOfiHdGIoeAwyM+Poy9Uh5hqEXDxRzE45YJODuKk0pafbphPJ87zgk3JKTMMgLgxuDR99bXYeo0NffFC28vyyX/65lna99nJ1i9dIGmqh7+fgVvKUEGqEQvld2CMopSQK8KPUBNNJCkujScPNE81loWb9NmJVcSfVK38zkqLHd+Y+U2PdOHcap2IofJxyyEk/9n+0hd1NOPVQeN3z8o2/8DbhksmCrRDZ5gwME2dViY9DdOuzkk1oGhm/eojNO0g59/Du22kTdeccSOZEPtGegqA/yZsraQv85qbKdZ0E12UatbSGZUWnAgGrG8JsTIZRO3FG7DvKJIzOK4WRnM5Yh6uG+NPKfgMAGtkiUi2/KE2i8ZzrkAGpNcM3P3PtWvAp4i05141JsxHYVeFBwoFNrtbq1SuIoHQeB9y6rjEPW65vXsbb9IWaWTDs7N8/4UvxMgBCnKejXnv03W693KJlwjJt46jIWyttEDGzYujbXs4UL7rUWvDkraTLMvAZ4Ygthc2akzuYzNMvyFlCXYX43V/KRtHExiCDkhDb53GrKFwWMW1GlMZqaPs/HWYFjXDcQpQTFsT49MhN8ve+XHSkqmAaRv7pDxSGqcWkFFnlXrolJILfAqxNJ5HBD9EKOebyBIx1+wk91lZn1DCh0CBenrEUd49VD/VQ9DWvtIMOO+gLSRBNismSuyIhDJBK5GCJ6lLPwUvtgiZ9Zda9OXlSN/wWWe2q6rEB2sI2epvWwaeF/gkwn85JT0aics+gJ0tDno0rxmBoiEu2YKLCH4gtFDENEuSgk8LOQjuZEE5LXH8xPnZRbt36vyfdRyGJLqFwkYxOJNfdyjSoQjw6xrWPAshSm1jtrAVNeGd4l1p+eKKfNBVAR+xCaeMKaIJuY1ngFG2rWlpjY6J3RNIyHxGrOUnKqcFa97FlG0KS4qjcfbMJfPMD9UnjIWHAlY0GcHOv86XJ4GsL+XBJ8XYLsyUvTYTbhpTwnROlzCXsWAIL/3YAFldVizfbl0VNdLp9YjGQm45K7yIWTDwpBKACdbALaurCAV4LoqXHLv2sgt7ZmagkUWi8ilGig21BV9Ot6ceBnM1magMMGhuJoMN6NFkZ9FqH1biZcKxiQw6etV3XSdk78778pIk+1r8uAEgXjd2okt+F8igfRwBtVZawSPYD2JddcvZ10Fw0SFrIDOyqKWkkFuQDza1qGBp7tutg0YqLp2O5GlV5nEAKsfLxta/3rKK8FRPnClQ80ASNSG0Ba/wK8YFnTeLmIMg5bQIsyA81RazqQEzEImP3ioWD2sqqX4bYqw9rJNvcptZiOQu/kOTwxWa4y0xp+NXWd6os5skHBav2qDI76NHzFNa8/lVeimogbdZfCgKzgl+WghbQn5u9KWtCMRs9Qv/D9mZUTt5IhUSQNT5S7EciLXxN9PEt+63jkpy7UNh1U0cl6vIay1gKq2YO2tmDTPchfhvRyBY9zKVssLU0nBtObru8b9x3MUMRCz794TR2yvaJZjDFLk1RqwGklXujKPeZD+KFE/mDF2qJYg2BV7jVUd+sdIlS4blYqqNn9hkOsMpiC6dladPo4G5u7YqATFw+WVnsWbmmzmBlMtHVAqnvWeh11w8gHPdKssSfZTPY0vX7gtLyWEraSoWkv0N0iLgtrzKiHUFhGBj/New9UEl4uFJarme8CeFgSjyPjw0i+UnpJx7IOAPDcCOdT9/e/WPwThHwTj9CrBX3M4QkEWEbSv4lylTQ5KbQyNG0iBnzs4iEdj9sm+ZduVPN9qD2r7OGxapwS0tBwQJ6LTVTQdQV9dsjtAy1Kh/gpNIE48fY7RRhLhm3NbS502fK3FlOiT20mkEQmi5919xuODniLyZbYkoQEqdld6wXslCyooVjLzWhgB+ooES/1WOqYrvjE3rpzxZ2QpCPxLi2dG4mnJqx28WkRuc3gQ8ebfcKvnBuqkqIGO22HHm03QndxZsvvDfoHYFT/8v6fUqgX0gkKzRDWyuXXQcKtNfsKQCLSXauFSST+eqN+UsuHeRBJYkFxMeby34fv267HmXFcAK2wQbUOLV+bwY0XfHTPe82NNdwQNZC015zpwMwAqJ8JVIdiJbqL4u1FUYv9LgLCmIJA6j+hBDPY9kmpTJDhb/Eg02I8VzHizOx/V0tkwfE8kXdysu+d6Tb5jmuq2jxG9sWq9sZ321PqPWDoofZBRPxtGMlTkcJNp69WiL9yHIHb/Tt8N9VwSAYSFijMCxvEt+cWxoAuumC3o24LXCXOuWuWWr9/MvixK89s1QnnXbKll7YsAhHqwL+7T9AFCnjD7baUWOrBcIjpEO5UpmAlNqddd4k5MUI4nXYhiOZU1d6OuBA9YzNznmJ7VxzRlq3It3r4Ap9mGpBiEqCX03h3Rx4Nj6dor1qlKSohbpMd5ydB3GVPTokTaHmoJDRiSlpuoKauLRJHn7wsvexB1TErWUE1AwxiDGPN1fHkw2spMTBncPyCXC3+5hvbJ8b/6f1CeLhYBejXNX4je0M6Wy4J1RxzBtWycQTG3sG1P7PcOv5tIVewVdwSRE0jvqWArmKIJcHZ6g3TPDGw2f7UEafhkhE4lLSVxoZlhTXoXSRfeFlu+f3p0UdMOeNBhO24xT6enUkIkga2QRGENXVH9PpkTeLpy1rKupt1tsR5VA/Cq7mwnwSqeGkDKlbJZ7rQftn1TwCschyhLD8vhcSxMsnwBxJz0yYEkXQ76ScH5dB14NP2CnPSARoPRclN9hQXF1vVQRtML3stLwDYNl2cedxkixQzuVyv/3LwSt52Y3KXFHIXoShDAEZfCUXOcoOVT8ao+x66rv0KP0lLn0/XiO3TXhIhNSNeIovaV1SuNTm3XI4sXNreozELVIYy4rj96QHjUlpVOGdv/h1LyaliNsvAC4dQxEc1KrI3TAMECcSYfHL8SlTPKDkXnzo8t7SPNmT+Zf4tXAEVHrzd1L3E8pgLIzKo6aeeZOz12W5cLiFKxnH4E6g5sH+LxJlnBRUF4/HsLQdNK0172RDQkM/9X96aj4Cu3Sj8O12C3cAMoOu9SV61d7ghaWzLPV5Vvn1Y+pwNlSiJ55aAHL5dDtWnD35w5+50u496KlGNTdgrzYzkj9/zEzE5B5RsjaJXLkisSGpb8K/KW4Sr+jH+e0Chf4fe/2tK/XJ6ix3IJNUTPJ+Xlh5aUhFt4skD11B2FE4ev5KKR+v64F3ERFivYZtgWHKgmcMxwRDdx7Zb4t+WlgG5UFWvYPtzwRhvXHsn9zd2jdvTpCq0tw8JTIuLz+T7Q98Astvz04UeaWzeWLRuDd9SsLKKEkD82+p/RUEhNLrB0G8ZllzT1yNmKH8eC3tRzm07L/iP8mHN/6vHlLLyqAsfm68hHG4RfTHEA+mOHN9ByL0/DTKjyCEQVLzfECEfkhaNX8lbamwKZ+wIFMh7FbXJnftF3ij5qcXlybwZlzNqy2lU0hbM9FUOcmqqB7L7uHEpAv+InbuY/eBpTFCwgV7nHOjr/BfO8BdGLngef+rBZeO7DWtosiGabQqYe6jWr2mkyV0xZ8Ksnt3M35QRCZ6C/1neANY+TsHmcmt+Us2/GxtemwlgUn4N3fua3nsoFhpMpEUmV1WdSW5MFgiCbuKyHHIUjnvJNn4uI8345bn7nHLnF4jXBS7ggrSo0uBJ5zLodFlYIHzmY2JxdQKcZuP8LTThfbhzWBgCCPV+TrvUpqGQN4O3dcJbTc6rf4vdOtcdAg9dWigRtrbbqsEJptqkIvLOHKYUwtzVTofNds1TbWoLCRL4KecxAaCpS5tvWOE3i3i4NnKXITDW1Sc+jnLXzWJxp/H3AZosczmcYpq/vcSP9c7cBpSwa5IZIVwr2hNswi0iLxy9WcklNaLGcELCM5ldaGXFcH4SShBnai4XlmEdzcbQS/YKDjbxOvrbQYuM/ZZS1OGCySde1eA+5f+B4CAzfE9imyXejKatE7/P19CAlKGYUA9SmW5nId3eNOphFNc+F9RGx00pcyvFtEdJoEuUjA1fE1ECvRzrxxe2yxfkOZQvsjfWIeJSR5beFDDCqy5RrHaZP1wRfz/apcBYRYXhTXEmsmBhsGvetSpKWVhZ91CzLeOjb8nNnYP4qeyJ/E+Ez/7a/rRxLkJzVOrMguN0FHnBjf4U/K0MQltPeo4rUgorlTFbrKfQWBPgY/ipI5IPhPB5hImUOJmWF6OC/1rfp1eeeIOzkl6TEFCo2ZX5eEww2688Y4nxGlB6WiLuaCMIH1XXthMJqXGFW82NOh0ACzowatJpDVOzsFkTN3GFkzAur9QcDFW4PJU4uyMSHItBe8z+cQ28PD1UuosEKI0toikp6yEHFYs5iBynR1RZ5SLeO7Eu3dVNEWOpX7VaqF8tWyTtCm/3ldFXRoAZ4UR55oAciQ+MkV71BKI970VOCli59FHTl0NvHru7fyQWwSEFDWMwCF8J+q0E+xYDZVWN//VM79LL/+ewhxOJTFkIrzoJtkWsHZJYsAD146qYz7hWqNA54XV687E61wWIn+EK4EPfG/fEGVBFpsGUNMkn1R1Ee9z7n6bLwhC1wzPoANOr7hWAqZmKPynhe/zg5rQFQvG1omJxD+qXH6SgMy03JnE6ByAHKwSTDVmBUuVxd8F0Z8+DIo2RXI8xVAcqbz/k+wYk3sOJiOaK/8Xy2i+aoRGWiWKG8Xt5xed1YoBcUJ41dge53GmwiKr0J9y1zSPVcQ90s7SW8Qnyp1V8qCtp7XgobpwZONMkeNDAFxYir+iK9Je3KxA6zbpAmSMAGT7HPPRq63PtBjSzLMh6CWxyU4ylBkHCTzmbeF93aH1PmNnFXrdHxDqlgnc6LS8o/QebXuym1td3dKVRjLQ8nGCdV+gv10RFjXU5y1qJqDWQS+VUmJY4HdgUUCARdz/FBT8/PLyUDYCiIREyKrb0DZk54CvCMERDQiY3rlYZsDtl9Zu5iUlHMabmH2/q9bwYdfP24hnsFZon6Owz5DjDpCRWPwDPXCpTVqyu3vxeN6PNDa51vlunxhaZyn8EKI055zxCUve6i4hcMyPfr/JZg8qbgFy0yJLBIK5jqKN5dkD/1a/llbspITKFBgkZqlNsoc7mIhk+4boNekJTPmGW2/hwNqIqfsrHgFvCz+HycjkPmS7GiYorw9mSnehr9GwCjqS1lwxjDc6v9lF2FtGiy2SEz86GXpqjBpQOMBH8C0ssCNDG+BYA9kigHFc+GH8IUsZrNvNbN4K8sDN3Is7bF2mT4qLSXyA78C4JDwkGdMGl5Xs9fh0P8/Rc8d1+On4/2Ep791a+COYL0ensXOVeFVf72TYJlWAmjBJ1muLuMiHK/D15DZXjHBtH9NdJrWLa8C8pf3r0GMQTYsjXXLeFEyrNoayHtbgI/RdVpqJZzEnhqOPGFqCJKELYAaXZb8JnbA8/gcRBuW0BaTd6oHEXfi2RwAks4JU37vIsd093MiKFEGLsYTlW9XPvGaOYdfU3mt20vDDZhoyFZ9+LeGz5oevR28UQsxsXt+Cd16hrxElpKOv5EV79vCapV+wG70x8fvnPk5Lk9m00BEYz6qKJ0RswQr0cSnFai3uC/NiQKUSsW1tokMREWdYVl/aVlKLoT5YaFx6wJj3CTZ0TaM7yjkJ9ze1VoZlQTzCVbH4spdUWmPwJriN9q2wanEpTnbE2tPh/lWVlr4mzn30XlDR1TRL4NUBR76kb0bQLOL4/hvwcmRyEhGtLwbBMp5qEJxrDvkWKqfF3s7vifcAqK7fiPeHCnLPOk/rp54EXXYcMX1ERUlrnKD34g1yaI4kKHuaj0IBKMFycK84nhQ0aIaXpIsp+bLygtc14uBdo4FA76Rd/qCOydk5NWaY9xm7cYXI1Nt63UV2y9XtckUSa7r9CIUpIORVclx7ntBh/H1Z3HrL9Vf0mzH4YF0AneITUGxfcgDxwbenEcZhhNnzPNgpgUKiXbIKFtTl3sDTzJpq0OmeRO/KrWMbZClEukaMGJMAYAiXazGFXpiVCqm8GOyO4gvRLHxMHWpVKGEnEdekvNl1eha+yG8I/m5vqeXqw3yWg43NlEsihDw48UieaE+sPSYWph+9oUp386x8sog9LXnvHyIu5eUoil6l5LGB/MjOSTGpKxRo+PMRXjVg/dgo/JFhEdPc0lCossPATv5Nwre9SdUpJGZIFQadPZXHrWfccQgKRXCdD1nL66TR1/CtJaArZl2+xuNWlGN4XxoBG6zzBqCN8L0i/fT9NYac9MVbSH+ea/q1G4TCADkUc/Fos2wzCFBxWxR6AOmwOpeP1sciEakNveIsKAEEJf3BNldv+8sHBsokk/rAFegcn+9btBWBGodBLYip8QAPZUpGoqWQmr2lm0Kk8STLcIJZjQ4AVzFMs0fFFYbjUV9VT4ymzLbGxMMXfqpjlugroFtltv2cDN79xzS95LIAni5OsA8lvbXctQUDE7ls5H87OwdDes1ssjx7MIHImuUCRln441O+1qdCNbp0MMnN4K1NYHsmdmohSk80UDDkA+1Zw2ALJAZo5rcHlNOVLFJtB/95OIAzFh4y2LonrS2/TXKT59G/BaNPOVjRPbGE4OLukjs6FFMZXS7Jwz/28jVuOt+Ax8i7800WTRbSZdHlidOYzflU1V075jjtkbT6rXjfoSZ2WhULW7MheTgxQO4Tr3K4J3qTyUOm0ADeOnAcz9JGsOyFMKzU3gc264boXtZKjkcJXg7QOdbpOkGlvSixLJ8rvyYLdL4opQoPEbCYez+Tz55yH1156agHe1Blo0QCxyzOnaN9NoE+xFZF/e854X1lqYjdEieJcOdoM0ep4vuVuzEH6cezS/VcrmPzYJi8UbXjY2Pml0h/QNrV+YjtKcqEjjG44BStF5ldrB+r5F8pLi51mWo9cTKg8Ut+7wEn2rKWx9IpCtndgMw9JgecsNUAHUrUgiJdgQb2yUwD9CfweJOoe1l3QM4eMJhaqEulfEyCHyKwZvUlz5VWJLWL+eC4o/tyzMcWIzEOd+Udc/PP2i9OcAGJsdlushPcSTFL8ezlN//GC1laZZQaB1yD1ON5C5jZgyjpHz4R0wS0ZRlQB3qDRO8B7H3HDX8lJT2tKTTF+Qf8rHUocpvtDaCqK+h0XrMwxe6m/+gwQfOYoBk8Dn7AEqSz0w4dYErevuSQ+Z7oY3gjtRa2roakMKz95XPZSSu/Q4mqL2r5j79xzNCfFRFfeFibIthQwkjSmENKcAduS3h8OphyDoup6R1x28RBeYo1rBa6Gsyx0grJs/oKvp5aaESfe5YY+IQgTyTLF4hTqtW90MhUMlAQSh+eAKms0NpyqqpZWXUbhwDBh8E86QLbWgSZeYsyLLkeP2cZEDBvTUHO2IAc/T6T1G7xy2D0ZsGOgdZ+KCTKmLDNClc/PSZZm3Z82AGmckzEBgRQ1ItXaPpEI4v0fzdIMTJcwsvywEmkxbMJrmROFGMoYuvGMHMXBaM3FcPM3jV/Os4STNO6k3+rIkASG2iDV5OICP3Z7yqLSNN6NaM+FA4byGewmh0EbonlZFgKSXnKsW/vuQ7ao2JRMV981BouTfHdYr17Y3PlPkYx2hJ/fC2u6e2SwpiHBcbD+kjJrV0nUwR5wZ/alWXS+frvFGx11guzfrHIQKjhZATroncvxucqR6WDwQ8VAyN8S8i+gJnkh65hCLemjCdZ1fKIDyvgl6HOD1DvfK9+6VHnH4QYkxPBLz9bqD+Ghc3L2WD4IHTiADKXkDC8WT8qaHku6Tvqym+ICE1gwk6ycejYXcbohIn3850s+jtHlUIhMVuswUQpr5A5KI4wwtqderZv6v6AMYuW1Knm56cqPJLoEMIu8Ki5LUqb3PsCJPgRq2upvO7O2fF/0BhRvRDTTv5OD54XYu3vE4qpDuhg+LZ9YFQn/Ikucrf2WnSPS2CEX8JqdwjCTv2xzoBDfm7Xnfu9mSO3jGoE7al9ZF6x+oGfpzOLzcFbFHPWUCgCsOfbPVcSI1RPxe4G6L0MzW37H9bG+DcS1uzlQnWq5az2LGg7ZDArDn86LEwaQsxvESW9T2Tlce5hCJ2p7XKMvmdzZkEWvkj86vol6x6AaTLa798KaQfygZipZFMHkhNaf0HeB0UWt2DTTMo7WY6rCB8RHFMY0BFtYGku/phJ4ucf5DHk4Mj9/GJ95UUQZksDlsBv92wtAdm8RpaNH0grFpNUYZscoTUR5+nDersV0LNtwIXwf7AfEwzJg0q2HYqM6AJIuuHOdVgnoaZVSKiOKSmyWHAsunccQ1/1CP85lYyYIInHH5gUK8pqSmUwnziAMJvRDTCA2MAK9q+pVFOeD7+MTLrCiQF/5Lx58hiR6ayI/AmPaRzrB1UDIAUTdzdbt4TlUMdTIEze3c2mSgf71+697h9ogw+Yzeyvh+jHmt0L2GqlgWm3DatUsTbiyjeUfypGhnSD6JEHzwNXPpmBApG8HM7tEuSTub2cCfJ2UQWcezfsVEHBbO+OldfX2EXXHc1FVxLf/nMQREn77HF+FOpB4umB+gEAp4qTPLXCJqF/T6Ed6K42eAyvf/kMfz2VjbMo/OsxNAzX+ENLIKe58CFHYJqem/7fCEEhZgW+7B28ZKNaiqj4hxEzgOUjCeZ8NwpV8rY+9dq99ABIaETNty6W2i6ikP172Ir7w+WMaLInww/dej/qVC/YZ+LvaEjtd8MFazbEpu9+1qtUu2RBu0yK/aecoQVP7rokWH8G3dMMyK+Ar0LLarXDRW2SFMcMCAvsIGE3CLEOK9zMdu1fyhFB7oer24d0qR6rpeVsPnS/fLXgnwPpqf++lAnbxCaw/cq9ff3O00MqVIpYqR1foNlvnBEDgrBu/c/YvrtrzFiXHic3j/VYxk/u0zBKoQoGYe2l8ICdGYClAsc+kJb4qLgC1PmYWPeaMgh4STwwCZT6Co1wgyssU21gMh4zb+2f5ZoTVWONIPFmeXc/CPxm+iHFLzXS/r25InUNkRezAHu8zXsxRanFZyMSsCCNwC7natsTRnuQNMUDHy4wc0LwKikEyQdoSQWyFvFSmYB+PwMkkxFkexVYNriz7SZFNE4WPw0G8q7NCVFM1i//RXK2XDS8b0a5PQu65aQcEogmhZxePsOuuckQWWfVcsPuU8bXeTKX3/mmkm1q+GEQLEFJfVgpzQgPsS8/HQDH8M4mi2FLvKcGtgab7k8Mv92jOrTLTseud5mwMdwCmVEW1oNb3zNDREDQ06Cle8ATiW+MmgAKr8w+2xKmxa6KWDj+ZrES7M/zNw1Tfp2it9WUHmbJsvVzjnketwxIwvuCmzOIi1v5fpPOHNJSmBs0S2eUJjv0m5yecKHVIc2v3pb45eEzYCLPXZNXU46jLHrOdngC9dF6VU2e4bT+MHfU1CzDVglKoQEiU0JldMhu8wj3B+iCUJmsz9/HN0eg8H536TFg1xkhKIyOY0WBidzbQMGExMoJ4KnebfKSKCgbUDopstNDESF/uQCuXOh+KTv25mSm+vtcQbQEJYEzBVILRIO2aIj+HbrQ/akW8fMwK0MnSeHvtZxUp4aeGvf2ITq8mbilNSuQ3gl8OidvjamOcPrsPocT0eaxLJ5OjTAZtg0r//fTfLeBDdjm4AhfuxrE/oRLG4DWVijySIwBeILbip/OOHLRjoW0hQ01kWu3YCxzAM+NlwJDaSKZ55ldTjHAn47Qdqnr3jVqw/knTiCrCMA7oe4zmbUlmh6hreEJ1c6/5fvLqIs+RBrCIjNJvwDjFcUMvntPcnrjHgx0JG93gTGDuZfFfgnvMbC4ndpVvKapCl3xaVa2YYdthzOj5uXJgYgEY60DQ5mZpJd/oYzaR0dkWjTO6u7nnUC6o+y+E52kx8aUNKUBYiecTySfgFDlj1ARx1TKXnl87xODNCjLshmtZOlg3K4TSFrrQuatafHmqRc9S8iaZrs8U0LC/AeGRFd4izUIDoUqYPaN/NptROsTPR8K6tiD0BrWlcfYB9Fy7HVV7EiC5/gFNjF+WLTAKJpLhuZBC30Z8pLVOxzj+yL6t3YmJsFEpj52iuT+BqpBCuh8WJLz4LIeVvj3xrc4xEsrLN+yYkd9tz98Z++RxbUWY6UHtkW/4GV4GQJZaV5QRC9oWm/m9CIxv05sYzgGhF615NlCXddB+SAtd6+wYC4nlHiXxBIVBNUnxdPDpbtXEYVdg3GAYtqId1/6EkHv2n6m2qQRsceNK4ZwnSNbZsrd0EsgF93GN+elmHz0bdE20Mudq2g+wRJPt2bKyhwPOLXq29Ndy8vLl1+Kt64xdgQKGtWd1JhS5B5RR6K/uXaoptEjxip7Eh6oXvgV3d4asGapeRzbxf+rfWIaVV/LjCScwMYd/0uNp4E/Q8MGsv3vRUcvJCdK65RKpfR5397AmTDTqM5hx2YtL1Df+GKJHkDep3roWw7JbWh0nEuUBB+5gi7jiYbpnPu5HGX7s3piZXXN577UBjbndvMA6yTRp11iVi7Sie80GoZ5x9K0JkkwecY7kiLi1324xUvfwVnoxnB19pVbf4JHcA2jbK3Es6ynrWiVl+gq4IGvDpMNcB4T5xJyNJuzxs2d0SdTjwMz3TleUOrhFm8mT041A/VmyfyvwDOr1pyvUW+gPr2uXn3lfbGbVbakNAHa0nR15taAEO0+o+nj7sP0jNCheWbY4oLMTPLyqQDpOwyAZF3kcBjKkSH1piRAwsFHRPXaouShygTYs//nbiSlg4guWBtLBFQFVkuifHferiIhfSi9AViD09RPGUzGRS8zb+hzgKXhty+t6NmMJvF9r+hIhFpY8B8f/2R0kiVR6MBbvWOs8ZwgVYf+pxxKbhRn0BTmZEG2yNGlfUz1CwMxKuVgIB55mWX+ihurdN8NY1HSK54WrkO8gioDYAmD/uIW9rpVH1dZH8MnlTQw+kLXd1Dj+Erl7kAeJGKsH0+UF00blo2gMm9B1natZvge9EJJ8syii2RDoftPq5rDVYJecDD0r5ulpCI6yfGvqBVHJiLy3eMnwA/k8hMXStYmLGCAykC/4WljBJqoFLYA3XzYNlD3Ajzd0DxP+29SWceJJk4+O0AMnVR6dDVcO0khCZ510LfvcLSCpe2b6qeqALyuIUOoMbA2p9Jzvq5w+eHezMEE+Kp324yYwDWIPr6JG+Oy/+LMuxonxp0knERx/OzjWTU/wGIUKoLoWZYJ6kxVjTOuCGs1EIpLWXBIBSFu0Ib/8CLCYG7vdNsjNRx7gKZB6QcrThyIXnrxAWIy6TX5swNxbq2ICvjv9Bh9LvLDpa2h4s0O6prESJH7G0Pq8IHvyqz5XVYuQcSB3IdY+4wQXF7v/e30d7xRikIGL5I4mqDhxqs0tWPkWOfECW5cLj9pfpfGjF3IlLAniBylC7vM/0DtiZNJftqFbM9Gy7pwY2kehKGrc51Xr6oGADMvlMcOuAe2Gd5MnwpSeDViAMKUILp1GKp4wLtTyRHFD+7Bb4aLu0Dt1RxEhyYMffeGjRhg5gfo8YL+5Evb+ISlq0Ws6vPGYlDAakmIKy0aev8X+Ygf4UjlZIHUrncKQpDa6B2Ng+ve99tRjbYQUxImQWk6jx35UGlUDWdx0t+/R+PcC2xDgfU0pexL7at2VMVWWuAhilDe6ERg+ZaK8b+ducpVlUoMReiTtV9woZZE9v3ZNdEINSVPfRrBvmWkpr1WgqJ7ZB6v7DY4ufa3Z8MNxlqqKuDlGadzLnypBKC09KTQXhvP6oLGM8af/xrBMXdgFxFi2cl7z/jm36Vj0oX5q9Q3hepl8nBLpRgKlapGthNjaqyDLjoo+xXNVZ98bP6II/3q9IhQ0NwYo+i7tgZxaW5ZSCUnY7HA1VFdTHzjIp4NjJzRFYnsbTbiHKZ5YIrqEqb6T81rdsz7dhlR9DKkRLXYj4f8Hn5AwuwNV87/t1TeInXCRFd/FHxWhCpLUh2siPI5DgS6ad6/6YB7u9+KT67H6/Q4er7+byFvklzgUpm4RhSaW+vtgKRGQPkX09pGD2tV72r/kEwwEZaIWCWGtnBj/4TBAdF7rlEPl0WOoTGTSHAADOWEuD3XlWC/Q1qhrFyXwfpL2IFS3haCMUbsUsDmt+qB7Qitp5hk3vsT1Ow6wk0eND4BE3pIzyL5XW06P0ezc/jujpktRSBatQjlzwiuAgCBu5zHInOHc4iCsddx/D5JY69kCfL1PaDb1yh7Oc0drx3Mp+o/aUG1hLmBJ+DBC7Zag6FlangbXGOfm/yjxD4iaVe+zhh3IyTJqp3Lm2TKBtVW0vr9NuSotXLYFr2elmdCBaB6cDimMV2P4Jck11/8vG8aRdCv1D4/E/EQx2DpnHU16sZ/q1l+QAW8hHQLAo66ISiwm1E2m+1OptwCs1xTtQxMfLxaItMrvx6v2lmLWLiETVGGnG5QW8RZWCM3BHItflOCkGiUn2SD39UIufFX/mFBgYrdQL0dQKYK7/TM6ZPiDt/nnEIeXgkZ8ArznaNBKeztr1iO202inKn0kqPSQboztDBfppQOY1goxxp35YaKfRDsDdKMjySpz7+7HwlMR1xlCQUARmeOzX9rR/rkyekSbQik8PnuSDe16cOf6Rk7C2TWqiJS3VdrbuWia3J1Gw/qF9A5oF2/pHguVx5hXtMNqVK/PEjcCxIYVcX1Wd9BnLDyOA6UmfwlXyaa7r8nB81nAgNi1shWJPJpQzA4P8ckRkYq8sBFIZeOOElxP6NdkXbiRXVnqRaRADrPO6px0Cw98IXVwrf4O7fcEzZjQCW0TSqxAZ4w18zuyVuUXM8x0df235r0EZvPvkos8szEXlqHR+05cT143wI6SL3kovxV6mWXhX3WWF3/GzpDJd+gh+icXnac1NkNIBBMERiA8COEZ6qHATYmFrbd+c8rIGp9tQzWxferhv4unCvRvAI3S97Rbzs7ki1a+YMt4g/KtKUJ3YE3//B7L4+dJPxydMUDo04SHfJaAxm0h/QgtBhsg7Zs01u8I6aOQOOoJWJt2ZkfspJpFz6hBMgu7ylzNhDhOp1GhsRq4/icOhp52MY6FY8Vkzm8ma0qYS2AfpjYSnuqvCOMHX+407rhFYoQ9QmtPeD7sPtLgACwMs0UBc+Khe3NCY6VqoIK/baxsa77Ye1x0M7TAtQ8WL8wSDsI8y2vESLRbAVqhWnlKn7R6KceH+ZjdqPSqYgTC103wpqCQRKXzvM1pIWkmmaT/+tPIwNtuNqfEOG5VRx78P2i1DOY1E+szwawp7tZIkYDrVLcxMsVCZanKdzAc8RYC5DLA8KKlwUdB659+RSUVDtpW1g6swRODC+2feoKy31PP6oKwcWkU8kDSkBM29/7wRwVz3q6dBkcEZHzIxfTMRMtC/4hAusqHIYZephu+5FgvjEwJM1IqrL9BoDlhD3WrlR86tD8O91mE+BVYcp4AmDOCGisYIkDJ7qNFnQ6tW2kq2l5UWWvgIHkaTh5+7LD5MBTRhkAKldn8SiDZmbp0IMybJsFypUIm/RA3/W/7T8Edawzhqz+tFmL0lCEuOf1wIih05thyHY9FwVIE58rXqwfh7SpvifgLvyrqBqA0CaL4GxR0F3kPMDtceQnu8RtptKXi6mN0J+11502ODQgVEEDn7s4b4ctqHf9GdJl0F5bzSjVYsjOcgnGFvKjDq7sBVC0h+53qVYTLHTUNEbP5QsdJLuRG6zukrBCKTqPZxEDUXE6i4Bt+c580cHJRW+odZFlde5Y/DKmt3KHeeusOTW8jKXX/NmGEyO70Nydb4lRZNC7ogQN7U8AZKaPVqM0jq5Y6N1A8TTM+MwUJcG+S3+0gjsICZ+FRgGZ0w40UA10Esim2/zIavjYJBCwYXY74Un4tGZ5AJXJqgk2ukNWux7zk6uLClBZR/2iTmfZHHYikD0W7VV2NzOKD2NaGEhQQ4hI6o6bQ1hbwiyH2+x6p8I5A8FXuf4m4okgybNhcmQgAZsYUJiGL/cQKAXtznagxSDbX1l1OSJm4qHYjhEmXIaWtkJMq2Lr3jAIO+K2PTguc4vGzO1d6JAsdplTtc1f/gmWv4/jc/AqyXUNCFjL9Rk9OpGDa14ITDSErQGcSVssQXm9fIagLsX7lw+nsChIOm4XjcesJbnYMUmx8KR8W75vW1UDCNCBM0Jx4b3IFqNjgsyV0bMlgL+irVMyOkJX+ho98AYH4iWSOi08mfEIzrlTTzswXwIDOmldecJJkSjwMdvxy9x6e0CSWTUg++2Ul78DUSzM58MSz/65pZupTdyqPJgQpmXCisyHwMz5CogccOpWpdmKZ+yWE/8y8NQF0Cz+JFSi+mRSVJFfhConG+Sh+b9bf0+MRwQ/Q0Q/XJ6UHeKxBUqIUipD0N2p+7bUjAQZ/rL/SaiOGjjd/Pb4qmJ4akBJImohXpymH/30oc1XhxXVWfUiGS201RL6WpOEHq+TadTxWGiLvnUlgUWA1ihUj/aSiagOl3u8dDuRn24wQP3sIM3nxgrB2SQO6JzE3yczEstfgDxj2xObX85U1hUfZzmQLqJUEGkyW8w7/C39w6GWwzxypchLXQV5o9ye9js/ajYP2CJT/L3ujg2KrYuGI5SZqRXVdhN5yBnKW0FEiN69UQH6SNKw/8EciYW2J+KdZfxCnQzhfoUDhdiWhMP2DY0pB7QbXP75qv7hYh9PAwSUlGE/X/J9ppJCOAgn7RUWjZa2qML44XmIvwJrbyilo0PDyt7SvDilV5QcnfSinXNLGuU1eqIVpQjUnDZ7VjQUveWYtIe2FVYWuBq1nQOYvPUoKIGBpJk7gSBnG7JdnojB6nLiUced0FZkk/Hx1v17C6I26M1bIqHg8304y54I2wiLvo+ns/31kLeKMdTITtqQvdtfoPx6VFABSTWxoC97aMR+EswmhqYbNaSFySxlUksVMUtvp7XzbfUE1Xzl5SFxZMiZSkrJp2JXG9G9rCsnGlwUHREKc2yWXXqSKML56iwWhUWRdEoBeqR9gw59Ibe4M184qIckm0cOI+Va4X5pJ2FK3TAD1x79SJKG26MsNUOz34d26I/gmEDRPbXhtUc1FikIhkteXvQwK0u7z/PK0aoFiBZuJXtXKZMtq4A3hSCXTsGXoNjI12u11O6kt7XwA+VSoXBKfKyQqM4sbDNuh3M5arE8jZpPn+B4SsGOT/b92bFaGcgFnis8z7bp1UYbpPNVwYkTnEitRF/+014nAyQMOayQVWb/riFoSCLM/rn49atoxTlPzGGMmPiESzbAcR8DAxHHU2CiYUn0rIkkXXUwHNk7t4LZpnWYXPb5VElo0fQq/6zJSsABJoB9mAtMJC592tcm1JXcrSh9GwuaJfO+ZT3SGAx35euteOIdDEevzBcte0e+8y2q5UfaYGORoq0TO2GrMN39fBwCmANO5ZvC2FnE8i1eWRHAMHh7fVXQmL5itJT+w34h+48S7bM+6QQYb/GFf2aAW8krGz0mQDd233ZCI/N9memq7/resdPdZ7gXxmuXeG5JGkYQFakOLAD2BL/0qBuWUFzidHZwwMrmF4IOt6vhECMSB4+7DoHc9PQnNtmFwrr2X1AH/StADA7hsyuBu+D8zuJ7Kd/1jMdl3OfLsnSfpoj6zwSTs2qCNmjNTHWIceJ/1a00N8Ro/cKCFmXT71qv1kRQ5GIb+GNGhMOX0JdU0m0MsIngIlEcfUoHmb2Y5kla0hTRJYPbaLiCdiVS+fITdHIV+wO5lvS/SjmHwMn57hwEinRMeovc3WpDhYuUxjFu5FvK/2LaxBpN/mq/PtuikeBx3QeuVjtuIwGHpo/zAi2R4L+ZWe7fnNq7CVS3inDbUGoNKkqIj5AkLkTc/bp18vjFzEaZiXWJSImTbwcEpu6UivLMPYit8QawRhP6xODEM/kwxIpAiNo6djfzg3frglMOWv/vlk/3wqNPzwn/IPkPMWaMj8Sl/iKwSoAaAEMXlgQxI5k/0/vWdS0zUUOuzBuitnLnn39TEGTFocJ3e0//j22pclf+Y4ajvGW4NDxSXNm0fYl7xFzXaaAYOoynpH4sCCsdoaX70qgjagSfwrfLRQfFCMnQo6WYGSihjAl4gFJQISf3Jb9ZFPuXxuiuyDXzRT4IHJmDME6mQ2tfXzWUtz2bz21CdaMakZM8/qxQDF31PNEURphwq6GnBA7g6i91dYLb1cRDUDz7wYFejeHvjimoWPFUJ5Xcvj5xePF9ttyql/+1sbTZwBpEMGAfS5wENcf3L3M6uoUDGVg/GfXfBcy4uaCD38TlqhCLet87lgrR56TVswYd4BpkEk8YvlnwtknDr7jPK0mKAeZolMDzqbPan7saGF6UeURy/zwECa+PBY7sEr3Z0JciRR7tcRzRgZsWxaFrm4MB0jTexk89q6CfmfkYoJ8Sc4J+xjZ89rkUf8eKuZgT418cCo+SlE6gdGm/s+sng9xBBvT4X/KY3aWNI7y6B84krisG+nw7N/PcfzjaaxHKgvKG9xrWhjyovpM8mcBuypV3vU98Pq/JEIyX7VGxlimiBzHQWvOJUQKJMutacrLQbRmj3Uo0WePnGxBQSvZDEywWa5uy+oF0Lf+dY4f6GrBamjGhb7i8V+7qXncDLMHmKkjSnhmaptkanW6Ngjjtht3Hxn3LwZFmGKKMXHunCuUrnd4SarioxmyrPTdlgi0ICUwgGIrR4iC5KDS4KgN6xWM2YimM/VLNcfj6H2Az8vQvBIRqAcYDDxUU9olRaQaEuWf20T2o8VEWGW8Yq87oblcjjNnj6dajMx+M6F326cOOZgw3hZ0qr105zPrn5MF71uLveWOJfDv2TNnIkT7oZ90u3MLxbopT3lZJAaUiwUPclIFDfdW5KNcfOG8BqfeGR+znHTP6ST3bUAI7iFhNqUM0IAwXvpz7kyMMzYgGFiVKLOggmB00vMPul6tcRhAvX8G8EqepQcMNsskViDLozLUl8tHVlL+St3ZeK9fi4b+Hvf8diYWUV8GTbH+B9v890Ud7l/7vagZoorf4IjhjRChb6fGEn947sS2HfJKzEg6gKYNX/MwfNMHhkB8BqExSETJ8MS9icGIyju0+WBE2UaeuKA4M3p4KOn79QxX8FvwGRCI4nZtLfO4NM9iuEdsKGtK13qMpuRzru0G4pJHM8ZegteN65QuBpRmlZEyv5I9UO+gZT9NffGtQo61JnWSOX0gEbfr4nrKtT/QPrAtnpMT9H83yJcO0nxBLeqk3KyRE3GLPrShUggeoTDpHv2qMhVMwJbayEEMAEB+Up+7h7rcvlUI+SEiN+EpfjGW8muTho2W+0pHSZsXEp1MS/CZTQLEsVblZydZk2dLMbXew1bgiB4JgpLeKF4OSP8fFAQh6zNI2wBf53isxQcJ+VwVcsOCeROfa1AeuvFCflzlDy+ZCVFhEH4U2aYhjBUkowPJ+5fW/1l2ulEJHgvF8/ZLaCTCkl/MWDbwqOxZl6l3ThIF3oZpijk+S977eP7wQbuD4FNXUt6MywX0reVH82w1fYl7NOgGJBqNaSwekDF72mQ4g6UZrJMLMpx6++IU9scdUF4wujKwEeLCTpL0RAEVw82iPbXm2hxTL7NGsHzKCKO679q7OpNT2+8wHCP7vIw/EmgfN9vKtP98aA6wB9XKyWbvTjk6YyblEYtg0IFnFYnqPqdUkr+WeDZ59m2YI6MJOeoJTSmlnHX4hff/jEypZCne29pPk9qI1Ur0eBRybGMDPh4kWPRJjWa5UmwVYqlncc0zhYUTvM04Ang43pK0cvmjDZqmGePe+7Y6+pJGBg88EdoXGbUHToehZJJKlabV+hGttSEc/TMre/y5OPFXHlIEjCbhQXYvLQgh7/gT1OZVGry5pLClLgXdUlzZZ4xoqCZi1yYgXlBqp6njQG3UXc5UlKpINd7I/PZRgHBDrLrIAnQVMtHb8OJshRxZe/mnJ2CVav/6AE8HwU6ONBuWow1b6mKFSbfqALEXV9hN2K+EgUFV6gX+HAOZjDhutZgeJfZAcHygwYvT/nLnu6rmjbkvlwAHcK0nTHOXp97fNCCAJoYr9JsxTHSRGUgEagaOmyGImrWv31Xutgja2v9XFkTQOiTVIOsYA+b+w6rYCFKO8cxQ9iIDuydHhNG9dLRdhQcmwgaAaYzXJZELNfnAPueAukfpUwL549HfnHdNF0BTK4/Ew5KzAkG3vyGwsaK4cOLaDeq5ks0XDMmmC9nEqpu5u8DDNVJ6x6tEXbR4BHpPkIXIRvV1I4XwCa1mLWj+2P/Vw7tVH2TAAmlQe4aoy3UzwZtIkPr/NoUpP49VcaLt+VEzMlC8hR8+NmjrjuAUyUI5Sy0hYIQKpzgXh9QFlHM09qRy85eUYxkU39IKNorEg3aigo0BlJZ6gpzokKyPaiGGXdV2aJCm/2LmuLpi7y67IoYHU7haEfS0au8Y1NQSEWxkO+p6s/bM7o9byNUtrIEXTe4/wIYWssFtqAQidP+Tub2qfbImQt1QZwRC3PPQZ9uICbCVxRTbwVgurh0wscGS7jOXf1NoYONLIVumW7BdrexnGBSOp1UDD9m5JvB24K/SmV5KqrJUvHWYXuw1tGZ95sojCm+J0W1R/fyYg3uUZ4z0zFlOsBZNa5RAdIydWbm6KzYBw0tuDpO6zGv6vsEv7MxWgOmcRVDoHqRBjjUorJGfLwJoqqrZhAlq+rbZRdmDgy17P6FUwH8TGStaNYU+ZdJp3WmZP7Ttt6/49j9wssousX+krUVlNW5MHt/bHG1nLKPlIZLalDDsTYBk8UcrE0eEtr+WupSNyDggVDoefUf0x6/fC/DXsaVIZ4T+pCkL8ZHMJAV9tE2YlJjo+MT15ra3u6HQLtFmhLIum6z0dXe9dcUYp+2A1cX78wNnwMvQUx9G4+UVOi87QT9FeLUpiFfq9m8d+K+j+ikJwU8v9p7oMUFfc3dlNKOf9Kt4DdM/q5TIFesNILmexrAvWsCEmKDCkhIQnNe/PIwZpieLKv/vyddrD6w+v8yq7lR0hImagXmteO4OCdhKYEKmRJovAalm4P/zJ3HjflKV8Yz8pv8NX9lNLnE+2ZVB9pDObxOp1sefzprS6b6wDvgvB9dkh0a38cmew/NlNsaWHOz7f4CzqLO0pv+/+Ll/NYh+vfnDKV+xU4hM7qItjSMVp/cLLcuvkBE0CBSbx48p9YaYq1IeHZMdv2S1K+N8TJfqaD/XYESQeVHbqLTAZD7HNoiD99KvhQTmQMqCUGEOdbDKAaOKhxsxx7LRE9vVTvn06Vf69EaNLWvexdFnW9wkvPpEe5hIic1/6Epg1gLIomSSC5d0P+IISWoGiWe0J8hfQWwiZ1W3iZLHZZ1Rlf4JLFlLGFE/hGpuPZMsqYbVHNY1iw5sSsdVkRD9WNOznZpzJUQRFSHWvFVSLrWasvFiNIhEZ5AhxoFdI6eMZ0GYBIzwXbhcv/UWKnxPD4yyorMvmh5YBmkL/nTQYRHGoUuK42xoncF+PE69kR1AVxSJfTGxKs00LDIuMb+eIBacZg68kzJN1gR941PhMt6pC0cWw1xQYXf3ZwAVK7chuipiMeqgRE43q2+ICOsFxbxaUSmv8gCYP9/1LUdWW5hZ7WuqnnuL/Mzgui11TBT34jUP7GsKQQg2+XYljWZsAB2iWVvW7o6tw79JFRtIshR4Vg5u7Fpr32WNL2YnpPOaUqVtDaNSZIbcwGTsjtYUmpfn/ddutb9SGgv/0Tvk91iaFThDt9H7G7LOmsZsdl/vJnm/DLYVccm2gfYw0Zo1Hiyq6S9Sp/4FTovxl7E7kKhAauQwWFbPP+7vvj7i++jk+rAajuB1Zf/qvyGH8yEdL46+3X3O2TzaoFBLkceCxgPkOEYK85xJ5hH3hULCPbyGuuK/0I3BKp4DZYLaNCNunRmWRXuf0gphKOG8rNarHOt2w3/A6bUL4U8SQnQKWeJcwqcAObz4Zls7bXyJQfxDyaqBly8CBdZDX7doOZ+KP44sOFdl2JXtdNBHRmAHO1g5pyxOkQW7UrBxNMVox2OQ20oOCghp2Hf6Ame8Lbp+5pand0AiT44eNqbM/UjSicnO3sbBF5tsg1rL8v03uGa+vD4XEHDyURBADx0vFByZVTdivihWNoTOXbESSZ8HOjnZU/82qYIL1L4ac4ryWpU0CniIVhGbsvAn6tWuyp7/Ujq8gOYn1HdfR0OrxuD3OF85u3ckgLhN6jyYQPrsheExDYVOwpvf1xhl+H9p4qM+94hDmbUevLaUqJDn/EQJ57+ukiziCP2FoJDf+HS2k2s+pE4NZC3+BrqP5ArujLyAyM8RTHYmaaeYPXFFm/nsBzQtz75wXEIfufAtPt0xG3DUwgDms19F6Oh54UucRbJHzL4y2So24UV/kZuqV+mR4wJVSoLIJjuwuVcRYx/n9BNSQFEv2CSVmdNmDE2J2JRaXrXOkhAbov+F5H27UM71Kgi26SejYjanKMtxaE400RDK0H/IXwaCxXfNbFqFBRwirvKBgTkjBDnDCUABQCqG6mVLorp/JnRteIvtnsR4SAMYfLYcrerxeG+LtZHxCBD1mYCqSZV8XPO16EixKhyxcqqxWazKnLlorO5qbZwhUDjJB8jQGIKKF7fy5x00+Cj1uc9IT6sRcBi8vZteMD09S5qFKRXwoxT3ssE+4I2G2R0zqeFVmLcSk5DYhTZ4DY58N0G3V8mcdvPi5G/kqXnkDFsK8tMKr0RjI5tBfDzyprtZZWmzXwEWEbRbaM+VyRdIX+vzPTdy+lCsbHqX8F2tLw6RdIFNHRNomWBYajF/KWxXvtG0V4qUt4hNChEzedgDf9K5yZ0fD9X9t1btfSYWnJxTCTVEbgraEZWQgMpjjxcAoUHF+af4chjxFlY4QvZUm4R2j8PwS6MS4Jk9okOGBFLJd4K+9GDJYGNtMpzyFd5NJLG74MB2H36frE6v+D2u5hdn+uE6bmOumGjVlqiyZP0xAweLnFEY8dxuM5FayIk9wQGprY6KXaVZMib0iFQJAoySF/+2Iz5M9RYP57ls7OYpPQGCHWd9Ag0aYueLk9S8i5SR/Ubx2ilVKJw7AORE1vMKNt/x8adbDAY6jwQ+hGAvsy22+jZTOkmbAeLL2Zgk4oc0ld2GqCAJz4khAR3Nglu4gBegMg6LqEs5y1p2QJf8fFIjC5YmZnJjJBJ5ofiMTDcVAVJC7QPaXciRsjVgc96Hvgskt+KTvAIe1+Ekeveo0egG9DKXIxLZXLM8xe5gauwbHIevZoqRRBLuF9bFYI5FkFQIcBDckbsWy6e923T9SkQUb2ivmSCqk6kuFUaUQ1hIfya7N+b1JwEEx53IDWyzND8C5PuNmYYe5emJjQC4W3LGtKvvmB7z3DuUXO8W9O5BtO7gcDkUtroSTYZ9EIkjSr96Xo9Ri2yr2GZZYGl9ACgzsbV8sugNhp2JULL5f1nRQ3u4iUFLwbV9kr3NYFWSthmRe/yoTI64kLbXVJZeDVupDskPIpVd0uXs9KRQoSmiXYQxvbWs9zQoZ9ogBh4Wd6bqq6gyQbjdH+mpvhWZkAIa6CkqitEt+2ELWzDlS8zulN+g4+tIVMi5Xe4DrIQ3q8ERcIAWzZtSkeh8N/WAkluJhUAevKADgRhrdbODV5QKiaexMgpBjoyBa5H3qxJmNmHoswNDKlJmnxeEWqBrOXy7dK6xmvooNxGnjshRb8K9DaY42x0262adDH5qy9m4bUMtI2JkCeCE8NTobnh3D/NRd0gwdxZcjYQ6oIofJGrq9YKKnBsuxFhB7e/dk1Ho07MOX+WbYseLNxj+qD0ndTCxubZBi4zzNX9SeLmqp8Xv7SErihzQTdkNY2h4CW7ZlFmWRD4L6XsEWpYgPxZ4yQgqVR2WwDSa9i6iGjw01ScIaaGcKdocc7ZQtgOIR15fhbEdshK5CheqkQyh5Bng/AfBEuXa9+E5C68fp9+Q2yLM+AnvGEf/498AOpy9XtNWu/bSJ28W1iPICIyJ/gyqsXx2gOcR4+9pSAZMV3eiIaV3C8cZo/d/onHlRcdF4ZTtEMO6YhUrIv+/AM/eezz5OqeEZV9Ye6mFJOthhZ7hqfiXTilBo4r81fw0XWCDra0uusU7Pav8VHIW8ZuT1Uh9S4OmnxVmXmDY8CwVLRgnFI3kwx0CMqBTyEu/aqS+5lH84h3nFChm/dIXPYEK0wd3Q9idIHb4nfP89BjaWNc3yYEQ/dgty0FOCWDzTeixS1CKxmNMpZFVVH9MMiY25zUrbk6QWe0Eq+KiXEuGR9jxGg6G1fSyHPa5mV44MMJF3Duf+hUSJvX8ibV+fw2zSz/maAL12PUbT10HsUPYB00+WmCOCCDbEV28XxrUrm0thHX3GI5d1vqcKB55Wr8Jv7PLiXHA6/vFYIWQBzuSCfhXbGx3X4Zl3MwcGo2YHz92qHMdHweScCBbXyM3HkleXI7YJ5n7UQoAw28v7+ZRbXYkSips7IdfJKUdKQBA8MLAZeaWgSuWFGMWSQr2Vy4+UjNdu9KwX5o7ExfrgxcQdiUoMW1lkwiBiGHrZe6v3dIvQfh8kQB6Q3zC3auRgGMgYfupv1fD+hdzjeUOHih1M2xLV//+7V+E8YZaWjhVZ1wLMDo7liWJ35xfnimodRg/4Bnbz3RwZP7JX0e7uI1E7kuWN4pbPxaKM5Eia0U6Ckxd9mJ/swX03zU3Jg+WnAkNh485iPyYjsnWSt4xkEIgjiwTJxqSxRaDPo/AbWabEF+T4HvL92JKO3Q/HpdSERvM8QNdc/HORMI0pG3GkrKJAlEuhz3C4uDrgRapXO9+FLF/Egv1/l4bHWOCyZ9tvmjpAhnudb8QnrMsgVjUXBlQdwhbs3f9lrWHWEIO5WxjrjtRadrYTdjXYGtcMaIHAYRBX56kNhMfmMqnKPAoB0cAHbAuqw5I49nbIzMRmxocCXuSYEwieBvzAMMYQzSj9/zsg9gn7JSEPYP+xirkf8iWO2NINus7M5uY0HlwGVMQiPF3nTmSQs2B/tAh4KJhLU+bt+hQIe1IQyivkFKsQVU4vie2aMwd6SV8eUMUBdU9aZb9JrDGYyVIXUt3dpuX5rQx2CBldwoOebzM2CgjGLTwhcAw5hNgZTuQ1pQC3rOTlYsCKtCtTrO8QqcAn0ER6J6b0oLLWEduxwDLeTlx2yta5oHhOd0jCvwlpKJzyuDxCpcu2s3nLmKK6+9D7sQkBWunx/r4AYKoBu+obcGnzw0CZSb4DFwmd4SdQ6QcPXKMP1kpmuHLRIWZeOEb4bZcysQ9oeNfQQ3DrzoALjBYj00JS20CDXWDsrmUCk1ElSRknheFXLGMSMpXu9bbnQh/D/75ILmymUDNTYis86i0tOx9wUGZm4acaS/uzhVhJ1dm0DVkPK+Pom6UL7lGxuBQT7kF+fqVNzQqyAVJG9iOrNfJAQ4Y+RYNke8MH4CqBiw38o3AzFZGO3+i5toHQHDv+8zmE+jQXvttfQt4GaTsf1KTaSweQRXYDv/vKeb1L1qRPlz073lHtAMHc52CKRkSbW9aNKmtprfRAl1aMdlPb60H54gB/gcUmZMNGvxT0kXLZTSFWtdHq69iBQjp8r2SHByxN+E4UMMjZx1AznyDhp67dLcHPFwYmzEojv2K08sh1w4FhpdZhkey/qqARuI7Y1N0CfsBdT9AJYTysgFeDqcMqy62ZDTlQV4mT9tLdbjtt11QL222bLO4RCysNC5XsoKn/5EGih+4bc5WN+rVeF9lG8okJU6HUlzL0j2bF1E2SDmgYsu35UZkvPe5aa56PEU3UCm1Qfr0OQNiLbNnZNG9ANKXZMzqaNAYiw/f+BdEWA7gNtW6MASneV8ugzfggUtVVfe3KRKnYbSYAO3YXgaarFRDr1NPEbAa5B1t98lDXF9ywvEdzm/oMHWQv+KtiA67XDOsQOJfwoGXJP6VumTvV/1h+jtBgJBpBIrfZpQwn/Jd+HXc7FGVY1equQn9z5qS6m8IqKOy9OyPAolDIbSPhdkzS0ox+MmM587MCFoST8n64clNrrJ7deC/YmXpwZQ4rubbraXgovTrbsElkshI5FEQmTtlT+eDgnNLwNZxUTH0bWfbdAa7/VtElKpHOl76G6t4A9jTuJOZffCsLyb5okjs6Lc6NrC8PS0VyxFWRUikAt6LZaHE7NK/9aVgWe7/ZoOGAvigp5YqN2a11A552kZ+aLPwVaHo6+0a5xfLFUJvZIkM56yD+nG2ZGq6gzhYjxGmKTrZYnPs+g/j7/HNLOmU3w2Ch9pCm+tRNvLfmqFW4sk45vEgrym5bpjdNxaHj0rFgEBp0ce0HrUfb/c1M26Tt3Z8bNDlTAjkb2BC2gdGKZsMfaOF7ZItnlaGwYEjpUqy7Wa0fA7HE3MSiZ7ntCgXwrjHcxZnHEWlyyRTVNct19dG5vJtkNHnYUyuWVxpYNyDDAiOMzCzAVlXdSCvX6i/DAXP5Pt5CeQUKUwXBSBVOrKhXux3gmZvFKlaMtfL9QHa8YQ2rVrt4prfjoBRltF1b7vP9VjJ1lvpwGoHMyVEJwaghteGA8Vd1JMZXntQz5wlk9+MF4G6jlcmS5viriCbSLeiwck48ELsV93uDbp0QZkowWDnZQt9dIN/apwIqr2OqEZYwTUHQyaeOLiq0ZpvWxYZROZ6RMBjl0EvWV85m6hry4PNUYkzLQgWaU1Zg8BKeSLTGw/Rm7wvsMokP/5J6dtYLEOFeZZhazBelPIIDjp99y7aKFagnYd3ipaZMXcp2qGfDmm5ANYF4xdf9aAHQgBGfIePLhJJWWOnJHs9OaqKjzovp7IONDVG4DPSwdLSxyBxiaVLLsFRJhVELQx1EOtJuZ2EzaD+PqpsCuWs7ACgSaVMYd/93Y4G1OEBoUCO5Kg2IDlQgVcoW/2lVpBfVLczAdEd/V1fmrPXH2snPlUgb8Yox6qDJQO7lpQ/niwx7am/wcVdEMo4VJ8mgrzyagC53LLn7iL23vdBjrW/D5Wj7+4MGddiesvao77KhdjmPgu3XORTAZRgKqEoIqN43Cvwc0JK+Sxp7gG6ZMD00O2CsouMR1ryaN1nwMcIhm5noK1rff06oWRm1smViWwK0vj4SVtzoPIXMFSi6FML66l7hNu77rEC2kMFQSiGWq8pdy3IBJvHoe6wBYCghFUAsLLlADWmH0DoIlpM559Tni28xe6hMYYOu90NfTdvsjaqmMVjTs3/sybgrDF4OalrPBnxg+jKkjRw25UjsS5BZCIKB6+St+Lp9VpxZrPgW7TUP/CVrnvO7Vr1HkpmPAs9ydbuxIsa/soYZGNh595N5vUVaEzF0FRSM07lL5wFjHQHG9ckj/ML8db/FmEqvmUBUhxy1FOPBXwseR/thR2+bk0wQuacTuMIa0u5DrCFyfD4CLgdpqkLkYS3U4Jh9B9B7o24r1TUJFl/kZptoPcenr7FH4Lr1t1jtta5ElSFVCRF4JXTxLZ02HtXoQ7R3C4queZ1KQN1xOMg6pZQqAE5ojg2pbeLKldiYn885PzAYIZ0tmff+JLkOlw798mpW2T+2U2lldQ0RrbJUB879dxDQmc3jKmmcFH4jmz2ep0AemHiXBikMLwDJCjU1dPtNodTgQHsffZnnEOh1hWqGvsmb2UHO63Mi8kgx/LPVsI+8c2rQ0MCWjxYVW4tUVqq0YVf/Kn3PZCr5T4cgU7zXTEVftS04nVS1LHX2K+DPLwpwqCVLBfYGyz8IiuKdMjHS0Y7wTyB/HxyK1MX8F4w42pOe70t9HeMvwuNjSEZgS57a7ZLUoh+GoXUa90KBLPcI2Bf2ruuaOQ57P8d2c6+FBqwKpysFBJ1ZBEPiHJVk13q7cEObjXbNMVdNN35rX/lnmUurLvxW+Vdh8WZTCtA6ZrCZxAo+RUnUBMvGADYmNspqhlkfzGlPkLZKBJRSKIFZI8aEeER61Nw5del6IgvKH7odI+OBlZ0P5ECamvO/C9peCcM2PYlCTyGsN1KODzSGGRLFXkLYNkvGozduwYEilWIVtEbcB9K3E9QxuQcJm3OvcE+icrSPH/s1X7QrldY+lQi1QHQsnx3CRpQS1ZvhY+PUNXa8g7sGOlIyGkLfCSj8SSsJiKXZGVtnNr+U/i9wbQ2A+As9A4Zyk4jIKQWj7aSN5G4KFUgbDUQJ8uqYljUTP4TkrDtLcqCWYrdpUQY6auf0ywmQNnEM4vcuBN/3I1QhelKnyxQF4GVNgNquZbiAe+087qRJWv7X0NpwhDyAdVwh0FsnjnTA67bFOu0DvkcGs2rERfYoAhwL5hHEawHchmA31ocgMY1c1JuFbRazQ+Oi1+V3+/CGZH7feotDwPv6wuLgcaNRBWGIPXwUoWpNUbGryaxRg9j6u1v9bEzUbstuGJWuziq1yJFfeHblq6a6Zz91kNiqFGUDH7THaphsATxpN9uP9e4p5YmBGNkzxJJQSNmVeNfymoY1j2guDNG4USiLke1thmpqoR4rDKEM/HUzBBKEPryxibUOz7aw3v3iVDdVxsPuCzcmRAI52Qo/+D2r9WiV1xB0oUzUuoQUmyGdElAv89TomJzWB6RXU0xN87aV7/FoFffODL2tUoRuRLlmv7pumJY2GR88xhmH7xoSL/qp49sDJNY9aaa4mHOANshonuXF0NSc9SAWrwsz81NwM9UpFEy1YPmLnepRmFAQQmhM6gxFbx+XwxLND9wWOnnc1UeeREqNjixHMPTYkxA+R5TAL8aDufxovchrON03P78Fbd/r5cp52UQDhRYUTxUUWC6Yvv5zbgVGR8nOQhangZAVLK59620b957fwPw5JBg+mg42EhZEiszbO1997SVYNMUzHpzLfMo6KifIpCMHsxKXxMzbEnGsEUcudMkNPEzYUbjoCrpwyEbjMXlZyXsEp0VfAhYpmqFh/Xj6XMAakm+HlhFh4arhuhF4VrYJ7pi/YhRXeqYYrWtbbwqFFy6RPsJ+A4f5N0xZihMLwI5lAc3ks/y4/1BwLIggoD5aahfqJxKqe5vFSnMSx3TAxMwNlJ6WH25jZyro8C1TlrY+n+RcTEXg8Hv59dZeGrWhyaHsl8qifTIl3QlvI+Zs8ZxB/4/Tp4KiLm0vXNMVhRGM8v40LG/Y/F8JDRRLuby1Blxi5bESraaLMQz4CdkFgZQD+2pdyjG4I+Ta5lh7fvTRoo3297FMdzN/KdEfu4cpUlZI54ZiKHUO88dShK3Z9RCtC4nXUYKcj2NOYz7HrpoDObXYA2gxHirW3LecYIqHldTsD3IiLo/NKrSEAhlOnT9aaEmLT0P1o8laq9tL6lCa3ppCLkpywUehS7vQChMxpbySa3WlCMdJFxvkGi1wV+8GgzcSGyoi7tspwKJAiIp8CC9F6MxACwnxUCGeX+KvsvTciv9DeYfpaK99NzFjo14BOlJJPYxlpvhbypdgY73+MEc5ZJu0fwA9BpVZ3sTNjkoNJmYUMiJRQ1G9IUjFEV+Y88xu7/wwelIshZY4ylY/KDy+oKF0yPYfm3ivehjVrwx6W5+BdxEOl/Fo8CV6lx1BpPXvh1MlJIGt2oVjBntcVFeqyueLOK65DnNYOU6E2qj5vSLs5USPa7Hd/BHmTbwKNC+jSOycwfAl+E5Iwsin45k5TEnw8MI4oW6mKLk6MZ91pop+JwXBjiBPdz2KIjJfHn1rRk6IyCfcb0RNTBbnKAPuuuuV8+XsdBTNVkl0Sq1NYdhcpfH4cYZxchGYoMGko4XrFvd1DXErufYlgP3GCccBBWjhH+I9NhLsZxWWLoEb7LArgjpPIIjRg7bhtRE51o03XtRAFlpUAPxWqXqPgJRDPaX0ywUX0JKM4dUOnlbNUt9K4GGUCfmhwekL6Y+nWfjgwxXY237bRUUcYW50cR0tmhoLwUycHpdo4QBDG4sOmlYCUP6MAUC3rFfrmmqsoicHMAMpkjvY3JpqmR5SqylhtAa/vA5j0kF2NHo2i5gww+V2sGcdZ0G+FjN5WSFuRThoSF9rZ3Ll09chnzHol0d5+tSJBb2qTo2J/muJ3IwJfVrewue/OYtlP7s9Im3pXm8bMU9ZSYOR9fdNe+urMfGwQflae6hzr+mGR7kBZtGyV48R/2XixCDU+OrDJwLdafT2Y11JP0RTcplm54HbEh7uzzOqIKXcz6PApSgI4oyfAbD1ePtgR5sPCvXtc8yTkB97yr9iG6g3mkIn3nQXuBI8B/JYOs9dArrHGqsEgHD460V30W8lmMkGQYeMQ3nnnjQ/MgWI6gvk2IdIiEOCknbdx+s4H9PzWjLLx1G3pAr0mlH8rnEhX65udLHEdKb0zmja9IfDk4BOd1ZIBUN9So/9meq+2I92Nydomitm7QY0JqT8B9bp/XsuYeR86tVXImaA8hST3pzWynRl7jc/4WGUtZsgV7DsedT/35FKqo/lge7WStanrSYueKn6gTw2LMgdw8OptmqfibpU984+5/HpUUThQmlSPPdcqRRi0esFoWu4C3d0Dsy/bpn7VHsRS/qWbD0Ug7z20GBhpfVMLLSxu8E9rnyjlnVkacY1JRFoiFnB3sZyRITRuPYOOO0THGaN9wJn75pPip27dS18IDCdMa8KOw/Lm2wcul/fA4XRMwxHfzJioyXRfXSecTvWzpUAhX/2Noijr5KchJyRrN5nqdAyzgzxYmTTi+XpPe9GuaaHV+hxcT+QTHP4ikygNJxTTHUnW7uhufeH9AB1RKWpQCNB7KmfVquIN+fwG6s26/0RuK0+TIJ4WDMpspkD9j9SdKjcMw4ykoMmmSFipmJwuIkIaAA9Wg1BB6T3LJ2twe3oqjKerB99jE751j4Rmhw4hIjz3pUA/+YNQqNHztsR/u2/kMtppvExBoif2/R0+6563tXB8ugozmA49cWCbk1RL4Fw+5IppWjjuLaqJswgkJX86ptzPLts+1vbJR7YSp5Kud3Dm9Wj0WQelxiizdiYh42CAuVR5JMjFBkSo/MACR3RR1xmYWuN5wAfkas//Y680+d33qZSm73ei+zrRzhjuxUgrQxn93bzPB//wlOhbG55qXhgMbKckcr9AdB8BQvOxk9ldxsLCV2yEDfs181eq4vzWvqQN46EWfjWU/DYY/JsYF3bDqYs27DrnhWtfxYQIBH06G3OOjebVFhn1gMhmgscl/+vrYrnjQCpxS9Qelsa0tP+ULAd8ZWPpNxG/PGJutzAuwS1FW7TfB2QFsz0vQKF0fnhIv0uQEty1Lce+XFM2IWIQkhklPmpyRIDqdcWIeoco60M7lda1ELBqjckmbAlB1vJ8Kh6bZSE26GAsg+Ta/Osst6ohNGO4+3BKlPOXXqkl9sM0h8C3uFgahMTvmd/NJ4AAJgq2nG6NfIHkG98bR6hfjmFUaP7n3fqfNnrhUuSgQcrNSQk/XQjUHha/wnFwERoep85wjFQPgJP01m3nO+cqGDbBEccyjK1bYwgTrM94fPnw44eDQ6OSrs9vdrimGbGtqZ6S0hp3RngjfHXvo/4uiDpz6AIo+T2dQXYob+KRjI40MP4QEs9ipMPnltBJERSVe8rvUXC28wiQHFq4NO5SUdWXH9YqLJePcuL1TR3/sEejBe4zYjkNe6NMU4IoGVs2j4m1DEY0krbj27mU9A/kxB/azRNkw2KBeZ5YhTb8qYAw5rg7UlgdwtDHa1JiwMsbeh8Bxf+ExMdgmT/Tdf7DY3dCs1DoG4gyp6DjpjcH+KAqNP5qjpPv3EJ9of4dAPMRLdBqopIM7Rw8CHCRr00DT2HifxkLj5FM4i0MK9o1BaQEjeeWQS2mCRchHCkjhy9GvNVUZCEc8qOA7qd0ufsHgJptK5uw+mcdA72mJsyxgpA3jMDzrpw07VV9LlAZLXALoTgOEL9MWxKkhpsv+ads7Xnuuj0PXX4yz/coFGuIrGCbf0nOxvxEARyNxQ5zi0y0BNjT6ZyYnNjuAz6pwtEmtfAktFQDiftCuYc6AzV/LVHfs/G8PoszCQE6v822YGjbAhSDD5T64cm1zJwnNQOHxmcy7fkFxLfLd632mI3ZaU5sq8J2mMDj4nwoCEzYX3bFiW/SjCnkpI2DvkBdB8wzANgJ60MBmJVMt4BCxhVS3pWF25QOX1d1yE0bFTC0EHyqrylM4e9Nwi+d+zASPghIMffWi5ZsBPgFMOfuGhvbzBElQjs0nYZ9ECOXzXV6YzAn/ZvchCvC012JNYkqYJA6rAhr0BXCO2YZ6zwvTYiqXQZoIzCeRH5q98gX2b4h9zORAQmuBssEk8pMRD9pvNw1qx7mHe/RMNqiHJzkuvsv7jJucDshx7/rOmHGfQ1axc6csTPVnAmJmKbAoE+0CfE3G1DXJLafCjTIpZXQBLFnn3LFIVZUo5zB5JWoz0/5vmXbeyyRnh2BY/H0hcF4DSEMHAvZtVeA8Nk9ODZERoimVBGHV1cJUiQJopDbAewzKHea4xu9YKnMFaZ7k1ExfobKYt+Mgp2u+M3hcQfhFOnfcnZtj5nchfOt2IdJFqTrVxEDRTUiBf0JUcre07Qqzd8Qir9ajfTX/IKU0nv6QoEH/iYTQy4ek7x8sSgLN9gd8SZVPW/Uu2o9welrZkl0U6FZ51Mj+wNS0kqAlsncsXxGLdeZdTU2m/dFj545QHDWSi438lEaCEJCERGT3PhbCSXwEC28LEk3GxtcHOSsogRHqTFohwJKoZgMZlJcKgCBnEDlvpIlYijEuFUGthQ9DmYla/MSBU18+nsBy6NpAIXkZk/Iz+/FQttq9J6DCw7QIdaOHU103zMUOE7snZPKmOI85egjeA7KrchgIcQDdqPnJ92CiYcvL6csC2Ch9XHok/G/h7n7zp49/VKVR5HTXLYSMv6p+BpPP2mq36NeNxLCzovCfjcLHrFUWCJcIGY9BsHhqw+nOt8d7d0vojKQHbaIebFmV1XnUUrhog/No0w9VRPHGY6mKNcs8o7wrS+jeK6K392rARjtbcsbmKtwRamB1RBKtIGIuPweJ1veNfrzS83CBExjbbRV+clkN3imMwCVskqnTDq11ObtAcTTjLZLX0TBb0nYsUXwxgfiatES70txaZHpVTuGqjXmlPPwscICedkQ6zBWYfYaw5klznVdmwvMvvgie3TbkdN5WBULJy0ipWlRkOD4lVECgqUUE4U12YXN6mKxql91t1cr64UYD4VrYtnGO399nMoLZRgWJhZGgBQoLRoc5QHjW38rm7GpvaxX8SLScxucNxF9FSt4CQLfE0GEf+TPkKHOG4+sIv5fm2/kskXZbgDH2bYueRVQ4wr7oTojtnlTm2EimzwPpDVG0KiSVfYpSfoRDjZrDI6GQivRxzr4Oc8Cq/4LA1PrhR3168CO0zYN9cuODt9h+aotOvuNmsyj3TVubSxxX7BsIPtEMME8IwbU2mTScy1qfB36PZDC1j4JUQJLwa1GVCY7tK3JkNKupK63Cm7hZVg1rj8rmaAOfpx/hWUKX5d/xzipy0p/zbHcGww1jH5ZoVbiL0xdsnlcggtHagYrXa4dJ38aCfHZFzvIi7QpnvrmvKi8vjdRynENnjVQWjLGIytj7RkR7w9gXaY6VToomRjNHETf4V2Qde5RQfBP/X+2czpgKjYaX7eezmCEfbU1fcXlBsQJ5UDPpuqL1Gks2m4pXrSVy+nBB7JXCmJNLo4wH6Oj9EqzgmrkLf9MHclcvi152Rc+wBwh78Nad+00yVtgjtUFCV9t/Ot2cSOjHTwKxf9nZDwqBBwJOMqM6Hye6xBhjv2T5cEFyV+tDPu+5JAvPo92IXfMnBCbgpLQffH41GpwzjAmPCVWR2fk9yDDHl8QDcix9CB/f+XqCOnL0UkpQDTRgGhQXzH8F/jL7R8i4SNYAJdsyQ4zwGpNevi4JObCuV7ZnZjV9g16+NfWfw2mNs+X2KIhIx/QdihWP8KwQ1l1LGWzcAFzc9PXbcK1NFQ5uLaUPMk7ppRwri90JL5oTY6m93Hp2sE2MA7Ith6kBsX6h5DDgMvTXk46DtqX5wAU0/kf6u9nZNJSjzZB++3lECOILzMUAwyXfgvPWulT7LMSL+3B5Ys3in9PYUQ4JJR30K/xPkpIaiHE/G6InteZjVuFXUs8Jzigh8qvkUCiKtNu/+P54ws3hOVoj+m0fkogHf3MZNv8C1+Q7KCMGRngHhJTKRolinkShfx/EuoRaaLA89K1tZ6Nwk6f1s5KK2JwQ0LoR0Nb8HOcvF4K+830OHjt0XLdQi4JFtNvZvrH16vq/vvQli6lh3akfFUNxhvIuUcMGaAn5gdASB2WAT2wu6d5tr8WJaRtBGAneaEK4PZpw3KRxLN8aqKqGPRKOWdvwSpi5wFbrgW04c4xN/wcohMx5Ja9rPbKfOlePvAIzDyFjmyeyTBZQDDfgSc/x2gYXpBk2Ylxc1uSE/LkLDfKjBNan1lfmt1Z0gp7/mX+XKrzZo1i3K+t8WVSm832HHghDfHNkbPMRLDJo5mu4L5FQyfu+cJ6Apt8/eqmE58SY+3UB1R4WA4mLhb/zxWwNo/vWN+pkTE8KXwIU29H2Iny1oMf0qomSf/sgQ2+2cvt2PghTXc01Acz7HO5kITyETOHnkyJTKleTDSqdH+HP44QJDWAVh34Bb0HH497ExvQiwZDCsOO5iPvIkjgt7xiLcXAFSdrBV/Z3GFWQfDFUMdO/VKdAAjSWHTf5EOkX/TwNbeCA1llnkeQ5OzZLDJS536dbWS/mIgkCU9EYdwKvKvnXH+7wz/BkWYnfotkGo5FiEIgNSnaEVI4/Wxd6ND5ubyHTyeI+LX9Ky7qpEhrTk/Bq2GpGEz0Q9HrspMyRVuXU0eXySC7/3Z2ftKRavwLfVf1EeUwCIOpmiBJ/n3LfgJID81ruq/vEgMuPNnTjuZ6iFnmAt9ujmYOjIE9AsGidlKgQaJ0739CUn5X7UiFYSk8sL5AEo3uOA2wvg7kNpTiCzkyA/CvWkwMRqmKKSKhRv+9zF28Y+u8vU36VF+y1ukbXtni6tOXLxwxd643ZxdpDpYpq4tY+pOgbLgvc1yLz807Q5GYP2Y1DcHzDspyUiZt8znDTRTOHmArf0GJGxFsapFcMq87BqlxTWjYu0nHgvqCko9jRY/MucjlJBFfr6t9oVTMjndj+MdIxXYTihYtcSkTEbK0Em121d8WwwNidrG5VM8H8JTpGtBwlpoWU/MZ3EF6+thvKXa6fez5/3HpFNCRRzJMO29vgCF3WFVcaqYzhZX9jrcvYoSrlVpiGwRtiRwW59qQcpM3iLsVP1qAxYfxtrzZ5XX+8gPWp630UDV8D5o6RJf43zY42w8Gz9HxhwO3K/v/N/dfeo9/sp/7WrmumLwV9hmJOKmkeCOVaMOfhT7mmYj/yL6Sbdu+GK3pfRak8PS2Xys2Ft4TkdX/ssDDpEQuHg9ZBcBbRYiufqj1aVTpoMJu3Vcr7WuoAY0LQ+MwZcQAw+rQ3bpHhncLTfuf/lLUgTR4veSuCUbZJNRtRqyBkIt4ipff1JYXS3xsSgOxDyqNS6G+w7H1qq8tmob0LTl3MlZu1DajJ/iM9pd605XCjyU4J0hlzkEVn3dKemVtZVxZUw3XaYSvHR8ANdnm5qpdR9Fj66F5sh/UvX+ut6i5HIcA79ODtN8y1Z6Dqn2peABUKlgT7mLxDJW85Y431yczrZgOhcezYkSkFwKFybN5t2e3FExSFBj5aiMu1J5Ml0F7SUtO5L6LEn41w2dsI+7QsswP05wJxN6zzfkZbaxgDh9d7LYYnBgvVOuDk9sJaaY27C3t3Nue7EJaHqOms2pOTcMyv0o4oW8EpfcviS5uDCTrJ5GhhpoQOZkeSKwgHu10AW+5Vxxr1bwFE7fZCk3gaOymoDkcxfgj8m/MkASQuMAKQYpQ5uLviJyCBK7LgbRPVcsTfqiGwAF6HPpE+GQ0K0snpBvFNI5eb9EIbZwpD3bGFTQd39GkQbF6Va4lVgROdpmUpgXVSZs3aSZO2Rr1qBDGYnIbVO13klm2N84hXEZDOVxK4slZh6WSVxdrcgDJdct8JhQOnmEg3oGXk/6dqjTWxsNCpDrguhhHPsB+JVhp1v3CW4kA0nXwUbpgKD9JgyeW3aJLiWjWEEPUaB1z9W6BZxnCqbmqIRH4kZ8RIzurYR/r3wycycXP+MYnC3hW405HQDe7CUiVb6LqOUo5vuBlDOq9ZTHfKXi+yjkpbJZMi74bBq2BeXMQVed51KcMCTFMDomlv+59eq7OJ4cC5rWh9MIIsEz7Fmtga/z8lQ72CbJ5xHE3FT1jU4rftOqNyPWSsH6T0UiMzaeajkpn2ck7jW3KO+y28riisUd8bRCQ1lMHmurNXyOyNNi6ps34jrlsjFPqaoDsNVZ1udBaohap8mSjg/JNNUVx8v/B/2d2Lt7OmPOWp56rkbT3wElngdP5OxqyTYFIGqHJNRKjr23L20I9FFqVfanfUKIZNAnDUWFTqt6zQpiCmrHeh1u/MFQj9PvUk9CCFVnBirxsbGU34LC9lIjgwRBibnb61G/FakjnQdcM+5b8v+jFz7NXOZlxdzh+VoaoJYxcxD7jh947wd+VZoAOqPihDG6rYnKjRC/NpzxTshUjXpnHFaMBomLnrW9I0l4PAyjbzXNq+GJpY0kZx2k3ld6xztQr3idWZk1cSd9/d1tJl+//0RNxoelFmBzYjquIERqy6kW9aktjez75ywGPdxwwRi5IO6RP/tRHzlC6X/wYUWxCP0ps06+j1CYw+2kQR+GVhMZUs6fvYcUXcaXOBxJ1Opxvp3Wad4xOQ2wC+cTIAj3E4NrteSargTE7RlFcQ/8NQIxXnBD3T8/v3J102fxmSfC39YmL+Hi1Uil4FXynBGmGjeKsdhfUT9s6iBQN/KDhwtmf8xpYO1Xp53PH6IWCXorlLutaxsoO4gYotN8CVySZvzEyWEyI35HFYPaZrizbv8u6on5MGOgdDET7NaqtS1dhRQ3u0AkhLCWQNH/1XcwWAujX0HHs+klNK9MT6Gm+D8/2dwUSNLXYprM/Q5Gz2Dnw6YNQACvVKhykMs3893/sTGiKFgRGFPbZtHszYtLYhr0WeA300GreuETMr53XOOyemClrb8vZWglwmVq0DuIpreaZ9g7o1Pbhx0doUYxLEBrmepzef5hlaRSKH0awffNClTfhn+Tc9uvJbvxY2n3PVRHClJX7nyG3StFPDOU+jyD+hWe5iC13pplOGtleng2ng6BMtAx8tMyPZOqYZJ6ru/N9lEQjfEQ6vdYkOyjnF/7hYrl20xan/ovpc9l/nRq7d+rA5WEmwdyn6opXSYce4uHayoyvoiVu0FFKvIFJkyczYSBzNHaSd9HGh55814Gn+xTVgTYPftt2JNxFSY7OBu5TFCTbBzCjrwmzTSb7aHsaHrG9G6/RFdnL7i6NNhPPjI94AeO9zE9HkSzcZ9+HisAcD4hBkBZP2c2E1GSI3JFf1kpcWGyjtgAbwEbJLxCi2qdcCwg388q7otsjqgJufLg0v93MiyUE/2gCn6gseLjTIt3ZoFpshR9a4YQmhGzfBIqNCXaPERGCHAs6buNdfORZIDEvX1PWwj9aGCMwMe6WxByiLfeL6qxSvpFtOhO+gX1LvED9BlJ70BAMh/fl9DHr4jmWpTV1b83zgW+SECbxzHAyor0pC+LatCBce0s2YSeJCUuCuwDsxbPOW+UZ8BcQMzcKIqSiAENg1l+EXYRJuCqiRP1PBpSiX8NwRuPweixK3CX2xoVgtDutIGEhaZWJYg2cnI9mFvJJdnHjKG2QC/VtiRs+VwdC0EQSLQa5cd9H7AEck579g2ROJNzpGbgNd8RZUBNJmA3iA7D6QHvmJGjngrz+YV89jm/TP0W1bxaqc9mbyjz1IRHWpqm2gPgyLCjgMjJn2jWGorXN/Yn+GlvddeYIQehVYlJFEOIVYThcWGRDxR4+w0PoW2gCgKJKwmcgd4Y5puzdE5glAJD9E54QIE1JiiyayhtpX/hMRDFKUY6JPh8wqJB8/NkzeAw7c0nqAFv4WVzTQ2MGb58IbzLsi8Z/5b9ixx/y8tyeuyaYPPlSJTkR1TOI17gksDTl5SmDynH3vxguiPxC+LbOQH7SHql1hT+5bHctwl3xSCjgdZil6RkXdibjNJP+B25XBE7e/bl+bDAR2BBhPkCAqrGClpp9wZ7MsS/3jVPdmfiQlFg1BxPfMADxEhzqgLkEPPBiIOqYrlTuJ5QkHEcxxIc/8bxJrwdsZYaUK6UqZ20WIk5wS/txV3yuVMJPmxxdh2dQYQ09T3WiNlXSlUf26pfAkHaM4YasSz0GODje2m4OnMzxtSh3knYWjb0DbiIyulJRDtp4b9fEvZd/AVJagcU2LQuIzhq/mtdVMaKkHriBlFZIuY2jBIQz4sRPhZb02/jYp1DmtotuY7o3PHfJS72W0+Ms+5oNHItrjIDcUt//G1HQSxCjzKliiNb9UJ7EojZECB4qns5SvNZZVQSDVAvGnzUnBlXIBUheqLe9kJgEnOeT17NfNFJDb8rFBNlTr2w/s474cP68mbP1s3XMA354UkncLISoka92G93ZCE57wfFBbghS1axoV73b57MUi7Q6QbORxXZYQpFHOEEJ3d6ul/Fkz8Jym3kOv+LrGK0/Ng4JaWwt0c/wWmrJplqRqZ4vcnpXvjDy5fyR0ukRbO7x9Ly0lR6Kjam5NgPkAVml+xy4cHSE2TC6ensv1UPlZlr2ceCshwe6ows1o+MNtVVlcUx3lKn8mmM6utGv0YPswIpb9riyKxyA2QYyU2YS3RLDauI/EQY2B7Yo8AwLBmhgENGttxbZcU4yhdCLPKXx50q3+qtVp0L5nzlGVE5ZbOjbmu/w+lq3p4vb5RGPo2oybhQ0gFghWUDcu8oaCkcmNYFtXvIh94/jcENjbx7gsOmYimxXwgEu8o0SKFEWR0jLnTVi8JexLky4e9FuWQCLkaUf8BwDOQw5ntZEL1vZWrj79Xbg4AOAScvZTIm83VwoMl/vgmTnuKHUd7zHEGEF/NRVFf6M8Nn9/zSOPOnQZNkue00KE19JBiFMs/LnDtLRzRLgt7SFriG8Q03pL9RS5bPlEEHQqAhJIx687ssCH3wQT3uF1wyqU6BdftDJABha7UM90dfDPEbuM6zM54QfUF3K29JRNviz1mIDd/5fhOX4wdy+icJfPlF/4W2gGNHNUptNMTiH6rTugLQsPmPFThgjdHH1ruxFPs7X6cC+HzaMF1V2Uarl2BHvGTgiUwpBA3udl7mXSKBM9fMzYZfPrGsc/3/7fTMv6TrPdOln0PBc/8B2Yo3+fyOfv64d8C0qwj63v/p6+6kesKHxZoZyZtM9Vk+eol8TwbL6f2bT0sxXimmz1OwkEIBifrNWmtOxnu4HcTclrM0r44RfwvGSC3ehcnEJGDuBAfeQILRlSwVLS8HOwcGMbIuPLxuFQsQCh78qsd6v6vttmmnqSF3i2cioFnlA2rLSEy1x7TNZ+ASgLyYvlmP+Vvyc+H8vm9ogPVCIKLMSTvIMy4Qfpt0AQ89711iNnQCJjgLoStOlfHqYBTWGaSCCEOpgzNswwCKok+I31UT7+ed7sJDi7LLAaMlkWjFrHcFfTLYsKoWHudLJhNxZcI4fK7NpoT92yMhx6cYvjkQKxztmZCx7mhqk3Z83Qk4PrEuB8OgpuDo1jmNH0ghtW4sU9bqfwALBhO3F93wx+2vwh8TATVg0qEkfcognJJ9JR5HR87+VLQr/xz5/+sg5bLoKJKm0PSRhgJzfFyH0uFOl/cHd9OjStnU1Iavu3GUr8Ozk6en4u5h98/hmd2H8+yDd+9R4TdMkQ3X1lWaBPyteIrIi2WrHKPGXzCMaP5WcGCFqDEVUnsQeAllkvWC4JovfJXH2wTLDOvwKIXng45F7dukEP6fA7M7pw9DWrZRwpH9sx5yWZl3R/f+PFs/ij/CjJ5XfJpqE6Hk/fVcIO7M3An3GZxZdgqKcqYgiD7SiIGwA/oaOoLCQlHcvdPZEu68Nbv+OhNatNPY/SjgF43GxFrXED55y1lfUC9HwTDucEaiU9AQzP/p4aDdCS0WIYKE7IXdrV8Cs+LTjJPxIT8wuweWdAfO41PEM1Yo9XyOg6kkvNT7TvF64tpgK8ozeDXjXjCoqUSRZkb8MZ6ezIankchCXiALMBAwBOH6xG8VTk+i7mkLKtG2JDIFpMQZPsAAOPo7wBGeEP5OR497t3AvZixMifMqgV8CHwT/O27V4PysiHG4ei5a3gyQEpHbRRLLPou2aKiwArgLUVMsreBlW4gu4ZOFEuGwWLX9uUNNOF2GIpbt60TXtWvti+pEg2WfaambF23QeR/DTNw7VSMK66HdUwgZunEZUkNwCX/3tiOS2E90ON+l9+7oosxVfXVCuh8sFeLoo82lLOrhkuaKoCGLiq/zVwvbA7Ph2Ni4BWnbUYJm/9/iGC4DBvyQXAbtfi5c5qaMVIhNf1pjUVRid5eyp++J7PCJLi6WVZjV3WNunku41T04vNhAVlgxHz8Yoia+xML+STFL1TlM7gJuMISEY8NiGUwmM4NCLQUzdSLfl5o5gKrNSHkUEvPRIB/8yfx8VzARgRVm3f3iAa18blbFAQX0IDKD04GDB82MrHUqKE7F3BmcHoZaP74RpbyaOhHKjL704c11S/+VpHJGS0/hQBVxZxm3FDlF/g8FySUJmbmbV/L4SHBt79sOVZ01Xf1vz6M7edhlrCcMhFClKFKjWVi1NXS3De9krsdIDQkVY6gcBWqAVyifxiy4cGKrk6DINSnPt/u0eeOHI7sidzuPE8EGKmbFqeyi5DdsdcO+75DqtpGJyFZf0jwva2+hYlQ+KRBi/MFQSR0S8yOKUtmrag7h3zyr8ofXSaWJlyOFk44gs7pyC5Qi+UKCp/iT+SuPjKbrCvLtBAFHExZcUXbB4RlFnAV6iz7tSAY8B1xxPAGYRvZPYKgOA3Xy2JLGPRK/hh8lIwxm1Lx+c+sIGLPN7UqYlgR4FAw3bSX47SInh81yWyIS98upbRaThKyk4Onb3582MNV7udXOX7x9NpDA2eJ9CBBVaatAkAmgaldR5xBB/60WfjIyeof8xTiai8qmVMZMVaXW2rH63H8eRzTHL8D5TJGwb/vo6u3xK7kCE4e0Q75qxq1xdng3Qwu7etYil0uRRp8jXnAMLEUMG+Zb/VzumTsPel0P2macPK2mA3gBJMV/Eg/p3CdAyN9nd7ujrwzQhw2YNISEBUNFVehcTgF59IGCA9CeHCb6wf+UpSP7UjSYHpKKGL1C7+GtddKiJ9xjaOV9tfas8tpCr3pH+PPF5u1vh9fTKVKv6pCx9TsG7hNvnsdjf+AdL5AkchsXdcPToXACTMs3Kqxh0y22uHhpWBoCnw1LOcwvgMnAdMZZ6uIxrgAH94mXXaNI+fIMWv1j76V9GGKK0dwD+ZFiNXQQfJTGuxdO8va7tJN41PtEqsHemXExoxOpC8dbctjm7tWZ4uvGdJj/PcT1vM6uAeQwr7gI4TSV7GR0zsWLrbcNx8c1GxV/448RvIaA0CAA7TgEDgKk1hCAbZQr7/AA5uD5w6BvWjDxSHtVoWpbfX56hYPQ0hky1ksD64XujWafOJzQy/fmfBmFG/+k8+Zwo4U5T7v32pw/wGlSZg7cjVH3S68479NoRqcLZNEvw5lyzZi1njMGKqmwLwDrHwnobuw86ys+fHvzeMlyFqLT5UcFxSdNoAfEYxtNjzOiApFsH61sPt8nbRnd8cZiksP0z2C/PFTCGeHJUMUAC8XglRvadou4JPIYZAEadNytpoVfvnrrgG3ChU2J5BwjXUi90zB+eZdDPmCji1OvmpcMp+SqBhkZ0p4U13tKygg5fVxfJ5QmDBL2kTtU3Nc5PuIUtPOqV2XDk6BQXbkB4pSTwdatFux/hN2Pi7rewULTPmmBT7mdc98EnHo4qI/n6JWbeAUhI29x9qJpo/Ml9jKPX3+w+cz4srJFblHk52FzNaiSl96QxZaCdkN55teJaJ+2qObBpyk0PMKMTZZ8LIj0YKdAAbjHc7YcL9dRe3/27AA/VX/rAR8fH5CIJeBKjt7p4LYbRAYluuaubdMneef0Xe8b4Ic0d57gOpYC5s08R1cQsYJCstcGKMPDkLudjiBwbzcd1Eb3B4SaYqWEBLZ3RwFiXP36PFy9KPNqlcGVwOp33vHlc9GIuD0tFDsVEq7a5+j2X8Ttdzk2aLbVB3tQHaAQzbkxkhq6+i7Jly5tPw/yBj82802OOBVa9FN1tOCIEtQgCju3+xEIuI714Zs0sWLZcgoSb2WMm0oPFYflPZoUWumkvgOtNvg48UQuSeV6Zmv3KzciXYDQKil/wezTnx5VUc/b0pzRit6TYY4JQCZvEnglG373ttIDcVqOAaIOTwcJ0lJrRX9VK9JzcKROt9sO7vUmMxQojEQCD2d2j8F7MaZbFFp9Aitcup8MWGaLPknbk40yuycgE/5E+D75zjwejRhDropA+YgxEoV795yilGVqAdMDySEHHL0qJYCalkiiydT5s8221xi3S/2y7CdCSgIhmTVukMLckgHfqHBiB2gmyCAbvAuAWSY4fjg/kFE/7tjO6/lnY3Sh5uagplr6FVRCwz0ngNJBT23YlZYT+H7HxiNrRYHvhqVbYKNSIVTe+mGDGnw3nq+DZaNodVezt97c8dc76YTtBNCqf/BcmTX5G+qcWajGf3KVKHiOHDjJ3M9I/TsHayaa9ZejAKfpF65t+64sjTqOvP9RbI073MvkfsHShrouuPHfwfNU6ZG1VBLT3sekhilxmkRyTBMjzeBsfo5VSVfgQSGyuZl7+HnCxu+uBm8BWYZXBH4oRvkrXa9xphlKdrsab6s756/CPOQzaJd0+GVJNlQ05ceX/mDNjudvEossXpRA/Jf5PSQ2PHbyRlOOUDijhgoiOeUKewPOs2Avh+tIciymRmRBM80hC1RQ60SCICkGici8nnWqsuiM3XPVYe7q20CpLyrDfLN/ZF01TcfLX9Oe4taoGGjum5Qh6/Qa/61/EHco3RW3yKnPe6UJkTvz3du+y5Qr0cJtPWcGaL++gZf8+y1QnJ9zS9RfRLcUGIEbA1srARkJlK2EJpkwULYB21VZYgAK1QXDAh9YrDu1LoV87+TvOwe70hKDqBLs65VEvvH+xsWplniDTaTf6rTKgAyAWfHpTxhMvK0WGQuIFIV7Iz1TWxvmHZuFiZ0Aim4hnleNigmeaArZRkITzLXERH9+W13B8WGGk6Heb61bR2A+gBZsjm04lCClIipOgEftIEbrjAx3C5e08Dr01BhamPCHmAQf++FFSK2d8FlV2+zgzsnDMS+hMF+qTGqWSXhQspQW/8qNXjuxDa4AnZ6SQMxNIphUDjKoJB7yxeUk6Zfj4kvbwORtT8VAZGvN8XjF6fbMok1/EJ+h29QPu2L9+2znjPXB+7cTycHUb5WQ9WQizJkm36mFxDI4FAbe6TVIsfc/x9wvMC5h+9VITZQ/sI9iNthHvleg0V/ecLAFxQK9hAdJY8vNMiHw7eRAlevuYh9YqX0Wk0jfvDCVBDxSCRhUzv5VPBGJFkeZAi/z33U3o5SCjSJcG78EZL1nPHb39v5hrsb9XdZl9ojgkTfGpN1CK9AWpae2QlOolzK1kyKHFr4/EBsRokpG3cdJTv37nyOGHr//yPN+/06dQhf5jCnwTPLTBWNXtqL6/gqqBZotzB9ErYFRyyCcN3jMnQGRkiQRCIclDWEqrdbXxGbiaZlAieHOU74nJ+y9564k3bWc4WJOKVaIu2yQahN0eYp1eZ5Uzjigu1yM09Om1vMq+2L28GV8zU5naFtE51WNyGnz+Q80cVQ930j5Wq1LJIG7zZ76nztvsBifssQLjyy0lBviIsJxWRVz19R7pQQFfwJ4YMxSKNp6QTPt3WeA60ARA0AdanhjHdBtSnaciQKNNZqgOQSzF/HY6dHQggGuIHrCaGeESLLaFSYYqA6uVZVn28DwF83qpQli+UGZL4/racOauLHl2A28DkRwFdIzZZpkMsI+9E6cI924Q256+i7gWPlh7M6nl4Q/O0OJnxaC5+AOWFKCQ2K1b05qnMprQjPlqHnwMAB8ZbmZed6Zyl8nWA1jlHzmCM1iwWgBTQ1xPe74Zp/4Js7jL2a9LNEcq1giIS+xp/vr1AZggmbvkYY3FCX/fOifsAHmjmea12FLhdIzpDXTp4uVnOqv0v92XcT4zrIsGsTatkX3JwWFUUcFhZ7tCKICjcnfOp6fcwLLin6+XJKoXKM7MZ4zEzpcBWpWoai8PGCCXprDl/agxcDbg9f3ENPqJWbUk5yjhvFBCFEJ4IvRQQ+/tLuGgvVbBRcbmHm96dWdDEwsnhkFx4ylRYw6tW0icP5bxI7H3v1tqB3y6SZbxozJ283YMKc0jJkEs5Es27WjUYixucA9fG85FeJbbl3oEPrU0b9XJ1DUnotgfxHtXhNsxf1sbJRsTIgEmcFxDeF7IxjmMPIzUWq3xLpadsjbKsyzR54Zo7TER5sm1fBkEve8IjL60YpCj0b41fg5prRVsU6Q1arLyGi8UvaISKOFXI+F0rMeRb6KpgSy4dMHeE3g4bXX2Si/mDBANjzo3M50hKaWVy+WRycbp/5tnM69QgK30uNLT9Mc4o+10VfC0eudoWzhBO7GHmQ3Aq3NxDJkLmjOy1xMoaQaXXdq3k81TrqQ2uplGMhcaZzGipDe5HI9AjE4d7bXFhTxw5jRQxTNtoWZ4QqxQFzFa9Rm2x/vTBXOiG6h3ow3IYxzPMc88/MNwqMXI7Rph8iVKAgzEf7lw7paJE6MWOEKrZ+pCH4XxGm1JI6o6mzeXQOMxXyvgplxxJJl2dk3/+FPp37Yy+lTzhX+6ORmn+vJLfwGMBRCojmPDh4SoRkWFrHqMl20ZwJScI6JvxTmT7w7lZM2E00emxXNVigdGD8t6dTXtwwumaul2M7OvXsWcMKrpL7qVhTif3qG5vcLFI1mfyniP/0FfnvOKK8r0yigHdtAjCaooaZBHXzcgPjYRfmBWC70ii+MJx7V4jU1YoeRdSNE7wQ8o9y4wLwKEFsfwPxsC7EoLdUIOLuaHB4JJ5BxHbiNEdAeg2z4hRZJ7HXenhMKPhW1l2ZxnObpG/mAngN7fVHu9xYAIrx0T/cETSNsShDQysXCUVUCvwXlDKDkEFGrQvpmIlhUkpzKrYJros24qv84VuDWJgs3rat8EQ5PjzDW6B453ei1wDrwVd9mvfcQTdK6Th2P8FpJeI88wtVfDZTeBj+Fj+JFXC+6QXwYmu9nLllPCOeGgdCM4YiGwTvrG6vjkDztQyM2KvAN0x4MqExdm/Rj93tzXfWTQsz6YqHGF97QjAjGKB9F/AoXHCPS2R/RJw5KHcbDdgXUOiIzwQhxZYtrfixEK+egsCxPsZhx17XgJtgxyceQotWHXOwm4IT2hzrrUiMByZo/5Yrppa7zk/0s8sx4vkrKUzJk09VNGsUODUn6VQKR4fLRsd5MAivhyu4RYhGmiK1g0nzn7tpwxV2sF/+1SAnv02HNtVwKhhUwOUh0gOfn6bvYR88KLj7mqPWdUEZJw3eAjHpCcRAFXpE0zuTVTo+sSHQnqXmxO3LVRqi8RkWs823hpe+GvIJUVqK8+k0Yfn7d5STFX1uERVBnK1HTSgGxUTjeRjaWhejZxGGkq5oDB6bTOWbsvWYHS9uFGiJKu2PmAvIB42IzicnOL0Vb0YB+fyjNuPOkT2T2GBBifMlas23hU9VrNv7Sil/d3Azuwsb9jRKY+iaQBEBHT8CF66NwRrlBk31Em+1wtPuAT8zvsmMr4wAeBdqoRXaK3UZUnL9Mp9HWV779EiWBomtOIYJMohTwx9ZeTeGoibvH+NlPxEGmNrQS4/aaxM4Q5jJFN6Ss1cGTXJczLh9lpa75t2IOJat1/vTp480Z3/WwldynInGYnTWtAaucBfiuDd+QDGI8sl+HI+os536DFPrmFJ108dJjGjkGbADRjMBz1uktYMTDoYdoMg5phmsRuaFrogdw8vuKpg+nooWQ/1hf+Olm6oQCidGjUU6ErGQK/cjzKKPDIixEO5koO9fMTScpfk87B+v7KU96rPBnKNdnXJwvQJf+nLiSk277XhbEUnn8/VCV45Asc5CzO1V6EbS34dNuMJCq8SXntI+ZsQqWm7VKD2oVEIMvpFshgpXMKIZto+erx46iSmqfWLsd3b2OwhNwGZXJJ8hPei8PSE6Wqnv+7oeJmIPZtaYAu+nYQser7xkc3NZrWy3DvIFEy4sZvj122knm7uulHnWcVRNgbm7yLF85BvFJBHlnG5o3ijLR6wHSvIfnCYb/A4lgOFG7DwecLCV0IkzL9UVRnYh+h2VO5D71GfqCH2RTFKaMXMs+C/zudEXerlidrTq21SruVVAK9emuqH6AkZjm+ZQwTVYR6Y3DgVShfLd6lcRTkDMH4B21KUa61eiRDHVHRBYKGktN+cKxTLZ2yXIhYQT0KFcSiqhGwOI6DkOwMkVJw0qCAwPpXgCWIqRNYpuNs0sCDecIkMKKYkkUxKSXrdCwo9MGsGIQdo6tQ1tZwC/f/QD48O6l/6uAB6Wk+du7VJ8zvWsc/GPS52pMrHReMn1lGzt9DZmQbVoL+vCFZ3bP2Lc9Okt1bZsFlzodLZ74bKygd7XYI1qBkBlG3l2vjG9kzWcXneVk2EEoFNX+ShvwC7AU2HBe6fEh3yMFEeUCDMjxgJSzrLxDtikGpaPxd9DPwI2FH+4toR8BGJ4j27Wbk4NLo95ccMGZGHJ1zwJfJ3nHBmdUcRInxYsm9IG4yelOgujPmXokIoGXWH5xOpMIWy0EejfiEWmDpL7KCt58lcEgnaRG2t1WutFvLnGngynNgSblTWzByb4KgX1di3VYfgHrCDKMG00XDMdNDNt6kA3pgxXIhSot70dZXkSd8YuMAWFb7tD5K2Hr65NZr+uNK1Ib4rXzC/oSzSKmG0jrGKuLeITwE2/ark4ItMfBfBp9lT68jnMS1kpPjKyzFUKoAfd+gRT1oN0b2+t4/ICK3eAtqD6gkuA5rPiUr66k5AUcJAMV6BJnBiYJ7z52Z7sKYEB7s5b5KorKJac/b/756/RdqLWAzjR+ES9Y0o2qAp/G2SqFEPiozitrfa4Viv9wFjLLb6GVBwao3+6NX19qPxI4agrzgTy2wzpx5kfgq8/UHbYq3f+Ey0O3P8fKa5Cp1BkdiY/j7J4H5/zI5F0xKCeuSUxJUjXx0OdWfQv9ooiRe0O2WYi+hHGU+TyQrl7FI9TJlt8p8+Ar6y6DuonTL9zDcrSH0TT4BdlLyM595gEJYGH+bek9GD2lbYrFeW5eYKqnIz8xFt6qa7qNjU3Ynkrg59saclMDeASRA9PfIFNUns8wfERw5piVT4aAgxCTqoT5dbvr18QPwr39TKsHR/XSCH6/C/PzzYPcUtWKikS9m+w7lp8AE4lytwiVptVFrHLt2vynqIzfPf6keNqewCpgRxM/TZGmacCPHvwiNOjK33q9ChGq4IryviSL39u86coETFFGoQBv4byl2Gu4QijhvIkbm2Ys/lI/yYLjICs1CI7eIpJYwZ9wApNzmw3UZVAcsd0Sa5Y9iryUAp3ZtGCblQrxHjgHHMAspQsy6JWvQhiJusYeqoSqpwZZOe2Ck/uDtQVa4XBQrMfPBVryJ6ZgrD631tEggHyh45SGwTly5W+kwOIKp//hlsOfrzVoUbI7LDXEzSCapZOVFT3wgqEBeeBnlYojhS7/buKaZUQAZCzZCeaCHJcS2jhsR9dd7bNXHSI6WWmf/lPJiB94AVich19ps326za/U6fxeBwyLT9fikhFjjYySdLTw28Wmb2acAQ52QXsr/YB2QLUstFW5L/fYU0PQHNzhhcYgMl0Iu6Ugew+dKFCn+HnSZzpAkDUVciRgV1du4yPqIPNWJv0QRhgfhQ3w6cveSocdETtp6ipwrjFx6wTkhsdJEAhRf4F6UrPLqra4buvVisC6oHyDOoMEGdQ12XNiCtwOdEo1SW28w8L7qrfXe3k/DlYk2MQHhEN9yapin6fPG/klqOsThvQHrPwdkFchBT98B8kPpzq8aQ0O6axKw9d0yD6zf7+iz8AeDXpUfexG5pS29WuRVDyD7PbQcYAd4/sPw95Nnps6EoTSLWm3LSiAdg/iOEAcUzGCHQtcqI4E4QWhuI7BpMovELhaCOSLrXt32GJew4VwMW+GAKhA1X73iFpd0wqLkNewFZk8iQUaVLvJggi8d9+mDaLwn2Evcm2zeInexnGWWW57W6ricYne9cUz78b7rJM1s/uHJqagyl/EGJgLoTnunXNF38xxCyVddGgTJX5W8oPjMIcusDwIc045GX73TOAlBwy/GGEHSzQWqbaU8fMHrAB+p0hx4U+N+FZcxLKYjr3rLt+S9rql0CoytKTmUo97x5taqaHwwKDJTab3b0AEacrC2buHJEVf8PP9KaUGVkr1NlUD6bZPEAOViz5WeJY3/ew7aHGgjIIWKDR06U8eTQBNTAZ2bIrz2ltDbizAfFzS5CEZmYnuSjr9zjeQR6tNjvSUQI2LriBNCD51iCAUAMZzW+YZxeNfKGPmgss9oNoKypewLCVYId2mLqwnCrz6G20HtTM0+nEZ4UoyB4s9XEd/XJqAoDCMp2BAW5DqQsnHUdJdtJG7IfSl+BwLm36O1rIp2cuOINi1fpMTsLlgtlIHkBmH264o1x5N4E4tMSaNPASjFR9ZlxIMXO5F0wkaXFoF8N9efAtB+4PXsku+vt6MhDrZ3sakoE+XdksSngZFu5WucfalUOgXm9Y/oFLohm1VgVteBa1PAhqU69GVZvY3yUKHIUWJeS/xP9ZQBS94zONDJQKvoQhcr8AABqqdE+l/cvUZqyuchq4CUfXYjC5dmZ4ny8nQ7mmRZ1w7vrUfWfTol62c5H7HRzsO0Vs54PXseyvc7j0vjeY4ZaEUiu4IiycTrz5Y1ZpOBeOZPR2I0utwQQ7DNQDAqMsNvPGi0Lyfj04SsfDaFpBqk1PAupFej9XuepgoLyGMcNaNdoc4rLUj/YfSp/8cW877+KLZJTAPlF3hwT/HIhnosa+UcrE8KkB+6JsNicRm2Mbbr83EO41YHahn+Pv53rr2BRTNw47dtrfDuHKlNw6Yxk6rvf9D1ft8kkOw0d3jAbuSQN9b8EuHeWaDrYbif7MZXJlaxWGYEF/Q7LR9xbR3H590ukOFa4vxuAqGpBvjnDd7XiRZ7/3T/6CCb4LWE2K/ltvqppN5aX4q3xFg+9SRjdL1QPR6uEj6uL0Km/XtXQRrQs259FkbxbHPcWBngee8q/+XPxDzv7q7Jz+Rx5pR8ajfGSP+d2H68kkx1xvgllFEreBj1QCvPpgQQRJVQzeB6d5NbkbRVSGnYAzRdhTPZ0ZvlFeQv6O7psOZ6OKBiBRwLwYbMXNcKAvV5PWfr6wk2Oc2m/RFy+d9oo/V+KpERMB7HxVWljAiZBnRyK6vn5lCrqcMMJz598YRi+ynIouHhEe7xWEOL0jafnmIT6ckYX64nX7ejIBMdqL7SJFb+O34UaxXLl9m++TvvyXFMwo/7ztk/ZApj2Avu0v5JLNCWNMnXzTGOTtXHBXyXmrzPoNAyCYU/rGRh3RDsnThtLwC7xa0dG8aNrRphmxO7OxSP9NR4kV7TaeZTSaiXUy8ISfbu8ezLGqubHVdDIRtlo25II+SOUdgJaUhDn9NdJ7Za6T2cVRzIjwnmfTLvQ/NTcOBfrhEd/AVr6Kn3SXKqMuaBN2jQ6lviTnjMzqoMukQhVYK/Eaz4LLZ08NrAtAx/lsfzHOi3s/oFDN01Cs+27da/wjmF2kxDLKioCdUnl3tuGTqrX3Ce6MF+YKMQPN2SYCreb2JiKpBXmBoyXfft/AQUAIHYFgJHWLwMRnuM5KozQ4QRkbrSrsv8rFpq6Xx4q23hHWUMrv3xGcaYg7BNPXTG+K/rEw2XsLmMXTq1WxNJiqA8ktYuhSlZ6ekI3wN/p2zGaIEz9X6OTq2T4ozlYo8ZWBdLT6xAUP6yrjCDWUuxGkksukYb7WbfKHokOR+HcIFYBFedJHo1ZFvxB2TgxdCMkjGrHir0YhwbU0rMx1mtWxOlWkLdL8UOfP0jDAI5UNiC8r8BRdJ92JUO+D1h8lJX6VM74EClKMBmsEqlKPaR0xsEsEtAik76h8rMR35kSwfi5GJqZ3de+0vBo7WIVl0SD1xtJfq7YK98kvk+KaZDyBe2oLnbjvPsu3/rh1GEWEz6FnNlQ0XlXN4Daf6E946zUIXdc160WOT646kjBHKZ46tzWr4UCE/l8DB4j1v95ZaBh3uPYpCmE5lkh+CG2v1bbZgCWVgoaNCCuxUPpBBb7piV7mq7Jd8sLbj53VSAUcggKZytRjo8NdphWDhdwyrtV3c/m7x/5bQCPYHr6xDPckHpA82Ng6ySKZMrirLMA1G+sozzIps/Mvm/F+fjwom3SEvn4LguWT2CxD9pKWXEGCDRRiOiarvHWse7aTYa7T41Vmbc80k3/XtR1+hLHjZM8tze1JzvgumjYJYeNI3oNCorecHpCTvDs+9utjDOQX8ZWXx6jQh9n/wmZofAjM625M+LkTtib0JUxyoqtxT3wNI7/z0ijyAdACadFUuulrk2qDTIdvI2H4TT1spL1WcqezKTV1UEJHx7swMKbNkxTMhv63Rb6kv04PpzEMuWGtQW+ZBK2V+eRxq45olhBkd2jKS7k71KgYADihkWsaot3uOUtd/ACiKnDaRFM86vJyp0NyPsAm0csZa17DuT9Z5uscrhJghKb8vv6SLQFdz3GUUPwADDb6S0Noh3NrjHWRxCaCubEU41/ndcr3a6FIDct0/tBwlWkzbnVAVmlTTyAySYH0p2iRC1y61GWNQqQk4zxP1XmBa/rRS6wzIV1lzeMw5Tgd5EfRmKUGRBd/X/VLrHxvu5zEx0BOCokickooLjSmDG9lLimiS2n85xxSbEUhzcdafLzFsQYLfklc+u1ZRmZAkAUTbYIyoheMEwuM60OzRTjQnhrGnWxhL2SK7MqGYSnaTBAxYETZfhOqZF/JbCYZejeo848L+lBQiZDKNEcGtXjrlpE626vCl7yvwCC7BfxV2PxuqClItoMvSi9h4QnS3fcQz5UkBX65X+KDr/ZqHm0uGIgiZA/6t/Ul6l6Ocq5rn1nXyqfEtMM0xrXZEyCHbk+U9Dmli3SRYIj23Q/u9wg5Ws6DVnA3RBE31q3YO/mIXvW8di2uRB9ZcEIdYAUno1TH9PUzBbslP26ycIbGNGLVt6R9ergCBprWwTEFEZIlLvyGPDClBRWpOKrIRfGhXHv4wYlw21Yt3IY+rnFD19kwl02attvt3DKABg3p7N6ykxeiMyIfhuD4n2NEmb4bOIDRAjg4okpsIKzFv40STaAXcIeM/lcd/yH7cVS8OLEc2OB5NDkaq4OaGjgVnNeeAkeXLPWf8Z3pJQ3wVH6BImxIFaLCz/6+Kh9pUGN2hsH15cX3ovg3LUBY5z9ragUZifVn7f/3m0Ni7uHmRIhPl8CQ46Y89ppPNvK66Vp0FpbA6M/Fuj0yTFzDjYE/XVeZJ42A5OXf2DCum59kt0AGwGAMQJWMQikxUVcMWxgarM8QNE3XUYq3abPuJ/BpcFlyrJrHYGkm5gQOxqp1cHOa8Ncl7SSz/HWIRzyHfHsHYqL9VvKt4wlVGt2KFL4+m6h1phTiwKTCGsL0MXESo5VrBaVk9HjbFEKglVUvTTlmK2PyDfl6pfhFNa54GO8G+1Cc/OKl6tBIux9JdI/cWp9NRlBiVGNCUfwNwKj9RJi7wLxNyCcHQyNfkjfIvGfe6sP4RA+VbfKSROK+0/trUkKfAnNfsu4wngPkvDesSE5QRfI1EM2DcWsl4kq0vBbWKQi1rzQg1kUPvRMvpfbC9c9gOzSX1dnGspUVzNEMOEpeGHWrqFDTL5afu3sgubxjJGgZ+DFbMxQrxCDhoS1OXoBWC1BBEgQSPUtGz73YCp+liMCKZ0typCroKAWVOCahf4wVe7JLniT6YQthkbn6zGEWPSUKqn+U2JBbWkjJb6+g9nzo8UnhGbGJsEoiYB3lW4CzlFWidOW37ueAilRmKpW5nvobhSbt+zP2FBdNdOl7eRSAsEhqZ5NL1q55JkS0H4FeK76goXooo3FGkWktztI7BtIa8GGU8AwEG2/1S3pGmy+7pDcqK3GZa+xEV7gXZCkVdyo6sgYQxt0dxHYWLK4PJabARsow4TL/UgdHLBLWJFywRs6w79drVlZcEQdAyaHbmNnUGPaiuqxW9GLqsZtaSmLxJp47AYxVr0LHpMLQnuIFCvNtH8IzzPQs9Y42G0V6BB8WaUMyZOILLDf/v/Cw9M9TrcqDgvN7DyRwEtBjQ8X5jjQnaqAQ2JRiK+I+kEGvCRa+xKv2K+xgz5GiFUPzmP5ET322BQigEsr4lYSxUhjdkpQhVL7vha3mnSdcPw6boycanJiLMjmwzx+Z7g9KoSAcTPxQ6ugVaLjyAMafR4izav/RLVNTMN4QL3ROdtlJysTbfMoXlWA02KnksxJgXlWMmh4ZSDOnHNTMwyZhtSAd7lYfMDW4mI0iZlbn+LzUNzheVZ6kdzuFhfM0l9HIl9+g3ZsZ2FDi52ZHW/jSeGmkxETJ9nFUDYaAFESVK4mX323IdXl+RnM2/F05BYU1AADOnIGYWXW2vp+y6q9fDyldi4qZ1PK5teUxR7A00bRiht9mYEfi0q7SFHn3p4o6SepikezOzqg/ZCgKTdN1Ug9vu803X2cg2QxGCL+UFurFcGJzWgGi3gvFW7qrShYnZWWOlOVQ+HLuj8vEsGESlXK+Fq3e7zQRSlZRSN0YAIVbF/q0znNjP35yeeSZ8AkZwwZTcIpmEh4wBqb3I4B4gviu+XHJ40q3pnxx/DE01ihDBn9GGlVWmzIn4ZNY7I2iIKjHhls1m0sVCfzZh4v9pY0cB2zd4XcQBwsqWgZhK46W+WriS7oDvIhU9PNKx+MtEu1b7V7hihZW5a31RGZ8kZu5NoKGfGJHIbkqK1S1239rKOxKxxVhuVAZTGSs8teNcNv7qOns49v+GN79usJpCCZ4ihplvsQADh3OMJdCfN7lkuIbaom3Kb0aPtOQGJZDkRUQXTeBLvCWlF97I8sh8ukI1DtU/L8Bm/T+ZYIQxOKF3VyzhkPhvxE6l941VFOUfqoUg1PPqbU/Ak2MJNfLG2wrvRmIP91UhtRK2Rn0R8Mxrmbtrc51bmTfnfIg5pWKKjA42Ke1Bd/XkBqj9PbjeKXFNQUJSzT10GZm6oef3/XyGbngua6xa6hp3islBDZCpdYhwN2oa1DEoyHQY9SmncDbG7e3iD+dJfI0Xs5Sz4+3UxMOr3plqpqOG0yM4Qe1jLUFmYEW0ZogQQwRIPtKLWqTpk7g+BoB/84rFATYtLGdZDtU/to46bRNOqylH/tIbAEGaNzaFpG22AJ6lHpNhXS8g51yqlIVU31XJeFfgtW01HqFBAu+tHP8HCoL99wW7BcPin9iqIqXMS8YeJzvzzlGNBV/un+TsT0UzQW0Vs2TxFw4OLmv8ZOHvtOMQKFUWfsCJxq6bn4uwRSeYz55a6frwfqu8292F3+xPXnYmKbuvkzhFh6GygbNzJZifJFiRN4MouSj2XPwuKyJI8+TeUKoM+PbvkYZVbvjtK/rWSvAv285cZC7tF1/8NjOO2h+W9sdojPFAndniBhff5ZdNkiVNU/T/WBqz7gM0cc8kH7jTfF7zccDBBApLENslfkHq54UQogv2yf268IR+1HG7zLck8ukxj2jK0c0PKpk5TyaL5dlg0a1qDsijVCLfWWyrDpYOB/YPWIBNFEjGCSC8DnROPrlzuuaASPfvvQ7aS4yDTCika+nqnJeEvL6W9GLGk5LZBZx+4vNf2cFk7jfH06nIh0SpXiTqdLvjYoMjFdMIDxT3Tw3Cb8HMZX8kUBEeQDG8EGwsWLYbFGBEt3bEWAHO9v6mWDgkQSiVSXSEZzfVgU7YxS7iQsdfDAOpi/5dw7uOnYdp3CYso1MFi94TCrsMmuTJ325XcimU07hy/xekMlHpjNb49xQ0nErLPQCbTVcF4sQY5FXykHoQguy4L3+TL6dcvL4Yt3g8tDwsE/aFl+NvpQeX/+fdf3qK+UXr8kmyOaAbMEWIw2RqavKLhUQGEp2aIh5AMmJQOFB0i4DXGmjPjqSXlzvJh3iPZiih/6aftCfQamaZfoCJkfwI8IkF88ZCY44WYVBe5ZMfVMxCvIHnXq3XpWk8fDOOqCXRxs9yXM5Dtfx+tWEKk8vQvSJuIvqHnsc4g5GfalyCPD1FPGrRAEXvoEoIA4a55GdLyulcazv6ejZYTyiakc+NoJOsyrixL9+8D0WZZUfenSRxCoXiVTpyP87zByh73HRJXdBTIbykMyUhjS+c+0rAJIkGitZXJhjCfNHK9F29Es4QEeKmiZyMjKn/xnsg/gThpsDy6WKBMOl+JBHUkiEp7CZI31Li1OR6eCg9zpLTdn3XCb2aXh78tVoAaeduXQuJENkqn4sWPUZWVYvxshPIUrDjMJRZXTZkctT8H6WBqjgLx2mHSh/WdTFUWR6w0kBgQJplmB7fvRh/+qhv0wehgsPcZf4yDuZhom+G3dMS9Pfa/HR+CTcG5A5BmQLRLvwEEe2tkI3oplvSZC97niF5dyefti44AFPNbaPTLwSXgpZZ0k+Z3LqwrIw4oc+3e9viMiVnKCx55+NcAYDNqgyLPhNOVU1cXCXu8/aXJahsyHVSjBDvZazFz3jYRX7FBK+O9DXdswI2dJLQyFyPpz1mBsCtws88AcQG1N5KPXkyt93VKaGFrzkePaswUZoBXkAqcETFCThDm0LR8ey0QCQwRycp4EWFO0ANN/WAVf562shFG600m8KczcsIpE/Di3dZT5ll8sMCFp+9up7g2NCgLBjJtowxT26OVzaJYkR4JQdl98sQxOKNLW0z8No5XhBsODnK+JElZCEg2HgzoIQV+VpWgZQjNizmGy3SHbU1Yg38Q2fOyyFfSxsR6SbUAjVsNbBKZWL2BifjVQ5Xu/KYl0rloWT3EXQOD3sZpC+4lQ69RioNOfVJjPlr0Pv/GcvlI9uw/gGogrFMdbDNF7axcwcsmnEA6TBQJjsttr7fmt0U1FvdFeV3BN1Jd+aBeIzalUYE9QuyT5alyVvfqXtXAFzeuHZMwM+aOA1/g9oJZaTyikrjdFj2CVoBYOA0cw2JEVeduErKT0cFmnyFpAJUmE4M/aRlEZMX/9WmQFcblONmHCdbSrb5V/scQVWNXmmtWSJ2igA/Wr2Zpmyw1M8DM0hoBwD2qN+nAJLLbvlb3i56IlBWASiiPo/By2PslCCTf1vey3+OifWtPKAFajvShaF7Q+/P3PnH5skdgYTtx1D8IaVJ+UPohUP87l+d8fPCXLCpgwmkMjpQO1WAVlVzNhdx/Xtm+0jnopFATsXBkOREvHDGGoENy48p5tBP7khzRa1I31KyD1g64sfLGuZmN7WQB81c3tAlVDyBew8Ks/IGR/zL7RJoQf4phRDCXR3bM4kewbot7j6g/a5Iq3tuocX4vPL0q2We6u1rC3dt4fyJn4D4EO5UW9dFteKeAr9x36bLp6Eh5RGgIrN6zF1wyZRzvJYr9PZjStjwfP9t6GOU66B6S0ApcnlgzoMNG08L/wAgAx1Hoie/oWcLGytN/8WCjRmAcVmRaupMBYi9zNQLmcMo37hKWtylkVAL++9HdyKTAGph7I5XdmhGcFsc7nioe+pHmRAZuybrD9YmFNXSIS0NiDa6C8RERrSGBm6arPWjMNpUHm4DDNfl7iEtWyoSU60LmZnaB2kacWdSzKV5tRB/LR1s3p9d8mkU9rADtIKKd+oBNbRFyH8AHpfY06PDKBKKf0nUWr61AwRcYW7YVVFHixFQ0oL9y//hReLKXyjxZPN7SVUYopRT5MjrribYVZIV6norigHuDS6o/dffnBH+cuckqE88UX8vc7W/kRpS/H6simZWJPYxjOwcU2POVJ9d5GE0S6bbl5kNpC4LKs1PyJiqwwpii3VXTRgt2C3BEPa/bK2YW2yszP/VTcvd8txpoAryV2LIv3UGS2BPJ84memrupsKuOh4n1y2vDd3tXc0g3/1xW6U3iwERlIV/HtdmodalZxJXh9r6g9Ei39cv3Tb7Czp2ixskok6kzK0Tg4J0ye7KfW8B0rknFL/bKg5yXcjqK3sWOno2+R/G7GVHTQbpBZoPThc+QCYkpuJpuTYScmBT3500II/3DUlRWpyd7CSNmHAS0Pj4KxqZIJZ/XhQLqdsu59M1x3T4+SiHHCE0HEYRzplBCTdyv+4h/6k6F1ZDw1ugDMWmddfyFVWb3beC57Vi5elOQ+CSvb51i5TaNfMEudx6mieJ6c3CJyxc7w1AVw7L1SaB5HTDs7AhQaaZHJwJAUmoqkydSExmIM+MO9+Mlf6btER7MNG8L3q2Cv7BOCVaRF2ejm29Y2qcMNr6NOohqHMCtYmp9XJ1X3nUm0JRQOqbcOFYsHTd6/NLrN7SCIn2ODjfEgCaVNgI9M+RRZXfIm5x/dxHH5fjlvB8xswvytfO5KQR+Kug3OHXIsV5wI2Vaf2uh0P1Wcuewb3/m4PU/qHEZHgE5oW4kYp/hQQsydiUNh6wWmkUJWzopTBJ81HncXmePLnRneu3pFHdcDglQ3W/9n96i2OIk6hRjYkJDLXd+JDVY+NduT4qgvw1Fd4LSXzwsDnNN6R7rTFqeoWuB6UNjpANk667VMwQH1ItLSAOc0b03B6BmpbnMHerbFwSPS5t4lkgwslnx2TgmMoMgDshPI0vx74e1Rul6uLJroZBRY0b4syueYD8Ub//W2O24KjvuSM15qKyTpNhwoeedLBTYuqqjzHRNwlkVPh0Je/1AzUuGjo9pOeSDcJEAEtqkwTRPT2M7vQ6Tt9ewc4z9AWLqwFnxxJgFw+4muBIXkCSDhsTuY3TLwwd4yhnNUu2eiM4tdlL+g6shHG/Ofd0+qymaL3QH59EI5lLLGJY8zhZ+qSXrILaXlyyqaF0A9tmO7KvP+GDlAHANgI1fZ/kdfKwSXXvlI0PN+Ysl5fBqTeQI6bzLLLZkR1aWbckL73dtg5rn+KRp/PBwmOVsV75pDRfxxGXC/Kc/l/qpXyT++Kk7OAhpAiKNSpeFIJ72J4kGwQklogrotLQ2KftkrpGeHkHXHVDAtLdVT1JIEcIJEQC0ykX/AWQOjV2tMYPfm9/izVzyq3kJ2AphBN5+LJlpHTkEX6oFARq9yul05vCJV539gtOeLUhzrxGWbPGCoVospJUsiVuyRPq34XHjBchynFOVeyvDl7UcZq3uvoxka8k+7hy755KebcOvyQgtI1L5Gb2OpFv9mia5tBgpxqf/tfrgocOpZXRm5rzbiL/fFRXOELdYgTHwI6xDYblaLoxIRJpAAlytP5NPfSZImQIJElyslwiJU5BLAzkeok5XtMUHWuR8Zn9blh4yr12v7/atR4RJEFSqNx/8bxWj7gveBh4Ujv+Ud9ksvaxXMoW11JRHC56qH7Xd/+UueIXDJMjzZ5ekv0EZ1eH5ScZLAc3+oi2u1W3cnNx4M26rLYP1JbaubKrqE6cJhTsPXjyFzpRR3RJZlFDxBFlaFdlkPI40zOIwA/GO6mpqerJFBJawgIP4n8VcqbhfVBIi7W5CJzzpfwAxlbc+pV/LVd67e4Wm6l++dr6+/SsEn+2SRydwMftkTntX60FcNuf+OGEw0KnyfwpnC4lTdtzlXaR72CUQRRIMRnNv9orCsU+oT5I8nvbw0UHr38wGZnZ0fE41f/HsnqVMTumeBds99OEIPfLbiSSdSkAKh++UI833YMebATGh/L07cHvTaF+oumeGd6MQdVk6rgtchdChblOwQIaPMTMm0maNkYMGzANt7JuWanvhqznpRjqeAquU6+6jdYiCW6s85S1rsIjd1+bPwTt4Y0J2jMkrLOQ5OADTCIhTJypEDU4nmyS9TshGyP3T0QUrqAh1kH0Q19wDDkXQNZKEFihwT/AdLMfCs2JITqbcPX0eQv9/vSefGEF7fBDEZ1Oqi05vsAA0X51n2SICpnyxFK6z8yitEza8yTvOT5F8Ibj6SDBE031qXeZmr2u9/RVxVdJmrj+qZV345Ix38WZPMkzzdXLPPIRIs+tUsaCBupDyN6VFzlglYNsMJ2D6uM+pi+uo/Mc8F4Q3jR5ENsFOeWDJwTaXSla/AH1/Hn9bSEz5lmVfFYuM35X+bxD5/cqOSZ74PCJvkqZ3bV4ueHGeIw6JMNDV1isTlUs0s5FsTaWIGJo3dVLBWAYCqij2M1TzBPBoO54yyQEK77+ceToYr9DVhpv3tZFe3Y65EcP0HAxtmRXHWAZ2kS+NJku2pL/I/RseFNbQ5mNxLpu931ENg2exCpnW5zS0QIInOHPWBrcQGwF49qvdQaC0gnLRMTKE1treuyp8vOSXhwe5ZgIkHenU6ZUv2j+hS0dfPkGrHaHQteeo6OKVjRP/oJcPOAbK2Ols0l1I9PaMJLwERpUWhwbfvMynxG6OakpsBObAMAFtH7vKyiXigNPSOQ1OeZgBp8iann+6h4tmJA17Ach83qWBzYqUEZCLdhnyqCQv0Q5MwHDSHpd0DpoJIWKQYriN9u+6kttozgfJkXADEFRFDtjvCL+6DKerSCBJ6uxppx51fOUVCoQvHelw9M3fBmGyn/aPobzT3jvgauOwH/VdB6h1cryRtx/+DEc6kbDS3104+XdpOTJtnraUpwe6/hkZQLhmbWaQOAnMP0dT0CVC7jxja9CVrXwyAgY1WY3bJepu1dXjfZhBwUo8QkJs8h9NoBr6GH1oT1mCjMTTJKi1/gGnOy4BYsCJ6RkhaRDpQuiG0wOpOqJTPFALrkS1DY+q9Bx0lbmvL1livBnGMLcjDiS1A6ELRk0A8BAyr8+Cnk6TPahNUh8HA2PGQAgvyCkZcyrrUx6cGtyCaLMgu8JBH2AX3njidW3VrnAqdOA6evhH90dPXoHPh1xXk1vefek1P0m+CHfHlL21f6arj3yOYF29wOvZDEXTmwFrl5FPR73MDggh8ODFRW1g/HD2xVp6QzFi6ir5K9yzzO90r1Jjbx0PIWB8qswYdVTyLgLqvTkPaHmyr8r6wS34+UDPUR78UrojAKTRc77qPIA5NFfYLM2yIC0jWA+6gIqQ6ddA7Bb/VrGUvci7/xJ1/tMcH+SUcyDFMHo8xVQOZ3jjgfnYNrHb5t3l9Hp28/XxBch2mJVrB0wC0APXg6TC1fQO9v+H7SSKtwUJS6MNGyqLip5UK9Xitv6nqFg5qw0SjghCVkTeA1k1ziUbuO1HPK/YFm2OeWQrj8fjZwRMEdJXCmDjCnpTydg6zu/8CVM4yp6fnHDfpBfTRwR4MM8tGd72xfnJu1+L3cqdiiGv+YIJMcYcBHTO11581JZYbPwAKZhXU5utH7hq7L8rJZe7DLwJ2SNjZJ/2bJxV3wTDMsfWPkUcWBQZ+vCulFsKERqlHSqROBvw0jApakRY2SWgYnTLLLScVX3nwLY2dYgnr2z88Qt/0wRcKysYgJgc+NybeVfH+Ufm30SYgsaif29sWEVmghW4qMBTfpXils096zyAewjvq/OKpRfRhys2xJ3yxOhfhp8iIbJ3GkbZl5MqzbIMxmcmeXcVSvcJd5u3FzCnDOCyjEjCsuQVze0bzjsLRb3ycnWbrMeepg0MkIQSiY2tKly1jc7qju0xaXt60EtK5Kb7+0RVqrQNTgSxRoPT0SMrvo3Yz4DFzHYfTJAQPVC2T0l49NcCxYRsmLNyvFZDhca7uMRykLXMj9rTjC++zJdBtqd06Ph0svDdWBTMRK1yLQKrrs5vz0Srgrzu7+EV0HDQ1+qCHjDmwerzlwk2tPlzZHdqS7VnHlcM8HfBqp2hu6InCVZ7+Nhdf1jSOy6wfm75jBAshKN4chwCrrysvhLsxux6Q0I5n4c5SSTFyQEmj4zAFqOmX4C0texXnHvNtHo0ykt9dD41wRG1UfgC/BBVH39vwpj96mnxiZo6S5VYqBjXu5RW0weErziTUijv6kvmzBZdo/kgzt0P+uqsdZLD+dFeOGR4qeVlwAaADkDl3PlDPYVURtV+RQOIVWMkdijzSI8zYW4acVZ9V1deu8i1nZZFl74Ls+sIubRAADBdXzmRoFyrwbm0qBUjndKMRvkNbWDeUfn0dP6AKLJD5foX5V0+Tb63e+9uN7w0RBO8LbjJk6jTPIywyPtXUFKF+h9S3uykCF7vlAMCL6g0/8bg9DwdC53B2+GC5hTKiRfulNmAMZw2HqpGi/Mdb18A3uBBQDhXMl0nG79XjNTIls9xYid5O/Rv71vC/IXi4akJgh66OQlG7Ahm7T4VbGi/qkaom6XtPrWN09MqfdZDW9gszXML8V/9A4aGXgLZmIWY2ojobR/pzSOFayUUuTryiWZZtzAy4NstfdQw3JDpZMDMZr9p+QipT9aSX2ILacTUIgoevKvtFspLihIDTMrYH5IFpoSBdLQcTi8ZjFJ6qwk10N1xp0sjgYmgI4SCbFsdn1H33F6UAo4nDzoti2PqpUXc9wGJzK5iMqObrjC1RM09Wsvym2MCRDg754io5Rbrs7DO82odu54U0EtRJp5AZ4k3TQAs+Vwi3S87Oc+QVyJTtTl8DMSDhsKl5A/qsPI/7Iyhg1aw7nmTTcIbL1gy45qLtq48jgiSLRgnayITuhMvkLMo49rH+JieywngGFlvqpY//ilpN9skBj37L9BEXldSDHe4bKyuWXGcRJ79dsQRCRGgUH1WAIGL9MvV/HHEuLgS5kADemBjXIGUcvzVdP1n7AKirukqfZBfrTA1YuMJQOUhiySGjLTe8G9vPu6t40eY1gMrb9Xz7pN3WwdS2O1mLTLS7leEs3s4brWM4Y+pu8Pb7cogsSvB0mazZeSxkzkPNlSw3LuNv34ShWvGBcJacSxXS3MFVxjBElg1fPMOBgt7H/uXBWJlVLiUhRRN82vDFN+28CUeM9i3wVY8JiMCBugM00uNXIvzbR8QH/8J2/wJbD/VPjpK4KSE4I+UdcDZOndJ2XND+2WtgWEVK8IcjVIfCZ0Um/jWnSq2b8VVZes7Q++v1PRWN7KOhXK9vxbqj4+pJayys4rVD0FEq7UcyFG5bOFkx3huUHE1peiVTzm8g8+mtlM+yCC+V8JdUtbOUuqwRpc0mnTMUfvOHeIy8QCUaa4HayyojqlekrHn4EQVO2skvizZDltSqzc0Sr+3JFQ0VKtpqz1mz2/vu5su2PrhDhJjajO+UweaahqDOrcFXL1y+9popzonm3mDNbQh1uTnHyKF2YdYjvbzyJCDnKolcKhjCyA0kxQb+6nwX2TqK3+Nt9K9CHoFfMbjOq52gu8J/KONKnuZ5gVOOkZj/t9jFDeuSz1qgTKyfx0mDneHOuPEtoUqWte4j6VdVqxAO+FluFrVl8KfI+de5M9j/8BcKmLTrfzH2lWnL2PH/8JmUpNiAfxUBRp0hs04B8PQgHho0hN0zODffCaL7SqQIZnf1j0woPZBMZ1FvosrSocLVXdEp4gOWTi1Xn0Fakfgo9tgpli/fXLSCoA2D7MGdHcejfeMeKcSoLIOj+T8KdnOnPAFAp8H2FCZPt/kVd3k2OlJGUnTM/GngwsvW0wepUMmTRBGWdnpDMoUhlCcSLSdxHk2Ftq+8G842y/ih1qKYLMnsFFw7nVFjkDaULup/t3I0rSGliWXr66IS1XqMPodlRaMSjXlPdOp/PBq4nvQcb7mlzknUwoGt5CNYllzaneOFpJ+CImViFL6fo0cxyfD/glKzxIecM4RcUgXOjvvW/EKMcvnZkgZ669rXupT7xowI3d5WAmk/lLe22wRHPvjYDocneuFrLyNK0u048mx4t3OrFkH8MGX5P8rIxdpljRkcpfP4lnURxDbDnwjDYE6snhbY73aktGWtApL0xfOvzrkRvGEhN5KFWBohbOWNThasyVHcfo1tKaZde5ZNl2uhwULgKisLJXg3CYhqegRZkfYE62i4NiWaE64jugpoX2Kf30xFE9GAXjwV9IF7fE2d5d0RRYxTAOWaF20s9YMaKHC/6TXmeDB4zOLyiv2RZ56Q/Y1uRbR8Nai7ehjQKJod+kdneMD6PkQ7uh6FPOGlBpkg7OkCF4GWfSvZLFC/BuYND+z17RHHd/bCXA2W1rigRapg+KycNjaASwqdizz9pihthtd+NgPeyHGrFYAl6x8kXqGt3SB6qlLV7exQ4bpdULdlWvwhiYy7OOs2Mhee0XzP9Nv2napIANpq91aVgUSj1+IEs2WroxKzN/eurL6BJxNc4ewYdxdQZs65ieak+KG0dWNize54IFtLB9Iir/Fn1nawkbSOLI8IXpnSCoeZrewdC4KmRd6ru00DYhOP/ZhpUIq4pTrUXBxhgBbNL9u1jhBJVZWZLABzIzQIu9sXOi5GpIF4FC/Rz01pSg07LR3RpqL1Fu+14M9zcbxtjzkimwVVMpCtRxxAOX4BhxKQ3qy/GUaEkHh0nR6YkxM5hK8uF0qOqrUGnS6LRhuMXAssmfdBepBW+75nAQAjoGl0kLZaftem2D+UoZbucELO6Saj2qBY3oDHk12ss7+CGZ4FuBkWs8sfLSqF6GzgOgNNYxtaOkkz7kJGqqG0qfp7xcYh6TYEnthS+UNUrNnBSXV7nQ/lPHSf3zMh6yZmdoQEGXDg0JcqtDjvtpOnMt6l//DTt2m8VO7PHfpcG0lWOvWz2uS/bYdtuVCFhgcQ81fA1v+9cahqC4GaBaSLZ4OKPCKQJQ/tS+vZh0nuN1vRhOcldl3URfeQJFf94MdF+XxTXYxDD1RNJlCnjXcAkEgMoz2APHOsQaeG1wfy2dIogFQtsyGGR0nAhECU+kLr8VN7Wj+6U/Y5wOs5JtnoiA3FH4mHueKM3gNvB9+UYS6FUeH3cn589D3OO1nsG/SnBolTtcgtNudUuBYsuJ+1QFNEnyw7qxETF+YcuIH3P2nO5MIirdaIZX5t/S9BW74sGfVbVWFe23iLT/4lTLv9Ay6AjzTKs2eY6e7gFtn8k1KVOjGSyHmB9a3myVRqe7zPZFlBvL6Irc9Lo1J5RU8l+7Y2d+zZXWHqHpidSGRpURHKgNgGN5HrdubarJXfcljq0CfCnW8qjdmbjZ/K2UEC31VxKQQmPsx4GWJSAPssj0dgV9tcLw0FW6ZixtPVqx1GnaW50PXA1z9zb+CTOIYoqiJGUJW0K/an0TXs86p/AS1XNed4YPc60jINT1obubUuASpcu6e2+AplnNqclyz6TgWGEclGipDG7hfbus1sfr573cuYzDaTQ62FLIxY0WU0zWWv+0O2TTpEJpvg5kZSv4GMzhhTYowXK7Sav94c+hGj+oFvDC02tbnpa95UXV4V5SyF6twochE6ma1s0XOhWyagQZVkWgIUofzrTaKCnBZAvM/qPWhJI0IA6F7Bn6v2yM8unmxmCvu+PgeX4qyAerF+SAhnvwSWta89ArMpmOufbSkXbfzXSrS8RWyCqGKyLE9dTC/6IwBC1XNnaK5vjX7yhI2HiJq77D26XLCbx9q2T61ynDKxsyku9DGlycsdtaCuSAF0cBen29BKrV212Kd1WSijya3EsvNtJ3ZZAbDrg8FZe9Cf0aHz+4gdWaGj0lkYYcz/OvSvzdUOEsw6cnmhGRBAqqZZDRQPguGMrBxr10Be88iOX2J+8gLZlzLxN5OnL2hnrc3Jq4GwYS6wZ6hirRv332JrmkG0tlhTWRX8laf3k7WFdcnXxZHT7P+EX5gHd8M6IPQXp30fzBORshA45jGrsdqI6JmHdhVM/H9gEeS2wJCjWlzsRTnkCTXMlVb1J+L/ve6CC7iS3Toq5jyjOrmyhlCLoGjsq9R2dD5iUiEb6UnqbmWBm7dlAuzr6LdOLYhBMD9MdBRHfgJP6q5/ydDEbHrGIfptrQA9ScgZmTRt3H/Q3v18kSWdR89WO/aSY7XbJHbDyfUFNIFCEB4u6fWjlFy9N9ayTu5ZfJFGhcYThSVJOAh2CLdY3TFYS5WvVrc934BYGu4eMFr57fa4shZKmMJkv5zxloKIBQmaJnsQVtZvgroj/h8db3YwujDj6S/SsX0VtcF4f5vTTA/jN9U7b+v3EOZXNToBPtpWWCVdXO9G3Hf/v2g1frSU6ZtJwFpPv1Brt4k0OxLfoTIEYAYXzkTx/yufLUMn+e4U55Yx1QMLR6c9FTdrHKRrOUoL8+rzoVNPyT7WvABI1OL8CbUaNOLreTl/qVLx/D5uiss1QfNqVne7NZC+GChR+VwyVa5u13xakjBaLUcrjHfQy8fluCFthh8SWOOFKRHW1B2reygfHudFIfbICIWV5gRyBZGd7fkK3II+mIBVCJuE4z5Xftx4Is4Z5MdUyKvPUuKLlNn0GLzklb9QTsw/UNgg57pd19yVs73h12bDM8AwXsc/2BHYdyVhTnCZa0NVZ3BvRHRJigsjcCj96s/k4N14ByhDR+f13Ag0Ixrx5yfdgXmYGEJzEzaOU4xypNqyNsfR5L4XQcqOv5x9eCQj/k/9HZ17a99Xk3xhCezGBNC/Lz/DPIo9jBZzIKyCUUyz9eyfRSqDvS6O88AlOmgS5egGeTL6NTo90lWMP8cToUtKLesF8zT6KoQc2XXTIBkUATDC6CEtGm0dDBV5g3XwwbVIykZQNOUrnLqEHne6JbXARqYsR+h2B9mG2h/K+h+bilNXmAto2XD/cDZ6B8BKc31wmAl5Pyn988YuyKbSO8MvDkjdu91Dty3LmGCuU9sLuLKLAsDQMcCJyYWvpAcex7LU6rjm11ORxZGNAhguCeRnDbI+zYDn7lyec8TzR4TlYM3EZORJSpZ1EJdoOu5xKAgbS8nYXZ++ExorYAGQZdz2FvD98bUDRzaTVtIVDhvS6/5CL8IkXS6xjzLte9nzGe9fQSgXYYmh/mMnbjvWuqEmFtpnaF7CTVXcfWPpprUTanv1V0HkoFVCgCFGM6q58qigOR1wXdwcteu/G8YKaoBCNAL/YEzG3kvUd1AcClZr4jjy/148wFX3l4mIggy+qZBs7W1u8c6b11i/SV3/5I9Dnwsq6fhDbXDbxhTbXcBwPyVopagTUfJ4n9+EQ0H/0b1jPPJN6oTMALBdYJoFLKrbXUhT7KVnn9GaLG+vprpa9NFUcKsOGJ2S6nlodDUgVkNoweP90c9B2PE0+7s09YIGivhCBWpyPJl+vAODE+NfuKq8acM/oOAOnJoTh11MpS+1JgFlC6Niiqetq/oWyACe4tc4L2yeNyeAlc6sy+cdGAIo1RliRT5lCL3HG00ny5i3OP0M5jL42jZOvYbQ8hiwecr1C4pk0Y/VRunhdszYoS25BlMG6nv8lNZ122sNwF5d2UtK+poNW/ORMLzLeNx/2PKAaGcNIDcyJ4kb5f5jOlx8JGyKhddxbgn4NjMK5nvWgHSMzkIL7fKxwxcSvMhRBJNSGFoj0GSUkCP0N1UYYTya9eyaOU9s9/wHPVIr8V0hwqDl0CIpnGg0pW//LWlV/GJy2sosnoJKBcTA5lo3kXQpoBVPhSW36srchWABD47KbsM4gOgixdj6WyVWf0A0vRfSE5hbMlQoSVTEwY0A+h+GqWefk+WAJEAdg56RrxXH9QEex1xhEXH5140imKODQ6bnjVlKJ0OI6kcV/RZwhn1+YJgcm08i15rKSJorowpIgc6knh6d0CxxDSR1UBzsJS531JEuhM/gvHirbzwyxTMqf02WaCG1ohD7+LKind+UswidaTAGoFkWzuPwWZpM6IellJRguQZd8HtEpNM3Jzd2HDoI2HdX46fQefWnBkX/B56uZfxgik3t/5joy8RzC9RYLIAqSnOHYusA5A6zzlTIBNM2EIGrao15qIabUJGSZz3JF5vJta0vl/FA8fV4+qDANhLz6aLpaAMVugupmqNgRWXXSGRqZ9z8aurasMUOCIyJFq9OfC48aJavO0t/oQY4ggUrLphF9sAqLgjNldyO7FRm7pK7m08kcEF9dxpwqB5Xk2abJ7XQ6fpmTsLKjnE/RJoBQsddbqUTVewy5wBsnlnFfwWmmWHSaQ4mwRYPzw3on7pYBDnbHdSZUylLTMEkX42NZJbuWZrHq61nDnt4Y3bFo8I8fmfUc8qIRU6tqTA+kZp3VCiEtmQ0uFKz570TfxsI8L7BaFCitBRTJKH6LnOAuf7vB9FNcdN3PBvXcadu+6pRFFITST2dNzBpmPL157zz7qgl0mXC/baGPiC7K1oPmSmkY5qRhxPRglSYT+qdlHXE3hUlYqbRUV08nXApoamxP26Wr+HptcuD4wkDdV/5raTcY4A4m9QyN3G57cT4+XKCPmoMckCXsIQFm8iiQb2iHeSiaiaHpk3yEHZXSFO7qiV7ObjrYIBcRbHy2qgQZ7ijJLxiusLA0ZeBGBU9+yU8sfpqERMeUZxr/O11gEUuK6duaGDSfoT6WyaIV9wEHIg31W101PbJxHokSVolOoN50+zQ3/o6xohaau5DMNOgK0KnGLz7mvhROzmScMzga3djl14lwYTU7+wAcfGPbEkyQa3UGBjEC/sUb+T02uPrI80ejW1wg3nAnSSj4VHDBFfUoGrmmkzDg13NPDHwtXRQgRnUFLM40+IQqsPm/xvcZJKDF50UqiryzfEOqMoZXclfwRRCC6POxBvkSM2aHPZHPII8+0HrVINUQC2r3wLP+KNrh3k2fiwrTPof+JBV/RGTKqRon5Nm9D19WQ9oMWkn0BOO+pspPHoFwV0lKY4OrNxHcpf9kK9eh06AD/fFQZMXdgxfieJS0N6tqFO00+4O0wGOaHghSlrafHjUJjpJipu4VlBLLR+fbgaK/TA8cbgNSpoa00iyMIybe8aiv53a30wFFEVDSCgLNGkig+DnDkoeBiX7peqeziPdKvJHPzOqA72HPnGqryCWXltyrw0K1GahXOtW+0ughuqXOQmufV6JPAvcZQbwNFGdtX3ftg/e0S9Cms3mV/m+Cpt/4/mXe1uQhmzZNdSNXzRqnFa/x6xvLCErg1925nny92sIu9yZSyPQJH6Yi9J97adUb3IPuC2RsVly+cB/gzM7bizZyZAxM93zq3vgjqvbfeahXC0IdOO/4P3mltkgSUcWO5A8mceWP5yWGjj6V4qBvk6M5GzhFaoMv5jx8UOYRbNxzPjWbjPtEsEmYHtQ10Fe0TzDieQoxOJFSVqAR6Ql4T+Z6uHWgs6vwP6y2uzojjvKwmoYtp1kdbecomNygfOEDgyRNPXhRbhPr5TY2cZFCOsBx3dGUB5RwjU+xtbtlSe0d0f8MrVOy9L8Dwm+5BehVyvzu8BMiXaSyHXgg0GjSiWFSGFprPcMPJtSjyWsg13XSTETvBwBt571NbU/8DYWVzXgSprCfVbWxaS+AR0aGM1/4JS+S+lCutxpS8dZXSsTnOBMuVnpjHZGf9Xv0rk709yK+1ouOp4PFkN4MWZZqrjsNmMD45Pb1S4g7Syz31Aj2ok7P/z7rF2f5x36wtZaLQNtvZdHI5KZ0yfALdvXf7F7MgzPK6WwVJWIpm+VLeBA3024t8UueFn3hGXSWd/xi7ilxB6sHvnMA4y0ZyygO010Ue7H3USqj/vXFnMfHH88hEotRZVPNY0tjuMqgNFLeyjUpDtjk7Ox7ZYZZX7uEzVc4QoGhB+8k4m+ySp+XcQFjnZYpx+SqfqfFRxJkbpbjEbe1NuNhtlIR+XYNDHMA+6Ul2IFBh02SzJ8uSaUK2f4msZ/8zkWHwgUdX7iFt05dujUNWgpseTIJzvVqtr6Vl36xIBZodIE1T1fzEp5Qz2+rHjYfWp/nmzLJF+EiM78SndoTQB0eXAZzwcWXys3dg/AkASHNj71qXrKk0Lz+RMiFiUhW0DJnyxvV4HlNbPEe4XT9UTUYMwTExUpmPS+4NNQjFApencnf01DKXvgA09SKykIU36hOWx7m9WdHREs2RusETYtmgMqYCxoAehw3ozw004NyKTRoJz/F3rdFsEbFee2NY4UNr+vKv7S/sY7yrJhGFz4KVrR6x627mNMDh4ksIYGaDWjAwZYC8mwby2C8iUzxwoH5G+CWoKZdk8r2F8h4Jf1YRIe9F1C6ocrQYM7/jjFB/L+ZHLahjbQkQkXV3W1JSIjiAIZRAoarHH7hkQyT5yLlIxCeflOJAu6bI25ZLWMi598enIgKKJ3A7SXrls6EV7IrBosQ/Haj3MkN7Ok9zLRZRSjd9ZNS5c5WuLoEwFnF1y/RWbUEmaarJcOV5WyCuoJ1dzZedNMYrBPy/JOdLgc+EfjdVYDucLf6W5Jbr5dc0ogtDXtPdJDPGRznnLE64PLp07bXOU6llunEY32fGtRyGsQBQHeCeQUZd32/9UhdOEOwZ4xmfNEhLmi0Z6nObH6I1rtLPbTjTznw29RQV5w+lvzUFKHfdKHNB2cpA7zOXcpr6ciPqYYa6LS9WAYhtCRqykyjJ6wmIU/sz3sArlI5OKWajhifwxuSmOuVrbdSU6YFI4HzRRcGvoJjb7r+hAfcWbMkNg4zN4de+LsNHnKHWQYXzcmKAInM0bXyasJjyn7o9+fGjk52eGbnKaqZl90zFOjjvSgmzebLApdiVr4QtAcDnRzE6X9eWiyIFz/COybbo9a43iUHkqP+bhFXEUNgSDFsaObLRAXjbEduxo3hOlGclstQH5XOFN9nBDDmSY4hjFdvQ7O+pc7cwRSjFGEoEuND+7JEyhKlpswozB0KaVdKhS8q+t/SZD/5qAfFvlPkk3As1zUSMLM74atfPa12X/0dXyYSCr5IIRkrBefNo+IAnnvTauKzQf+MQO6sMxkW43YG7Jxz1s4UzpHsAR3kxnf2DfnGD1h9xZADk42BTomzjNzUILj1JtR30JK405L1geA4nG2ZDLtG7ftSqi7L490pBqplVYxFReV94T5FVcX+YSQesvCGIXjtbmDVHWVBaQdl+CRS3KKpxPAS2yIe75Q0nGP/uZoIK6Av+pDvfw5TzfNAcEe9DHctoqJuvKartJvHD6XmOdK3PFLh/cA3FDRtSH3B89j+i//jHvvhs42fpH1lk8dYt2HPcIU00bA3fYnAHi7OSNxZCVdN4GDHQTv7LAyoFhBLOKEDiMFjwjeD+5E2oQm8ldWyDlymcBPkfQBkgRDqvGU8Pp9BUWL52tRcVwHou5kP9rEDISDaLbF/m10WNU3Va+84QA2n1YiWZpvt33WqJ+uKT9Y/dgoyEEALoHceB21gAatnSkiBaCpadHFjGX6M3SkXE+rwNB+UptFXDCDfZhxWZ30tzBVlP4zNqvNzv1D97t5IYJjTrfBWrLFVh+AH9imvcxh38hSp2TY07C4fqoWs4Txt6o1vcJUWW/cjWxoIUKIb7wiChM/pmqs3tln+21eW+FyiRhpTjLIqW9A8Pk3pWzx/tvBqc+nxr3pMFrJmvpMmWqZTu+TZUadhfQ/5nAmUxKVNjmrjLZLwmMphdXaxrmUi6VB5IQcpeUk8uVoNXdlw7JLYtXMQFABMgvo9U/Jzlq7ipockoOecfbAXYj9fW0XIzjryI7pQZ6RE4m+T1Zk9PCoy0KTkaokhPVLe54PzAeR6Yj1ItuKslIImgzufoPQawjRGUytJ0sewsiQOEYnTJojzd7sKrP9P4L7WmH03aZhRVLJ5P0KAHNdvLIJD5dbKp+E+U8Ww57VUqWhO6C8NCHXvnhy2OAh6CxolK7wg1W/ydFNQKdrqWKl1lraZuCzI+IvPFm72gh65BaEqA1lZLkyHOykee7m7xJ1AgFICk++uXyhw3JZNoumNK73bwCtHrSXfeDAK77GWsBvnbgb1utKtYJw4067Gm0hCPTmyaJBHhZ6AHtvM7Kz8cmNT110FQxKNyHDAa1AeYhnQIjC+yKiVOVBuhVCjyzS9WKGXkLYjoDoCXmQSEU7EiZehgSeHpSYIihlMFsTBLTaJYri0mqwmU6EwBvUbYRMtqoOImSRSgn6MmbbKAWvWg1PwLnMWT6seYBfTF5U40qKoPBosyIUrkCSXCIS5yqYWwL7bSHE3bFPe1l3yD7NXtY5fW5wKh/132cPf1nzXJcOIt4N5hE08wwkdTMHT1Ec0fi6ILauJsAOp4WtgJE5JMGHb0QPp6O3ltMS/dnK8bgTjnqpoAKWwI95tHPxMRw5r2aJD3rvEz8Aqey1BJYN40FrIkjRTpgk0iTY74URigIksticTQOlAbf0+SxqZQedCmlvnYCA48d6TymyJvtD1/Vxl+48JGymtmlbTki/wXtudibWgcWcmm6MBC98htr1oJXYDG9VTG/kJkk2GMMtfsf808aB3hFf0H3dODVze+F4LEwwkUc0BbTNYxh3atxdd+birW69KQXqz6yhKYWe014VGf/ffX7sPRzi1Lj23ALcGbSkQww+B+K3/ID/oi+H1L0aAvbyJakMrb7ubEgGjcxluJ+3c+flbVWcja76YUWQElYHBDo/u+pEJ4bHJq34xxREt7jW5UPymg1RadcIPoY8EJ037/5sw/q9xa8M0v6LiOOcNXV/QpwbjXfplQoz3wqtnu7qVd5zILf0DKz1bL9zS9aObDUHPcozMGbwYpw9+wL2cDVl8nEt4ykeGHv24FsF4nIZ2ohrKI9Xz40pDtq6rREjokuJD16tqPggL1iQlIY5hHCV6DYKGFyU1bW/hC3S87PkABURSHWlJ/CToeUtf4ujizxrJXUPIIVM1+Xn6jJzu/uvn/kDDlchyC/RZktarj4XeacdUkFK8jdwBeghNEgII+YCG5YS2nuOnTAVFkiYwrtp3hZI/CC44Ba720DpGGbTDWycSrRZucuKpHw+/o0iJAlyQ3lbzA8u93MmDQL5pLHp2G5wTsmHatjIMwXzFb/tTV1Yb3p+auafb1jM0iQmkjbY/nEpu0XxgjSw3JrJi1v5YaBJuPfukU+8lIkopYPsPUKwtQp0dPjwuIQoZnyA0I7VGMb/2IHmbrnlVI6k2E3/tbvVgCNG38OQZUB0UZ5AJ7s2vSxIRMbDa5YdffjE4dt+cyul+tqGqGEl9ajjzF8g0mboi0Cm4C9m84bTqYtfvyRCTFXktXYVSf0s7yPAtYtAqYunoLb4cGNVmkmQpNadrogIrONiICzio4Fhb5GjIc/5LXj92Bbo0pNJD4lCgK/taMB4f9A8GCafZ7T9wexHPziMwXhnDsJ3u/u+Wqu8u8aNnmXlKU6uo1f4EGdQYcETLU3ml+U7uLd3+1cnfpSHUX2atf/h6y6wMRaW00hQmwoRG+bKWZmACPeg4YYHS/vpM9PeQ1Nv0nv3U2Ag22wuawQqYzBlLWUsL9f7Kjth4JgDMQy+UrkANiFlWwXVwCfg+V9oCyQYNyf6zgN4dkDih62eoASg19qk/z1tuwz5IpqYmnjxwtyaWfhrviQ/bDVAEzKIVWfpdRMK6nd+9EieF7Zn2GlBBb1IfNzLEqkyUWuRq5Dr/rnj3t6ULJ1gjcopxRfaBLHjXa+XC1C5cJplp5fFujRoyzOqiZO9Addc+af3YUf4b35C/ojfjLNzHecIfH6qXcdQQOodm3dubvIvXvQ/TfTadzncxVRkiZu9e4f3iR7DLQJ56SnlLEGKi48lD31BsEL37lE5E0bjgkWCp2wKu9kEb+8jfi+Dn5moiY16roynPVkr9imCruWiJksJpoqvkINRwY7Jjzli5w9J7xEnGMx9hAj+OE9BVRsGtjGtR9XwJrCopXTuOv7vjMaamOkyOeayJrTpEt2L+aqUCaCNfL/+HrbZK5dxNVrb6MO2o7GYRh9tatcqgTa1ulIhcfLVXVKkGWMmHT0XM/+Tg3nVMRk6O9Q/7GZNCe6Osw3PGY3J/IuRHi6AkxP+5s7xclQnEd3ytEqCJE/GC7mjRktMk6adlK0PKSANeRBvSQqv/clwP7ABslnKuGkJyJL35bqLGUldvZAKHsgukb7YLkQrjfkwcUEXuj4gCfGixwD8u3vJJ0W3foqNqMNgyYrJaQaoVsHTUauqsyXyFzN/DdKQSEqTgjaakpr5Na0n7LykQje/kOFe+Q+Bx1A7IeZPwGl7VxoE5Lfx1it23ZKIz4pfHlzrb83uyBCIbtYZBNJ7/Qi5TQ/FnMKlD1YhT3sjsN6LKs/8XGJf+W/aOwXZ13zWKjXFQv5eRdv4S1CB1MNx+bcDTzAiZffJQNNcM6G5EFRu1+3SMT1wnJtCQ+Uqr7DtxLoNfDL008J2cRQeVUNXLKKAUk39IkHuM5Cq6v48jTjNsd3oDRZ0bsWsTmaPQ0u46KkPPL8nGLUXbqkasVFkGv26HXEwMRWkYiMI93akkmxUzmiI2cVwmqgjjJfZ+lgkK44id+EsD7osnnIt/mSG+Lb9tSffILub7tIPG88L7oCylqDzBgufCyz4zLkmA07qnvwORcvMrmuUr8vqZg7+rE3S2zJeU91zUAA/mNlYj8qvabv/aXeKRdwl5wZXqsn9k0vzpPehHrxv5t4OMN7XVb4ylqeJQDuMFtB/sgQwLQvTq9EeFv6Zw0lcw/Lw3AbxRlFb6Ho/kk14l3uA/H+p/cnjnfa/lx78+yrI9g6Vb9yhxgnzWZaYCL01KaxsVbOVumi40Qh3k2ZSFN2XAXRZ/j4aDu6tQoRWPxP3xFgtVYFlLVi/xoUuL1fMuQGlSQevpWkoCzzfAeOPpCKucsUnMfa/rtPJaH1HeIuAs0A5aq1PH/+uzt6CnxOkg1ru8I89Tvcz2uH/pR2F80uycS7X9WwFwNpqB1VPlkeatQMANlVcdVlv/wj63V3RrLtm00Dh9ndBwGngS+YiZ4RZUi+G/lIQTe2aD/QnvjtuKSUImatHdf5hBoCVeWaB6j1Rzhv56w1qWIZeOe8wCtq1l7G6M3JAtUWJNXwi/9qyotRkw8utFHKMrneXWdTwwjMjkfXZ98kzEr1WzSvhYRmZAYax+ue7wpMfhB6WJaROcgNgs0jVpSq6/LiobgMuFIi3DNQNWmqeHyUuY1rIUz3Y7lF2rcg4rj3VYQAn7UsKB22UtMazScDvDqr9ciyVHxaWtlmWR5aPzc1h5LlwRcGOZnlYOYKo+lcv70zxGpbAD9sh4xmlXe61B+wIo44c0C4w8uc9XJxHVTDVZyiWXhUXINUzVlFtsm88Hzlrw2rdc6HsXZZMgVRjD1OUbBSeJwU1evqKvP+n1qaaj42cR74wKd377zFvREbwACzAuOet23P0BIbob1eQ+wxFOe3p5M8XzIcvA9PywEJTT0cHXo6Vvf0mQv5it183hWz2qD2wC1d1IRJ0YMIjyXyGAhPqdUCMnkqmuHkS3jaGO1nWLEtrrBc49J7SGdxFKeD3K6eOp5g61rRgH/iUfEOAQaWwV7s/OtwU9p6pqfXdXpPinbmU4n7a+99PsujT0qvaVR+WFNQaA0UlqMM56HSSghGhYdn14qXs3BH5h/PDN/Y5EwbreuTeiTFmk48ngBsuvw9v7eyNoCko2tjZzht6kjgjAUGuK4k2X+oasoUsRtW90R/ax7Vgwh9IA0Aw1xJlb9yyvyPDT/Dg1F+Nba04hVKk6t8CwiB4CF3Ckvb3QvPFjK3DcT1I0tVyzmRtxywZac1PY2Jvsa8zXz6yQKSlC7JARk8/ekHwdU2S7DXSXln9zlsHf4Y0csMjmv//Odkmes8FW0c2qX2aVpcp+kvJC+/GV9bShiuy6Z2UdVmAvSf1WuvXER48f1hI1J/RU5NHg2+R4z/3NTEwcUdcS9aZBAAOiO68jUazXoDw6Iecx9d6Rxvs4m9qqAeQ4hWOooK6uwiZsHwjCCOsxqKiub5vR8qXNzQ5X8xx4DPdRu/yFL8jpg1k52uvS0oxa+pkWezwGiUoPeApJPRdTcEhsDUr1m+9CBwggXZHtuJAN+BWXpAmoIRptt2Bot44Mlff1s20mUuMYUeISvSWKcZMHSJNOW/Yrb3ROZchFcBTIfLNw0ssGnFMNiLoElaMAMHtg3itdNxZ6gCAVy1UYmOh0v+EJbaM7Gvy4HXa4fN5nANMIipJfobr3hhvfkXcK7w32z1spGZcFjcFkykx+UOHgbWoG5tEOLrefSe+7XXRNl6dWm7TTzeT6MwPgiIknYZwTxmB1s8x551WW4SntWsrCCvZuUe5I8AHJTmroYbnGrJB7hqIvn/BftuZL/NbpVi5s/1gTEjoqbWS4wkJ/v5xbj62R7GmRjJoFOClxtL6EDL+udQyoHpqOH30TdvKb5cd75/NL8u38v6NmLAblgZe/YRKgLpEwYEVJGA4ZUcOouRX6Y/jCF4IGTK6nAOje5raFtJEAeDZp49XKbkVc3RcMCHbtNBTqZPeDf93kbT3Ag1L7P6/1ENHH8vdM4j7jTG3AaWz3SwOsSiduvAucTUD89oECuNK1H80GyxpryC4iK7F+4GwmgEHziXYcXG95NJItyJEDw41j3rC6dn5Bh2DWrqWX0eBWwZrsF3SleQnBvMJ5li+Nc6nK6UQr8/iHFgyrSwD79X6xUp7HaoTWgtJYENeFxv5HqTN8NAuztGoXT6ozPlP415daDQN0jArKEfVv32bLfMDSKpX+sE2nw7qAE2CqrFt+gY9GBmLIzMk70ESfXHrj0eHdeDixeCaDaXXQ3ndcW3Qt37axOUZsC/CmYlSGN7hoqhODBv/Ox44QI/xjb8aouHA4RHYiF/EtDRDVWr/nTPBRKQpnCnOGrmTman4IjfEhdxDhOQk2+EOvGTaUTPxngjvubZsyEgcWbU/szZ/qDZDZ0+pCALcW3pz5cYYqEz6lqAVDCqaJlqo4bTThpz54eVPAVevlIAYpIJFdPr5KecrcgetPt8y4f+Ut93nPkxkd7+FfVKtPMZfj6jik8PmlET52pZpFQOLKb27AmP2ARAH/hq4Q6OFjIX3u8USCMSljtWhi7XcQXHfAhafDmMyUC2U0OhumanN5/sUG1HDdtFz3i5hVXI72ai/Ah17PmFd6ORDRHqjDtkkgG9iB1JNCABUsLAAs/PJ30zjm7+AHFhEioB21y79neF+nkBL0h6J7UrKDLCPGwMMdhxXv0r/wzQhU2fBMSCUyJ0VTChdwe5qAuHxA4M9Vs+ZZ8sTlwbxG0k2crI5Q8438CSxK5/lHKuJI2P4HQNAUkILFxex8EOB4w1+5Sl8ExLv3cnPIxZGXS1enCMlvfdFqIpp/8MEurW4LBwhvgmoChCwk/XMC7Sx29PhL/Qh0HrpCaLxI2p/qUJ+Yiybm6lKq3ck0wiVyc9bg0kAK5MUnu47+NgHLciSvVjTCy9bzBm+hXIhmSO4VJPYYOGVId1l8d/EgPGW06JFQ5usmL0ICMWCjthsDSyR14TIZPsEX1dWEp3MEPu/I8XpLEgiIHrmjXEICUDP3pYA9OPRjABKWbb+MCOXZAtEoapHawsOh6dw9s022A277Rdj0GcwTtRKhd96V159zxhkNVS6YUM96Ocy5FUikG2tvBBEeMlnwEm1rsAFLS0b5EUMoJ1uP6mqtyQAgj1DsVuQsR+JiJTaptfYhzBdVL/d2R/2nKQDBYy5DXFtML1umgzd0OTjE0M5U8Yq/H9ARbA5XLeHxvkTIGZb64ezKIxcez3avhmj7hWsqSLQEB5+IgI2PjR9lTloODmERlm/o1g1V3OMk1ro+/txyLTwTs8dOo8UcyBocWiWD9D8yT+M0c9I9FLeC3c4KslsnKoI64ZlzY1Zx6Qvc0+BQNXtX1MykImlWrTsSSlZyutwMway1z7rL4a3IB0OFA23W9hax7o6nGJOThlIxLVyqa/Ad2Zm8Gu9zdK52moKxYUFrAb+L0oa+/JgvGHbVpfQ2VAXxZT/yL7/cv4KkdQudd38mtPzkA/gM2pbTEVObxH9PfHle0Fgiq31jGywY9l6jfRjh7XOneviXyTuDrQXQTlnmDUJj08+jm0htMahj7Ta2LBinWNJxX76vQcU5sXKrTJGqBZNwNYPeHdZjzIXReRfvR8dDcWwmfPqZ+tCrbpQYumOXnyujLIo74VU+Nt0x1W/T209+0bwhCjnxVx5JDZVqe1FFV2R9Xb4eZR4t5UR3zOccaD2vChmmn6KEPI9VnxTOQYCDoxSnOnkubrJxHBId3ARU/8vqUMstCQ8/LejGOHsaYU2urq44KuWRhDnXiofmgEPRZaf0Hv4DcIUkR2f6uxO0OA6CHlnnDQwnO2Xji6DSJSFQCZSFNANMoVnHNWVwTi+nvNLv3CCVgtk9DkLmGbYlrbkkR6KHhZt7RFMUrHN7TnIuvnJe8KKmnABJy/G17rIcaDInJVg24jMRXKewQWuGQd3I9iz5P6kgE9ADUhqmEpV3kE//3ClJqnAVqkkh7teoHeBJEL6fclbQld5rzgTT2BKNevjWL2J1qTmi17uKnH1AG9oI8cNF1KKCFhr2P2VRvxKY8BN3ZJeIDBO493VjdlTel60+tus9kZhX/eQTgNo/sDXIPo6w0Ggzqu8QdQiOxRmVGLu+/zQ9sQ+zmPlfLcsUXxXPsvL5JIb1lxFwwKYepXXERwiqQWWdFR+KsTwksirlNaBflly/aDLDMlNH3fd13LxY4kJad9XJhLGwqUd/twIbRtp8hnVgP5I5QWPa/JQPsx1qyKCZrCQs0dupdtUaqIpbRKR3MxmDGObwPZ2/vGI+4aU4mnrMb91GcRQAUyB+kjQgprymzdM6uqSj9mdW5ZZkGt8M+ANSYi0Ubpcqaf6+agqI/65rcB6cv4HgyhQcDRiM/dGY5XmPAVZ0DFb/nuBFXJmMwGm56K+5OwBT04pAPM7mMkObrvYn0U2E9/VX88ASSxgiVpbmJdbDn9ZcWPf4QJXqU59eAaJyUfGiw0fTopgbc9DW96Tveg1eHiIG7Vhgt2R7F13OL8nJwNlKpeLpUWYF6FmkeQEjiYgwwxkBypgGdPTsSIUaoljvSg1T8+hfEdxhIAhbVeyR2onGRGq6i1HXxpeaNXx9we9R7vFKXSN5GKYiw4IrHFOdSM1DL92jsCOjNcdKaRZcKqgtw4qOZ8zzAiETiko3MLpPblKj8ORxiyDtrW94Zao8G06ohTxW7eg67wHh9+IOAjjY4h8mIkjR3Ly4evP5Hy61TNK3Zb3Y+7d4rW+S5j3hF+RPQAOM564O2byP1BMiFVBodPdXR11ji9YzuRbkgURkOjcF7CrmFaUrq9dmHSClsDPFEeMI3ZedDEWZ17zDPrEC8Btlb5C3okWtEPFjFllg3aaE9yW6dMzDOCv7Dz28kd8zIcmEcQlRQraSuHV5gKcvO9Y/v8BY/NgroDm1BIzXMxZ/sDkojjtPEV1gE+lTB9jWmq66MRumYk2Pl7Axy49Ff8n9qeYDflKnxu5FaxK+N2B3mgBdhrr15WOYl0RrhSlCfLJ0Bi7ylmcfTEyCohj/K9QIXWbwwRQH2d2p3oePX+A9k8HpsrWnxSmtSTCY/0YUg450hs6Rjt171F9rADO7k9s67frazXSCxfAZSiIcZ8m61QjhFMd+aJhpDbrpWU35gufUtUyTUmd0Y9YtOy6kzbsykL69AS67a8KcIa2wLSLzzCh/1ISWvMzMTFMU6E+Rbqcdfbkj0jwpUk6rg1Y0bWYmHs5TePd+70zAF/yeXA5fMehusiet2FPnha7obVUr5PzqqoJ7qeF/pwYBc4qUi8A27/00DWeM9YM8Ze6t0XpWusLwFVrLJmgNse68MOEn9Btf7ZE5gIPHpwnFF+HARDnQqkbnVf6W/E0RrkJgvRVaRaV7jcYAzNRaDgPuYc4Cd2IaGHVdEDZwkM6ieCzTzBcLt4Jgq2VIXSjLkItzrpGeMog73Hr8TELrCjHQ1U2yxPJpAEZZ7tuiGiB9ZVTNlxTlmlLIQqt+2d7AFpaQz9ZF735Qp2KCrkrAqIR3Hdt3xQQzubbWDvVt5YRZzM62WYxtcM7WoBZ6KZFauN3D4Q+e9KFiKbVRlrwkI1ZjaDDxiL9qrpqla04UgHP8PK/7rW/kdRoXMjiouYGmLQsntQSIBxzI3Z5wSNPXeRKUg+2Vx3JuvoCxogbGvykwGvtlqpiPYDIpskltjzI3xJFudVQkk+uS7pfcun0tt/ZxYryQ/Ji8uNAg0tqURxbUbz3ItI/LGHy/epFefylKF3ojUshYFNQblGByEqoABtQEzzKv+3GLq+wUjgs4eR8E5ZKJWbKfkI534ilo6YUz80zna2AHeGIwWk9ggO3yYiALavGGPvVA2VM7lfHt/2J7ooXc/wtpsRWXQnnpNEcLhTCyTxRxAMTg6/J58frceD2vszlfjxH1VOa1G6SiwY3wRB79mwRV22Dmf9duN5ykh/Fs2FTiVh8olo7T0emkfB56t6Kulf3ZmDVPfpNNQELD40FqYr36EfoERVJbRfTOTj4cS+CE56mHI14/Q3u9MgVFF0jcxmpmk6YcxBzqsA0vbjuUFeYIffoL8FAEAPh+U2Xiu9qfGHVqRGYJwp0v1MoyK3z+7B31zislcw7Bow6xZGG8IxWXIZgP/F7h14/owG3YeYHSZPIcWFUEeu7Y5Vub2QPLyBqF3pacg/5TzggFbQSXugqgdA/rpH9rXMIuAtJlHT0gxcj3Te9A+SQ56uvflpwmfxLddmGVc6MM4q+LFZtqCkIU9IJ11D+tnMKYjlymmo+YrQtgjfy0icMzIOsCZAWZcndOvG0JMsmP3+Q0ObPs6jkP9To85NqX2wGE6SRNsC7ALwiRclf7YfoDRpKdjj9rNAohdPdAUILOVeSKXsEmSVtfyTULrPKfTksRYMjev9zNEbGKpigNF5IW2eGK+IN+0EEXwMfmkp23+nq7SZIDHUDjQE7NV80sGgKh6BYY4Rw/9sLCdFUx57C+ha3yQCtTc9dKsyIX04snpCcDsnli+n7Q6L5aHOApXCcBve7ZBVB0E7jvxxG3vdio1MP4VyAPb2T/bB1xYJnavgFLpl+hEzfU3WYRaBK8e2no2YxB817XcBjzr6nPGWz5bXLJiBU5y6ce742bnc5HKBaPwOokiDOKcpulQaGGGtkjaaPXtZ9Vslcj+AFycFdiMufvP/D/LCPjKibPZQKWZfVTbNZ4JfkznBseVDg4ojysQ31VDX680XtR62hbcylVMX+SFB1tdZ2HBoP22VsGMrH7Kbd2SOxnKhRW9QeFe9nHfyy5lkKuTeBL4ae1x7PEb8XVPjdcTCF76kem6B+8inopvqIMTLPCvo+HsxxMKgsJxhIMAEJwBX8msnEYeV0xcTnKz4jbXmhLa4iduhUGDJJdIp/95rReePn/oO3Pp8wD6YMMDNLxNIOVXw0W8M0ufs0WQqvGW0UmU4GM1wgLCc8MFRfK5OavA/tZxCun2yrcP28FcEqaedYWJ/OxxVrq+PaT3Ex/w7+3cAIvQi0jLm396rUMs61Fb1w+Ok2HUDoFc7odHZbpY/1ecfr1TjJ7HSTGbjPcp/XjppxmeM7WPAapL7sP4rh1SUXffrEYzEqcgd664/TTKmWnjF43DTFdCIv3zcg4n7Soca5U2s4oyfEIEoENLg4xCXYva2R9a0R+bnUe7TYPgF8ICm0NOPkgNsVc2WCX6tSX1EEqY/qKj3IGKx4ZiOeBaOLiLBsznFP5iQUvw6cNhpHxTWws1D6XTx17A2H8SqYQak25F2LDJlDPngvqoIIt8xJeD3c40qtxwtHKmoPH74NnQFnhFwMcJxhOr/Tu5xIcRi/4pFjLCuM6Q5mGmJjx/0rMUZXzMgCvvzsLrAk5qxS75DE/gT3Pbrsw9/eOT5D2KHVWAIhgBXQu00iQSYpMumk+uKGzYOOV+q09TNEolr4cjKY1bAuG5FRKA456hmRac3T8lMi+NjBG5YoS7cFSa27mCwpR4WOpQftTZq1w0WUgqb5M5SOVxlpLYYjh4XlZ6Fl3fkDklrinyszpkllNvBQu3cyQI4u++lMbLzCYAl75mn9Hp8sJlwBN6Kv+oSoBWvlhRZNvTYOgfO5BXC+qK58FHVELJL7uvt4kf7u//uUZExIssgW1GWulcRDcO0DWT1xenLsrM57aCF99e/XODjSoNhkliYO2ismXsCFUcsOyT/1s1DGuemVbqJKHG4RpdCVCJaendk1cmnWVW4Rb79kXWJG/duoGwpl7hVhguc0A+p/ancYVSMoA5ieobioLVb3eFgrIA2EY3fWhPRWGTg8Dqj2fCdPpfYs3vHtfGVaClREJHk0YKrlJNsTGHzk4XN1K9C50ZC0W4XGxtSPn7xNsEFS+NT9eI2Vm0tMiJZLdWa3Es/7LxvNTKunVvM5Yt8muPmSoS+8Y1FL9QQ9B5EXp5RmPq7g4FX3UBNrdFHdCJHLV5t6RYVU1oL2PIINtsQyiZLWFDvw6Eppi2WxRr6OblS/EgkIxv0joX0PRd3gLim8XeWP5YX2HbvyPfUgcKdpuHsenEcbFHVEU5YcccB4p5iUTno015JcNhLmQlUa8NAXI3RigdyJ62TSC6lAPlrgc9VcwUw1j3YWOEswnT1qoObbxps09q9FIImNek3uD2A5Hnp7CC4CZ0BXGrKLROvEe6v2OXF3wBwU1jq2uOb9b78wRbqK6EuBABXcYWijZG7jrocUyhs+h2nkJVn2zPi/Jb00Pn/6/FNxIj/kn82Ff+ZbIzcOc2E3nS20oX92nK0VRH1X4C8mJ1YGRvWUFFG4ShDd5sVEbX+bHGrB1QN4lgbFCR7LgK+pfl4/MCdlFc8RJbGCmI/evd/KxFeOaGFd6JFc3erbjBUqKixKfMCw3x4tAOm+yC33J8YZHHPY9PNx+s/XqmbrPjrj+sjknx47OZtBbzkLGoTLMXqfuBUeXiPYDNZMlfbUWGp44OTaUn1oZV0ziBqqz9dthlzlMtwCrY45djblSD1wAPBSth/BMGQgkZZo/OMhcNIcHIfiuHzS4ysJ7n8O0nMJV158r2Bu4S+SNFDJW3xUBrnGwxyIEIz8BN6l7UHxMkeE34Flw4YrUsCRXLEL+8/HUirkvbbxWmL8vAwlloN2YqeF33Awmt8UPIsKBEJHOy8To4UySaXJdwwmh35rymuqhdiS34OZa0XRjJmzhbIfuqw0o26Ecl3zhlUPzdF8s+QfIlXxWr7U6jP525bNrLAdjJ85r0WhCn0QAty/6MNcXA5jqrd+oiJSYQ/rkmgefnvKrXnG/jBEAaCcl9sepuL7eQ8HKePnrh6kS+jTdHfJ/LE6laiizW/rV4Axnr3JGZVdqzDtSoFg8ItKoNTlk90wdKQUDSLQBVe1OSeFShsanBWfpOEinaLKdxDqgnAmbD4imhW4zKv7PMity4v8FKpQazG3+N+/21q2MiansENrqqjewodnuGZpBEGdR/veM+m/I/S/Z8W+sTX9JXt6i5u2KdrIZVNI1TR2edkjgObXNi2Hhq9FGRxW/3RlL3av25i+fqlnoVN2DXatO4q9Wlzz4hzzVKNu0OHeVI4cgcrZ03G0CO04LR3gBlabWl2Ib60cVSxX9MfMUDvuqUjTxREwHaRIIf3mIfxIHd4kg3kSBrgwOwXbwmpLHv3xm4fnbCCllcMZefbyP8/jPQUiyAzDVksKJBQ73n/9mVQBivWDm3Mr4g8D65zF8C9xoC/ILrEpLKiSsbXe7jwV+L25DQxflHmgwMBB35MQokoFI0d9RTtR9abSZYs8tyFR9jyMvDDpfuGwoTFZeHjZcZDfo+9/B1wQyIH8Nt9Uf4neNs9xHpmDdtGYdsEPCoETGtapEc5K4LPvixxU4Ebw4u6QftidDtcGgDJIrmD5a5nlo2R1xEq6PLbYSt6z11e+gRQbYJ0NHJAQdYMcVFEZQSO0aUI78ppSVCE4d2SLdy3qaPeEJ1KvwJMb6BPzk8wrmcPoKt1Ifmz3P7PnAEKKFfGTqKx5K3NzDrVnnSmv3ruv/CX6lZge70ckF5x2G5e2uGptu3yujWJik4WQfTANiBFCh/zCrQFDiN8f64qZ8B9Q+keapwje4gSE2JK2M3X+3IK1n8orJmb1O4QkiAUnSpKb4XKTJBEOOjfnosKCi3UrSeTJxB7tKINMPqHUskMOE5CGo++ZsWSSmOAZ7a7mtQWE25nylW6dyN5fpKeoFxgks7Mi2MuW7WrybzjCtSsQPlP9zYhpf9IgV8mB852aoNTPwWi+rXdqUBf8tTJvuRCW4TfCrBSGQEE6OXL55MH7AzmYKXspRKDIiss+IUei2fXQPELRyhq5shcwmXnsHWZCwFkHvoZBVNvf/RWyRBR3DWIveO27WgfLL26laixlr77ZrNi5JMC0AZ9Yed+sBPtDa3jrLwjhBcPu8TUWu6wR4d6SYcpD8hYFpFqXFZQQVa1zKQUqMIQGYoCV0y41rIvVK00gwQPry1X0H6LR+6VXLe+L+stTMhCkbL6IgXzU4mWwrqXb447iQNAx3VLh7Mc1zkaAWKMAXqYQSpycK/9dOGD/3uawcIuDZ0SsQrEirLVo460VJD5jKkVzQlrDWgbuvTm3MN6zogKLIuPtGG/plM+j5OtbAJyN+rESV2Kl1Xb9E5v7qlMel7oitQKHNrIeL7s3T3Kua6So4YJRdHSgjOms9UE78oYagMyvNT7VtQhhWnXpiI3lgKJy2cYqnXbENlI9Scxj7zcCbLjPTw0q4gYmGsDlCqcb5IDEKDXglnj5Vqwizig9RhFUkIuf+IvjCRk8+x8Rrbj6mjOHVkm9ykBOebTvU1nvQZKKgY9o4nbB2cy/aPVYtQv0D4a3kw5S1pNS6/vQP9Sr9/Vzz65DwRNLxzmUgAgOnOwRT/Fo5pH2FcLUvFyTGBZCC2QHcoxFjww0QlGaNM339fOqOpiAgSqGY78tNgpUrScOQqYIYXWEGRtumhBlWvC8Eruah3w1Com6QeVACQoLTuMDwb0+9qkqlEwHf7ChOc2uObVWkcjrl/zWmuAz5mvKFkAloj9W4mPS2mnyMPrElBeWHntA7Ni9Zb+VrbXZd5UdTkNJdR7g2vvvZhs0B1vDnxthfUhsqus37tstyPh9iSSX/xLb2ZawdNoyVCA93f3cLbspxM35Fymk+8e3dGEMrhXV6ZZRgFwQXgZFa97GxaeKTLUuq8/lBY6AUdxByOxjkIh9cyeY0hw9LQTuzNV+/3VfRbXQOKro9c5LDpuvgi2OPCCdAeVtcdntTTFBpEf3DhO5YlW4ZccFMgzZ6eR+8zoJjnZ7xHDP+9+7nU1DW2KP5qXguOhOUHynorCN+9FrjUO6zmLP6LhbXbBYZ6/DdacQ6IuRFfOdpP27otAVY1P1Qf9CJAZWoFpv1Ov3EjJrUSn+aUMiuJmiGSznhAfwpHsjULm/jp0j4stNI7Zq7yAS29Gb9bjK5wza3y4RXDClWAho9j3z4zrGogePPTlesWdmgqjdGaeGvdkGpBXbrXAGD6AWhXPXvZBHdupKAdFVlMaIeijfzLUV0weivPw992oRgjKNv5E+VDKgNFpJbMYxLzaezGGad6fS/xJfWmLFabnNiW8OoziIY8+hFu3SK1Xw7LPdy20s1rRAinyLyaPHgoaOthfGZmYy+uoSjoDwXsqCQNFIlZ3SSmpCDzmSrURXapAInODrJM4F4XDPtOsScBL6XZlrvJ5huWKvJyH8QkY/RFjIFHBQXAm3hzUas9wqxZjOx3r8kF7c2KahKi90qgumAWmQppr3NWYJ6lie5JiFR55b5mVGVI2lF+HFv7v7VzWbX3xHC+iA7k4dsvxDcVVuYJ1m87MPhQljnBJzPgSMXnZBhNxN2x6cCICCypRcm8bMBL1GBpjlUVzozeLTLVZXYmUlPpPIHhat2bGdnFPpG/9xWatGIgGJKfJSMFzULVapPsxsK4glIlVs9aODX990m29oy70dETwt3XAY0naYNCAFXz93WvOZMqQzc40JeE7LngiQxBDEx/dysUs8smYVzEPkENIAGsnzqLfLCM+chO+g2WvrwKxNB9IHd3JNG5a9uf7pwJsG0jdqPygTuGB4Fr6Pe1Q70juEKvU+noZj0r/lgS3gUuPtQtRIs007NsauwsAXjbbVjY6g9nNe8jTescQt8vxYaAOsQyroQxvzMspPkpNlNvFmK4/SySBUXjevs6IMFcgTN03xcV8Yd2lnXsBs4Y7I6Br/ke6rcVBzlRsUUhRSirUyIAV6AjDTbJa7J+hm3V18RwTAuBuk8RDJgsY9N0AGDsDUv3R+11dpZgJYVruFVzxurqJXUZMZcWcfwKQEfU/7PiMy3m3I/9X9VyOWYCmndf4lYRpbsRehT/y840yYuYOTK8aMbWiHKsJFRKNru3LpPKTVthfpqgi/5yZ7HC/yS9CCzY5zvjEfGUkwtic83K2kaCEKIlkr7y+GBfg6nON8M7zK1okSLiNOn9DIzjZ4iYRCA0nANaSNFw4k+yRqg7XJA9BZTuFlLyPE09c/c1pWkx4F2B4qJckWDKJ/9EZnG53ZW2lul4KqIRVQsAFZCXzH781F7qQEC9MJ/OL7NXph8yvwptJnPNBtzbN9CHFzRAoAULA/ocU1QniFROul9Ix62rfCHoatyPoQ3ihYRv2vPg0Jc/1K/bZv3exTqM8WMHqhJXqYXfYnlcOQNVYIoshHSICAYFmUKgS6Kv+S/Zt1fy4N851kuW4qZVNTqTHIbp8Ja0SqlvZLgjHbpS3t9X/OHBmXrsd6Atjy7ZRPowjjFfb4iyFcC5wdko9AvZaSo2EaCJ8V5TLtvys3FRooejc675eV1p/ILwZUHNSH01uzLxN6cyxfOwcU3YEUsnzoKPco95DVH9Xj83lII7lAR5k0GSZ13qMjU+myw19QeJZD+W/Ax/Qw9sVNCD5v62vg5pB8t4r1n+dhogEdg2VGgEf6UIjqNwtncyx7MVnVqN13ze80P0vKuAkwylXyb7bJ8huhook8gf104bfvMvaoNGI/qAiAWNUI9VMQ8W5UtGAOf4eklNf7KUuxmu/FXNjxX5I9kBjoFEN9u9z2pVKIJ229yRNRB5EoXIXFhtSiiyDtdzLKtn9/6GHVRWD5q5+5ae6TIWLy0GPRvWDLLFiXL8BGdmPRU2JIg/OU65oK2eG1ngvgfTEaRw6NgctOzWVcC/H+D8OCtTo5i4I6Ug0VtPeZyaWoLqcKQCjLkVClxWe+91PMSV580OJD1A1DNRLDdDf9E7rGJNg4i4qCXGyW6bRFugnDyxwDZ4JL7+uWrjVkTOXC+u6UNtaMZVQSsvb6moFMxmZSoEdJGRP4+qvf8tEt9yC8yj9JzVvmypNsfEFa3KeiUicWbqXSZY5t8pwxpjZtZBhvBIWd25kBqXsAGb1LD6WrW0H9f4+rfsWNiLmMk1tiv5/CFNzPNyZMzBDmB2mlwaocVXQiQbq5bISwY4aU73/ztdQsVPfJAcxdWL9fboU5h3Y/Y+ttPtf6BGt6iBggGWU6SqaKLLbIozZFDbqO9D7N7K26SY+tnXxiB4vOnAcdQ8kMUwFf43nK3zy6wgIGGQRzwdG2/aewLAYPmKjLXuZgAuDAm5qihcc6mIXflkT/DTUD7/JPg0ksWBFTL6+bLhXHnN7xykOkeoEvsLPftLOh3YxopNIQMJeQTDpQIOSjWnhI3v/S8ffogPzt18zJQZk/JkKDPoJ6mbuu5kNM0in3TJMTdCyWpqhv3w/ouqZ3plRp7oXOPggDL0+nTX+OGwGRnXWnS0eO6l8SD5EbN3CjZzpQH7W55MJrd3PQvC1z//7G6tIB1UBbwZohgsV5fY2HW9Rs5wJ4FhLtUFIfxU0hVwgMyouQ7XSlxOF5m/Aklzll3mEjkCS3pkIJWm+ChAou53gjNscSjPeoX/FJKhDsD9QDztWqUtRVNcL5eaQky+bl3utPC3PxaYCzv4Y6VMGTKTprnZ7HoaEMyF3IWfGlQG9Is+G1INWstmodrafi3qAnYIXBOu7o+V5MFRBlYdlYJpg5po9hlX4dz7LSFIORAbvsQhE8dAvPWpazAmQZUeAVX8QNPFvbaPip/XRQ7KaLvr/dsOLHczer6k2V0GrAkGpt3/hesppLzNF9yZu9Ruje5OBqkAgmm2Glgx5hM7VZYHPEh2bK6Dd+EI8AhrFVjJ7tsMmky4IJnJJPg5mLO5clyxD2s+/GhgxN/p+TmafPWsbtlkYPIk5PG4swrWA6DG8CgzRKhb0vyI0tOaYJdOWVjunIjkzRW7o15S8WFjz851cMSUco97xNUyLEZ+OsloOuDxhpcLpIXCZbzqRPkFsnirVbob9WOPUzpfl3HHE4eQw61c0VwwXCgyrw7ca6i6xDwH2uC0ogZ5nyc+KwOw3yJDr2tLLmPRMAvInU2Q0nRG7kk96jtFyv/eHaeqz0S0ObLeNT5CqlSrq4gME9qHz9ptlTBpC1dFVhwsCcdzRSKjXIIC9hstV8k8FaNEMRXe3gSBzGbptq+g/s09h9fGN9ndB8IlcvpGDlfOza+g/DvZAu8A+XFi2KGpdiXtNGiKxL1RBqrzft2ew4my02jGNNFLDK+kYqax+wGQbM4MwkgSrDqzA+oSxpF+w+/7hj/jrA8wC6vdQVcvTMfnHycvIbS+ifoa2ArtBI+Tq0sypRNzAdCJ5bpBHhIWVo9StIl/vpHBtpmKeRHdz1/B2C9dZiHCXlmZafnmGJQuR6ws2v9yz9LEvD2KwO58xKvgbf2ZQOIuuMeTAEAuxMmz+51nUb0+bh9ZlqlDg4raGU1bhONzzhdIf6y2uXyN8dlixrf9gUDJmL0ysYK7vVFfoNp9h5QfJASo77lI7YT9O/cmiTnilCCgei7TG0bwPcXzZYB4eKDo2tlSMvoquiZx1iixrkWeUIjmU0mp18S2ZXYAm9kRjquOGQi2lnUsUPeQVVowNpVYgExQYc2Dqxa4xVuVCM2eDiGNak/AKrp/FYtpMEM0fgAw+UCmOTGl29scSS/sojtxe4VuAYUEyjS5MhJg/IsX0Xn/3U9la36pjRRjaQVPdKt1X1HItesp8D+omhxYZ2suiZzHX4NVBjvoL4lgPmXSShkcRXyAJMWiH/E5TOaECAjST9ELu8J/9Ol3KSkN5hT2/0Xr1wwboi+fp3bFjv7pORkJT6M41CdYWsBzw4P4KZSdyDurrdmL/3tRgbFrDVfYtkt/h8Nq59pncwcLdinwTSvg0MjNtrDd9WKLfaIS6fzeLP2BFTsoc8/3a+zC9TF3xgAq2qeNByvYTrfVKBQeBjQWsGQPGX4eZHBMh5XNY53HXQalEds2W63sKQsm2WRnZq8lMaUnWvKDk2LLCdYnGoGK7D1YLgUst+Yj1oFYluLp3wz5UAbZPTLUMenFkuvY2h0VAa3EWfoLhoPnbmYvwCvytgjm83MgW5p6wp6Y3cvzuggh5y2ynMu8SdlAsqHzimTHKrU/tUyhh5zrVX/K2UnriLKMQc5/nJUaonghd2bNxRV7zCjMFcjKUxXMdUue7m5PEPYzoN3+4M18gLTp042exLNF0+Lb4KBm0myCD+CMU6wDNXQFmjJacsAiW1/AZ9bdFg+EIYXz1PxqHg5bI7AgKCBv3333wHkU61w18sJt1Bl0juMcBXqKAq6ehmQogQaGNZ4jnYzmG9gqE3wSMWbC7Dtj5lE4jLFdMsklKLL5Xyt9raJJz66EE+OCLlwG3tdnTl0cAZp4+Ge4+MPT3OWx8xi5FgMjOFb3xSE3twXYZfxg6QXWOeTbf2AMTMSOwX7+cBxsueDSRrkHwvIW52uVzqrp7ZKW2AIwMCk/JnH0qlR16fk/bM0bPS58jYHj5ECdSiRR4LRD13BdgwzQYV5CDPkADE7s6uveCAck2yOtVkiTMo6UaZafTfgeEl2sfGy1ta0wzXmWS+0T2C5+gINh1ec3XXGILC+REWC5S87FlLaHQrIL132mX3AyRLhTujt1ESaz/89ISOoCXBQS1QYiiQO6MQjfESyGE2W5XPFqROSE+IOJZpccRVAc54pwbytcsDJv0H44Hs3xYUiMMEv+mSg0C0Xf0geLETPdZwFZioHt4U6HF/GaA0LwUZCNdeedA7YQ3quYAY1VeiLxJq4plEU+KMcF1dyOCeP68TMAhbS1pxLTodSYZEyDZH7BHTUjhjfZovfLn9tkSAsgeMuk8e2XVJidafGK3TpUs1IJedxuSNrq1zdH7qF6f6x1z0DvflEJne2FcGZDmqQSEHZK1PMoxAgFAGb21SiNiufpQs94439mO9HOn4Zeqqq8BJczCWv3R7SrlUG2M4Os1OVnwTdl77f6DdrZXMcsMcdeox/fTN+qdTjnJTj7ct45KKRpqFoM2/jKuHmYn0TR8bc+8uaayb9tz9purs7htWWCa6sF+s6bCfxAXKcTJQlnJuOFQ3pxW8+uuB9+TyomRcpbEnY9UnulXAUrOCPzMgn74eqyRWEpCvP8ajRDAY9D1JFJVSougnSeTTKHTOa9Il7dqd52EZMAncTerc6NPENsr0WuQjJp5ZXIjMfb+tyiQcpfGpNFpv0Kfk7kAYyxzNSmogs1x73PhekDzc1nCP4fkhl2gwgGTHbzNgxlIiejFt+CIYt2hjDsZjybzsg+A0WwW7YmqIUf7syAMiN1tMfHF3Ebzlys3eSbR8f0JU8hPVU/AG/cK9Vqvayo5w7GSk3/JXVIIfH6G2cECKvrB1qBBSAcHpvB1ktrJRHQCHBbjFTTk35IP3alrgKJ8ctCdjyY7SsCqpe/xQmB1xSY017DyEjqxxlPFJugsskoRCQMQKLb2diJPdO8TMLhvDilAcN5bDuoQUOwEXZ17+Jx61YBwrJxc4RQ7187XUwNegHMXmUyN9S5nxGbwv4owrYarzHq59+YjABnl5jDOkrXMGz671sFZ60dNGW+M/u9hPoL+AtJzMOsbm5WUP72fswmQva/n4+UrMgAPKM0Yn5kPaP842D7PypfxX8IN5k30b2GNYRAG+IomEFndk2lkmhI81ypXVeU4sCumiKVKSmlEUCd4CZNUGVaaEeiaJayXkVVPE5yv5/gQneHc5+uUNlW5wMv3iItuT5CdqglxLnSs+RJoIPpuMqnDjeyJEvUMB2JCgvEBQD2sEcBHtA4Xp+EpSqRTNhmg1Xn6TmAEiXhA7MXRS6UgG0y2yoQNzuk+na9qMKcsfjFxRMQSru94NjTLen/Y/G51w9ppoPDleafZWDyncY9L9VKqR1l7Z12nYQWSY2Jg4BGnn88i/GUvOFXYH8vGK7ZD+TFx/5GExj/M0WJTMTpuTeDMM94xSo53xOSRZ18y1JBa3op1XOOg4joVlSpAaexGLehRo4jd4rIMYyjs6uaai+U2XUV6Uu9JoPU0QN0/RWVif8dKHUjWQN1z1zUhJAZEgwz9Rz2m64foUHwdXNWSLaKt5sriUSF6B+GE3V8wf7vYdGGPEjfLn80Cy+iO48cLxrwNB2GH/Fewc1GaR+sBs8PymFWoBM7ure0o6vH8/S2dcG5ZtEiQdC6iGqTumq5P0pwACEHbYUQjdH+YcWZXknVbVr+k2iqh5L1sgnIZVeDFezv+q30/hBnFeQZwnn95wCxnYCrzyW8T4Cnq7XZolf0k0ZO6hsS47gbNPkvRyGV+yUvwR/+JQbg2uWP7320UEF5JXb34niBgOB3lBpmVNeDFvMMK3+MJ064TlbrRyf/aFLShJAhE2yPyznE1k+5wS0hRsBsVwmDRvQGVQeRmBe+QrcQYGQuL77N0Oy5BPx7nEIClE8uyFZIDQYWhvRSDl3MejJu3U86fdGU8FXsr5DDs3JhumzbZAAnvjF2H09L3YXxMd9kudy0fz6sL9AMaZ4qtpRqDmrWXirupeyRLECpj4m6fjSxX0NdvHLQExeb11TDHvBlV2D3D0buXX4AmGEGeXMkwwh2V+JPeoqmgHtSJpDJYGwVzYIjCpEK2U+r+oTuX+v5Iz7nf3+ndPUVhGXz5O2yyUl80y89KhK6MsN6pSXRsk6MVCHLkXGGN0DKh7XTS0myLjAZmj7KHBrPVBvc+JPKI8hc5s8RTxAgb2QtxTuH6BxhvZ7DPiobRNa/2n+za9dYsGhTyx8LZPDq1V4JBssgrglADVJ/O7KjpCcNprd6c2fNb7PuuXcFIpcRdla7sxNGlU2llWVTTRKkS/2+QcscdOxgkzJDYAMZQlGYimVF7sgr4UH/rxdx/NlrHz7Jykmk6rZwoRCjecpJS41l0NKzOkA3C89QuiqlV1c95paCzPORP5fx5ueykd7yDWmJGST5pfK4JnZbG0zvzWHGTdaBcMYNNgAlq6vVYJmJafNYiNdwKkREU4v87lpRlbvnkNubVSqhAj+n2QclGK+/9UQk7r7tVmSTpm+xEn/jV6GiQmkI3NoPc3paGl5cKj3u60q+oUn8EK7jRgN1p3PNb/5Hktj6vqMjRG81bfZWnKvf9RqjXWPlCL3v/HVlzZZyBJprvagKZQpMVnibLOloYjzz1COu8QI8TVXGqF/kqe4Jaia6ykdQuR3QAuMdps6AVYXaWu0vtJ5Lzbd8oVLLLDY5fE6w9+3W2Vr+zrxrfsKAji7yZhXL7Xk3oXHWv/o0OQ8qx/ZynaaTpIhjnKDfTIKZaTbw2kH0VAAYxbNzVGzbI5zwLPYauYC0toujKg7Okgf1IWRts61zfzAMjgecWH2rTyM7BtrmXcGY+WhjqOfDw0konSFRr3bP7IhyfoHAOyRkci+cE3X/Mdzf2+KoEuDep2DaNboO8fvBWNNKNeMD4ncKaA7FXS/alqAerAxKTwhu9P0dyXuAddh3DZGIXKkg/uiv50n/i408YfjXYMK4rF6Qw04QEuvg0UfZDCLFAmCqPiV0TGsVwnXdtY0qIMCHBiTQEmqpQViDFGe/RXNZkWa10e8nFNVoNcYmTrxTTta0hSXrarsqgqn6W19kbyNdqpMKZy3Di+9UJCkNDbStNFEcYUlWGZTYu/F4Lvr6Z80BVTez/s+idb0mtyWziffMAY3eW4u9MzzHiX6iRKVKqkrM939jhf3qkGu+vNmJl7/RRTxWiZpI+WO1d8S9gLYWPlGwAzWa5MzNML5SQSW3FnBp7qOxfFtq6IRQcb3q075JSOjr5djrvNedcunza7y8GwqpXk2/0SuJC8mxgjOZQBlz3UweB/3XfaO88DJ5Prjr2yWxHca3EBRmNTHSYv1xQUcUxmDTzWLQp+aKb686O0lpAjtzEhE22ZVLQKplVH5mfoG7JJb7bX/v1Onlh9VC9f/aVi3t8NERapPSw23v1t2jfLmtOmFGTe12PzfKOe+kmzCJb2md2lE35RcZZ7p3BRTnexsXtqBVZAv0if+W+OJpHz66wk+1zQTECNwEhEh3jgtT+458boSlxtsFg1aDeypANRHQera787rGn7B3G8kBA0Wfu5jFywxyQghI1ysLz6SskxxHegyacou6am1BTKWKPKmj1DvBd6w/nEPLqoHm8LOERTjCXiaaVnhTMXhBf75YVhB3Rsf8hdZjcVvFVAw8VNui9ILItaX9m8vhVV5MBXm7ioVMFRzr3OVjxOfDDnA3JG7WI2kPjQq+xpKdNLAmhgfdOYi+UijOj4ETqUS41kfO75rp20ihZu51dI5m9f52MI9/26aniYu/qcuOSvcDpAi2/rpDdNOscpdGyBcdms7cxSsAjU7HCXdIfjQCBGJW4IXJA+AETkQ15Uq/fELTgYbA578nM/wisMUSfYcnBOsXskLPH3F6gPiLndetjJKaZrbuGXQRN68icBN/XUhdfL0HEE91xYkMZWOUF3/ph2GUyzs9nHULlDj4uzXJTW2Q+3bQT+qZLdNHbNuOuLMZdV+x84wMf6YZFi9EGS/7UM3TIEAGNE3Dbq2RBc0UID1JXYrJAsF4asHQJ36cp4lZ3CKwNVnjr8Sno+EYQBUTP1lUVKS+ykg7mzbHlNRvSSDvPyW67Wvi1+Y8nK0vNXeo/vowjjOCkEvQ+7fWswP5jac3lqOqGKY/IB61RKZRZSbfZ08b5N4+vauLMNupkuNnc6OsukbHwH3awYf9BRRHpKdLwjcvQHswOg1BH8BVzwuR58anMEOLvUG+ViD+lc7sORVnrO6a1mP0LkOPEVAMO9qvQ4Yb4Y4jI2Uvq5FG7rSZLIDscYhiwZaZD0fjzjmLab+r/Cc4SQd6QIF/Lp22rvAv7tbKPArXDV4wSHeEHShB67BfJPk3Yl6+o4poZ33xF9X5NsylM9gY4m9dz7hdUG2r46Rd1yVvHR3NypmZvNdizTHVIz7B0hqNyIXe4640MOsBWgfbNvf23dh6cIuPUnfIoU4FzobVTm1cjwfdpzGQf5FmRFJYvvcUbPjO9g+lUAtmTCFyd97hHImT6Q9n3zgmCqYUB2wNpn+9Flr2T8sqKF7Ku/fNLjrNRYArDQOTUR/yA2fSEkaOauBj7UO+DykzlIuasS61vuG6PqSSnPl6yxgVGV8RGobmUF1RIPVUInobrCz7hR4mRq6s2VU6JW4dQ5uFkhmbbFEAUgvjFHOoXiu5Ba/yHFrC1DHChnhubFnvPWfbP3DlgcKwKKc1K6wVilJxF1xgvPi68GcMUT4M6ruQBchfIXSHIlAkh77CF6xtYLa2hVWOX/p++LjJcuELZjq/tsez938fLUMedqNy+punnj6T3GZQLzhcnrQEvx4cYZxHP7f73Ul9snkWfFCnLOQAoPY5onhM4uYZYCnmgYgZ8D9Wpoe+luuQTtQGASNXkMpm+cdOOoljQvB1i9nfVWx8WJliTXQj4XWCXrWNl2qQtqapM0z3Qv5gOFzym5WcaZGrTIoRtNX0vc31Gv7jph9tt9BamtM0xg6by4PakQxL9ViE8ajSoHhuhcWYXuKA1EtXn2RVXyFBgZexckx8iwLAEYCMWRUZ4dsfMDUayImWN92nA+9dihz/v6CEPgBlf+EBkZACrnfJiOzy1PSIqcMQddRQdsZ+p5IKWuSlMCWwoLD8vIogL5vsqMJRpaBhkGvlQ1S3QuT6l5IPazgE4uuNk8KtxtN7tdCcIBDhFUA0b6oHSXzjD4k+Rywxf3vjC3s+zbXA+1MnwlhYA49pf6FWAUQ+LfvXz05JBdoa5sAATte8tt1oKg5XUP2SVMudbidPRhT+Gnkyb0lzumk5sC9kSS7vKpAjaX7sW/t91XbxruxoxLkA0iQ14mLXrpr2eMwK/DI+V8z9gosmWgXydUzpZjZQDuXd5bAXZ0E+Mr/v9oOvDQjX6SLUZprKeCstZmhPZYHa+AQ/uiiO+0x2PujLwNGB2X1tXMynYgdkdzuITToIWOY32ra8qghcZ/kwkFvSHPEW81o21gqWBECQuJ8ofuKgaIoyf5LfMdSVnAH6EDK0p+sKfc6PUX1L00oDC6MGEIhhTJGMSOPRikEzKZaOQzmHopVWAiEAKVdai37tIBPzhOxSRShMsLQFpsAmUxHjJVnkVpWJuU2VfeAttCtpn75Xk63ahiZOHYEn53POFUfhwA75eJLUOhznVFYn7/sqLUHcLpGRWpmlJEZkZFIT3/Gf/FW5hZR9AgK+/HClEqAn8oGIquIe3fkxwME5NEZAt6hGSzIcyQJXHEM5LBXwvbvSnLM/yAZnUA6ugk5qQLWX7jqLHvHCJoGMbKpxEL/CrXSk730ppmYUFYGVz+GAIwtzaStgXWw5PNmaM9TX2C1mZktaJsVdniuBqswOKgorD8u9I0x/63S7CjutG9MQQK7PQ15L01thuj8aUf+IhOjxy3x4qKMXZ5wtBXYOK7oq+e15BQcVdmfCtM7TShUTIh3IR9nbVZYhXwGEq8x/EXwHUWKncyJfJmgXE6nL6ChLJT5BD4As/9ztfOTOgkajGOY58SZnmIyhPlqvwSfqUX+sglYSEiCXR3T9psEcVrmkfYEMh6UV8uUpuMAxEJtN+1D7CdjrlOCeJxGmS7DmVEyxNPWzm3xIICxTLq4gR4qIpHlOTeGXsPjy59SrxYcwfXupFhDL4X8UPF65UPXK752+Orlb/RwHTgxCFrgMUcIJAXS5G+ZLyyMzxPNK/J9aYyQ0vOSpGuG9yfca9QNWaixC4Lwvs2nYxv00DSfZ72bs8v/DvtnM5xJmXmoaaAZQRL96yiLT90EejrEKuDz5b1C7c2h7z5yZnnMhlUDcwDjof95hspe6RVqfpAVKRKC+2TUk7B5yAQwUSXeOi7mVFYWs09bO3d/3BWrY1aJKnoLEw5nRnudvu9LUYth2qkEXSn2yF3xqmqJ1igYi5VqUr9Lm7mZVL740dyAK3Tr1fkvXQwvB0G0C60hM96wo/nbmjZhtBEbvSv5E1C7F4xy3M1kwEMDRCuVr+MtYeN94nztKFT45v1YQZ+pcmE+lUBPyz3D5VxhRUSfIYwL2ROxEL6EL917n426cAsb26c8lrpe9hLU/PUjKMg0LD8uD/nbV/uawxgdIxrRyE4EY3QI59/8B46vce59kcUYDXw5B9ex8ac5cUevtzKl8dH8+Rx1HNSR0/o4bV1OEonfx+zop4V5Onodf1yfzl14gAk3oiWBVWTieS9i7sH39Y2ddffhp2CiAC0guK3AmthHIvaBPGMCb7zheI2w8BmSQZOtGFPfIr7irS2yM/ew0J98KPAN7u++tLdXUL9MoHrrXmiOxKQ8nn0cx7Ft1kO9yMax/e2lwM08eCIFYeOZESInBj7SYtph2JQKhOj5hb+Z8i+FTVbpEGA5gCAZiK+8t7FFKzpJU1f8xy956ocxYWnG0/cszuigy4/3Mv5Cpy8ZOw5IZ6kIuePGgCKnPMUfrJSS0E4azx/BKspObhMhmvitMbOuqwweB79EzUJGuMIgWkRaOmWPFgIw1Kc0IcEqpHbYO/5PHT3L1a+Q0S9pZGYW1wlmtW+db2lav0JzDbe/WLzkpo7EzsQH1zydQeIPMunfxQa/ViJjKCeUifxSbQQa5WwfVXi64+3p/Wn+CeNNlDS09SHT8g6+ZYhE5S5hYYbR5dF5DCkBsVkQhZdAK/pgK3hboUBVJH0f9QE4dkMfpeT5661ftQymvHK/ZlxHD7Q9OwfhZFSmN1TGTLL9VqVAf6FbEqwPbaOOcZNGJz+pRxhg1KhRiiPk2lsQnEoffUmoc1ME38C0LLKT9HJOvk/KBesYqu0V3zOh1oOBSZ279uNFKD8McamDzfthoAXnxqRHId5RsiiYYQbXhU9iOjW9M0lnd1igtU8vJGLPDjOXcWLhyUlZdiDI1kYrT2awQtYuUH7WZs3EAK3Q4oZBbfVtuwV4xBGA0iaqLJIsMUw7anu4WE8gtxfuvPatgseEy/OqHD8XIQrFhvOAu/2sUOS278QgUCg/ykSCbBJhek7rZLQ7x0+8Ku5JDWXZRvnb+VImNSAMgJJ0lKWo0tKJxL0b7yyIEZ6/SSsgsCj61w/vsHcoZo3Y5rTBYq8aEbEqm/wHGteIABLXiu5u0hOwJgOLAD5vCG8RMw4To78EE9mXflVpoiLRXIr9MXKSge0s8cGUdR3cqIugKQPNVVJRggyPPUzgNDL10tLABgP5fjJM+Cis3rixS5ZnjLyMH+/YpV2HsyTClznSjUxZyvKM4o7suhZAxSzKtmQPEkNFjp/I0aIv1dUeeHWxUucvOX8k632kSQahKZnN8JJg9dI8A/FaUa07gOGYzuhr7WsoxKiJULoV6rifrq7wXt8Fn8mOfZtrmLMiOiBzC8Wx6V+EVoWNreWGJAiwn5TYyQpnAxxxgTCYPqB38d2VkwkKwJz3d98W2p2lFEExoz9c5wjARJf7N2g5W188EJ8YXiB9sHF2L8uMygjjK7x8U1ixoCzWxzh/jPHfyVl+8RJtzo7ay1GRhng5/Tx4EzubKad4+0PcXhSkK7mMeApRAq5C7UFTJs83t/aXuibIbSnXmMgcK3KgSFZLT64cA2NjLYPWR1BAM9bFEfDPmojRs9xXzVBuIE8wxwmT/kHHiL5ScjLp5S/bv9tBzRx6asT76HYVXDWxsEi3aaYy6tFRVMDDoWQTx21v0jlsU9AxfX55zT0dR3HLfNB4di7+vgUtdF8y5vVew+DJBzPEcwbHVD6a7C7BjYePlW8Z99srVnjU5f62/f9x/R3JvyA1Ph086irWNFhHiuxO7CuGutqM2qdiTgQsqa/nmA8BYZifinnUiGuRdCM5IR3h7pzz2dbngByGjDMM507EFEEugRDekXvnB4dTcHMiu18f3ljEAfiKBxwFy6xGi04oq5FI+C+e2mR2hppJwhInBHYQoc3Il1XCLpju4pOjifDTLakWdGvZ1PhysQxbBHunZviwhwWZG5enAs7jCjn1Nyha2MsoA4PmroXMW+BoLUXkmaFoo2GpvnmAWQMH79G8/GHR9hb8G+IPgVvHMqrP2cN8ElRYEn91Hpy/9e/cQDYEzocIanMOf1xqR2pFetTnKrDmlZyU+xpqyUKO6FQnprewf8OiKUtevCvACeHlllfnwhFTotYbaF6jVDrMs1PamrikRvYLOMM0STtVX/Q+RNvUeeN4Ehs9KC3Ph2foDv3qUE18eBO0lPqYnr/hN+3qsRb29sjzy9vMAB2HGaAdfqUMJg9c4yueXByeKT1xNPy4EuA2fim1wjnLGUOKKSvN9+1UG73aitbLC8Nn5OmN0CwtPI//N/TuBV5s4CB82Oryc8Cbeo0F48cjZMfaHW3lV7FcGfaPmXYFp9tnf87B4E0roVsAverYfSC+EwrqWKyLes5VR4rWWI9GvYMoy+w7ENllmKIY2Uwk1jCWdK0LYr+uUPXb09x9BstyPRSzjkMNDZ9S3n/NB8iC9ax9b9QJzDHqMuTVrrxnEkzFfA3pBwbIAxwwb+mqFmOeasuF/4Jgi62+azAGvOFVuTIsca+otFpuKAnLF2gyQwGHrur+GlX0jOUU8rY0LszfDJECkyjUr+8vsVPYG40tKXZW3FyR8Kidt6wTPCcwbhD+OibKDDRSFIxEOOkvhrpvBYCNb45cAF3lMUUn5YBbBl919UMScZDvs5U4Jl1JIkW4NcTJzSwchOgoP+O5N5ZdF9wNKgODg/O9VS/LIVgbPXESovOHvIcREJ0j0MJXGsNbpytAEYyr81C7vB4xgsDsXNyt3yuC8q4/C+8aYDIE6nzmDqdGLPEvExX4tWE17YHtOPGsK0snhbIK5EmWbbTFUWdW1m0t3qLUGTSFz4yFKJLYLuFa6uGGEebX6A+L9JML+iIenDZ/Qozsh1oh6GhrXLTui7lYZngob7pkYDnXox7K84D/JE1lk36Koi7GYe1V5NWtK5237qMNXbzqn6+2puat9Fo3ZG6tCynbJPBitkYOs1J6iIpxTcUS5iAsEG/Kc9TI6Mv37WLaiVpDBN/AUj8MU+buVW1X29QtA9nN8reWv9b7w/IM2kPmpqd/UrO7IrvkmAB0LYgmx64/wSqf8DgFh1eQFCNWqrf9VMM9ov0uwO/V/2e8EnZXo1Mp6B6VJXaFpJgdEIrYDvdnFXm2Gxg5OhZbGmy/jvlNrxBOlrGuYEA1rY4X3OgnTJYGNkh+Ot9dwWr+zx7eH6Pp8ScV8ErMJTSl1eVR1nnNn7Sa8Aq+H7SEOgn9tVSuCvAtfnRpjPDVKMiM74JOarlJFVA/MC2r0HuzapFhJN4Skh4U/J1KdAkLxqVv4fu89q+gBHbh3iY2sPlU/oknQcUOTiOgobEsJj6BkNVPYxx2hTl3t/TTW6aDK4J19fTysGdzHKhd97iACxmi5hkhpakNWQ2xvTj3FYazHfnk5yX6pAJXT0G2t2rO02imA6lxyYpVx53NjaD44UkOphdZukbTl50tHHRSVAZ3Vj1FtthkIOPHH+lc5n9Jkq2eJLsdMJMIaGJwKsNUkKp4n01RfjEQSahf2iP7UH6wf+2eDbkssjNkBnpaAiHVztRk5zFAgU7X+N+lkex+BzV2A/EhrwnefG2NJZlh3C+vGsBwcbvRtGRGVQmJILuJpJvXQA+TD7hfViMigDz1gWmghaHgNfNWdn7xSncu6wvjldu6t9CfPCdKCyAYxRILBZ79lStzuZXvcVwaT4SUwr+qJmVOfr0mmVh+CiqEn0JIUfgnEsgbuUt9xGVUjj6CbFjbNYiY79N8jXZo9kJZ4HXstbOYp0XlAJ7eMsH55Wh1w94D+uAbNNTiEE88FeZBczDNOt3DTAbY23tyBYvHQMglkF24ur2dYaoeUqZvnQVaiqx07VzMQq7P3bKWSuYSzy8DV33j+ASoI0aXDp9TQGuHxTBCIiopWTHv+8QADV/qBkP/vF5dBPyLuaPWg3vGKlY2Dwx58JEwjPSNdQn8uJYIR5WnefUdckyZS74ounBLyEz2fIEEKhgtMvehUurJ5Sk+il24tSjCyDI9DBtgVjDiHrXhiVawmq4u05tPIt17M2q1Io7BvkIcUv/eXf7EioL2G6BIRnNN7O0JFJfTsbOhi/f1QkgFGUpdZ77wP3yOC+SsC8Ut+9up/3cziyd+rYavYT4bzTPF+VFrIHBaMY0oOsolWHI1/TzkvgS8UWDpPaIl1prvKbeBqS9Vqzq1DsyMwdtwjb67ysRjP7K9afgAIrnZUzOqFhLTcxjFcBEbpEzBnMUFK9xvlQVxNlgnYSwrqDSQyz3CFy1uj9jsicLYy3HPwF0q1mRtv5wmIx9RD8TcV5rG3YNI7WsKWr/GkH4cAoT3TYNdkFtA2bnsn6SgfQisrKH/GwNqLIAkstRZ+SH39nFreKXvCZqhw6fOburrC5HI2gOHrzC1K+Hak7E6wgSUvIt51LMldxagngsIMnsnQGEIaD1ONrSCED6DTPQM7VzMV5KtPxMwGzMP3jlbqBbPuOfXr6czCs+jwDMlCgRxu9T3WcpMQ1GkW4sOfIg/WJw+AnvYGesD5XPTtHe6+t3kCC8MtfqH9ZI9gi6gaUToD5DHfBNbHkmiuV91w1ytuT5WYnsnFNegsZdY9FLCkSL6oqjhru8oKG0wuCHoCVOn3dT29QXBq5ikebtIb5amldbB3ysGJnbVFOZxsAoqumCnCE/tOebRoT9F2fpeQcIgG61qxwEY+mIc8m1BYTknuhuvrz6HSCctL9h4Zc9/fta555WddjPpZl13ktQf8C77V7Lg3iG06jaMlp8VVFXW8rcciouzLEyqKOzvwH5sOqBEKNSJtaBdA+ZtOae7sA6UCpkJmA8IeaLbCvf1HZ8PZw1VSialoeeehYOgxuUghQQdIilkBhpZERVxhTeD633AjbhGiQIXNLsEH1aalQC1xnhYvlfmYKkj9KgEO0jJfmQRf/KV92sEyeeDkICP2kDfWynzMR52BFMRqB65iHXifqp52nqzPMJIx7GdI748BSdi6ibqBwomyskUcl0SvthTQrLc4v6DXjPf69WWd9tNpRLRB4PpntBH2dsBOxp23IPa2cY042RT0e7n3NHvzGWFaJ0o6ZEpyvfIQYbuhMDQEM1kcf5aEwo+X3lULgV16iiRq8oSGBXYfYLu6hNfctCwnneL0LtpaKjWPZrLG5Y2TIle4v7MP2nWLOw1lfMyXRPv6EhPhMlFIQ2by0kSHdpxndoyUEmHIkIf3Geap1Rbsm8moi7Hj/LbHDI2CiOJvr/9DmOaaEw1KRJkW9ZX1W9Gkjnh1ltKuOstm1ds6koRF3WcTL0/eeCEMrvwIyJyFo+kzAjOuoH2V8hmDOVTfn6KC33obQY/KgAzVgqnIwCU3C8DqShVPkRVVOUS2Xbi4k2QUKY2cKbCnMPfLn5kuLOjewP4wrHfGJOtYX9dp+OoW/tlWSGJ5jDscTlmy8cSAjjyAuSq8JxRg0Vo6jWXWR6qhpb5sm2mXflP3n6tkyhuCTGzQOpRxV/m3M9zdOpCNnq/hy/lFxUuC/A40X9zt7UBLABqydrzYyPDZCzaURRNfpDuAm0ZP5fDUs1seLzsK1q9x+Fen6nBBhbkYtGW3E0lJ+67tA6K9VGDfw8JH1Ft/W8X9Wcx7vGLo34FLf1LPpo7NmPEaBOryZyoANmHy0OG5xPd6Bwzpb7JHRF1DhRfgsxWq9q+nQzss4v1ebpj1NNpqG+nrL31nrYTijLxILSTaA+ZmY+BpWCGQAu3q5WISfVYWqFFMZTzf8dM1CamAF+E0Wb+fBmCoTjWTe6gSKiwlJ5UN4qmgoUy8BXwn9mYxMBjlUSY5H/9URJS7/3q+ebQHQ/yjegC48RvqtqZ3XNqYyAfhD98sSycmUOLR/BYRxP5O41Nl5czPp0ya8RF4aWvxWFMwmUgtgOMKxVWP7e84vtN+gA/mIzM8/+SKi0nlnZInIDBvUUv5I2wbNyoIkPnEKmVcSL73MLtKMZ1aSm75HmpdRaLm2BgJuXlTEIigbcz/pIwnMjnAwGrd0+jT9G8HP1k2NenKJG/31wzBO6coKhMIDA78yD5RFo5MTkofKK/fSQsg7nfbc9yho82ocaAzTG0mHtI8Gs+MK9Bt8ll9iWpnEtqThoe+S/tYer43IxVVBOlEOkr7IklqcHdep70yonQ0bX5Tc4YEZrLP1sB8dr1zeZfOG0H0rjiOtATzZrazFMQT2FEif70mcevdWvs/s4fD/C4Zu9UAE2cvdjTJ5XVJZekjAYSu6qJGIh9BKaFCxpmO4wuf+GSjAIisMJDIiYyfWX/76WUuxfX34JjWwqm2LSkbQ/tDdRLUUb0Zkuaa+0LxyNBQ7CBkqEH7wO3w5RO1cN+yzsUyhbrTocXk7jFEAfKuBkoS0+rQw5IjU4bR0+jF//NfWGDKKE/ScpxTQ5kL9wTnRaKyKX7A4XhmOMiOt5omOcN/bbT2ayFhTiyFfjkdSMxU+8YUiYaBoooX3I4K50OIpINfkF4kCFV0ZXJOp+jIaGsCeFImP7PTUPc5Bxy7nhkv1kca28v5IjLiTwOqaL03n8aIm9pCJFiL8iFyz8WANBJw1wWex28NXiT59BFUt+kSZjcyc8BYWfaLNMLVyl//HvQjc5fUQQg5ayOZ0hqiAxdr3iwF2W2W1u/ZeYv7dKV+SbP/FpLDvD67lweCDxga4e11WKml+OdHKf8/03u3i7ZFbp5HbrJ4txrB5GEe5NAbberyzFC/SNYuxbaSOXO2ruoZLqUjHOWewUYJJ7MRcl6D34TeA0niov1lICBiojg3qraBU2CPRftok5fLEAgh3bkhOXqG6cpJNl/Ybzu/rWjI0geq2Fq8AFM0i87rx7kAtiGPepZMuqUm7qyYxDapeQ6ptfEEiDzbAzDQ2HZUQdYRHXHlFYTMsGV+JFnLdyFSusvwV8kk20xBmecgGldkrDHMFsEIamhEytCPXWwVmLiYTnQqX4UMeWZW+gWyyia+aOXi+yt50N5G30eMElQPqB4JPah0fvPc6e5MxSTxhsEeu9+R1TEnWhw1/Z4tUHh25NfEO/y7qiaToaAsV1CPvFECryOfZVJx7wbdN5RVuscVHVsG8pOUGRICCl6XTV/2DNuSsCrJqJ+4buh7jB5FIKlnXf8XCiR1lJEowLmGoq52wCts9QSTy8ohCZ9SvPC3X4ECaj6GQ5aVSgjbQ0xrAo25ycwl5h+DkvjYCy6iBwfydIEQKYruEfUSy7oqfWWVleMeACiwvtS4kPNvCfaIC7CInqxuIVWAnP7Tzm3SVrvvXYdcRC7g5Xuo3ifodQamRtAkqcJKrOZzipQDk0Ca2WWFkFwlbdrQqa2LtbYvdS9qcRVkgPSfGoJ2ZTxTLCnTfPKSb8y22sbd+PWTkYP+7Fkf0kmXLr3//kojWczCW+8x8qUVfNayoF+CPGKovGT0wgW7fkZu5NdZKxUHoJQEFnmMD2zA30wHS+iDVHasFkb/zzb0qUy3N6yjQe+oO5d7uxhuQ0mDpl6fKyViMbBkP9hLmPrq1sARdQOWf1RJllzmrRCP3QnM75Xl5Flxm3URdEnOtF8zwwpA3VDTvqlMUwe5Y2W5XnrDLW650AE1pd3UKKFZlMWuVj4WonUXr/8NUuzO619cBpGXmAbwG147m34AK2RtYwUc9LWUdJAIaHpaykmdeXG1z+l+Y+CVfnqTEBdVNSHF2AY1gUI7u/m1HAvH03YM8JNNbIfvWs2B+3GnarAFOO+Fu84ZAaTvtzt7bttMmx6HFhmo7ceV1r6kqeeuKMTMYqd9pZaZxAmw2WdziZmZVQCb/Xk6Q3dKGJMuu78Wa6puEoKQnpNUnUhqHYT5it60d1pKL1HUHaCdR45ripb44z2pZqpU9+ZP92lYcyWHzmAxrFBuSj726aDKYy1LbTvicTWUwvVyNSgMkRUoXVYzRzRlX5+3fpF9OR8T6yIt0sC5aF0MLM0GMZ8MfO3eiFwvbkTGxBoe5EBN/5Jgvsk386duzcjT3iaaIkO0Xyhaskdx2xPt0ahgnLOpj0MpDD++5Gfc930aNbcTFcIzGxQGJjuDNgbS+CgMCKAQeofiBkyj3RnHHSVzWotP9Z/t10MAKLr2NeQ/m8bXQnUNSFQbYkx7WRPpaKTBnlYuJbXMNFDFV2m1jAYBAZLO1DlXSwcyRzAZDhb/mL2wj5pMJOuJoEMdBLzey67l1CU/bMu4qWeHKIMMN8Q6byc/KBDWnEG7jf/5dpO7BhWuXaQJu98Yw1l2p9oi3yjf5r/quqk+RIF/G3D4Zm3ycWMiK7vL3LZyR8pphMR+WwuraXxfTnV4lZqdNQdoj/zMnjsIBcXGQ8m/28WKjaFSIHOBKtbFXy85+krclliAmzHhtYI/0BZNfZ0XTmwKbJYFWNmc7axfo1SG5zYjjUxsw2xJiQYFeA/8Y7PZVntR0nZs5+GGBpKoAUvHlzJiTh2sLYpspXiFSIdOZJOrl1geOlxzLLRegOex2FDd//p6Ztdp5++VdcUaQY/zYeZOr9BuxWuBO7E/bmYgfhjLch4w2JJ+BAY8ZZR+/o2sO5I8i/toUOFqwNR7qIVeT+Ip2vfVO50zYCR6pWgpB/s8fgLk4Sv7H9M6GInIqY9F9F7KitYWVR41tH3xTx6jrjBAGwjHD0dRJlPPKGatNA56pDZBxYuwFeVto3Rr03cN0A+CXkFus8qPh6GyFX2gJhmecfCjbjkkQieA2ZieUMyPhjkqlrmVpg0VRtjx0hijtS2xy0q/lhiqcA6CXrAAS0XseUmMAKZ4IVNicIGN7AZSzv+lbULNArFPciz9Wg59ZmrRxgHBexNO8g5E6IsAZH3RpNQj6CAG4wp1+RgOMea0XD9Vtc5FDrOcS6tK1ZGG5o/dzbWl+xgs7Rmhf8aLpnOKoAJiheRp7Av6MJ14t03i6/Jgj2V7w9uWqqv7G9FAoQZqOb71ybVZHwuKq0KZovLkHjELM3eTKqoMwB6fhkC1rWxcg7jgKDSIsKxyA6s2sblhazKHY3jEdq1y9/GGnSpmSpG84fZNB9bcoj6LjQyGUZ+0/Q0mV2ud6h21Bnt+HBP79CH45Y2xfdtpd2MIimERKIuaDIXX3dMGSsBGpd1LRoupb69oEMgT0FpPjUYciSvOKcZuOn0z5cE4Tl0OS90SUA+/dw3SeRoERhH7wY1Oe4oH/jTf+YFImtVw/KvlXt1eS/DY/MFNP2lY9DTEg60toT/hgHTS7XBLxLSg7jJFK2ZVnIO9eunFuXveCRDFPsZJ2T4P1GA8/Ft1gfCsibL9SPfSgs4vpsbdt15qr6QqbFaqXo9fjirj4fuFQQ8orbisKAU84IY/dtWJTm4aJqlR+M7otmIq92fcU5j5nY0ttqI2L9o26ddjzPiB/mjkFUnHwL2nlfEAB83qGQvDwLZzdQ7Es4mpZizPw3In/XU+xm+I3pCV896HjtesnX+vaV4JeeHFuoStVRMYOQcUKeixinlpD+QhqaOy0CKFXdKeVNBavA4f6JCg9vBhDGQiEV9XeOOkA+RsybgLzOr06ibZLf2Ah+9OfQgOF1lCj2Oep8HKvZZ52YNM8uUOLJG/YS8IdJNS0GrWq9ie6CC2QwvcEnF8pw5Mx9EwK72x4rpsYd4UTIUVLcF12fQvncHbsh1s6/+dA8MfprEjvZUZdHgZD4q9v5tC8KtEROatpqAHd9STX5sgBit6oznqA2/ZEJT84anh60EoMG2HeKiyWpRGg7xanDZwjHEo1YRxtJ5TbOGqCd5lvFAsQIwwqXy0iYVUwRUpf67GZ7SNhE0bg0l3rf5/9GK+miSBwT5+wGQC2eHf1ev1IKOy3DogVs8aM2yXE69gjL1dFD2dyn2iWDPbqL7Y73C8PHWylngoxEcYQE2bDXZMH7ZSyQUBZpTOzAcIzLcUIbvk5sU0T4bJch+xObbVThBtuAkSQCknmembPrcQebyHJm5kwlIWQf9XHuZf3L632D27JCTVobKAX0Z4Q9AKi4paDTvQgxM2p/au3gM04fX+8hVjgkrFJWNe/U5zNYOQoUnDz0AVIFUgw0r8JGWrwmEEgEdu4aGGstrxfChar5Q6r5ulyEnjSriDPRrx9pxcX09ZpE1cSfE2bQS1wIthRn7ofzNoxBG/akNkukCs9JfxZ8NlvnkY19Z+NgjFDiLaSu/+q4o2d1Lpivzfzc5dyluI83tilPoNwxGagv2AtNXibe7DOKdtTbgp6Boamp1Cl+WCrKBoFTw9oAUerQtecuKV8hykHh6lEdEa9PP63AqWtKssf08rw8aZHxn7Uaedo2le8sUwRHQ7rLZED7kDDgP7pmbCfq2WKbC8FBTiwYZLjGyCpcuawdOkOtZenicAGWjGJ3xdSu4xRks1Ef4fCB1TW813/5u0YcVHMSI63T44G6jY1+TJhdjW6i6dXCgfWwG2iyUn0HWwyNwwINfG2TaWiyouH1ywNw4h5DojH3x6bZcHQSG8Vmatefo4bXrNA0OWweeER8uRHZTpzRoP0sQlTeMw3hSneQv8zA+zYQJLa2yd48/MO9cO5Twus8aizxv59P5Qacmbxb1CoTZHuiFLPVjBRlOYNeB+4UPPXAjY6eJ+u/ZTB3sQVKBXbNZLvb0X26s4LV5OIm3HAp5kDN/oIUi/JeY2tf4D9EffeRTALgIFV65fg8NnCESDxlcZ3C+xzBuVibb+93lLNthoXFkS8tBHPb4F2WSAsb9/OCXTk2n2ZdrwuaHwtX5jPNr26FePDdioKltm5AtlspDKb20UbeXWS3F3Nl51aN0LvxWLxydCVsLDlIY5vEhotKhVYbGMKcLCWCUPAl+a5r+YdWlJGCNmiapERQ8I1Q2w+fl6fCsie09Xq8J2s0ZBCaEmmDcOkdTWozc4KT4Qdq4N3XtC0kmrEjw7nEs4/YEM/7UNGxDv9oh8LU5RDECwmDH3ptUt1aZPHAgiLsMoc20pI4Nh6NOgghJyOi6sCp/fgqXA/x8N4ZmfRfbcPJNEu0A6Yn0m9gZLKU0H9bElFe3csFOU1+Admuc9oSntUDSAE/C0HDvoYyLVvblg0CMHsApqbCUsCAkmnqSoRD0cIkv82qkOUa46jP2vTGWM8CHcoNNWeE8pOGOJDy+ppJG4aILxHoZCONx23iA4QyoEo+bcAWMGr6qZ/gb7YN+SF6meSGVeQTCUOgGRoeConBKrBIvPZdvUGe8niXMjXedHxXEYg4ECxz+5aviWJLNe13WFivf2OyrWI+omBAkpVqghDTz04mLrNGmGXEjjMTHHM0+aRDacyERu3zWAa9WPzS36HtthCqr2xx29s26iJ8YFDi6ZwWlKzbhxDvUYGhJkOEuOwsRgZyPLiTQXTIGuEVoubvGRjpxaVOCA/L8JU7+vZeQBHhF+7IjBD5iA9c4OgeLXRGlerOaSPq2GEdDjWclAmz1R+79xZSZdllAppXO2tebx1rmLRnSnk6m2oyZMCmoDypXel0JUaZwSd2rzT+dRqU/2pS0xIvM+gBsUxr+rOPW4iXgJpcqZ/QnHqxR0NxjJPpN6yiH/k6HZPwsx60TUT1d3suv3k828rTPDj/Q8ubqgOlL4YvnYqNnFQp+nq9wHeaxk4dnTO2GavkWpDebITQHyJdZCLF1vaVT8Ep6ZY5rNA2axFQbT1yYxla6KfdMIxID4J45CD1OeIyABnacY7rZqY7WtmTTPx/y4/sDDnIOfF6S9CDCe5x3b/+q0faXV7XG23gSLyDU83QaFlXeMcZJdC6XBXIvBx8pJf/9ld4RIFkiOmEcMypW9BPmfoC/Nd589/vd4odOhRNa17GDb2JjY4KVaKDtyqk+1FYBTf0zdgPQu3gRoAr0X58f14emGvVOvBvGEfu8D3AIDUYrwbcD54mJUNdbwk7oUQiEDNUMP0vfKBR86WUM8E3c8FaNukQqDiuCF+W59HsJxnjAtDT21uuxEyZ+7su0evLok4jkBagvRv8itDEWMfZshqRldNP9wJpJrADaRyqUskXSEItJpwzTo9S6TwwJLJHqrikvECQKMw5GZeqi4YLLowWmPc36bx2rR1Bs/PAge+Y14I47aV2K78eG8X5adcoW9jpBS5+IAaweogs936M8rZ1LoqnJg/YnmxclKX0B8kTQwU0xskHtulFACN7m3QLbdoTneDoP5B4UzNsuRNYPyfD8DsTDhrZCPCQp4CUOhOgQDPvlallUtCXYpfb3URyZZcvpPsU82Z825+UY8TXBUBRsFqqUXGKWy7lUdEjxEh9/kYjARO6R7uthhy2ZIiQiQcaIuoi5j0BnKZkibUOEUncxpN/ZS3j0pYlPHY83YxbAde5DockH8KpJMibIhm2Q2kbfAMQ5GsZQcL5FJEZuGzhSQmFFa5biNRtwU9ksBvDJXzfCj/qjUj5aKQjQkagbF/9PZnRXkVazjjA8CWJVvEMsh7Ys83r4k2HxxVu4vQJznL1rOEM7RAMxl08u9zb9gCyt7RytlrMIuWqh/Qfs+mnSNEBa735J8cZPHqoAuSTLcGwg8hnlZrFl1+UVvhtn/F16BT0ygaJOlbveII/2tMWo/QyAxJ9X86cnvWXrdTUvZP6qffrXz9Olxgv3dgZ2I3D0LxNLOhzdImkLD+2o1Htdh+ER/KyPtjY77WCqdJWZezPizPq7r7a6EWAFYZLXke2rjBeKaoLFuRb5vDEF+N25TlTm0okY6Jhpep6qhZ7fvvS8zdCl7x1sBw+iCTTSz8fG8Hd1iUUipcPQ0rE7VdaB8iehoIL3Sf1T5qNYqMLdCFuJUjV35EO2iwmkn0W3c5cxb3JEFZQp96Lxc7rdSKzxLY5mei/7Y1ItVk2ta+W1tKnJ1Jb/1hY8PvUe5wCz/HPcvYUSIta/lsKa/PQUrGkkLl0SEAurnwtw0Jrvra6/Fu8BmK8JN5gyzZKHqkR8HsJol4fvDOk5tMZer1ArSS86jLa/lM/S8O5UP+fELG+fBss0PNJv5NpFB8DbVJ4O8AkCTpw//85OYC9PVq3oxKGPvNWc2mryTS0BC0zzQTRPVKi45A0lI0UsBwch09A7WRyrfe2Dkp7GqUNwko6LdVRXgFjYFsqg4I9U6YQBpXkZFZeQB0oO0qjsOhQiw/ukldiu0hxTFzRFUFsOb96FOLnRBIFB7xFf7y3MvxnLfGuGBgAVyLtdy7PmeG8IUxdMXcbwZYlW0kYvIDd9vE6MRVp4FquflyxhN7JR8hfULncKCyRXTPNNGxUn3dR8euKPPhrtzRB+++wyDQGJhl2ESfqT/2VmgKPZodEFhox0BuHmEOEsQ55PjX6Aot9FyTmpXyKu6tUbJgSX3BMiV2E+ysQZRl4Yb8O/4LImsHHRBWw9KAV9BGaRwBTn5XVBRjP/Zd/FwSFS4ZitB9MoWxsWMHoAncKWJchnhBJU1eOURIhNfW9/VkJrCDzHBbHN6LrZ7e5AemPGARxn8Lp1qoRbYYt55t2KjD+h0w9g3CdqA3ETqWVw/jCeDbTRdvjvQRXpptdH/xi6cd60CyNri74JSwv12J0Nnm98GtL43sBMwLUr4wZ/hiAO9cy6orC4yMlop2Hi/7qhAVPhVOo1Un8UP0elC6SmcQV2nTGSxpu4dciVZyTnZd+GKPrOeFkC4RlzF1K0RccWdkTW9ZJ3WXcSTRWpG27RQQ8shEmVSxVYP+87tNfVyHAJlHsROpw9b6IzO0C9RZ7gzusxTa3tthb0mv9cGwyD2XDbHvyS8trfdsH8pj3zSnV4lhQn1bXLwisOWN2+fjG0n4zf0RI/mStvVQlGWiTf2tB35OrRsHH5vVENeMNzvD3lWzI3HWu+ckIe6ihupcsZS9tgAjCYNKhNkivvdYQrG13pl5KRGBEeu/yVvfINRl4eCHkQiBSsYMQ0BBqFtGJgtx7TbeVYqGJ2cOMiJuV5JmUd6l2tKvjPBzYub2G0TwUvTqBjo2IdwtdJLNalU5ZzKV7SBd5neOmcdnydTLj5n04IWTDccL1mTtvTQ83s28agvugt8mJ9/KZUHeCJm+ZIJJwkmFwvbrpLWlrMzVbQZmDlhQmhGTed+oUzwE3zBgVyPBz9Bnlwdc3xHhfBhKN11BcUYVqLdBRdAAxZ+m1z2EqpoHE5BNTc1KRhvf54P5aGqjLTZebKHHUKuXErT2gSH+wHUllBS9rXpV3/yDrgd+XDPkS37Pgkx+k1sbj+elb6rRWNZuomu4399w8DeQtVFaZZQRPAmYYcOT3vcZkacw5aw86V/8x4Udlu/RXNnPR/SkerGPqL2S4AE2UxWWbSZT3DPe/BZuieCGJKBqcfOky/Bi979EGjyt8IGYIL93a3uA7J/HtwOvTvnL4WkU9h1O3U67MEM5L/O/nny8HY3c1vCVVF5pePx75YKCwzkJimZivRsAu6xCob7J2zRDiddRpBpzA1y7XpWC+W8tICja4qbD8LYJRpNccZqoyuj0j22C2Wq2uNV81RnGgk1mAnRsU8I2wTP6R4T1GizaMeO0v0E5J9mPtJB/XUaY4TRsVBlwa+vKrPN0dnC6Gl+8Yjotfyqjr1vfFiQxTSDjonjImbpl44OLH2dVeRFFLRWVgrpGcZckDTrAmqwsimrIc6/1TJdPe/wO8uPDl9MOK5En7Te2xtdisAW1jUxOQoMEuUEUqFmhf+50spaMNXGBYhu+vC/qGOdYIBceMQJfzRVt8AXkvDoPSS6a1vVjiEuj+D4lZ9GRmzRzfD7bKrxtTQxGN8QY6Op8iuHpNp0bZebIVsFaohJI6G4Vuv2FlP+/dv2m9m/rbKAVAvL0n3Ifyq9PIiC/oWBzrPlirkML8Da+zouJ7CJ9rXw1E1YdwYHvApEa/jl2q1B1jc8z2o3b04k7VwrA54EXGH4KMJrjbIPNuuvZ9Jd/IXV9+wzliR3OyNLDfblhFJwKObHf4+0VfDUN9yqjaECl8BVVIHEBdcb58meQccqhnu9okBtb+EeOe2+8sT1JLiQiWIZRvSMDmK3OZE4YtEmKFTwAYb7w0gCChEgLTDcIeZlj0IMiwIx3Cof0Z2FBFJirqQxftHYCobVkSpi5AZAM529hDoReeUyPS5P5/UKK51aZlX6rnPewYojBLnELomYtOMd9TwirfRzMLITGE8/nlgKBZwhRZ849OaNf3UuWqMRV5qTbzAX4Ue9oY6dnDsfOR5CZODe3YCUPNik+QSn0fX8lWPp92UOBwFaMu27WMGyazUlgZqVqTaT9Hssm0LWLsfN4iVrs/VFkaslZYtsSHi4FfmygViWu95YERlh9OWA2Ga04tgnvvhm6WRn6m6zwCndYOojcA0g0fNl1SazMtnL5DgWCA1lJdloHepzqWuAQtDlWgFiGHIdZ6nkQ32X2puU2SvTLuGVuhFHHQXFaXQmEvHkMSwIc0xwaQcEyYyyBPIrHmU/N4fVEvksc6LAb4gx/cbEIqeiLunIG9htCHtrANzEa0Kh+timVWg2pi5ctqsHRtEmlFLCYeiPCzi6ElX6bFF871PNoALqC31DJ8CPb5/GXt9u+mIF6Ra0eT7dRQzeKAvM5bp5AXloo26ayQHGmDEcUAMGcMYv59Q9pCQx3PqsxdLlRoyFxBanK5DAZTRb86gUeGGP5YTihvNDmoBKqLyubwOUrrLc474NHai9ERLpxKVodalTkJGGlo2gegQDe2Cm1kmIqI/6IhEO4e5zIHg3hY8BS11rY89wYa5NAt0RtyqeKaSWpy33Cbsggu40Q2SATSKkp2uMEeVH1z93G2wfRT07vczx+B7NMIabFRuKD20pm/SvqsSgxpUM+3B1qqKkXcr3eUv1ZH9WaFHEPcdO4zchtkqgJP+7h3W2S63L5lCIrPtnADgJfRrr3IhnNjmsRMrzuJhqHWIlA3+SFFXRAkL8lROnzIF7fKgInbAVvxDH2YNJyC/C7C5aNx/WAZa19PtzjT3oJ/FwFv+GFjz1mSI6WpsgYACoQo5ASLbcq30AO7ARUJY1eghccEK9q4HdK0G91gRlJeenwvXAEJaUdqpof2Q+LkgWhiE7jwnK+chrQhJkhhsbiHDEUJGdPXSjq4euB2UNAQGOrryA0LeETxv4LuF8T0E+QWJ6YjF8iiuCbIvrkB6GYZCqLOnByx9cRyEKTh9ES0XAki94t1RSDNcK14xEbuIaMrGMunx0UztAy9R5U2aWOjrAL3DXUNNuWUCc3TL20wMlQ041HfjKT0aGSRThVliaufIEwULAZSyJQOPgVnGm58kr2PJCNLGs6M5nQdZYy+Vr1IBLUKqnEz7E6aWPT8V2Y6zupm1o4h16I02xVFdL4a/wR/aeWyVL0ZOkJTFM3qxFobvi+GuXzg7WKCY7J4oFfMY8WV+D8wTfNTbjIHfX7EYhXXWfIa6+j76L8SMkdOM+hibG+J9Og0EVp9lPGq7oqPoRC7WmYKx59J+lMGpnadeuPZs+0jyCIye8fiG3Nte1sTepHmf8KKdpLafvWePAeUvZ9C1+ClbGCvqi6lI3DzDYlUg7JYw9mRWaevw6UbIBa6jcur37t4lFxwe48bVbpw6EJJpLBValZf6FZTxX0hKbFKQsY+UBPtTvWxyQUClaoXlnhKRjBndLAjPvHJ5LIVW576dvoxsJYwORWHd8tRvBcAIbfD/auu7NSpEzbknfP6MoP8POOiaNVC5pO5xPsht9b++La0unWjA7tNQPNbto28PmJKtbVV+fQmm0XAPVeGRlAt/BnvzVaCYperDd4PlWL/FnaWPLMHOg24/Y4BZaZio1zTY7tPKmI3vsLK36IW035WWxusQdP2MTSDe+t+kPtpfR9kKnsdb++H1OQ7glkR+YoJz0swTqFrOSRW4EUebTjbYV0OesE1/lglYBQkF4WYmzTjnXtrmYvJNhIhfe+KHtiV0QIYEpKuILj4d3LiA9E8k3XsIPdbrb8XzWPwbP5nXu45cgLwgwsE/xQhs0a7iPk6MD9TeFhHBcMcH6lSduHZGeAUzJOJ6U5HG72QsXXaUFemBIkw9s2IJV35+FKkjyrhENYcRIa5tb6nyTWIv2ahDxNiAHXql4EnN7XOiBaV3/UWhLLVnRRmg98H055ZBGJfhldPfTgiTxQBirqNBOvfc1SJSr9WvNL6QpX1sAGtBxgV5/t3W7khAfIcGoTkslzy/41WMjtjxgX+MT7ASZtuL+1G82M3kFCFfzMe3uhdAGbzo71d1RQusLje4FcxvZASjkmZiLCinifyr1yQdATdNT6qEsUqOzS7GCSoYO4FpF7mlmTInDgEHoiAU/cJRSeM83n5u/czlGoGGkz0I5kMftn2+YNI9+CRQIWWwQqTWPV/okSEjCBBrjqEH9xv7HEcPTtBbFP8Idx4YMPShjkEkybXS2QVtdDWN2VFLt+4f/Yv9ExJ62tbeMHH1plheNY8Y1hlUUqSPt5Qb8QYNsi6an7Rc9YWyiW531jX4B7dMvy+gUhdpp7vjAYViDyBDeeD+5eqgGVH/sYj5GqSzu4TDUoiwwSA9DxbliNrkX7eUIB+mKO+0nsORuXT5QYTxt2cG7sEfc6llcEdqEeLpu2ZYwf9HGBQjITj5gu2vXvmXjB2o4RGsLWAhmxw5CsSrsP9KELOEWdewRiaEF7N+4X8LHipY7kAdMsCV9zy4JYK3lN+zgMockM158Ye0dmlwJOfSSS2GmhOsakDFvojq0x8eY0XhvTTl5qzr/iMZ8hjDHdvqiGEiERfBHLNbh37Hl6bTSLRIgwNuvdst+v4S+/xfcelWQxHzt2y8BWtXA7xvzcJae+TjZcxKAMG5pIWvZpQYGlpy3T6LaHgF7P+W8//gntsf9TBLZ0TQPzHNEo5c/ubWR5Lwk7vD94iME1mhkCjSAUyP0PawviC3p7OtURNOge5XHVBgEBPPKJ6iX8B3jphPynrVu+XCAGqFcoKnWWFq/MHGbxaAtLVTUvD/UusHFp4lQ8Iykv1MjZvewY3BTpTuRZFEu/3xupp40UzIrUSZ0+SVaHxz5ohRiwkkvXaPUXIj6fATZ5J7vMBV608sfCdU4anXgGS1dv+dtEgqmzFTtbJfe31l/f1AQM6ibXlJyUx2SkD0jT77c7fN8HOEY1mrFdYZcUb3ntw/qkucZ9GtzTs9z4mPSgnkuaOyuESbqRMTOYwpuWrzV8n6oTj+KfWZOJUCnO/BiRBMCaxhni0iR5ZRcAJJLoOYpZxJuUDGT3GXEQfv6W4Vw+q8RIppiqHK1ZaM7FFIlxr/V03KfoT2HYT8DZMf6/KlohpOld4fZT32d4woIwdACIS0EnDuL6Mg48ApEorRf7CNw6NQI6bG5sjTbSAe48sbPebJF6B+uiSS7eHMONRZ6PMXPw5JwpMN5lN1KJ9sJXFdj8XLq1HXZbHgLgnzc6D46rTZBjzWlYRVs/mmLPhOOrSrukoHpmAfnsPUxyjxpy38fkjiQGbkDl5iohuletO9WKteAynoGyELhRbbgTv8TOgvthnLc1FWqAlw1w2M/NMr2RMraV+kDfpl5sh8cK0z7M0o1FiRLgiNI3DzO1Y2X4ucRgL1GWprWITo9HYM12yAoeWJfVEqpskCymBcOP7hP5LqdcSkgSzJvurxcocNBEEgL+h9n1EqiAwNF9xQ+v0oQ5nZunvSwo/EEYagcnFD3aFats8kbdqw0zXF7OEoixfj+LsKBQVgTNG3KKCFNKYUlYIV2crT9bDlyaZQEivEF9XZAWPfzRTnIYL3qGSuMtarP1VhCg1mHBNJ9jWJOu+FVwWNvd4VISBm8Bl7w64JViwxxv8vPFyFhNzd6tkImPeaPURR9TTjFGkYcWMpiACGtn1IgqfiniDcYW0LUWE4LC0wJZXMVOKiLHuKgEa9zgaGOJWcdWXRfhk/cebwF5xPnEIZwhcDrn9QPL7AiKAkBCm6Qati0NwFVXOcuSYjafowCQJSspuVqjCmW81bhUGFyr2+JcVQBumGBjKMBcGRZvgZLUprDiIS2Y6TVjdVavrCubMGeChx3pMaWC5jnJ4MNV1I8lKs3n7c3pWeR6JsbOUPCZ7/78Wt+3AsZ+tfQOZEkFH4noWZ5nfFIlqX4vq0dRvkPyfeJ/70aFH4cK5pO89WOo2cxuVmTXQKJVvNNqpdkZv3u6toJQsEUhZPjN3TxsAWTkk7jVtqhvnZjPfDqoPlqBzlB37hKzJvwkyusOynp2WpJ2uIlqehgasRiux/1BSJzWUCkGv0a/PEN00be9xhdnWHc84iSNcUL07r/D3DTIxq6kW70KQF9HZwdVyArTnQnue24xwVjfjJ4StJyZnaPeCU3WxO7L8jqxaTtVI79zQZbcBwUPbRtZVvZQF8btP7FJ7y27w6YYaJj8+lUy24iAMrpv00Mw2ntG18a0XJo3fmAXVzZO8KDdVaEG9ueqV493hyPIOAVQySmmyc5zTC6DHImuslWpxC0D5ioy2l7a+r77V9NxpBT5DZB5sw8B16ZE9iLjvYV9SvQfl3O/6AbDu8vPSvip0PMsnUqUtm2YBMiAMTCwMDCRlDs6T4wNcbXhbuezxDETLDJao5WevVUepPs57CKykJZk4JBb5UUEbKOIdYk/1FRBRE/oM2PU0HcLhCwKCzFtXQbxf5E6t5lEROrMBzeBdSH8jsdyoRwxSh8mdoxDeiDc5WC5v4BHR4zTRE9NwbpgboQa2BdpOItHIxGnzm4u0yXjzyYl2VsVfYbEV5csV++qEUX9T7cEIM6tGZ+JJwYe7t/kumXHUZ9mCavCEQJSz2QtgZ5Z/8AbRIcOVvIyUfn34fv8vuDBv5GbW/oCsrU2zHlJiaIQzUuGYmZ+qJi3mmaz0fNZdyqFeW1j3/zKnHrt3d6787XHZdpxgHLxpgJEdJkDssaD08sCOsdWHjjqlybY8gptXbuLynjSBCdvcEf5s6oST8T1KXytYUaxpfmIwNIwelypdFrQDijR3K8jDtUB5tlduxetq5n85qBKhW91Wt+G+MJy7AXVsnftZRKZLIhLRId6fyyAAUZft02hbswkKsT+4Ua2/ahxqjHIQF6ffLnYbLSVgk/Z8h69bhunICPacYj9dvucM/IrEvSHzHD1a3+gM4LUNT7h3MFyzzUwBqzsBSx/Pvfhwr6DiOvzwBQKcLA0ePyUWIkEPNXbKpwd4ZNt5vUXCP/TH01h1Jx4ISi+InwOT4uED80e59uk5zmnM2khV8ju696STGszKGmfaJ3gE1eyckNmRcFB6knZNwSeTjpXeV+4ReFxVso2IZZ6+03C1/LlmTeAmNoumL/IyqrpRgIXWJCYNaXD8Cv4MX/pgSD+BzdZXTANDmP0kqpo7Afu+/LAnc+CLDN41E3WBs5F7wvZ10ZG+t4B9Wz2q7IBLOvQjQT0uTIT65iy2W3kKprHdx9sAJ+sY2TCi0N4qLtuEQMsPSZ4jTCyHbYGc9R8kaLVpIGiCkIlU2Q2l7V/l/6j4ksehQYgj6dyp3IgWu7JDZWVXjoio0el7Fj+4aWwijw9ECI85B52db4N/fJKrxUNWV2CN9LvwH+q+7dL4mI/CBBfSrUSy9KK1gzRjKUzZJiHZBiEO2R0/U+emrZLEcR3d6csviTPy+LiV/44YhCKl/0TbohbY1t7G5M91Zl2625coXPuvbSvS9m4crs70vsDC3MfdEsOdVZbKS2OzbqOorCrHucNKjbrwMiX89PcPCuyC1O7oMsnuL+ijh5d79Udys0pa/oCR0iDSy2sXtZ6+ZLuHLwLTe1qxUsBi9RiAx+en0dW/lUJUVCzazKv+rUM1Jmh0BK1eBo1wcFauKYUDoMueY8uHGe8BTElikI02GzDQ6CLfrKrPCg29iwuFR9AzSIrQz/pidvwKb9aJu6FbkUZMp4UyjCwAd6914WqnSMJAwXHj+xbqs5AWdVYAdFypJ9jSegDeHKRXDVgghn9utN430hoSWpkO2uJ++YdC4+MisypThvfj6BErZ6a4QUCISfkdER91I1ktJNb+d3gg+QwwbC+NQQ3+bFLFtdLJFD+MhnA9yQF5+yktGc9QrRYRxUJUdNIogtapUSCsQoBjWsWeE69yUSmzb6+yyHQCj4ktqI6HUM0fqkKGH+o3Fp/OdRwz/bTDKOPIOgsQ5dBR2bbhiHLRkUlYiY6+k0JrUpKFkK7cn9FsUBZHbLX5JeTb/F0lnZObe6rLoXjSb1qWSnEgYQ42wXx8Wy85iRU1MKLh8CmRvJ/bvukpGFjwZiaCNwnliEee/k9jMhl//SUgmc5YVkC2wqZHbMCEQywFEjWgZ+2hDeXDHFNFwUt0MzBQlMYKLD29TvtkVazHQZcXq3EHfTP8q8ci2R8baX37mWwf7EBXJg3RqtkKQg4Wlj6HfQrwvDZLu6Kz9DqfR57Oj1MGHIp12/L0T+C0+i3tuokTxuBKeoPwSx9lFcqqSZFrgeRYjXTFwJKECtCaCRkgsTC/s8+fXzfwWPtVO0Gf0JoyIt5bjfHWxv5dnixOU2+EbqTb5ggNgb8OSCvEsHTGMTCVM7AFMX/fcIC3qGmGSU0C70sUymU5zkxFgOXHZgxFpshn9PyDSqsZSxLE1SMRrpSHbXNTMgZTJkAFvrH5HNLpbRu8VEL3M5U/yYbxhC6UZPcxm6eAOW1MbfAI5xrkJMEoUuZyi64iUD/6RHdReUq7fLEaQZZ8NUw3TMu7tAr3wWclxLLSzJzb3MXBiZQGriihiGb8q+XYJtb2XojdTXctEhpyJQ4F+JU0gSyUvMB/ozj/zjlUUvX76zy5UxHlOIWs1rOJEFWfpsdLq+wP59uTEojmsp60/ZonSq8BmoVA7fkMG4NFkFg/m4kGV9Rh6xl8mRiHzRGUMsR0b9LzOP9DKng58UOa677y9Mrgcl354n2s/rRRSOw9bNwMPG2gCD0Mg/vNQNk2icD0yutNZi+p5IEcxS+5GckusO6IvbUfLWS3d6aYQyJ46D75IYc33FXzo0Zh6eDGPAJNaz41/Cvhaa93MxB7oASX0XXQDG4MPp40I0Zu0iW/UCT1NQmtOZ+MYnaOQkw+xkYB6W8asviOBvLAS27ZLyYiep7kvuOVzJ+uQ7X0XL+VlrwMjDmiktnU8TX/PaIAIJy3kBslTciSpSUfPjuFq0V1/v/gERTiX2HSNlDZYq0/MHg9ep6AVwQDC7Z/3TOnAM0qp+0jVaW44T6x+WCSr4b9PHvRwDgmj3hORiL+1JluvBS1jZ+oeSRRATsoomBP+KSMHN3eoxlf6v9b3uxZ4LhDvab6vbHl9B1ZaHUK8rFvsFwpBZomSSAkEK0e7XiNS2NiARtHgSomyI+ZCdLIHEbKd5iJN8kO+O14UhKApUrR/OwJcxzjJ8mabJvOxjQxYyOpQAgu1ZobFYp0VYvv1HcLYakGfL5qMj+8eXcWWuYdz2CveEinTIm7pIXF9swAD89/HdajO+UJURI+jzT2v3JAGMTM2RqYbemD4lV+4yGC/HoYrHm5FA5iyqxsiEWGBojZHvHgpq3YgWBJVIsBK7ZeRQVN9qa2z/KOHRyzPULERfgvs8/OHRyPrbS59zGDqvPLGw6PLv5yEYSjjCqZwR+T1SAdEPufy1klE4XyEvAiLqu67X91sjriZRKk1vbdiQrhzfYfFwxFRj2tGqq144Yktvr38njwdSJ9U73dUQ+BL7vzUWvo78Sz1Wf4Fs5HUEf4l50OnTc+r1EfULQDTleSa96Car2h5zJaAWeQG1QCkuvIHrHVjRvJMTw/zUsvXdCO5732QNB9nRhzFWmGhdaqH7g6Mb3n/xhEMTOc5xVG2IQp/qg1aXJ4v+2IEPo73CF/u5mDcwps0HVFH8XYTvgANMKKgTEKI4hylnsgwt/1J2qSAf9mMzR6wPYUEVWtszGl6vC9pDgTdfhCZeTuFCZLNzDeoRk7eayLFipNrIb+dbikKu1tgCWlFiJqUGfaCpvZ9aZPK+KSRssFP+q+98oBGxd4EOgLsEY/KGyriWZ9zi9DjbihyIq0KI99mpuXpJgx4GQCBE2EPseKKLMgCieamru7B4m6vOpeCVlEwpRDZ8jEeVGW2pBdR/naC07TAzxQWu/msFgsM7hXNXd5pDgRitI+gGhg7w0efDO3E+uRRHjDze9rH6AJZ4nLuseOZsBmhPhoOytlHqeWJb5ftwXkEFzyOs8AiTNjUubmXbqCaXkIs6QV1WGbUjxtxX9KZeoRio3wQ+OEjrq3rkv8epJMsMCpEYZoEz1hz+3aBNJe3Jb/MqqaX9DmZbRKOg1x2yvM/jPzbhm4wahUku6DTyYC+NpfDo6IyNrZZ3gUr7Y4aBaNEWI91GtYaMFX1danaaaiGWdhEt8ZsrkW/0Tmx3D1i4fBgVbmZlN2F6gzSsBRYTHgjMFcdWb+w0sjsLXcnFSyEmV9Divtsp3aaEbdrez5Dxqn/0bsYrKAQkIaR7JXHYbRiLcxvAbFwHylXBzJLtzxh6LxO9O2/oNxgFanId7IPXl8RmjLKeEB4VCKLinh7ZLEwvK9sqZzaFoZKrskp1jWmQ4y0HYhGyzHVH7pB68dpoFt6A5w8ToarmRlJwOT+PPLQ4G40XtU5lsdykSoeUZQ+uUhhwgHOz+4VhYDChrNWwl821lo0a8IKi8GaASMPFdldWwMX+BUS6kMzXut0AqrcubhWNbpiFUBlBWfsxckJG4V9evbR/Lr95YL0nKjUMEwL7e5ZBExMm8TGlRLWNL6kx16HoaNWaX1TQsfKUKdGDWBPNGVP4nilLh3dYj6qykehtJYkIjuZqAvDrRw3iEhaohFQvYMENFHJiGHH8CnVP6mavVg9LVaDmFwvIiCUGh+0BzN6nIRMt6zv4zw8h4yrnR5FDPOKF0RHvcb3bzpf8m8yyDe9WZM4xA+O8c0cpidX1PMsCZn7qPp3K8dj4dRr75tQjv9iI1CITWbF9cMfzIhi0Ep3nEsrWzdznZCvnGeSZhj6p3/mYCEjfDFJgVimTDBxlWcJONCidYmlxprwdBWXwOt53TR0eW56MnuegAWMxM57PJPCKuXlWXM6r1ooO2qtTpoio16qBpQ0T0NDzLVvSsvBCQw0IQCymOK/7z+mUWZVlCRLXAUYR1m9DCa615YTLXDwcbYuQx2f8fhZH8TQLZzSIf+2ukbptEB6htbrWk09ugLULBCwyUOlj/zu3n+oAXzpduqZO5Ypk/FcgYrMGptmoWPxo216I/ttko5TLuxoxKOBbc6utux6HuRAFhNZl7RHMgFq9L566Retli8Ww23GpML9RupuGwmpVO1b/zCLgrV0aNQrYPtoMLmBqZt3ASh2FHtqQDXaKtxaAvE1nSmUftKUypsJPwMg/KOOpcayUMbR2EKxmarlMe6LZap6Dv2H+tyGO6Ts2Pgj9TGpSTNlhP/1lsdk33IhAzsoZiKKagZBCpIq82myRwxgkQXNJBrC+XonebyULWqOdHpLthSHDXYXyrYSTiq7f/O5tpwAtDks5QRa/5edixms77seVusn+KoVqPqwbYPOAWt3ry5UbGGrSDVmOjmQLPseDJTm5UcEn5ckIjDD0q3NCiJZnMK0QhP7W/yTp6/ybEcGJfvQTKII1lnYSgks3q/DtVE9sj3YK5jLa1FqjMclfqJSBqL5Er26GLApsPP3cjpz/QdeEwIi7shTGk/lgk7NBFTpdDzbQa52YKMOsotTAlDRcXICM6npUPhf5WMEEkxjz5ByqBxhK+fqmcXlTFieS8v/XYZQW7qAHdbTowptIf8xLIaVb7atX12EFNhrM2uYLKumyQ3lpy4djGj3S0a4lPPwCtdfalbwVhjOfiJS92R85JIyYsNwsprTlFX3TrdOixwZ6k/img4guuEwUaB2DRqCRcMSgr6Bsr4/0hiAw6O7DTOKnUbrOogTc4/H0aJPti+LC99I2dfGgPvKszRu8sMDyX/PAQTUWj7TlUoDW/rJfoJl4ZM/q/AqcadbbRSRTcv0/j8BlQ8mED6w63r6v6BCxxrX+TblVVObt468nlE7+8O/GnQrNJbM4S+ZQxhTc9B74VnqKh86PaFy0Y0nLjPI3ZzVAxOMOHxkSXr8N1h8ZJAeqdfs4/zpvEV9Xc3uRLHqUwiCBIfnvvvos7QY9hjK3NXovG60vnkLQx4VfGN/rMss+erPL8J/ES1XC5AI+UmIPavz9+wjv/eicCZZVKgAxXXI93V3SDSDoGf0gBB3tDVhGySyy323qJZSIc/i50RnIrlXRMCwFkebQtK65jJotQuZlbWKGL/6M7F7luVVfltHs/GgR6G3k9caq+SpIk7LJ1jA4fEDMw3IE9rQfe/kcn9GUWq17JdeahbBPe6kZCdsmoYpaHxlAq/azHYplzOo2Kg0ggT/1UeZYN6bUku63xkcDFb1i7JC7s/2PgZTKfILw17VBzsxYHGd6KWHISP8TW/GcqdWEs/XsFeY9DP//msGt7s8SyALEMUAuknVjGH+pk+7+w2TwsnPTPCoT1OpCt5xgckHtvU1Ar3mh+wGo0WnUNUYrQV7Fo77Bb9eDbfUj/AQqPADwbSacwRxMFyIQrdMQa9fGBKxGdrbhhkVM9/kxCauhq+acvLf7SFfIF/myKLZtF41ebomR41WiU/zvD3jMe0wX+XVL+CHzPtuc+xKfbIw7oF5Xamx/mJkQY+glhIZF1d2ZM7o2BuUc1ENof7/PwryA2aCfeBOQjkuBYkl6qkU5f3cx4onPy3sIkfNVJmObXzTeXuFb5QidBx4XGI3iK41Q0KaeuiO7sv704rWM9XjgYrfMBF6MJYeS/e+PZbOsy5hF3h3kKLvBfiu4d+YFqUh9JmzXawYYofPysqRElX4WAysLWiHJhptZotrkIGyRa68BjGT8uAqP7mb/Mnirmk8ZLuBGVWIUFolr6YG5JhpAOSvaVzHbncu/v4kSGFCMpKoM55YkUHIOSRFqFxZVxbp0gKRgz+AdewykXoLjVGfS0Jt0GRbyW8ayLq65HWb+dtPpTddgtFxSn6JZYENNmRBJxznGIEiWhRrRTBfin9Xm/qb1vHUJgTFeOQdNC6i8O0LyvzGwMflaS9CT7Py2+zpQ/WfdSUKJJZZXiOf+scKDyb3uVG4kg7f1lK2F9/XvT361/soJ/HxvUHOgxr1WdEkQccHxAcCnng6MJMHteFHHLJbywhqxdXt9WaW6xFwb24dFoWx9BUNEoXuq/U6AO6jd+XVrKj7DnYSL+aFWcYkGLQi0VM2fAWrPTzM4uJbyaeLkNffk6xZB7XqtMZRBZt3Es8uHC5S79LvhP5cmIVZ5d1xwqPf/kbsDWdPU68U05OMLdN556Tj+5w5GEQ3lWCYNhOVBoe4vVWyLj0PgpY4Ok21qfFYxEWBhO6/JKA/EcNvUjOO2CPhaqWRAR1193klpHSF6GsjtbES05wnIMfmtVDO+oy4Rv8ZskzFxwJ2q0KvjJ1n75juvJIYG7cig4ZbdD0sWQzRRwrfzxeW4/1LyXvKYKKCccNwOYQbpJ7hTTPffoVnzmkn3J8YhEo+JUNw9b8dXEtH+VAt7ipTRIxugdlyv/rzD3rShOJ/nyYZX6z45z6bsm9jLFT8NHIuq8old1c+Ty7uWyMi5Vw+3v/7X1D7wA0rx9qzLbUDyawl9ZSmS1a+bmy349fq16IEUmP89hsdLxyK/RVWnBnzIFp08CZPH7PhGJ55Ep/Dlj3tVOApPPURWQ3xyNo6baXK9ADnboKqi70njwxpaB/aJCJ/f3i2fHbKyEXa0kOj3UsTNvniEqb24dqJYuyel3qGBxAdHDpZj91eueszNkXRaGOjB6+/1RJYh0ppcmpzgjcsOfvIJh/o3YCSDehn2aHh9KASmBeVRdXJwbRUbVuLs9cxGd1jd1bbllxf7fx8ReRj/76gurRXceecdWbpvsFzNRnZiFZOK9zanbKDFCRNlsrh+ni1bgvk7DJdapP2zGnLhqBaEuKeIQzc+NU/ZWHoSlNOkRlGQ6O/mT29ZoK2+kGHDg4eUjGTsK2Ao022tKKeOsOE/AFoennFQCA7lFV6U83bKgEx9xlymSUWfL6+aXeKUENtbVJouKnsRSzf7mdwKUesi1on+MXNvB2awowXi+EebsRQA6Xib6BSB7MnAmbzXHwJiKjSlvwGCB3a1AibZiVvBPzGLJ35qrZlgn1h7IjpTgJpEdhvHTSeYdwJI3sLKHKG3k5yB1tNw0p9dDvM6K5+YM0FejXhcHY37F1+LIq8ub337vAZIrNx9LAl+GOcpj1bvoR4pokT0eXVU8JIrCCN28ywE32TyTzuqSGqS6N/nDAkYnnozGjwrNGDyYUHi3fu0BAjbZ2SXvUxReEov4Ux0PuwRQKYtCKd1p74Xk/A+fgtmjjcHTlgh7Ucz2zzcN/EAXn0c+6bkgj3sKvyxMmeUfRpHDFC/gX2PasEHhqKlyYXGRcfWnXIwPb4qgaAZMAQhHw4/bLgRPeCsMd8DXTn+RN3CNFCPiwHJGvY4UImwR2cFKgYg18jguXFh3IJ9XCh8S38u0qOGszcTE6YMuipFY7+NbYHQeCa4fNELkTuhlN4i98Qff20ekWFz9mO10pYIe1k8E5QAmzpe6Fhs/mtXgx5C8YLQxwiHoBxyWM5bdPGQAK7PTD9qvV3xUs5amp4iGcDXuFJGXZF0zbh+5yHiCkg2lA1nBgxd+r1p7S4UHdtuwUkJ8zmLCRI0kB6fmpY6IdrBQmsACLfs3qEXgs+XzPxRuyKdlBHRPmoXRNG01ZFHjqldAOuWr3Z+u47rzQbWlNqgspsvxnl9zNd21rwS1GDHPojdpNALJczMWN7i7550p7Qv+vLCYzSgBgDUneK7eVhymSHSytJHJKJzFrGQ13vgakfaJKD6SJCdCfF8lL9rLCF/nprviGrjZmXRJri2kmh1YQQYEVUJ/CWfiXZwILpuMBqhJPz6lRbuyHkjCPXpBDWtmxaGAUBJ/pWx2E6/g82LOynku0TFPSzeWXaj7030meCeoKP4M2dPw0VPFWsXd7ccZjZyumzd72pQXXit98CHVry8AfeGlXjpVa1PXeebkKk3JaCg02l+XQRbJfvIL4Bzr2vxwBVt9SbRZaNEDJgmhKGwSKnwxM3Bd+lo6laeJSriRcIESxkME6ED356wV9iAl2J7chpG2oT/xUOTPIFCTxP8FXKtQRwR612KRaQXMnody08nuIWU4i++m/WkHQJyaJPjwHLyOsJ1MjBB3Gt3KVwDVaR2Y8JQs2wPNrSYeviSHOKaBhDCdHv3xYmrdhh1+JrBz1d1g+rLSBdJO4OlL6Kl0cQlSHn4n0AU5TtzZ+GrCteoALV4/RChXxNyt/aXMMgMnRyeNNulugT29zVvspBFREp/AGPhz4Hu+nmhMZKG6B3wLYhqwpooIQdUQ+iJhi0DJebKRp75gqsn2Yqt0YVUw5RbQtPALm8DKgUO8wZqQBYPSjSAxQ7ozETBOldY60hyIsqMaTKVDsaMiyeS/mtgHd7k5gVDu21VFRJX/JqlGghy0/SG1M365/QgyPHrEN3JEF3TPNfNbg7u6QpM8Sfa6BX1O3I8hOJVcSMH97drtitydakvwN6terrIAWVFzQzJ6FmWKocWWzZSmyQFW1vqgHmhhp9moO+IsqLvASAYE18CVT5ynJWbrnJNE4ylpZb5qYdYTV8Ocfip4VemOO/c72IE5wpNtVUM3bVoTiZgGmGHz/TG2hf2gAishnTx8Gl9kCXfgHnblm4jQMETd0RIQWQuuszTb3A0L+qOaP9HGh+1rF+jRplHHNb7uHXZZoR00mmoJeG8L4BJSUc6RokvPy/kKFGERG121DpQpTAbsS1JG8luLJZOkXKFtSm5+Py3SkhZwmh0YYBGxHZgGmxQZ2J7VT2AMsOqzyFizSTcpZLqSyewsd0hvw4XwJWGXC5o6TLcDftMK4nWHo1K1fcx9ItRas3JQVnXFtbUHB3QLdbSaapp/1YIhzMg0UN3GaZMrVc+ZhE6P1J2LIq4lydqz1EPOJ04MjYxqrgY16/62QJF+3qeGTXAf3r6Fv2ivjFhOtLPAS1NL3P4yPT+O0Vsn7CsOGXxOEq2gWUfR6ep53gUuLNGTiNDTHW0je6/z97aPM1QZBnzijbXTNVTKj2JvZ/X53o7V8Kw1tE605bf6A6qn2bnKyFzCH/4u7U2lVFqLthUiFQjOQ3v6zq4OmgMbkj+AmtfUkrbC/Ev8GeUl4MAKrTalT+DceXPoOgNzPosIoztHeD63w6P3tswX2TM02T5yno8waBwGq+jiqEw7cJEiImqKkfkPGklU2C+WQIv8h1L/xvgvL96hbDR9dOBsA8GLzKu/5NzrVtrQFxPQpkGfUsAVAEDSU/pHTyTucQjEAign9Gw92VnY6Uz6a1AwL0DXJBv65O7DzJ5eKU9S5iNeoEgnzBCjEAAuX6HbkFjbJE1F3zSpUwyLShePl3kupovh2O6QK6uyRvKoYxgndN0hDhkJBa9lYpLCsvMLbm8JJX/sTs5t2Ei4jEUjH1+z1hObAQZscbG4Z6rp79pqEUkEEZysnXMbu+GnjimV673lakk5/SdqMEjr1gYlEA8MVnBXE3xL89oU99ewZ8nTZhjsxy2fBYB5d/sz9OUx0Glnvfs6cQWmJaaYte28Byu10HCWsorxP2bOm59DOsfpPJv8yMyZkTDnN+NO0PZ0ZOjp68ehfzpCjZql6hfBrh+LgCcPgRcDwDwKSdBcm/g6anP8mJD9ET3Pgjlvx+XQkNvp1wJjorLVS7mWbKvqt4LjwupBSHTw5Fe6upLeKO10xUN0UJD2KDuyUY+/N2cFgUeLGzuGyWJzbHoBf/WJU98kPGGs04sS1qZqBmnir8uydFatkXb36rNvKBcxrO0SfOfKuNbLQqqb1CiXdVDaawhJGVSHgr4dXD7Wk3CT95D4hMeXqabLskfppmP+mSqstJh2vrwIYU9NMaQTesvYRGFdIfwl2UmpfzN5qfCgicqTlCxTygcU4RAGv9c/yBXPR5EkWa4B38XxJOuMcPG2skTAaVOSRdx+0vxfmexgD2mEMkozEBrX66AdZoYlYdQQJRltMi3mJsM/duYLcJFCk1k9FOTGxQThaM8kPdQQDp5rIF1Snn5BkweDJeFy7qKdyRC4Rt3+eVBqov3H4F9K8oP2eantNHaMupan25m66qAdou9r3AvKHHsX0ROab0qOXFjeanaJxK/OckyNm/U4uU5aSLzk+EunmJwm6mVAlB04DyHPIJOvb9uw/A6hFn7CTL+1oEQcQH/hfc2uvke/SkPzzkrZNPWJFNbJpzNxX9pfMdVj+9M/BL9PgzLKA4V4aKPLYAn5IV4GtJIqstrF0Qv+owcpR6ZlE18t8RLXKePaecX1fX0cILgBX6KpK96qnz1TkX4g094Ff2sT3WBpXjOA+vNfPd+djCRrXbwUzvYPfgyEyTz6irhW6Gq5tIDhj+Qr0OcB//i5GP3yGj4KgcFRjUmQbDkYvjkuWQwruPO+0SpQClydBVdq89fG29OSpmH8+S80LVc11JwnDwd1Twxxytjv/pdY76Lmr3AeB0KJSxXcTBQHgKP6eqGEpjanRIi1fhwDPzKRWXxtQFpg25spc2gvdaeuARPTwQ/8E4fsvYm2yhqDJVmpcLnZlenn2XiS95+MUwE1jYFm2NQpH9kZXOO2xc9vay/R4ju3tN3b78NXZ06V6K70aIgmsQbhiLehErQmLXt1gyrIvHfbL5InZFyRwiaieslEYrv/EX++KdsumBp+BXJandhOAhWfgDAaFnIPuMpg6kPziwfFxCnnuf1OzNr3sn7ZdkLv3Pv2qFxvd7jSa70rVt7P/Iwct1pPvxR/2YJcCDn0JjiK6HHwIYXbIY/EHQIpHXfQCpJcYNR9ssjq18wSW1SCPFJY6gX7rbK/wOQ77U4EJuUyxAtToIYjo8GN0lgJUqDYZixpQDtgG2jM8bdGQAX6GQqCywyucW12ZDPpkXWY/SgqQnLkFNWFklYr6M1yJn4G0WyTn2DxW6YZtLAevZy5fJA7/ctMp1J82yTKvBBTLvCHEs1aPUBA+2Co5hn7Z26I7AGejEJkjIKHxIuyZ45LnfA7bnLFFUgwgBLEwKkwBnofaZnOxIYvtUwzQdUo6P/AVoOELAteosUwZVeHArHFHAAoLnoPbaSaGHK+yHuMsWY1T/CdSpEB5dPARCEk3bM6eyHB3QjgzZnqFYW0nHwO9u5H0OShHrXtGKHg9Jeio6Dsg1PxW0XiZ0kVnPBfV7WYQBtrd+siVCYcyT8WHF3JP9qJ8yarMcbJGJmeDSO2o5q+46wxbA7fEXFfS1h4Dx/NcG0qnMGQ9KrKfUAkSOOhbGJS69CHc+I+O+oVv9/ukAVWGbvAJsqvmNJ096nHscg5pIQAm03mgC6JcqAy+kc1/1VUDgLJWMKLRnxgl9yqTiCYZ/uhrvZVKExS1sS3Qn+i7BRGMMtL5Jk24iXXdsP1rj5FYOVGQifH6BTvQigROpsJfmRFJ0e5YhlhGcm2EfUT6QjCGkOA3wsRicrL+0tE0bfT3FNbdgA2nLKpgTRiD1me5Ki83XH5Djgjv7mDp4pJp9gg3DKrEKZuyLAevDabIXsJAaZK0AI84tKntsf39Bk5iJxOuqp+2bN6ZeWRmEQkNgfYpjwXrSGvwt3tgQ+JSsO/xFZiuKBJA4W8Adc+kiFOFpU1XdDqJghC1pl4Xg8ZpgDP35SfIqC54M5E5Kp3xPwfJZvkjyStr7N0GpaR4iiNWDEHOtXvTdyTXLvHsNjYPdk5THtoL3LlmNyNKSZ258+AtrTfoOBKMLS7k8ciN3xsoPQUH3DO7VXmdVieAhFGfqjp4liuW5faYW7FbfdYP5f+upkQRATpxyU2S1KzkEAKMf8QOCC0tpR95mwivgCbAkvX+gvAWIAbeAuR7csaFdBlXhm5SrQQfk2O9JfIn2Ua1Q2J78SrMC4c6dIasAKuLnVIbyyQ7U2hdF3xMfraLDQ+NQLQEziLQUK5BS1qxC98w3MYx9Zi7ECTTvTFXw1d/UC7MM7SCgZNlxWOoI3cOhb/HDOyRWiToHt2HFkGQOdOvg9SdocjbYFJNXaqAyIcu+n7/qALjS6U6EkGJngvrnFK1Pz1nHxLffzUENEDYK2e0ENyeqZytEkX3GEjVB6HrY6IzWZ/6ZoeRUnu78Z/oXlRaG5snCDe8AEUvGP2dBci31esiIp1rlfQUwlpTyXFKgkWQCcTX+8fPj4J9Z7t9e3yhpxn65L/XXnkSxZjWRTj9tFQJRdpbhvHKNAZhChGh+hnj+viHE6nZ0CJQn6TGJUGsmjSeENtfUZqM7hwVfNv79Bz+ROrLMDvtntFCmx1x6JMoq6ktQu3kj5qE7ZXxKaO7yFD3XJPRdQm2UWaEbFIqYgGX3SEIgE3Wz7KLYc4T3cA790O8ZD+6y8AIGTwmGgKqHE8PYUc8Ro2TVigEWReCjWXzNgoKtX8jauYcYaZxUwAUwnTuywEXk5rbDel8kEMZWZm60Zw0nM0UVB6TT08B6jflXagwT3VZuKpBrcg5Q8I7/6IbcuVp4paxfq21oJAoKCCtQB/PK7OIiVBMcmiR1sKJmg1YOnegCAMuLt4Eqhk0cNWCTfj6VbTyA6fR4oJx1J+KV65t6lVwIyIbQWTIVGxBSA1kICIoEtoK9B0A8oRF8tp76+hp1OiKurp5V562FSRZHDHnLu4AExNaAVWDa5iun5DDMdZbtHpx/ugD1PFHRDOVhYa8NY2hvgtjtOM6Hb+vvcAjAdS0vtysbOy0upppkSSvQu0+kaojqH54GrIO26oE4JkyBsF8zWWeC6BA5rkzYKCku/QVBG5eSkFiYko9gOCTZy8BYthbYoZ9tLzvjp/iKjqSgDAn7IWHy8jJHEQNFX+wzwPkGPrUniI1aPjzVEEU5h7zEjYMn01JZFMsoZ0PAO9d5nL4Ib85PSc7wHBYqPkFMbE+CLNfefs/CI+ry4BR36KQmmMn80KF+FsAQySlGajdDdFdrAdlrj3Va4JP72xIe1ywcY0cwo72myJLtbzebQMnpoR2plJmQsOCVenl4dPVB7Np5tyDFpESOya1bNA/mf2HipdRs/5DHzTsYP0e/sXw9yTmCTSnqC00LftnYIW/oj/dCPTLLEgtndAsVgmw8FeU8mCtmg9piZZk4LP6fHKwDNkGq4YWlyBJAE+Z/TaihRpEQ898sxGI2xxRFHCnGAnKx0Lt36coDgGw/8Y/dmkMZYAvgLzfM4PDBL3XHyau3KPQLtKkZh4QwG6mh8bFi9HdGfbnvCQXnN8nlf62Io85P5YZ5tGqBlclkmF93m/Xhzf21ZjqJIurFl657UCYorco7bGpl64mpZIo68mYC2KsRjbPRSd/e3AUhQNm33ZwEPiNjvWHT42I+A0RdvOmQnvtnokOtgNRnPiPqQi0FDO45xzdXXSGReaXkCO/zmQzmD2v6DvLjEGlugbLNprwxGGvhnJugJZx2y+oeIQWpycyFEJIHo4Gnm7fWO8knA3/9/1pdmaUB/ni3o5xZ7ZhWKFllJ060MGfZBJR36+/ktwYLW4rJXb5sgnqiY3hql8VjmfRXdAtwR6Kxu1AocerSY33Oj/wf/ld2w3zyz3WmikvP/X31a+HiWGVoTwcedpz4QH2QBarZ9GdGzgVGZtPHF1TnbaERN8Gu5L4NpFLHuSK3Y+yEl/Rw4wKq4O2O1jF5mRhMVGmrJ76RDx12Pprdodi8DsdNbT/rDftbtfvxnsVLnyU2dS91SIVTULnhIo7Y4SVDaEBEZ/g5MUsiXLIOMDoxfk1TS9yjZ8fKU/6CbB6ZoNpHuqrXJCDHO7Dgyovt6FmbzA1f5TJ5ObXpSo05KgbVeDadEaD9NvMIq+PqZoe1VSEa0m1J1yEnEj8C7QP/jJSdL4buY2vvR6GbAmFSKp9o+mvzcl7q8aAM4Rfixg6TCEvJtrwvsEIv2zeEXM95iJoH85o9SUSNwyMttVEvE+78MpgONaIPGcOyIc2Gf12lLRfiWmCei8Hrqtk37DB6s1dR2WT6grBgJzF+4IIc9xE0KRzxWqYQ76Ilt1e+K16ihcqg3ky0ujZfJDskL40PWoVPTVl8/aEYXO+u7edU6/c/MnZuIMCnXLSjU7fycQ98tFDA1ZiW7vwe6DInuB9vvqDHG5tqCxlv1zAOU5L52FuYLSRdC3FmsuZHbNFI7xfmeuhqCNghQWLz/j5glXo7tCaTKPJDUH/PwtYy6VGTZUJh3bVaIICJNfL8PfuXTn+qWwf2YfBbI5cbada2l8dMZ127eudMxltsiFft1B4KUlzZZd+YZy9N7o9vJDDVR68F4lOc6+S3MZJtRl/jhTeAvjpaYdSU9Re9YAkKdC1v5iRA5flNvac0cyW/tyvW9VRY4hZArInfEbRrf3U7amYU+IafPrYk2oUSHAUdLksxLr+Dg72fEjXr5KLTUlo3ghD/qXrpaZaGrOJJh4akhksaGVxadU4f3orhk2Yhr6Hn1+/J7rCSpS43MVe09DOcKH1da9WohqPo56pKybwPANVCGDpyhbfqfd4QUPLiLYkMS8jLAmhk6ZamF7VRFA4I4ZM/AP8HfL5U0YSPutlCW2mpLvXzP8HNolyruYjuFfVplifZFwzq8p/XWS9KRJaL9akI+aOAZ+x397Vats+qEbZSt1n4QMDhglS7YOYU7KHD8+1GvKJ3tckBZvSLwXyMDPaZq28UTY7m0VMpmI+Xk59VuujHbeTKgAta87TdK8bLJPu/pTNawmdgTqi68+gaCdH+a1h/fCNrdcv82zsvtRmSEwku37c8xIQk2Zotz5UIfcsOt05etf80OrdVEAS2HG/Oehx8OjBeySGUMbm0pt3da5tNNoAR28fK9EHhp9T4gJNGAt4XwnE0cDDQ5u5Hzqz69W01fDy2tsO1RjGGOEKIsErXYQjgNWygefRQ1t+bt+iUtMAAnWAjcwWmrhLzQD2VyyvP57dCgnq5S2/NWhp818nKyImGa0e4L2SquTkVS4CmL0JzxUbjKDAR5j5bFOsFJE52IlZWpjhtW/nKJXb/L0ZfhRF63tvUpDiY8Dqo5TknytTtC+p8iHjoa2a5LG21Mr2l7e5l2nig5dE7hHMSRKgpWTs+huyDjVtcp7AbP0A5uP4sYQE/lL0dnH9av8KbdTnrT9CDO22qG+L61Rz3suPi5t/i4vLfNvr2RarCr5uqFIwCbVBtg2uVt13Xr1ucv3tq9c1jcoTqEdRthkOWrsuN+ceDQhCy7YJ8UvyIeAvZb7SGzBuNVLCTYh8+GkV3ifjR+doo1tOjn/jFNW+Dke4mGHk/qpDZSCLJ8/MXz6U9yUi/JKaR2/Y7dn+5WuXrKC6YA/6J9nx6JxC2r/DoNJn8X+SsVV5JbN70BgpwOCdJaylYcyjulUoGfIjt7urlh8eRfT66LM3/HlMVgVK3ATllZzU1JQEcPhIOB8rEBmKIqOqYLIZitfew+2he1+7Iu3bYa5VzlhXML9Fk5Yt1Bi4sI6L9t1Tb/hll2F1VjEFuuqe7f/IrmWVFll6Hxu2jPg/GIYFrd5jiqmnY7q/K4u3qvvMWcaMGr5mRCBLLmvj82ngXttag1Ur9RmkOVoRCJv4Ix+PX7kEfLBpj20JwnIGGLPrRPRoLbmR79RiiQrZ08t2sQnYetZK6Oi2ypt/WMmPOTiqN91KiJv18yd6eoBzW9cOzmlNoYnHxWKFnzXmw41PFf501J3kushmuinynJYq1IE5d8/dQsXLMZbw3hj97sMDtDtYi/3IWXf2w8/fH56LYM7uFEuyIie+4RXcMTaW+Y5DQEXiS5dLL1v342Rc0I51v0xVdrvBZg4xkz6T+HY5QQBjWG/8bI7oNZZTGHYEa55CTYgQdbPXKLJB9er/LZtG7zp+S0oADxz5TjYRe18HvGcTPuFXmUpsssCk1tarnuNc/NQOUubNvSk1m+rgKbbDd0iVX+e4Jj09lXssZYlDaASt4791FX/pjPHWPFh5uO3V7v44UBful+8cUi4Ik5P5rYhwntcNZ0ek7xAvAVTrionZ73+uMSqGtEkczO+RtAaMF4duCum67jfhVkr+jDRg/4VvDWhEEIAp/PNcBBQBJGRjxPxZuG6pT95htA2WOwU9pRpQDlGbk+s6VGOkgFBf1k3F8SYD7ef5FFaeb+E25zC3Mg+8P1YTP64XS2HTJ4cqEcG3/iW5myPvqlp5RJWi8xYU70+kS6P3Xy6FQmTStwglqwes/xk1EvnCmlV/dVTEqi5OiazydjQrvfSuRrmzXb6SUC4WA1E+24l/HRQ+gfvHkcoyHmPKQGvh0LCJGIAK/XCPpfgTDqozLWIEPDCfeau2CT9E07cE630XjBBUjF6q0+LKpUhcDF+xZJxK93kIGGquuZlx11cTsDUipAsBknCq5s2qiJKIz7s6PgXH4Jxux0Bvff12dKpmcHaxpgMSCCM/mEmH346067d5hWpc73hdx+NwLaoB2Z/dw/DGHDU34nRyPvTmc8RA3HNbY70O0+MY8TDJMogO9BFWD1Nyha92g56FgtXU2qCpIRqrfLiVdDZ6l03g7UDGBGApj3y3RvNQDU8zVEa/hmzGkzo43e0TZ/rsP3q99PEc6P1zpTzGyn/f6Rd28CNjGssGNmXQ0sCP5mVUI4KPmHgF6HNeelmOHlP6Q/f8sfFve2ztO/YCJXEU0r0wWV8EbMvJ3wUk7yJFYqU/0I9/701KCzSnCT3VM9ysmiWFXaGQ0Es928pqSqkQOjUnob3DBr3XjpkTcvCH4Rl2J4zkxwXojtF23zNfnEDLrmIhba/4q1XB+6tmfzFBBlFWVIFAj+wtyLmSwID9Zc1fNSRtyciLHGlhKJHB4mglBJrhA7XAgvF5ZT/25DCcD7VRiup2GqFimbAelIcxF1tZL2oKVJXsRSyjIcAfTJxbGIA2sq2Z0F0B6iD/wrZwFzujXYQKm2s08xzC6vjU32lLwSf3iwYgQDiSe6lY1kHtpu0ag4ABZfA4ejKCqS3E/fj4KU50tVYgWP9JZQb7ufMbdc94oL1T/ms1aSTGKWifJXcxkTCj2ezvctKhI9DtxCaJsk2JbgoawRVvmmlXvPN2dT2DiyhcajjogKSkxWNAwal2WuHXq3BvAVLdv16WNOnrUgAGE4lmTZZEP9KbNodeKnd6DMjJfPkfSvwobJeXAKh2/lA5eb8GgMyLGq8oJ2XrAC84RIG6eqJpSvwwUW7xgJs/K0N66AUlsFJ0CZERQJo1IX3GGPelGwfJfCr8ZCoACECaZVVAC51YPXAjPJ/cvpVmNtII4ysSv+5oo+GdAgE0slmTlOGkDk/k9G4fJiJGoOZAgKeJOM+aOJG24ymmlaEiaWwdIvsSVCDttRH66p6zQ+tZCrU0QsCMNsuyFP6und/mZXH9/PpURfMvAuvNcMFnyxDwuYyTMyIBXe2vx2jjbg9l5/yeR5Emc7V+3zZEALU4/lmZv0tiW+xgZlBLYZtDRTsdSVhbTBrP1YI6Rg5G+V4SNHjmSYyUKB34JKWR/amN3XO+ffbCLJ7w4taOTnrOtszxQ76MR3HrFZTHqTNVQLJQr5Bl1ZtXHQNVZ7tp/o15JIGylNDvZ+/YtOR0wOgWUOLGdZ5alwKg8F2RCq9APwyt2BX1fgs8iQGML3ymuOtGbuX5sNVRa99kG5P6UwXpJQHE7nMOluggCbCMRQaNsP5+gEclzd8KQ8Zqk9k4WSxp9H4/aTeVpzcUrakfgF65JFQ96AxXScpF32cJn5skXd6+10IaPOn+ivT8F1RYDoE+mMUIlQlqnxJB1KI80jvR2ndewwTBX/5k6sznOCujvQfu7ycyWrv36jwjuiulC/lO1fs8W3xU3N1JspzImgeTUMSnUtu3F+TlU7LEFBbXMlY2fq7THZmvPJvENvpv1pYO1KPoAdoOpnB8PsxdKSobxGNn8iVFdJxdUyha41KYz3ML6yH8xEttY5FsgVe658s2PTRNWBhesQyG91ZFNJ4Ug344w9s0wsD0Tjkoc9OkR2zwteW/flLchcvYBS4/7eBGI6brQXBkhhWiu/nsMSbdqLyDjD2p8uBLrKPHnHiYOP0ZYgJ/oRuyArxdhmdAfWR71KkYbKhaTP2THfv8jipGzjQER67osad+noDVt20rnSAqFg6tRAa3MKclUVrfE/GSN+WAgvfbMSdoRMVWiNBFroIBvCWsdbh+9mhp3jeLnGbNDuLR2gPEkT525zCZvlqnMw9h7pjiuobeMS1OdYm0cj889PCRSQzmQIwKOBS4FTYTXltsuofpO3oZsHgqVtcSb45xXPSKByo0HRiMWsmdSlztNK4GrHgDuMbJjHxEkDI6RjfVOOTl2iPiFS6zETYG4cZO8/cJ7Skn2oeQDYNuveTq9J5/pUdY/2YkW/v1GFQ2BG8IEh68y7N+WXNJ4A01wWuuQMg7ZAWLfdNtBlyT6cGKqo4nk6uGIGsATZp1O+JeXlryjEmdTS4NcAy3vxIy5d6ZfqkhFudnCVM8cuk7GtMq2Zge2T24GcWxVwVTc3eLnJYiP4s0AZAx2805WjcOu0MGwsPcRBMKT/NpTE7/1fFvH+1t7I9shK8UBh81+DARdbEp32XyBiOt+FLDYUoEJOGwGbtfpMsWi1201oP6KTEV1AfrGgdmOn5JJNhmhMKfdvSPVcw7EHY/bfW4W55l80f+wjKwo2vAq2iYpYWQQ1SEHGM1l2W8U8V6JwPYhVNokHzPv5rh/sIwHiLYvfJqpTWM0HNpFggDYiOouEjui/F61+c81gF0VGj5W5vvMFbclMxaMOWMa5xJmmOJpDj1+3C3ZvEuCpjXmjRGCoqVhkDTzk8+EITNPlwZmarZEQRZPJvhqhiqIhxDqewwMiG7Wv2V03eq3uRtShHvNZX1SiqVNGOUO2m6lRth2h1jYau+MJ9n8xjqGHGcZKd3H+ja3h0yO7YCPM6Eay8bZt3rPHuE5wjrS6LiuRQQTFP0h2kzbD4R0X+3LDcI3OeOAvnHqjXTVClaVGgsprY3nEzS1L4ZChL/0dc4RO4MXSgepFDSGIP4Yk0IQtY47DB6iIrUbmjnAvJUlyeqmcVZzfN27U1JYDjIr1YrdnZ+hx4Q/mDxFgixP3clB4vSbZ5jFwTvS3iPnP+ZQr5sB5GGLF/XcxBCsdLhVSyLfAeiz2vwTXIfrOFRuwM2l9J+AxOabRWZlxOW8oGkBda5DRkWkfrPQPUMJ2fVlHotRFjhQ7qMhOZ1bxTPr/BuLCYhDX/GVl5PJUA4RPAKF5H7/qj4DNeHXj3iPqFM1SHDv7KjipxRGQGBThoccfp+l3l2urgM5RCq5ren6RJfhvobcyDrBi9Z3e6dY7MaJ/nErq1tEUBRWhyPT69HOAYjEP5j+0bhhuz9lvluRl5OQ4D0bGYPk01kAX9pRPLW5eyP5ZOZKoM07QhP/tds4DWcvp6RFDXhVH1HGK2pc4fE+mhUj93EVWYb2dYLfq1nkA6AuSo9AwIZWs/bbbZ3re1a3jW6pPZ61KF07AyvjvrV3NlpbO+shLZFbWctWBdA9BLirn8DlwQSLKBLLMTVAUCq6wsdhiUP9cbBLFKftrEmvVrzF2D8sRu9bprycJGbqqPKzUqIVw0e+dmtj2epVts4B4t5+k1+hzDaa7bi9/9Mb9wgTL9eiCWSQEd+ArmmIA3f+GmB1TvhxDmGmoPVdjsK3P1kuuFENXUJCQ5vhLBUIkYoJhmcKIs+X/vOV4NfbHvTKsH8+Hsde4DzrfoZLX0q2lJMFc4/wsvatU6fdqvyfRSiC21VFAMno+n+wu8NJTRn0KdwnDyjegZyq/GYRxPZnjVVsqStsb+Y1MceJX2fD1LB56WidSgZkwUO99YKExGxbxDYLniMzA69XVZu9I8XCsa5TQdv49/OWjnWFvB7F1PCl/51WsM7FL3J/+Oec8yXk+RgZ7i/9PGeCYfRLr95fCN+gNbtVfVZph66iVScmFW8qG/9GH02abpWk1SFxTgWvZlPMorDyMrhSAC3soV6zgOTcQ142s3Y85y7DgLwzRo0Y0OFAy0BTAyUxo7MgfcswCnYO983gWVYeQNmhItRarzgk8vZgdCfJuAQJUbvhW99T4xDvRKdcJAM2Ub8FwAjVe5Hy3P8Jg6ChdFDgqn+p5Cw5Wvywnn9DyniuT4VMT4R8otWS2ESBx1zITFfKaS79c6j8th6cCq1F9WTe4WBfhw7PW01wiFMHAx7jy9KjHuuqF96WW42eXtDJPz60CcqPv+63EcrwbqIpt8s0eNmHFgpzGsfnrcXUhRz/a/1IrWjApqq8bR3zrjc2ZHNsfQ0Gvvpn7XJ3+vdncS4MHwAH7Y8aoMiFwzU4kTsdQoctiDTHyz65+bHEx75t7n+3Jq000DSRBZt+EHRnczt1Fz8hBR7/kJUgLXjdVMOlu/SZ/KtB5fnC1eZe/lnOYEwCRjzUM36SYolCIgOyZO7G7n0wrqggajdOO15VJbd5WczuI6mCcyOR47eQmx36xMWghN2WPuLLqqtnxDfXer4f3giJH5NsY5vzGO//bSce/LNbECJLOGkNDqRVFpmKGmtCX/OreBjx88OkhyIbr2pWttqL0jjtCNz7KOPT+Ct+ncOmvuNumS2HBeleQfKT62nsfqrGCvYiJf0UIJkt1271ZD1kBrRFY56aSiTLVMGor5NVOWOzk8NNTd8B09r84TlrsaOkBnz9cSg/XfJsMxI6oMtxOtK6Js7DIjtwazjMbTd6YuDiY1YHR895BAtfv45rTOnjZ+syxa8gnsLmSzSLdy39FQk0shi83zA75r87uII1bPKu8T+E7zY1rNMmpYmveZt6pkfFciQeowpPRrC5CfDsip/UiYbg28yWJjAgzKrcxd0bgt07FU5r6WGFKgheHmPsCkVzpYATAYLlWCtnhSXZZlJYrLuhPnXbLjjpuS3dmNSQFRA+c5e1NNxPVssW6N9AXT4yMwRR5YI5p/7VUxi+sH1gfEWCr1vSZsMZzCTCp2J8ZUhXrZ0ZGdzMOYDbLZFR3Z9eXcEjZcaoxy1ebqIX38rTUxPH+msJ+eOL+W8IegueSHkwzi3bSddKBWMpPrhDosslXtJ7kEmT12p09ncX7HYlb/Rc0LDxcPQKbIBXfGJEcXvT2CpqThziKj+FW/5bHcTT4eg1tkeC8AokgS04hRBbnU0BIowPC9RwCPE5Cce3lquZ28RL+goUKpIsgdF8l3+Vvmfe59cnT9bLu0pfVMh1EhLiLfAc97G4r9acCIU5sx9+TloUPJdCYneYhwCTqSQnWhRgzzjOo68StmxXrz/8kdF7cKUSUKLYAjfmc0mNRfqW78ujRbZfsS6i70X0GBys3YB0x9npNCCcBhQjw8C52hl0/zqoP2AVF/y0Zf+zi/++/QF5S9BCzi4Yp8tO4DNvxuBMmYu7sFxN0p0ZFULvNBR0bVr05WN7fXwdm0JtsuqkGx3fviulO0iiKwnU4b3Kz+SBHmuvbSXXWjrIUQzXi1nBQokcKcdPykL53Rk3P5FRTgmm/Ny0DBpLabVKossDyiM5J7m3YJkJ9FjD2B2RFlogmSeO95RsE6VZw/dP3PgJeD2Bsh/mLk7W6kMBrlj/bNc716TaYf//u3U/2UF6z6hS0Jfj4fkDxRUOnxWEZlhR6+VgWnzHrxpYBPvn/6V3bD7cAHDlmfCxu/eF5zsEK48WhNc0FqcAtEVhvvuyJhq7U8dkHSPxq1oNdFFUjDfaj6iDDcdOGrp4zJcsYnMn04PDz2WdL4X59DdbH/q4u3k11ES+MYI2ajkz2FBrc17HX7KHMYZ3sK+lI/uxqXELXl8B1FwWm/fnuz5VfYLCrQA+KJ+89Io/doqpWFQfbadPk5EVpqJ8Chul3IyQKdI6lqThKz37Bj4O2tq0QTeoQG9YPBlTHsI0hlARyltX+AP3OqoOmmArd6eiU1yppOsfezy4NkMDdqbYyXMds1R3L/7ASjXWiL3PkT0DhE02d1NcX76KRT+X2JZbwGXG3OiXn+e4XMiAkF6e4Kn15i/W2c/nXAvn+/Wl4aNgZ9rIe2azkcQZgCtbkqhGZ4kwy8f810HmyHum34GIuY9NTW+Ng+wy2XBmG5ZIwb2QKP451HoTPyJcFxWyzZT8ZvJh/mwPdwtMPEyx212Erxth42FM3Lf6SAgQUkI9kfUEgPZzbTdeHYXhLflEnxa2alu+0Rgpxq69V6vobxfKbOuok9Iv8NCWC4uPUZT3/uS0yO/vviBIXUoLCcs6qG+AStwoe3qyM9TYRkW8fqdCXQBhIBNxUKF3f1q1vf/P8kyho4KI6AexNG+pEUuoFKXxMBYPpR/qYD7sz/nlWJWtFW3zK1yBF3lJPbwZyXNLRbbP7fWDtb/PPv8I+dYOmet7+2jYmXBpFYSzwb9Jfg5phadlSAzT1yNPqEwAlFf0qmugZUnhe+S3z+DMgRNGOWzYGa+ZPtn15keFl90s/69OtH2DN2mgSBeFlVKAfwbwuuELRckmFq+QX38Y0u/voSMr7La9RTWJVg/883b4SbCeOl3t0ea50qikqjhmM8sMS/wW2Zic1ma4YY9rEZ7ZgYNIPtfkBoy8st09R9sl94SLBaS5j9fGjFfpZnUjSFVBfm0Jfn3K7QrP5izEi6E96Nn/oWjUiwdWUEf5kX1HCmB8CawMxiiZzDK+W64AnDZlxXZ8bfJGpxV1nNWj6PiEiNeShKK2oreUnj8ek8X/lVMnRxuWN9YJtqR+2mN/T7wGuajXMsn+uEpvPFcNQh6PfO7t9HErTncTj8dCHO8RAayLNg9HqjPmHcITyUEOn5z5RHJ2XUzMUcn0V/M6qXMsOjXfbAoGr/7z0VyR8D7t88Oz/UoVGVTcICP5sFYtsxMaIq65s5/8PcgSmR5NJly5WQviimo4Nf0v44G/TXP53cdr3+d9wkINNagbxoyjwSsOHq1BLK9Wh7kYifU+Cf+YURWNMlosqiRNi2vNDMz/S97Vju/M/0/m9LIA/qNVfIGZKcFdtkhTAoljI+w7n8/49jwmnBt5yAydM6pAUAjNmQLxL0QcUs1DiGTYOhVDC8JNkuWfA3g9PBn8j5yurexHkrwtzI/dGd6MnD2NRnLcNwN6XjqWkLLyxKKn80UrHsoND2Ri+I3g/ptSd7T5cJnSL1USaGHPsekl9+8ouASSNwsE5aThxh5gMU+BQfSnmyVRtVjgDtBRh8XId1rtT/ZppR+K9YnCn6Y/i9eJXiGm6vivCkG/cXDgWz0kWvqMccZ++/8dbD8RgEHGZ/av0sgBipZ+n2X/76ZULhsI9ZfjMrHqEfAeAf1imsbkfJf9K+NQmxb7z/QauL9gg4d5UsFUyXw/TqnfzydAAHOLEYhdOnbjSsRWXNtVPagVBe08KJijou9MxlWI2ums6excRfdcK5OGtncDR8nKy9yPNT+TjaN+owzdM8EWcIues8YOystf1QyW1dRYlRq7LOwCJGQcqdd9p3tBoCImD51Ve99yO3JDu4/PFcEQnQ6jrVpkrmiXYwUT+nRrgfn1LRQ6S8An4Wfe0d9EqcQJn9IAY+6i42LOixQuXOIZFvfHkx1GAm4CuCf7Nc3zNd5iuyEal/tK7jpldwCCz0erHk0j/9YmouuTCN4osuMOJGkVYysKHHkzCjKilBufhp+PBGlGZNrQzkyGzl85s5CJxzD8J0IBfKjkyhXUXyiIAJGQACj1MlY3ADACyGMD97+Q3dn7XkkKcshE1kGmz++4L5nJqPpnzPgXzPZ0YMOb6aUHkJu2uchNLmJPo0OfrM6xaYj6hmD+RDtWLcCDr2MQ/MEk5BNS+J8dSCLULBsGX+9heFXyLcOP6af02S+R4wzRPDn1g0TVNHgZingAMlm2sYJhTmKyzc0ked6ZQS0GxkEBCdkRqqR/t+kKucecxFvCjZvOxlSctJjzWOsd2ZFAPXbF8Bo25M4gr0NzFBZKphI2zaC8I4tFjGy+UOWft36Jzho3VFn9u4Ks304+g/6ObF83Ojz5TiCh1PTTE62o2g96dHJwJWGLEq6kSaWSEj/gDSQ9gOP2lES/pfVKnqivyuRW4yvDZnrPzEIewqFcrQybEzyGbdLuy7m+QS9PNApwk0B11Wa5zyfr2U9U4z+lAarm/HHR0relZzK0+iWGPp8NtL+nxWDcS6xnvpb1UCSdeMVisVDMJZ4wb6ZOvZj7FQ/fSfbsq7Ok/LDkvayI2XBPFLmu9DHRfLA7iec/z2pWaj8BdXWuSnShYMuvKetryvHu6PX6bqVM5I6UF6qxW0KEgWi1zeEjH8ID4F7QUc6QBBK/5knjhZycdEkVwNtmXv/LeP+Dbj7e7O/2JFQHzUjrVzjeeDRLYgEAW2gITG/vRHvXASW4+pg/KCKuCRfsV3wpu17nhKDO9eBO3hbLMrY2fT2AXLJN2fE6V/RBBOzTeBykVJFJjvG2rOOgENy3gbpM/O2omqcssgsp+pG8UK+fKrWrl8ZrlCkOX6/r2WPTyyEiSYz9OzlLAEpujzscDX8xwLe4ATCejw4Pu/rhVKG/++XrC0IM2LC/so5Fn90Y3YLJ8P4bEF+v+XN77/3zCDz4VTqFg8t+q2ogqO3ECCzW6n24lmM9QaNnJfsDhjYWNE2OphAsLQU6/ebCMbpwLnRKStBna1ebtdzqxfWNiF1c36COzF3MICwUg9HuUnc9HDntGtpuB7O4d0tLB2yJKFKx8CQNsvlGQiNPlAUA6Jya+HsX5JPvyxzmmTcPOevOx0Ry8SEjUsOjnW+qlovlm5tgbq4INR8JxAUSbifKVlwUiTbHvzwDbOUuOtkQRmHk4aLmYBk4fwd08AHu+aXb3AbhnNymgqYO7vaER/ybjSzB4c0ZE4Xe78QNTkssOqokIu+JlzYPTVG1D+a90gSOF+wi1PO675Go8R6Y4NGKl9uNpVmqXqP9UqwI+AuXYIkqKfH2P3cKm53T77VJB2ErOLDOKeIZuws3y6PUS5Eza9a1nwsfszASLm3fh5x17ArCG0bN7X7a2S27LtV+HiSfNC10gyIznp1KWJJMwBsZlpVw+L5O5Tna8k39fYrYGCGwDQPOcUUHTiBt0c8fLHHI/YlF/brOKDGF5ZjMhC6uqWzGuFliq2DjHkgHkM0AXqHjQFiFRBaaz8lnQpJfTKCU1JoGhhfwy+oDOj4nDg6iPp31/OptTs3aRYTRKr+xj7y8PyFzvDiMRXKpxLKhMA0vDd303NVbiO0NXnAGuQ8aCI69zr/KsiS4kW1QCSY1n4WV5NQGviNo9x8au/gi766hWgjNaerJWkoqF/3NBQKLMV0Cs4Ei8s2qCX/zkLdH8O0RR99OuSB9VI6jJ7DFUSDWDN2qix2Ob3dyVNVNEL4qvgaMK9rD59H+YDm71MQp+8ZTTdjw6pxCLQDmKA4gAIGaIDIZ9+hVOdEurYGh/hEFbG9ktTGXzIG+nexPJyorJq+xvm1+qqSNdPX2gzC47xifPZ2os/1xwcwlxKoo8SUUCV0KsQCpRfOahINz+paW9UxvtWqxV4xXixFL0yLq/JfZBobbGSRFHtIHk2n4YaWQeBomirIhX+f8wBSv3jD3cgyX3OVsiiHtciXZFzKnpG36cZLUbw8LpqMFDWHpOj9AQz1TuHmVtPYRPP4CJ1tvfgCgyYxOOhZ8sNw5qhTeFmHSu6OCM+wU58IGBiu7NJCkWWyd3bMkvw48Ps/i5G99ugVMkiDP0CRxdRPn2NN8FHY7E90IPdvWm/DaKQjylDncRcGtm44w/tOOjEHTjlXeBY4kALbghqP9RJU93y121UDhYBMNBSOxC0TAW/1YLdNbrD+QnxkGWX83nvlsRtD4BCPPiui/1y6VKoBKILdjE/zioM/J0gE2/ZEInZNb1BbdR/BP0WjSKOEfi/IOgkGA5bKZTe59v2FvRCSqazZjWOXExhfy4s80uxMOc8MSiL9PyC3BFDDVOPChgHw4R9oNlpycnYL4E2JxlM7cn6/jpsZZhAeropuKMyZ4n2jxnw3xHo7mbE/gxO8o7bsGCCit6tc91JUv9fI2rzh1LPcOJI5KycXzaOs93ahWCBVsU08K1VJ3JZykn+lZk20QyJe6UC1liJQETJ5JjIKAbfdxD/0eSwpgkzLqKvdE4lj5w6cQLcE4/enmp/zR6U5aorX4+FGgWOihNyTihBBLhyR4SIxMTt7EmCZ7cYnGT6Kp2ykdgrtdwmJlgN+TN9ewTIYopjBJE01Ni3f6wKTHehvXHpu1aWMSj+KgQLfWdJFjsaWm7Y+61H/177+escTek78QO1H43VZ0nfog2+uYGEQkoXT7FuvZ7MvyUPSauKq4pQrysUK68QyW1RBVd5PCRzph0pcloDpJYm3xdgH2SmO+J+mSp6Cn3F64ZAbPQ91euCs8Oo//+HED/gDXii7vJdbeD3kpEH3Xl6UNS7KvqfiIpCQHYqKBDyieVO03CkZTGnjmFnh54MYuOR23b5RyQf2uSZKWIP9y86Et2Kor3QGJ3ik2PUZNr4U79ifwFdIMdaF1pgOCgUoer+r/QjYw0KAOWMV6ILDV5keu8clDkCgrIS5UVu9zkJ09KbTy/9kd7jdIpZj8w70azmTlQI20+5/+1Q1URP0t8UIuzdyrsRERhFnfhCTfFeH++DLnt6L/Wf8gtu/rtZfxV5XAlBg+YrauP2JphJOkZ9o+dF60Es78DPQwRmWhxutBOdm+atUQzT5sfjf2P5apLsyeGAokBlOkLLIJE6nbu1qKMiRMqI52fBVWRpo2yUHzzns6Dn1wff/P3rZf98zcQhsHsYWmXRtQvn4Xq72R7Cxkd++pu5LpwL9j9Z5K7yPZZRbuen7dTQLbD/s2nJ19W9VpvFbRQbqkfs0FqaTpFs31NIJYl6mUCla345iJxWJynzAQhJPeZ2SOPleowCsxVsVilbU1+ZIea58d1GjQGCBTttmmBh1l4jRaAJZ7zs/6ZTUO6oThu1hhTr0ZeudaHN1k60TodZaMlTtPUGm6aE06C/vK6eFvQ2nR56fADfFSw6Dudr4UU1FHd0C/1YX8NEEL7211zB1ruO71rR5dwzuA7uwaGhONEF3z0Bjq6fR74QrhTCk7qO3fJnyPgL26vfODHzlCW+YRDL+WRD7OV181yxle1/mImw/GWzWx+EM0b0xOWb55ryb248DM6V5mXpW4CCZfPdcyPPqST7l7o1mqI30d/OGx8JFr4fU7WzvwSDwJ7pscLt9e/dsAQvV7L4Fs/eOa01t0L/66bd/Yv4glgTPXcEm7ogdlmnrb+psqedZkYXrnWC73XtDJ3Ez7T8fnB1O+IDBZ3g1ps/5D5Ee5Mij0fToXqNCkCLeo92y16pXhD/2rB/er4Rxpb8jyTz0nRzT/+j1ysipNbOhZpnj4uePuA1HE5Lnf5wSVzZUQ9rq87KllkL6TaiBFl6iuntEv96cVbvAWCedmmiPDp7oL99C4l/+8m07LWbTN8g9Q2EduE1612J9SP/0trCjErPpS6Ji8zYxfU38K2WZXnGr4pbXEbWs2gipwkHRLZssvI3b2mau5XKJdTpuxoy6DSaRDmrIWxBeTc30h/bfWUGOnleJY34mblYyF8sMpuX9fjZ7gLcW8btart09vbilGkBhoR2lT4rLqeXBjttLKgQ2zyooT9gtdmg9xlzQ63Qm4Sz+hDGsnd3T28YYPij1K3BNl+Q2achJg/YBFa+tSFA7BOW+JeuKnm3aYQ3gKVZ4Ep/ufmqejdZoX/wA+F0966RbDLfqsPxIl5YRgQugzzj+Yapk3uFFtvRgkaR2RycFqNSttMp/+12fbasEN5wRDWFUKg0xc/6YT58zTpztcqBZHY0fdtZdVJcVVI+MJODvJ/otLlNBhuvAWrNEWC+CVG4dmHxpmF3RI6sOjdNRXh+beGZzyhOQuTg/ySQ96SUA8tjnFsUbp1N9bHjamkXpN8bU3f+3K6Eiw/vXAtMZODRVbAmRF31i/T92aRNgVFjNntbGknB0FFi+VAXndGCK/PtyyqV1+t3hsdAezn++9BN0NHB5IsgSmTL0jf49nJBaXpHN2Pw6t4kFInFn3o17EWBXpNwvy5k6qBHDQNUDmlClpP4eUWL5wJLdpzD77dNVCYBczcmqIyV7yH2A2PYms5+rdxvZVVd+q4EcpVHIrclJaOORXrYLXWHtovkx35GiE2CCQZV1WxPt1rqr16V8F70cjJCFJhrl8jzbt6yjYddn8amOLVOyqqa8tAVFyv6+gzHxHFkF7kXl6ygYf3mj6tVNhl44LdPk8S436KcHCjV8W1KMZAVTlUB/bwE0zvUFAWVRK9ybY4ULG5fCmllqMR8hh2xks3Vk66KesEIXzHrqRPMvYbAuG+9dSBZRftlG4QVL+X09qFQ0fvq+c2mmrXWVMhIUYCDbJhubUNZF8WEop1kv50vVWKN6ht+IGfF3HMpiclXfL7boad+Z2CdLtuSoqK9fcPdFuoObY6gftn5O1dKC6jJq81MLSnm8JJK1fi5x57Yv7RrJ9XUZCjEjLGbPyd0ZhxL/xjhrfuxnpp/egCj6Mt0ny1LLjwdC3U/Pq5DONc4lGNluqNQIRKMAJS91fVhmRRYmRi1hHxPEQNk8q7TI3e5T3bznA93Nas6cwrADG6SECwJVUCrgsL7wnwTsRh/k+rvGC/uxG41J6uEuH1aNT7QiR7DJGyR8mGVi1R2a9Ne1CZHR4cMjWWfE/rHnFguqWi8cr7GNLn7VDkWcgqOQ3Sz6rZCcVe5fvjHL7DPyRGRjhdefIqJOlcInOSTQeYStbnZ8Fx5a7oZafOxunSAfU5VCfb4KNnb+vr8QJq9PfKV2v6CFVCF6OqPJQURA/0Ck/iviPSb32i6zMDL4IrbB5Um/VSGfLwHkJb6xFzkNoOhnXQVtj+mm5IXigejgRCia0ZI4UqKg+v9upy40a8ZK5TYCW1LEquoMxGdEPM8+th3y/7seQ7RWHvlTlBBfzmwj0dI3jLmClGX4Fe9cXrn7q8jFhzPE2sRFlFBzNYD1lvR1Bq5jIV6Z2C7VZF1lib45gI+NUxOgVmBAyeYt/k3m4kbYChXU/Y9lquL4UfzIVgF5xUi0SLzlKuKuOSZV1f1Tgp0PeZIOn2a+dSs2QthUxmvDBuygSfpPjZWIsbWeWOhduaaGBDtjYRark0b6MetJdG6cZqLb4AqC8s4fAfBZiu1YO6CYTs8u3r712T+gSfRse9gUbCJns0IJqV91X+meaHU61+5+ws0c1SWv0sO+DneofO5cNHOd42iLJE9iKG9UNOLKPhnRxYNxePH4uBS34Bxs92MtVAm4oPxxXsGZMydajTu8aET+dPt4pzXE8XLujPtMKn2GTfG5s64aGq5IEenGVVJnXqNUGYhvRG9QEHq44vPdnmaL/jsjqgx6MB3TXRafCCgy7FMBxRQI3qOAL42ZPry6p9T4IuIoG2d9X39ve24f7i1gieiA06RAsQUxurDZms7ajI4kAe7zKVnC/Nd1QgmjSwuAvA8mhbDMK6WwBsK01cqDNBrf26x8aB/qF6N7vE01ZXatm8nphG6w0cQeOGV3I0ji/L5tFz4AM8UDVkgE0/ci23s0+0RIunJMjPLtY1IZO2Jk4zWka7s/wk543MajIkRKvfr0sgRD2hUucQm36S5PKl5v48l5vqIbV2J0v4cYq8h2C8zHBMc1Lb+c0uXzSg7t8aogFQU5f/cjXcJ8qd5cF/x6Mswn6bLMN9xmHviFCFgreo/g24ctrdumiZ7UHn8MZmvMdPuCvTjfNmGiz/O19m6rLIcgcPJQc4GYoC0D1+Ymmzwu0DcBasLQN87F2oCykX15ne4w42xUAHUjkKMLI8TMwQ+ehtMTmU5CKaCR94wyPgcoECNuCUl6+yvwr+r8XaXf6/MDd9bkU6uYIT8DnrI72PZcwtSgAEiiUWYwDxhYJcrc0rBNo9goohjmBNS3cAuld8eyTzK0x0FXwbmz/PxIjbvNQT3DhLCJz6g8I3Xo5pNhvwz3GR/G97PtCMsd9Fdaow319K10QuyNu/9s0GnApHHXKE+1aFe2wJPvzuglsjNoFpnt8I7mMENWap/wuKsMZhVuoa5oY71XTTNkpbGdgxEhOyk2IPzZFpIk+7m5X6kLtpUK24WcGZeFTzYKeiEI8f7fyxYyD2ZnUSo2LmofRfIJ7RZztZB20F+dx6hAyLB9on6Yt5QwEKuCibxnir4cb2QjMM/cpGVPpPmUresCdwfySnQMG65AIJLKfBDhAlecW/McxTJhtUp+hrblkf8ctFc8XZadhj2h4/sy+DgU9qPjbFEnBjEG9mn28mYycfjgleWLKCVqpeE90sSkoLq55ImbQhQ8BzPpnuwLYPsIM46MmJGtGsB65DGxla/V4LJHWLSXlz+I0q6qVT7z1WKpbz5lS7RwYNroTLIxVAmT+wDSVcbc5Kqd97tw4xrKGiiO2QOG/HR2bd0NuB51A/QtczNmpdlbRwmI58i9XP+ryqmTWn9jh1covq2d1DFqNGNUJQJuxB4AShkTompr5Ump7TrcQsKPcuL7YRgvZfmdf4vFL4G0EYE/GmugH93r8Xhfdih1FonvZMHslIPthZr2uZvSx6WUkTjBj3Oi/jaC4buNb9ctQaY3+FRS3J3uXT+5osXY4gqwAK3Cf2ZaldwZKlsQnkPPQhj+Dz2RuT/OtipovMTDb9dg9hXJn77Q63qofpEhyNHFhNGE0IKFFhdQ0TOuBN8CXhnW92xGbRWcO822cKihUojSJe8w4AJV0M3yEWv3uTp0m2zml9EWqP7GqXXGJK1tD4+gO+Of8uH5PnVFOaMD5qoNezadXGmpEBzCL6my+ZgFhyeB4uBOMy3LvIP9+9m8BWhbngqjHmCeTZWupX7n2w3FLw6Yw7ClPLlEVXgRvJ2fmol2T+5qkBcCFpQ8AybgW2t+80u/ZKKXc8gWh00oMuQmF5nGXBFemNC67k5YIeUk9k4UEq+PgJ4sjeFEa7GnBGDpeEws38mZvfY+crOZYlepsCYVlcLcVcS7QzKDHJUXRJqdEPWaJVEEr7n4cnRUw2+qyNZMNQKbq/3aUhZjdK9rwC5EdIal3kHuH1w1sqm94kDJczTKijr7HDvw1RQt87vn15zsrAcqYQBW3UukzkUoMGv+/ogxfo1g6FrJGotYF5EaH3JWJ51Us1iEp61czIKfkxSw1PpgnpSWUvsVfnZsoMj7THuPwct1dnVWgXpzKn/FXeM0KfTLR7KXZuyTY8PqFF7I8uSqgtBDR6zIRkbhnCyesm1fcRrHDAYUumy/4K2F2qZ0jQhwEjTczmOvS4aZOuf6SNjXZcDb4Oc5ikIomRc5HpxSRQPEg/S/g4MgNc4sCdXH/8Kch98+Py5nZ4jKiIOVcxhAykyVh5Y+L/HgWbjoiitwkAkQqdH9AEdxgc/FtLycfhG4CXFYG6NOZcoCBwB9trlK0CrcB3PG5ViDtkrFCa6HYUECxk9Se3n5jks0oVTqIu6ug85S/9aKGfbKNOLg23HOJrGW59Wn+Jkx1iYndb2V+xJ4nrbA7fjVucarnnPzfaripBQDKuCnI7TyKjXNVYPqVB91StWtPAdFr07nQW0Q48WBH1m7fVLUo8NQcr+rbTBB7c5MmzrrX8w8rA82HxwiG9swt7hI6LFmJM3acbYUBCDn0ubyzt7DMX+wPzBqtaJ/kRikpfGYywVAKVcdM2jGvzAFiBLoVLLPBLF+TaMqEsyUtiy/w24Ud2GuuzGVsL6EWhR2aW+u+PrfWUI9lxMubz0kMyUvz3BaCBMYXjNn8fbLNLQaxP9dMqLzH6rJSEwyK9fk8MdKnOQyAsk6NxB5ScVglBymC91j4QFQx6njnRKenyHpNSWDtE4T1zJOpRwjc8uul+c4eRJ6cxJyJ9zRCJicC5/pZZqde1/9Go5M0QkjrBpjHoKSbE72zZbbrcB0UyLYSVatQ3ZKhMdJG4QxplSr5HHllnMvl9t0puPJ5yOc+Zb+/0MilVMVf/9LY4DIPrbCPQAmXA2BN/WUcksUIahCi9aPKpYtBaiX9bLK+QK9RN9dJAwwA0ACYOTeCJTHMcr4HJwhb1lZDuy1X+v5qigANFJTIQd7Nx+pyD6w8F1V09qMVWu3bWz35b4059tZ5S4JCR/kQMrXzX8JnZX8fCNqdT+hvr97pFwJPDqhAkOOTAQ2yndZYA8x4ZTDyz9xTnycHN2aE5/+kH28EAFI4ZGs6EnXP+zz52RK5Acb50P4cFVxtQK2zMGHmBKiDv+meug2WvAXD1YerwdPYqtRxoEJ59KZ8//qotpsghAFUAFYeU8Z0e52PTWylUSjL6OrM91ldkIOjV0fld2HLAigwvmlu9+8wIOqIJAEvvt4d5kYCues3AYRinjMKxC/RY87C1KJdIo9uJmdYGtPdgdSQ8hJ5ayhZryUdj0LIbyFvIC7vJZ8N2ywz7hETQhT+/+n3fjW49vc1Y518NUf3QocReT1bl991yLItGK4koiC7d0PJDgySTtjs26EArPOR2Zh+FoXIyy62LwO1FLjrBzLSvA26SlnNUFYZexpmRc3Gpwap68vWCp2NTKMlGtZZbNDFDcdrIQorS1rTxkJ8iZBaI1zzrSpUk+Gisx9+LUJrMHD/1RXgQsQpgD64Qyd4x/e5N7p5Xq4ONoT6PbeWJJegR+/BvS6j5wfQ65GkiPw579wbjD1C7JJ2xP/InMv+iXIqcGmRxQ36eHAhNz3k+Wn0VCnzvXKUclaAcHI/hIsrDa7N5HhKWm1TPK2Ffa6OOqH30U8YyLMC2kyqc61+jsDX1YebUWmaHw8ps0NXb9zaKs5R+C58GmcwP4NTIuPSrTszg0+6Kks7Ez+SBEjmkzHOtiUj1Xx3QioyNkLttq30owy1R/p9P0nGKSTESoWCdLj+bKdVARZQuJD1ViOdOuXWgXEI28ciICGbnbF204ltKEdW6DkuHgIwUDWOfM+FHoP/Eq0zgi5IlQYh2m26F78sfxB3NWssFqZxpT6/QURQs30J3nEfJvRRTDIluoW5CSSjABGE31r1iFp7f3MBrEXtfqeejfeBRjN8JYMr8GP+uuZDtIFM1/thmuf8+n+dnjqN5K+xXznUyChKzNWorZFiakjeJB7gqFoScD69C+Q44P2XsD5dRga8+8nTtpcriGI5iOz0vLeNel0r2V32HJNXbVYufhAGGdBXzyCzf+wMvP3oYJLKpDh2d1Kq0HGgInvvUfVvxbbgL1Q4EGuHRYy9+d2R+F/ScaOD36h48OALiN+z6jtut+dj7gNcEmHIKjaoKUA68yF16pnGHnba7bpkWz7MnJhCEkNqxx4WPasZEfL+YOKvaauRX9PXWKrm3VSlveV+wo+rCm4FO0E+KbSafpWPjyWJtEDt/vGFl85s5Y1aMKb1YzDDMiDv6qzzXZGrsgIEdCqRf2fJHEjVpqoehI0NbdAGztPva8JM6JMfXVxALH89jSENnd31UwBO/eMsO0qJZkf4+gEZA2QkFmEg9yV7c+VVHd1fBBffM5+8pTd4tUjxVdlewRGR2EG6U49Eqaxot8Mjl6sCVtUU1ZW74SJBQkH8d9eyZz2MHlGFKUSKgr1X50Jem4qqQ+xSg5vrnbg0JxfzOuI6IhJNdqg9fNgwN/jKNk85wTRPUdXz1X7TTmn5vQ4SVVdlxhnnvl2C23fnJYPGXvINtJCh2rr0AxRnTr7QtsafVV/dti3XS47rZpwbjKjx1Szb05MTYFHezlEMMqeYmv/3d10l6DSUBGt89sJ9BeNmeIWNFCNOKXc/nINNZsTfKb2L67+6tI8beVfbOYRied1setw5uAAkiIfz4V9BN+RGWzEplJM5qzUsxeAMttTArwz2BCq7IL2YpDtYr6ogoNU7JqBeeLagcwkhoHAnF/rBJqSvvEBT9SB98bIxHArvwk3zTTLiRP9n+zRkE4D1QxOxKYva84h6BHp0ivECPkqAb6r4bwDkh4a8dkQM9CnGu9IsoPn+tp9z0pbHjoXNe2BHLLJAX4y+oENAwyEJHyRg6buZ+/BZGzsBHOVitReG7gfSKUC1SYO+V+fr4xiAS1mkkGbjzQEfZW6o1BYgJW7dJG7kRiUA/qSPYmjnxGWoT8JPhOhk8xBKJdNHgpovrAIVPc6W9LmtJHwPd4IJRqFn4CnB4oBeEFrFvNEnnjciqKKTECTXkL+rkX78He32zyJCMim1fAgQwrdk+2tOvaP8bIq8VTC8F+fqC+Vfneqd9uHvO6zyNHe6sNfZjYtpEMDnWTghihw2fcPOkZtVzU90MZj5t/zvJ5QwF5wAnQzchp/jkNNqRXQSNByUSiGA/htU51Ivxoc9o0xESSQ/8Zv/9Sa/J3FMMqA1/Oh12i42HK6bioqwIdl/JojnHAUKWcVdgSgiKDEXH3xMWj1cDKfUMYlUEATDX67m73DnPHkWefBLhTQg8g3e/SVJabrxlB6hBY2CLtadau1h0Pqe/bU9t9t3fkRh8K6CeirSKg6TkdgI+/YEoW50FgBOZiO5oXd16ZhF4ECO/5UToZWgch5uNM1+0fPagSE8Bw6fsToeNXs0witEWmLYim6gPhJRwxfNuqgMtZwrG8IsBFu61iE2tUXwdV6G4dpylNOjByiX9Cdikks6U09iTUsOBxQPV8GybI0sBEXp2xQmhZxHShc+uI1pOk7QBBaPxRzD2XoL8dY1iJNXGy7JbxJC0iG4awSWMVR4UhS1j7FHo93hzAb52rhGwCn8b9gs4VgIiFBXDEJEMjBkD+9gtZYZPQC2mdwSyhqAAAA==;" vertex="1" parent="1">
          <mxGeometry x="40" y="90" width="760" height="290.28" as="geometry" />
        </mxCell>
        <mxCell id="EYdVK10S_5ueyXmm0dIz-25" value="" style="ellipse;whiteSpace=wrap;html=1;aspect=fixed;fontFamily=Tahoma;fontSize=15;fillColor=#f5f5f5;gradientColor=#b3b3b3;strokeColor=#666666;" vertex="1" parent="1">
          <mxGeometry x="10" y="270" width="70" height="70" as="geometry" />
        </mxCell>
        <mxCell id="EYdVK10S_5ueyXmm0dIz-26" value="" style="ellipse;whiteSpace=wrap;html=1;aspect=fixed;fontFamily=Tahoma;fontSize=15;fillColor=#f5f5f5;gradientColor=#b3b3b3;strokeColor=#666666;" vertex="1" parent="1">
          <mxGeometry x="750" y="270" width="70" height="70" as="geometry" />
        </mxCell>
        <mxCell id="EYdVK10S_5ueyXmm0dIz-27" value="" style="whiteSpace=wrap;html=1;shape=mxgraph.basic.oval_callout;fontFamily=Tahoma;fontSize=15;" vertex="1" parent="1">
          <mxGeometry x="15" y="285" width="60" height="40" as="geometry" />
        </mxCell>
        <mxCell id="EYdVK10S_5ueyXmm0dIz-29" value="" style="shape=actor;whiteSpace=wrap;html=1;fontFamily=Tahoma;fontSize=15;" vertex="1" parent="1">
          <mxGeometry x="767.5" y="285" width="35" height="40" as="geometry" />
        </mxCell>
        <mxCell id="EYdVK10S_5ueyXmm0dIz-30" value="" style="rounded=1;whiteSpace=wrap;html=1;fontFamily=Tahoma;fontSize=15;fillColor=#f5f5f5;gradientColor=#b3b3b3;strokeColor=#666666;" vertex="1" parent="1">
          <mxGeometry x="324" y="400" width="180" height="60" as="geometry" />
        </mxCell>
        <mxCell id="EYdVK10S_5ueyXmm0dIz-32" value="" style="rounded=1;whiteSpace=wrap;html=1;fontFamily=Tahoma;fontSize=15;fillColor=#f5f5f5;gradientColor=#b3b3b3;strokeColor=#666666;" vertex="1" parent="1">
          <mxGeometry x="480" y="480" width="235" height="60" as="geometry" />
        </mxCell>
        <mxCell id="EYdVK10S_5ueyXmm0dIz-33" value="" style="rounded=1;whiteSpace=wrap;html=1;fontFamily=Tahoma;fontSize=15;fillColor=#f5f5f5;gradientColor=#b3b3b3;strokeColor=#666666;" vertex="1" parent="1">
          <mxGeometry x="120" y="480" width="230" height="60" as="geometry" />
        </mxCell>
      </root>
    </mxGraphModel>
  </diagram>
</mxfile>
